<svg width="429" height="88" viewBox="0 0 429 88" fill="none" xmlns="http://www.w3.org/2000/svg">
<path d="M87.362 32.126C86.4473 32.126 85.6493 31.9207 84.968 31.51C84.296 31.09 83.7733 30.502 83.4 29.746C83.036 28.99 82.854 28.094 82.854 27.058C82.854 26.022 83.036 25.126 83.4 24.37C83.764 23.614 84.282 23.0307 84.954 22.62C85.6353 22.2093 86.438 22.004 87.362 22.004C88.2953 22.004 89.098 22.2093 89.77 22.62C90.4513 23.0307 90.974 23.614 91.338 24.37C91.7113 25.1167 91.898 26.008 91.898 27.044C91.898 28.08 91.7113 28.9807 91.338 29.746C90.9647 30.502 90.4373 31.09 89.756 31.51C89.084 31.9207 88.286 32.126 87.362 32.126ZM87.362 31.104C88.4167 31.104 89.2333 30.7493 89.812 30.04C90.3907 29.3307 90.68 28.3367 90.68 27.058C90.68 25.7793 90.3907 24.79 89.812 24.09C89.2333 23.3807 88.4167 23.026 87.362 23.026C86.326 23.026 85.5187 23.3807 84.94 24.09C84.3613 24.79 84.072 25.7793 84.072 27.058C84.072 28.3273 84.3613 29.3213 84.94 30.04C85.5187 30.7493 86.326 31.104 87.362 31.104ZM96.2044 32.126C94.5711 32.126 93.7544 31.2253 93.7544 29.424V25.196H94.8884V29.41C94.8884 30.0167 95.0098 30.4647 95.2524 30.754C95.5044 31.0433 95.8964 31.188 96.4284 31.188C97.0071 31.188 97.4784 30.9967 97.8424 30.614C98.2064 30.222 98.3884 29.704 98.3884 29.06V25.196H99.5224V32H98.4164V30.852C98.2018 31.2627 97.8984 31.58 97.5064 31.804C97.1238 32.0187 96.6898 32.126 96.2044 32.126ZM101.644 32V25.196H102.75V26.414C103.114 25.5927 103.861 25.14 104.99 25.056L105.396 25.014L105.48 25.994L104.766 26.078C104.122 26.134 103.632 26.3393 103.296 26.694C102.96 27.0393 102.792 27.5153 102.792 28.122V32H101.644ZM112.553 32.126C112.021 32.126 111.517 32.0513 111.041 31.902C110.565 31.7527 110.173 31.5427 109.865 31.272L110.229 30.474C110.565 30.7447 110.934 30.9453 111.335 31.076C111.746 31.1973 112.161 31.258 112.581 31.258C113.113 31.258 113.515 31.16 113.785 30.964C114.056 30.768 114.191 30.502 114.191 30.166C114.191 29.9047 114.103 29.6993 113.925 29.55C113.748 29.3913 113.468 29.27 113.085 29.186L111.811 28.906C110.654 28.654 110.075 28.0567 110.075 27.114C110.075 26.498 110.318 26.0033 110.803 25.63C111.298 25.2567 111.942 25.07 112.735 25.07C113.202 25.07 113.645 25.1447 114.065 25.294C114.495 25.434 114.849 25.644 115.129 25.924L114.751 26.722C114.481 26.47 114.163 26.2787 113.799 26.148C113.445 26.008 113.09 25.938 112.735 25.938C112.213 25.938 111.816 26.0407 111.545 26.246C111.275 26.4513 111.139 26.722 111.139 27.058C111.139 27.5807 111.485 27.9167 112.175 28.066L113.449 28.332C114.047 28.4627 114.499 28.6727 114.807 28.962C115.115 29.242 115.269 29.6247 115.269 30.11C115.269 30.7353 115.022 31.23 114.527 31.594C114.033 31.9487 113.375 32.126 112.553 32.126ZM116.998 34.52V25.196H118.104V26.414C118.309 25.994 118.612 25.6673 119.014 25.434C119.424 25.1913 119.9 25.07 120.442 25.07C121.048 25.07 121.576 25.2147 122.024 25.504C122.481 25.784 122.831 26.19 123.074 26.722C123.326 27.2447 123.452 27.87 123.452 28.598C123.452 29.3167 123.326 29.942 123.074 30.474C122.831 30.9967 122.481 31.4027 122.024 31.692C121.576 31.9813 121.048 32.126 120.442 32.126C119.919 32.126 119.452 32.0093 119.042 31.776C118.631 31.5427 118.328 31.2207 118.132 30.81V34.52H116.998ZM120.204 31.216C120.838 31.216 121.347 30.992 121.73 30.544C122.112 30.0867 122.304 29.438 122.304 28.598C122.304 27.7487 122.112 27.1 121.73 26.652C121.347 26.204 120.838 25.98 120.204 25.98C119.569 25.98 119.06 26.204 118.678 26.652C118.295 27.1 118.104 27.7487 118.104 28.598C118.104 29.438 118.295 30.0867 118.678 30.544C119.06 30.992 119.569 31.216 120.204 31.216ZM128.226 32.126C127.152 32.126 126.303 31.8133 125.678 31.188C125.052 30.5533 124.74 29.6947 124.74 28.612C124.74 27.912 124.88 27.296 125.16 26.764C125.44 26.2227 125.822 25.8073 126.308 25.518C126.802 25.2193 127.372 25.07 128.016 25.07C128.94 25.07 129.663 25.3687 130.186 25.966C130.708 26.554 130.97 27.366 130.97 28.402V28.836H125.846C125.883 29.6107 126.107 30.2033 126.518 30.614C126.928 31.0153 127.498 31.216 128.226 31.216C128.636 31.216 129.028 31.1553 129.402 31.034C129.775 30.9033 130.13 30.6933 130.466 30.404L130.858 31.202C130.55 31.4913 130.158 31.72 129.682 31.888C129.206 32.0467 128.72 32.126 128.226 32.126ZM128.044 25.91C127.4 25.91 126.891 26.1107 126.518 26.512C126.144 26.9133 125.925 27.4407 125.86 28.094H129.99C129.962 27.4033 129.78 26.8667 129.444 26.484C129.117 26.1013 128.65 25.91 128.044 25.91ZM135.495 32.126C134.814 32.126 134.226 31.9813 133.731 31.692C133.236 31.3933 132.854 30.978 132.583 30.446C132.322 29.9047 132.191 29.2747 132.191 28.556C132.191 27.4733 132.485 26.624 133.073 26.008C133.661 25.3827 134.468 25.07 135.495 25.07C135.915 25.07 136.33 25.1447 136.741 25.294C137.152 25.4433 137.492 25.6533 137.763 25.924L137.371 26.75C137.1 26.4887 136.802 26.2973 136.475 26.176C136.158 26.0547 135.854 25.994 135.565 25.994C134.856 25.994 134.31 26.218 133.927 26.666C133.544 27.1047 133.353 27.7393 133.353 28.57C133.353 29.382 133.544 30.026 133.927 30.502C134.31 30.9687 134.856 31.202 135.565 31.202C135.854 31.202 136.158 31.1413 136.475 31.02C136.802 30.8987 137.1 30.7027 137.371 30.432L137.763 31.258C137.492 31.5287 137.147 31.7433 136.727 31.902C136.316 32.0513 135.906 32.126 135.495 32.126ZM138.951 23.502V22.228H140.351V23.502H138.951ZM139.091 32V25.196H140.225V32H139.091ZM144.487 32.126C144.021 32.126 143.601 32.0373 143.227 31.86C142.863 31.6733 142.574 31.4213 142.359 31.104C142.145 30.7867 142.037 30.432 142.037 30.04C142.037 29.5453 142.163 29.1533 142.415 28.864C142.677 28.5747 143.101 28.3693 143.689 28.248C144.287 28.1173 145.099 28.052 146.125 28.052H146.573V27.618C146.573 27.0393 146.452 26.624 146.209 26.372C145.976 26.1107 145.598 25.98 145.075 25.98C144.665 25.98 144.268 26.0407 143.885 26.162C143.503 26.274 143.111 26.4607 142.709 26.722L142.317 25.896C142.672 25.644 143.101 25.4433 143.605 25.294C144.119 25.1447 144.609 25.07 145.075 25.07C145.953 25.07 146.601 25.2847 147.021 25.714C147.451 26.1433 147.665 26.8107 147.665 27.716V32H146.601V30.824C146.424 31.2253 146.149 31.5427 145.775 31.776C145.411 32.0093 144.982 32.126 144.487 32.126ZM144.669 31.272C145.229 31.272 145.687 31.0807 146.041 30.698C146.396 30.306 146.573 29.8113 146.573 29.214V28.794H146.139C145.383 28.794 144.786 28.8313 144.347 28.906C143.918 28.9713 143.615 29.0927 143.437 29.27C143.269 29.438 143.185 29.6713 143.185 29.97C143.185 30.3527 143.316 30.6653 143.577 30.908C143.848 31.1507 144.212 31.272 144.669 31.272ZM151.855 32.126C151.164 32.126 150.642 31.9253 150.287 31.524C149.942 31.1133 149.769 30.5207 149.769 29.746V22.13H150.903V29.662C150.903 30.6607 151.3 31.16 152.093 31.16C152.326 31.16 152.536 31.132 152.723 31.076L152.695 32.028C152.406 32.0933 152.126 32.126 151.855 32.126ZM153.772 23.502V22.228H155.172V23.502H153.772ZM153.912 32V25.196H155.046V32H153.912ZM159.462 32.126C158.93 32.126 158.426 32.0513 157.95 31.902C157.474 31.7527 157.082 31.5427 156.774 31.272L157.138 30.474C157.474 30.7447 157.842 30.9453 158.244 31.076C158.654 31.1973 159.07 31.258 159.49 31.258C160.022 31.258 160.423 31.16 160.694 30.964C160.964 30.768 161.1 30.502 161.1 30.166C161.1 29.9047 161.011 29.6993 160.834 29.55C160.656 29.3913 160.376 29.27 159.994 29.186L158.72 28.906C157.562 28.654 156.984 28.0567 156.984 27.114C156.984 26.498 157.226 26.0033 157.712 25.63C158.206 25.2567 158.85 25.07 159.644 25.07C160.11 25.07 160.554 25.1447 160.974 25.294C161.403 25.434 161.758 25.644 162.038 25.924L161.66 26.722C161.389 26.47 161.072 26.2787 160.708 26.148C160.353 26.008 159.998 25.938 159.644 25.938C159.121 25.938 158.724 26.0407 158.454 26.246C158.183 26.4513 158.048 26.722 158.048 27.058C158.048 27.5807 158.393 27.9167 159.084 28.066L160.358 28.332C160.955 28.4627 161.408 28.6727 161.716 28.962C162.024 29.242 162.178 29.6247 162.178 30.11C162.178 30.7353 161.93 31.23 161.436 31.594C160.941 31.9487 160.283 32.126 159.462 32.126ZM166.567 32.126C165.765 32.126 165.163 31.916 164.761 31.496C164.36 31.0667 164.159 30.4507 164.159 29.648V26.078H162.829V25.196H164.159V23.11H165.293V25.196H167.449V26.078H165.293V29.536C165.293 30.068 165.405 30.474 165.629 30.754C165.853 31.0247 166.217 31.16 166.721 31.16C166.871 31.16 167.02 31.1413 167.169 31.104C167.319 31.0667 167.454 31.0293 167.575 30.992L167.771 31.86C167.65 31.9253 167.473 31.986 167.239 32.042C167.006 32.098 166.782 32.126 166.567 32.126ZM174.134 32L171.6 25.196H172.79L174.708 30.67L176.696 25.196H177.662L179.622 30.684L181.568 25.196H182.702L180.154 32H179.076L177.158 26.722L175.226 32H174.134ZM183.959 23.502V22.228H185.359V23.502H183.959ZM184.099 32V25.196H185.233V32H184.099ZM189.439 32.126C188.748 32.126 188.226 31.9253 187.871 31.524C187.526 31.1133 187.353 30.5207 187.353 29.746V22.13H188.487V29.662C188.487 30.6607 188.884 31.16 189.677 31.16C189.91 31.16 190.12 31.132 190.307 31.076L190.279 32.028C189.99 32.0933 189.71 32.126 189.439 32.126ZM193.582 32.126C192.891 32.126 192.368 31.9253 192.014 31.524C191.668 31.1133 191.496 30.5207 191.496 29.746V22.13H192.63V29.662C192.63 30.6607 193.026 31.16 193.82 31.16C194.053 31.16 194.263 31.132 194.45 31.076L194.422 32.028C194.132 32.0933 193.852 32.126 193.582 32.126ZM201.376 32.126C200.909 32.126 200.489 32.0373 200.116 31.86C199.752 31.6733 199.463 31.4213 199.248 31.104C199.033 30.7867 198.926 30.432 198.926 30.04C198.926 29.5453 199.052 29.1533 199.304 28.864C199.565 28.5747 199.99 28.3693 200.578 28.248C201.175 28.1173 201.987 28.052 203.014 28.052H203.462V27.618C203.462 27.0393 203.341 26.624 203.098 26.372C202.865 26.1107 202.487 25.98 201.964 25.98C201.553 25.98 201.157 26.0407 200.774 26.162C200.391 26.274 199.999 26.4607 199.598 26.722L199.206 25.896C199.561 25.644 199.99 25.4433 200.494 25.294C201.007 25.1447 201.497 25.07 201.964 25.07C202.841 25.07 203.49 25.2847 203.91 25.714C204.339 26.1433 204.554 26.8107 204.554 27.716V32H203.49V30.824C203.313 31.2253 203.037 31.5427 202.664 31.776C202.3 32.0093 201.871 32.126 201.376 32.126ZM201.558 31.272C202.118 31.272 202.575 31.0807 202.93 30.698C203.285 30.306 203.462 29.8113 203.462 29.214V28.794H203.028C202.272 28.794 201.675 28.8313 201.236 28.906C200.807 28.9713 200.503 29.0927 200.326 29.27C200.158 29.438 200.074 29.6713 200.074 29.97C200.074 30.3527 200.205 30.6653 200.466 30.908C200.737 31.1507 201.101 31.272 201.558 31.272ZM206.658 32V25.196H207.764V26.414C208.128 25.5927 208.874 25.14 210.004 25.056L210.41 25.014L210.494 25.994L209.78 26.078C209.136 26.134 208.646 26.3393 208.31 26.694C207.974 27.0393 207.806 27.5153 207.806 28.122V32H206.658ZM211.675 32V25.196H212.781V26.414C213.145 25.5927 213.892 25.14 215.021 25.056L215.427 25.014L215.511 25.994L214.797 26.078C214.153 26.134 213.663 26.3393 213.327 26.694C212.991 27.0393 212.823 27.5153 212.823 28.122V32H211.675ZM216.553 23.502V22.228H217.953V23.502H216.553ZM216.693 32V25.196H217.827V32H216.693ZM221.949 32L219.023 25.196H220.255L222.509 30.712L224.791 25.196H225.953L223.013 32H221.949ZM230.122 32.126C229.049 32.126 228.2 31.8133 227.574 31.188C226.949 30.5533 226.636 29.6947 226.636 28.612C226.636 27.912 226.776 27.296 227.056 26.764C227.336 26.2227 227.719 25.8073 228.204 25.518C228.699 25.2193 229.268 25.07 229.912 25.07C230.836 25.07 231.56 25.3687 232.082 25.966C232.605 26.554 232.866 27.366 232.866 28.402V28.836H227.742C227.78 29.6107 228.004 30.2033 228.414 30.614C228.825 31.0153 229.394 31.216 230.122 31.216C230.533 31.216 230.925 31.1553 231.298 31.034C231.672 30.9033 232.026 30.6933 232.362 30.404L232.754 31.202C232.446 31.4913 232.054 31.72 231.578 31.888C231.102 32.0467 230.617 32.126 230.122 32.126ZM229.94 25.91C229.296 25.91 228.788 26.1107 228.414 26.512C228.041 26.9133 227.822 27.4407 227.756 28.094H231.886C231.858 27.4033 231.676 26.8667 231.34 26.484C231.014 26.1013 230.547 25.91 229.94 25.91ZM238.467 32V26.078H237.123V25.196H238.467V24.958C238.467 24.0527 238.691 23.3667 239.139 22.9C239.596 22.4333 240.296 22.172 241.239 22.116L241.785 22.088L241.883 22.956L241.239 22.998C240.66 23.0447 240.24 23.2173 239.979 23.516C239.727 23.8147 239.601 24.2487 239.601 24.818V25.196H241.561V26.078H239.601V32H238.467ZM245.402 32.126C244.739 32.126 244.165 31.9813 243.68 31.692C243.194 31.4027 242.816 30.9967 242.546 30.474C242.284 29.942 242.154 29.3167 242.154 28.598C242.154 27.8793 242.284 27.2587 242.546 26.736C242.816 26.204 243.194 25.7933 243.68 25.504C244.165 25.2147 244.739 25.07 245.402 25.07C246.055 25.07 246.624 25.2147 247.11 25.504C247.604 25.7933 247.982 26.204 248.244 26.736C248.514 27.2587 248.65 27.8793 248.65 28.598C248.65 29.3167 248.514 29.942 248.244 30.474C247.982 30.9967 247.604 31.4027 247.11 31.692C246.624 31.9813 246.055 32.126 245.402 32.126ZM245.402 31.216C246.036 31.216 246.545 30.992 246.928 30.544C247.31 30.0867 247.502 29.438 247.502 28.598C247.502 27.7487 247.31 27.1 246.928 26.652C246.545 26.204 246.036 25.98 245.402 25.98C244.758 25.98 244.244 26.204 243.862 26.652C243.488 27.1 243.302 27.7487 243.302 28.598C243.302 29.438 243.488 30.0867 243.862 30.544C244.244 30.992 244.758 31.216 245.402 31.216ZM250.353 32V25.196H251.459V26.414C251.823 25.5927 252.57 25.14 253.699 25.056L254.105 25.014L254.189 25.994L253.475 26.078C252.831 26.134 252.341 26.3393 252.005 26.694C251.669 27.0393 251.501 27.5153 251.501 28.122V32H250.353ZM258.994 32V25.196H260.1V26.344C260.306 25.9333 260.59 25.6207 260.954 25.406C261.318 25.182 261.743 25.07 262.228 25.07C263.292 25.07 263.974 25.532 264.272 26.456C264.478 26.0267 264.781 25.6907 265.182 25.448C265.584 25.196 266.046 25.07 266.568 25.07C268.08 25.07 268.836 25.966 268.836 27.758V32H267.702V27.814C267.702 27.1887 267.59 26.7313 267.366 26.442C267.152 26.1433 266.792 25.994 266.288 25.994C265.738 25.994 265.299 26.19 264.972 26.582C264.646 26.974 264.482 27.4967 264.482 28.15V32H263.348V27.814C263.348 27.1887 263.236 26.7313 263.012 26.442C262.798 26.1433 262.438 25.994 261.934 25.994C261.374 25.994 260.931 26.19 260.604 26.582C260.287 26.974 260.128 27.4967 260.128 28.15V32H258.994ZM274.023 32.126C272.949 32.126 272.1 31.8133 271.475 31.188C270.849 30.5533 270.537 29.6947 270.537 28.612C270.537 27.912 270.677 27.296 270.957 26.764C271.237 26.2227 271.619 25.8073 272.105 25.518C272.599 25.2193 273.169 25.07 273.813 25.07C274.737 25.07 275.46 25.3687 275.983 25.966C276.505 26.554 276.767 27.366 276.767 28.402V28.836H271.643C271.68 29.6107 271.904 30.2033 272.315 30.614C272.725 31.0153 273.295 31.216 274.023 31.216C274.433 31.216 274.825 31.1553 275.199 31.034C275.572 30.9033 275.927 30.6933 276.263 30.404L276.655 31.202C276.347 31.4913 275.955 31.72 275.479 31.888C275.003 32.0467 274.517 32.126 274.023 32.126ZM273.841 25.91C273.197 25.91 272.688 26.1107 272.315 26.512C271.941 26.9133 271.722 27.4407 271.657 28.094H275.787C275.759 27.4033 275.577 26.8667 275.241 26.484C274.914 26.1013 274.447 25.91 273.841 25.91ZM280.55 32.126C280.083 32.126 279.663 32.0373 279.29 31.86C278.926 31.6733 278.636 31.4213 278.422 31.104C278.207 30.7867 278.1 30.432 278.1 30.04C278.1 29.5453 278.226 29.1533 278.478 28.864C278.739 28.5747 279.164 28.3693 279.752 28.248C280.349 28.1173 281.161 28.052 282.188 28.052H282.636V27.618C282.636 27.0393 282.514 26.624 282.272 26.372C282.038 26.1107 281.66 25.98 281.138 25.98C280.727 25.98 280.33 26.0407 279.948 26.162C279.565 26.274 279.173 26.4607 278.772 26.722L278.38 25.896C278.734 25.644 279.164 25.4433 279.668 25.294C280.181 25.1447 280.671 25.07 281.138 25.07C282.015 25.07 282.664 25.2847 283.084 25.714C283.513 26.1433 283.728 26.8107 283.728 27.716V32H282.664V30.824C282.486 31.2253 282.211 31.5427 281.838 31.776C281.474 32.0093 281.044 32.126 280.55 32.126ZM280.732 31.272C281.292 31.272 281.749 31.0807 282.104 30.698C282.458 30.306 282.636 29.8113 282.636 29.214V28.794H282.202C281.446 28.794 280.848 28.8313 280.41 28.906C279.98 28.9713 279.677 29.0927 279.5 29.27C279.332 29.438 279.248 29.6713 279.248 29.97C279.248 30.3527 279.378 30.6653 279.64 30.908C279.91 31.1507 280.274 31.272 280.732 31.272ZM288.128 32.126C287.596 32.126 287.092 32.0513 286.616 31.902C286.14 31.7527 285.748 31.5427 285.44 31.272L285.804 30.474C286.14 30.7447 286.508 30.9453 286.91 31.076C287.32 31.1973 287.736 31.258 288.156 31.258C288.688 31.258 289.089 31.16 289.36 30.964C289.63 30.768 289.766 30.502 289.766 30.166C289.766 29.9047 289.677 29.6993 289.5 29.55C289.322 29.3913 289.042 29.27 288.66 29.186L287.386 28.906C286.228 28.654 285.65 28.0567 285.65 27.114C285.65 26.498 285.892 26.0033 286.378 25.63C286.872 25.2567 287.516 25.07 288.31 25.07C288.776 25.07 289.22 25.1447 289.64 25.294C290.069 25.434 290.424 25.644 290.704 25.924L290.326 26.722C290.055 26.47 289.738 26.2787 289.374 26.148C289.019 26.008 288.664 25.938 288.31 25.938C287.787 25.938 287.39 26.0407 287.12 26.246C286.849 26.4513 286.714 26.722 286.714 27.058C286.714 27.5807 287.059 27.9167 287.75 28.066L289.024 28.332C289.621 28.4627 290.074 28.6727 290.382 28.962C290.69 29.242 290.844 29.6247 290.844 30.11C290.844 30.7353 290.596 31.23 290.102 31.594C289.607 31.9487 288.949 32.126 288.128 32.126ZM294.98 32.126C293.346 32.126 292.53 31.2253 292.53 29.424V25.196H293.664V29.41C293.664 30.0167 293.785 30.4647 294.028 30.754C294.28 31.0433 294.672 31.188 295.204 31.188C295.782 31.188 296.254 30.9967 296.618 30.614C296.982 30.222 297.164 29.704 297.164 29.06V25.196H298.298V32H297.192V30.852C296.977 31.2627 296.674 31.58 296.282 31.804C295.899 32.0187 295.465 32.126 294.98 32.126ZM300.419 32V25.196H301.525V26.414C301.889 25.5927 302.636 25.14 303.765 25.056L304.171 25.014L304.255 25.994L303.541 26.078C302.897 26.134 302.407 26.3393 302.071 26.694C301.735 27.0393 301.567 27.5153 301.567 28.122V32H300.419ZM308.421 32.126C307.348 32.126 306.498 31.8133 305.873 31.188C305.248 30.5533 304.935 29.6947 304.935 28.612C304.935 27.912 305.075 27.296 305.355 26.764C305.635 26.2227 306.018 25.8073 306.503 25.518C306.998 25.2193 307.567 25.07 308.211 25.07C309.135 25.07 309.858 25.3687 310.381 25.966C310.904 26.554 311.165 27.366 311.165 28.402V28.836H306.041C306.078 29.6107 306.302 30.2033 306.713 30.614C307.124 31.0153 307.693 31.216 308.421 31.216C308.832 31.216 309.224 31.1553 309.597 31.034C309.97 30.9033 310.325 30.6933 310.661 30.404L311.053 31.202C310.745 31.4913 310.353 31.72 309.877 31.888C309.401 32.0467 308.916 32.126 308.421 32.126ZM308.239 25.91C307.595 25.91 307.086 26.1107 306.713 26.512C306.34 26.9133 306.12 27.4407 306.055 28.094H310.185C310.157 27.4033 309.975 26.8667 309.639 26.484C309.312 26.1013 308.846 25.91 308.239 25.91ZM312.834 32V25.196H313.94V26.344C314.146 25.9333 314.43 25.6207 314.794 25.406C315.158 25.182 315.583 25.07 316.068 25.07C317.132 25.07 317.814 25.532 318.112 26.456C318.318 26.0267 318.621 25.6907 319.022 25.448C319.424 25.196 319.886 25.07 320.408 25.07C321.92 25.07 322.676 25.966 322.676 27.758V32H321.542V27.814C321.542 27.1887 321.43 26.7313 321.206 26.442C320.992 26.1433 320.632 25.994 320.128 25.994C319.578 25.994 319.139 26.19 318.812 26.582C318.486 26.974 318.322 27.4967 318.322 28.15V32H317.188V27.814C317.188 27.1887 317.076 26.7313 316.852 26.442C316.638 26.1433 316.278 25.994 315.774 25.994C315.214 25.994 314.771 26.19 314.444 26.582C314.127 26.974 313.968 27.4967 313.968 28.15V32H312.834ZM327.862 32.126C326.789 32.126 325.94 31.8133 325.314 31.188C324.689 30.5533 324.376 29.6947 324.376 28.612C324.376 27.912 324.516 27.296 324.796 26.764C325.076 26.2227 325.459 25.8073 325.944 25.518C326.439 25.2193 327.008 25.07 327.652 25.07C328.576 25.07 329.3 25.3687 329.822 25.966C330.345 26.554 330.606 27.366 330.606 28.402V28.836H325.482C325.52 29.6107 325.744 30.2033 326.154 30.614C326.565 31.0153 327.134 31.216 327.862 31.216C328.273 31.216 328.665 31.1553 329.038 31.034C329.412 30.9033 329.766 30.6933 330.102 30.404L330.494 31.202C330.186 31.4913 329.794 31.72 329.318 31.888C328.842 32.0467 328.357 32.126 327.862 32.126ZM327.68 25.91C327.036 25.91 326.528 26.1107 326.154 26.512C325.781 26.9133 325.562 27.4407 325.496 28.094H329.626C329.598 27.4033 329.416 26.8667 329.08 26.484C328.754 26.1013 328.287 25.91 327.68 25.91ZM332.248 32V25.196H333.354V26.358C333.578 25.9287 333.895 25.6067 334.306 25.392C334.716 25.1773 335.178 25.07 335.692 25.07C337.306 25.07 338.114 25.966 338.114 27.758V32H336.98V27.828C336.98 27.1933 336.854 26.7313 336.602 26.442C336.359 26.1433 335.967 25.994 335.426 25.994C334.8 25.994 334.301 26.19 333.928 26.582C333.564 26.9647 333.382 27.478 333.382 28.122V32H332.248ZM342.935 32.126C342.132 32.126 341.53 31.916 341.129 31.496C340.727 31.0667 340.527 30.4507 340.527 29.648V26.078H339.197V25.196H340.527V23.11H341.661V25.196H343.817V26.078H341.661V29.536C341.661 30.068 341.773 30.474 341.997 30.754C342.221 31.0247 342.585 31.16 343.089 31.16C343.238 31.16 343.387 31.1413 343.537 31.104C343.686 31.0667 343.821 31.0293 343.943 30.992L344.139 31.86C344.017 31.9253 343.84 31.986 343.607 32.042C343.373 32.098 343.149 32.126 342.935 32.126ZM347.395 32.126C346.863 32.126 346.359 32.0513 345.883 31.902C345.407 31.7527 345.015 31.5427 344.707 31.272L345.071 30.474C345.407 30.7447 345.776 30.9453 346.177 31.076C346.588 31.1973 347.003 31.258 347.423 31.258C347.955 31.258 348.356 31.16 348.627 30.964C348.898 30.768 349.033 30.502 349.033 30.166C349.033 29.9047 348.944 29.6993 348.767 29.55C348.59 29.3913 348.31 29.27 347.927 29.186L346.653 28.906C345.496 28.654 344.917 28.0567 344.917 27.114C344.917 26.498 345.16 26.0033 345.645 25.63C346.14 25.2567 346.784 25.07 347.577 25.07C348.044 25.07 348.487 25.1447 348.907 25.294C349.336 25.434 349.691 25.644 349.971 25.924L349.593 26.722C349.322 26.47 349.005 26.2787 348.641 26.148C348.286 26.008 347.932 25.938 347.577 25.938C347.054 25.938 346.658 26.0407 346.387 26.246C346.116 26.4513 345.981 26.722 345.981 27.058C345.981 27.5807 346.326 27.9167 347.017 28.066L348.291 28.332C348.888 28.4627 349.341 28.6727 349.649 28.962C349.957 29.242 350.111 29.6247 350.111 30.11C350.111 30.7353 349.864 31.23 349.369 31.594C348.874 31.9487 348.216 32.126 347.395 32.126ZM355.435 34.52V25.196H356.541V26.414C356.746 25.994 357.05 25.6673 357.451 25.434C357.862 25.1913 358.338 25.07 358.879 25.07C359.486 25.07 360.013 25.2147 360.461 25.504C360.918 25.784 361.268 26.19 361.511 26.722C361.763 27.2447 361.889 27.87 361.889 28.598C361.889 29.3167 361.763 29.942 361.511 30.474C361.268 30.9967 360.918 31.4027 360.461 31.692C360.013 31.9813 359.486 32.126 358.879 32.126C358.356 32.126 357.89 32.0093 357.479 31.776C357.068 31.5427 356.765 31.2207 356.569 30.81V34.52H355.435ZM358.641 31.216C359.276 31.216 359.784 30.992 360.167 30.544C360.55 30.0867 360.741 29.438 360.741 28.598C360.741 27.7487 360.55 27.1 360.167 26.652C359.784 26.204 359.276 25.98 358.641 25.98C358.006 25.98 357.498 26.204 357.115 26.652C356.732 27.1 356.541 27.7487 356.541 28.598C356.541 29.438 356.732 30.0867 357.115 30.544C357.498 30.992 358.006 31.216 358.641 31.216ZM366.663 32.126C365.59 32.126 364.741 31.8133 364.115 31.188C363.49 30.5533 363.177 29.6947 363.177 28.612C363.177 27.912 363.317 27.296 363.597 26.764C363.877 26.2227 364.26 25.8073 364.745 25.518C365.24 25.2193 365.809 25.07 366.453 25.07C367.377 25.07 368.101 25.3687 368.623 25.966C369.146 26.554 369.407 27.366 369.407 28.402V28.836H364.283C364.321 29.6107 364.545 30.2033 364.955 30.614C365.366 31.0153 365.935 31.216 366.663 31.216C367.074 31.216 367.466 31.1553 367.839 31.034C368.213 30.9033 368.567 30.6933 368.903 30.404L369.295 31.202C368.987 31.4913 368.595 31.72 368.119 31.888C367.643 32.0467 367.158 32.126 366.663 32.126ZM366.481 25.91C365.837 25.91 365.329 26.1107 364.955 26.512C364.582 26.9133 364.363 27.4407 364.297 28.094H368.427C368.399 27.4033 368.217 26.8667 367.881 26.484C367.555 26.1013 367.088 25.91 366.481 25.91ZM371.048 32V25.196H372.154V26.414C372.518 25.5927 373.265 25.14 374.394 25.056L374.8 25.014L374.884 25.994L374.17 26.078C373.526 26.134 373.036 26.3393 372.7 26.694C372.364 27.0393 372.196 27.5153 372.196 28.122V32H371.048ZM382.252 32.126C381.645 32.126 381.113 31.9813 380.656 31.692C380.208 31.4027 379.858 30.9967 379.606 30.474C379.363 29.942 379.242 29.3167 379.242 28.598C379.242 27.87 379.363 27.2447 379.606 26.722C379.858 26.19 380.208 25.784 380.656 25.504C381.113 25.2147 381.645 25.07 382.252 25.07C382.784 25.07 383.25 25.1867 383.652 25.42C384.062 25.6533 384.366 25.9753 384.562 26.386V22.13H385.696V32H384.59V30.754C384.394 31.1833 384.09 31.5193 383.68 31.762C383.269 32.0047 382.793 32.126 382.252 32.126ZM382.49 31.216C383.124 31.216 383.633 30.992 384.016 30.544C384.398 30.0867 384.59 29.438 384.59 28.598C384.59 27.7487 384.398 27.1 384.016 26.652C383.633 26.204 383.124 25.98 382.49 25.98C381.846 25.98 381.332 26.204 380.95 26.652C380.576 27.1 380.39 27.7487 380.39 28.598C380.39 29.438 380.576 30.0867 380.95 30.544C381.332 30.992 381.846 31.216 382.49 31.216ZM389.966 32.126C389.499 32.126 389.079 32.0373 388.706 31.86C388.342 31.6733 388.052 31.4213 387.838 31.104C387.623 30.7867 387.516 30.432 387.516 30.04C387.516 29.5453 387.642 29.1533 387.894 28.864C388.155 28.5747 388.58 28.3693 389.168 28.248C389.765 28.1173 390.577 28.052 391.604 28.052H392.052V27.618C392.052 27.0393 391.93 26.624 391.688 26.372C391.454 26.1107 391.076 25.98 390.554 25.98C390.143 25.98 389.746 26.0407 389.364 26.162C388.981 26.274 388.589 26.4607 388.188 26.722L387.796 25.896C388.15 25.644 388.58 25.4433 389.084 25.294C389.597 25.1447 390.087 25.07 390.554 25.07C391.431 25.07 392.08 25.2847 392.5 25.714C392.929 26.1433 393.144 26.8107 393.144 27.716V32H392.08V30.824C391.902 31.2253 391.627 31.5427 391.254 31.776C390.89 32.0093 390.46 32.126 389.966 32.126ZM390.148 31.272C390.708 31.272 391.165 31.0807 391.52 30.698C391.874 30.306 392.052 29.8113 392.052 29.214V28.794H391.618C390.862 28.794 390.264 28.8313 389.826 28.906C389.396 28.9713 389.093 29.0927 388.916 29.27C388.748 29.438 388.664 29.6713 388.664 29.97C388.664 30.3527 388.794 30.6653 389.056 30.908C389.326 31.1507 389.69 31.272 390.148 31.272ZM395.963 34.52L397.125 31.888L394.255 25.196H395.487L397.741 30.712L400.009 25.196H401.199L397.153 34.52H395.963ZM85.948 51.126C85.2667 51.126 84.6787 50.9813 84.184 50.692C83.6893 50.3933 83.3067 49.978 83.036 49.446C82.7747 48.9047 82.644 48.2747 82.644 47.556C82.644 46.4733 82.938 45.624 83.526 45.008C84.114 44.3827 84.9213 44.07 85.948 44.07C86.368 44.07 86.7833 44.1447 87.194 44.294C87.6047 44.4433 87.9453 44.6533 88.216 44.924L87.824 45.75C87.5533 45.4887 87.2547 45.2973 86.928 45.176C86.6107 45.0547 86.3073 44.994 86.018 44.994C85.3087 44.994 84.7627 45.218 84.38 45.666C83.9973 46.1047 83.806 46.7393 83.806 47.57C83.806 48.382 83.9973 49.026 84.38 49.502C84.7627 49.9687 85.3087 50.202 86.018 50.202C86.3073 50.202 86.6107 50.1413 86.928 50.02C87.2547 49.8987 87.5533 49.7027 87.824 49.432L88.216 50.258C87.9453 50.5287 87.6 50.7433 87.18 50.902C86.7693 51.0513 86.3587 51.126 85.948 51.126ZM92.2358 51.126C91.5731 51.126 90.9991 50.9813 90.5138 50.692C90.0284 50.4027 89.6504 49.9967 89.3798 49.474C89.1184 48.942 88.9878 48.3167 88.9878 47.598C88.9878 46.8793 89.1184 46.2587 89.3798 45.736C89.6504 45.204 90.0284 44.7933 90.5138 44.504C90.9991 44.2147 91.5731 44.07 92.2358 44.07C92.8891 44.07 93.4584 44.2147 93.9438 44.504C94.4384 44.7933 94.8164 45.204 95.0778 45.736C95.3484 46.2587 95.4838 46.8793 95.4838 47.598C95.4838 48.3167 95.3484 48.942 95.0778 49.474C94.8164 49.9967 94.4384 50.4027 93.9438 50.692C93.4584 50.9813 92.8891 51.126 92.2358 51.126ZM92.2358 50.216C92.8704 50.216 93.3791 49.992 93.7618 49.544C94.1444 49.0867 94.3358 48.438 94.3358 47.598C94.3358 46.7487 94.1444 46.1 93.7618 45.652C93.3791 45.204 92.8704 44.98 92.2358 44.98C91.5918 44.98 91.0784 45.204 90.6958 45.652C90.3224 46.1 90.1358 46.7487 90.1358 47.598C90.1358 48.438 90.3224 49.0867 90.6958 49.544C91.0784 49.992 91.5918 50.216 92.2358 50.216ZM97.187 51V44.196H98.293V45.358C98.517 44.9287 98.8344 44.6067 99.245 44.392C99.6557 44.1773 100.118 44.07 100.631 44.07C102.246 44.07 103.053 44.966 103.053 46.758V51H101.919V46.828C101.919 46.1933 101.793 45.7313 101.541 45.442C101.298 45.1433 100.906 44.994 100.365 44.994C99.7397 44.994 99.2404 45.19 98.867 45.582C98.503 45.9647 98.321 46.478 98.321 47.122V51H97.187ZM107.874 51.126C107.071 51.126 106.469 50.916 106.068 50.496C105.667 50.0667 105.466 49.4507 105.466 48.648V45.078H104.136V44.196H105.466V42.11H106.6V44.196H108.756V45.078H106.6V48.536C106.6 49.068 106.712 49.474 106.936 49.754C107.16 50.0247 107.524 50.16 108.028 50.16C108.177 50.16 108.327 50.1413 108.476 50.104C108.625 50.0667 108.761 50.0293 108.882 49.992L109.078 50.86C108.957 50.9253 108.779 50.986 108.546 51.042C108.313 51.098 108.089 51.126 107.874 51.126ZM112.181 51.126C111.714 51.126 111.294 51.0373 110.921 50.86C110.557 50.6733 110.267 50.4213 110.053 50.104C109.838 49.7867 109.731 49.432 109.731 49.04C109.731 48.5453 109.857 48.1533 110.109 47.864C110.37 47.5747 110.795 47.3693 111.383 47.248C111.98 47.1173 112.792 47.052 113.819 47.052H114.267V46.618C114.267 46.0393 114.145 45.624 113.903 45.372C113.669 45.1107 113.291 44.98 112.769 44.98C112.358 44.98 111.961 45.0407 111.579 45.162C111.196 45.274 110.804 45.4607 110.403 45.722L110.011 44.896C110.365 44.644 110.795 44.4433 111.299 44.294C111.812 44.1447 112.302 44.07 112.769 44.07C113.646 44.07 114.295 44.2847 114.715 44.714C115.144 45.1433 115.359 45.8107 115.359 46.716V51H114.295V49.824C114.117 50.2253 113.842 50.5427 113.469 50.776C113.105 51.0093 112.675 51.126 112.181 51.126ZM112.363 50.272C112.923 50.272 113.38 50.0807 113.735 49.698C114.089 49.306 114.267 48.8113 114.267 48.214V47.794H113.833C113.077 47.794 112.479 47.8313 112.041 47.906C111.611 47.9713 111.308 48.0927 111.131 48.27C110.963 48.438 110.879 48.6713 110.879 48.97C110.879 49.3527 111.009 49.6653 111.271 49.908C111.541 50.1507 111.905 50.272 112.363 50.272ZM120.346 51.126C119.665 51.126 119.077 50.9813 118.582 50.692C118.088 50.3933 117.705 49.978 117.434 49.446C117.173 48.9047 117.042 48.2747 117.042 47.556C117.042 46.4733 117.336 45.624 117.924 45.008C118.512 44.3827 119.32 44.07 120.346 44.07C120.766 44.07 121.182 44.1447 121.592 44.294C122.003 44.4433 122.344 44.6533 122.614 44.924L122.222 45.75C121.952 45.4887 121.653 45.2973 121.326 45.176C121.009 45.0547 120.706 44.994 120.416 44.994C119.707 44.994 119.161 45.218 118.778 45.666C118.396 46.1047 118.204 46.7393 118.204 47.57C118.204 48.382 118.396 49.026 118.778 49.502C119.161 49.9687 119.707 50.202 120.416 50.202C120.706 50.202 121.009 50.1413 121.326 50.02C121.653 49.8987 121.952 49.7027 122.222 49.432L122.614 50.258C122.344 50.5287 121.998 50.7433 121.578 50.902C121.168 51.0513 120.757 51.126 120.346 51.126ZM126.673 51.126C125.87 51.126 125.268 50.916 124.867 50.496C124.466 50.0667 124.265 49.4507 124.265 48.648V45.078H122.935V44.196H124.265V42.11H125.399V44.196H127.555V45.078H125.399V48.536C125.399 49.068 125.511 49.474 125.735 49.754C125.959 50.0247 126.323 50.16 126.827 50.16C126.976 50.16 127.126 50.1413 127.275 50.104C127.424 50.0667 127.56 50.0293 127.681 49.992L127.877 50.86C127.756 50.9253 127.578 50.986 127.345 51.042C127.112 51.098 126.888 51.126 126.673 51.126ZM129.435 52.596L128.903 52.19C129.108 51.9753 129.253 51.77 129.337 51.574C129.43 51.3873 129.491 51.196 129.519 51H128.847V49.572H130.275V50.58C130.275 50.9627 130.214 51.3173 130.093 51.644C129.972 51.9707 129.752 52.288 129.435 52.596ZM138.638 51.126C137.975 51.126 137.401 50.9813 136.916 50.692C136.431 50.4027 136.053 49.9967 135.782 49.474C135.521 48.942 135.39 48.3167 135.39 47.598C135.39 46.8793 135.521 46.2587 135.782 45.736C136.053 45.204 136.431 44.7933 136.916 44.504C137.401 44.2147 137.975 44.07 138.638 44.07C139.291 44.07 139.861 44.2147 140.346 44.504C140.841 44.7933 141.219 45.204 141.48 45.736C141.751 46.2587 141.886 46.8793 141.886 47.598C141.886 48.3167 141.751 48.942 141.48 49.474C141.219 49.9967 140.841 50.4027 140.346 50.692C139.861 50.9813 139.291 51.126 138.638 51.126ZM138.638 50.216C139.273 50.216 139.781 49.992 140.164 49.544C140.547 49.0867 140.738 48.438 140.738 47.598C140.738 46.7487 140.547 46.1 140.164 45.652C139.781 45.204 139.273 44.98 138.638 44.98C137.994 44.98 137.481 45.204 137.098 45.652C136.725 46.1 136.538 46.7487 136.538 47.598C136.538 48.438 136.725 49.0867 137.098 49.544C137.481 49.992 137.994 50.216 138.638 50.216ZM143.589 51V44.196H144.695V45.414C145.059 44.5927 145.806 44.14 146.935 44.056L147.341 44.014L147.425 44.994L146.711 45.078C146.067 45.134 145.577 45.3393 145.241 45.694C144.905 46.0393 144.737 46.5153 144.737 47.122V51H143.589ZM154.345 51.126C153.878 51.126 153.458 51.0373 153.085 50.86C152.721 50.6733 152.431 50.4213 152.217 50.104C152.002 49.7867 151.895 49.432 151.895 49.04C151.895 48.5453 152.021 48.1533 152.273 47.864C152.534 47.5747 152.959 47.3693 153.547 47.248C154.144 47.1173 154.956 47.052 155.983 47.052H156.431V46.618C156.431 46.0393 156.309 45.624 156.067 45.372C155.833 45.1107 155.455 44.98 154.933 44.98C154.522 44.98 154.125 45.0407 153.743 45.162C153.36 45.274 152.968 45.4607 152.567 45.722L152.175 44.896C152.529 44.644 152.959 44.4433 153.463 44.294C153.976 44.1447 154.466 44.07 154.933 44.07C155.81 44.07 156.459 44.2847 156.879 44.714C157.308 45.1433 157.523 45.8107 157.523 46.716V51H156.459V49.824C156.281 50.2253 156.006 50.5427 155.633 50.776C155.269 51.0093 154.839 51.126 154.345 51.126ZM154.527 50.272C155.087 50.272 155.544 50.0807 155.899 49.698C156.253 49.306 156.431 48.8113 156.431 48.214V47.794H155.997C155.241 47.794 154.643 47.8313 154.205 47.906C153.775 47.9713 153.472 48.0927 153.295 48.27C153.127 48.438 153.043 48.6713 153.043 48.97C153.043 49.3527 153.173 49.6653 153.435 49.908C153.705 50.1507 154.069 50.272 154.527 50.272ZM159.627 53.52V44.196H160.733V45.414C160.938 44.994 161.241 44.6673 161.643 44.434C162.053 44.1913 162.529 44.07 163.071 44.07C163.677 44.07 164.205 44.2147 164.653 44.504C165.11 44.784 165.46 45.19 165.703 45.722C165.955 46.2447 166.081 46.87 166.081 47.598C166.081 48.3167 165.955 48.942 165.703 49.474C165.46 49.9967 165.11 50.4027 164.653 50.692C164.205 50.9813 163.677 51.126 163.071 51.126C162.548 51.126 162.081 51.0093 161.671 50.776C161.26 50.5427 160.957 50.2207 160.761 49.81V53.52H159.627ZM162.833 50.216C163.467 50.216 163.976 49.992 164.359 49.544C164.741 49.0867 164.933 48.438 164.933 47.598C164.933 46.7487 164.741 46.1 164.359 45.652C163.976 45.204 163.467 44.98 162.833 44.98C162.198 44.98 161.689 45.204 161.307 45.652C160.924 46.1 160.733 46.7487 160.733 47.598C160.733 48.438 160.924 49.0867 161.307 49.544C161.689 49.992 162.198 50.216 162.833 50.216ZM167.789 53.52V44.196H168.895V45.414C169.1 44.994 169.403 44.6673 169.805 44.434C170.215 44.1913 170.691 44.07 171.233 44.07C171.839 44.07 172.367 44.2147 172.815 44.504C173.272 44.784 173.622 45.19 173.865 45.722C174.117 46.2447 174.243 46.87 174.243 47.598C174.243 48.3167 174.117 48.942 173.865 49.474C173.622 49.9967 173.272 50.4027 172.815 50.692C172.367 50.9813 171.839 51.126 171.233 51.126C170.71 51.126 170.243 51.0093 169.833 50.776C169.422 50.5427 169.119 50.2207 168.923 49.81V53.52H167.789ZM170.995 50.216C171.629 50.216 172.138 49.992 172.521 49.544C172.903 49.0867 173.095 48.438 173.095 47.598C173.095 46.7487 172.903 46.1 172.521 45.652C172.138 45.204 171.629 44.98 170.995 44.98C170.36 44.98 169.851 45.204 169.469 45.652C169.086 46.1 168.895 46.7487 168.895 47.598C168.895 48.438 169.086 49.0867 169.469 49.544C169.851 49.992 170.36 50.216 170.995 50.216ZM178.779 51.126C178.116 51.126 177.542 50.9813 177.057 50.692C176.571 50.4027 176.193 49.9967 175.923 49.474C175.661 48.942 175.531 48.3167 175.531 47.598C175.531 46.8793 175.661 46.2587 175.923 45.736C176.193 45.204 176.571 44.7933 177.057 44.504C177.542 44.2147 178.116 44.07 178.779 44.07C179.432 44.07 180.001 44.2147 180.487 44.504C180.981 44.7933 181.359 45.204 181.621 45.736C181.891 46.2587 182.027 46.8793 182.027 47.598C182.027 48.3167 181.891 48.942 181.621 49.474C181.359 49.9967 180.981 50.4027 180.487 50.692C180.001 50.9813 179.432 51.126 178.779 51.126ZM178.779 50.216C179.413 50.216 179.922 49.992 180.305 49.544C180.687 49.0867 180.879 48.438 180.879 47.598C180.879 46.7487 180.687 46.1 180.305 45.652C179.922 45.204 179.413 44.98 178.779 44.98C178.135 44.98 177.621 45.204 177.239 45.652C176.865 46.1 176.679 46.7487 176.679 47.598C176.679 48.438 176.865 49.0867 177.239 49.544C177.621 49.992 178.135 50.216 178.779 50.216ZM183.59 42.502V41.228H184.99V42.502H183.59ZM183.73 51V44.196H184.864V51H183.73ZM186.984 51V44.196H188.09V45.358C188.314 44.9287 188.631 44.6067 189.042 44.392C189.453 44.1773 189.915 44.07 190.428 44.07C192.043 44.07 192.85 44.966 192.85 46.758V51H191.716V46.828C191.716 46.1933 191.59 45.7313 191.338 45.442C191.095 45.1433 190.703 44.994 190.162 44.994C189.537 44.994 189.037 45.19 188.664 45.582C188.3 45.9647 188.118 46.478 188.118 47.122V51H186.984ZM197.671 51.126C196.868 51.126 196.266 50.916 195.865 50.496C195.464 50.0667 195.263 49.4507 195.263 48.648V45.078H193.933V44.196H195.263V42.11H196.397V44.196H198.553V45.078H196.397V48.536C196.397 49.068 196.509 49.474 196.733 49.754C196.957 50.0247 197.321 50.16 197.825 50.16C197.974 50.16 198.124 50.1413 198.273 50.104C198.422 50.0667 198.558 50.0293 198.679 49.992L198.875 50.86C198.754 50.9253 198.576 50.986 198.343 51.042C198.11 51.098 197.886 51.126 197.671 51.126ZM205.573 51.126C205.107 51.126 204.687 51.0373 204.313 50.86C203.949 50.6733 203.66 50.4213 203.445 50.104C203.231 49.7867 203.123 49.432 203.123 49.04C203.123 48.5453 203.249 48.1533 203.501 47.864C203.763 47.5747 204.187 47.3693 204.775 47.248C205.373 47.1173 206.185 47.052 207.211 47.052H207.659V46.618C207.659 46.0393 207.538 45.624 207.295 45.372C207.062 45.1107 206.684 44.98 206.161 44.98C205.751 44.98 205.354 45.0407 204.971 45.162C204.589 45.274 204.197 45.4607 203.795 45.722L203.403 44.896C203.758 44.644 204.187 44.4433 204.691 44.294C205.205 44.1447 205.695 44.07 206.161 44.07C207.039 44.07 207.687 44.2847 208.107 44.714C208.537 45.1433 208.751 45.8107 208.751 46.716V51H207.687V49.824C207.51 50.2253 207.235 50.5427 206.861 50.776C206.497 51.0093 206.068 51.126 205.573 51.126ZM205.755 50.272C206.315 50.272 206.773 50.0807 207.127 49.698C207.482 49.306 207.659 48.8113 207.659 48.214V47.794H207.225C206.469 47.794 205.872 47.8313 205.433 47.906C205.004 47.9713 204.701 48.0927 204.523 48.27C204.355 48.438 204.271 48.6713 204.271 48.97C204.271 49.3527 204.402 49.6653 204.663 49.908C204.934 50.1507 205.298 50.272 205.755 50.272ZM217.041 51.126C216.434 51.126 215.902 50.9813 215.445 50.692C214.997 50.4027 214.647 49.9967 214.395 49.474C214.152 48.942 214.031 48.3167 214.031 47.598C214.031 46.87 214.152 46.2447 214.395 45.722C214.647 45.19 214.997 44.784 215.445 44.504C215.902 44.2147 216.434 44.07 217.041 44.07C217.573 44.07 218.039 44.1867 218.441 44.42C218.851 44.6533 219.155 44.9753 219.351 45.386V41.13H220.485V51H219.379V49.754C219.183 50.1833 218.879 50.5193 218.469 50.762C218.058 51.0047 217.582 51.126 217.041 51.126ZM217.279 50.216C217.913 50.216 218.422 49.992 218.805 49.544C219.187 49.0867 219.379 48.438 219.379 47.598C219.379 46.7487 219.187 46.1 218.805 45.652C218.422 45.204 217.913 44.98 217.279 44.98C216.635 44.98 216.121 45.204 215.739 45.652C215.365 46.1 215.179 46.7487 215.179 47.598C215.179 48.438 215.365 49.0867 215.739 49.544C216.121 49.992 216.635 50.216 217.279 50.216ZM224.755 51.126C224.288 51.126 223.868 51.0373 223.495 50.86C223.131 50.6733 222.841 50.4213 222.627 50.104C222.412 49.7867 222.305 49.432 222.305 49.04C222.305 48.5453 222.431 48.1533 222.683 47.864C222.944 47.5747 223.369 47.3693 223.957 47.248C224.554 47.1173 225.366 47.052 226.393 47.052H226.841V46.618C226.841 46.0393 226.719 45.624 226.477 45.372C226.243 45.1107 225.865 44.98 225.343 44.98C224.932 44.98 224.535 45.0407 224.153 45.162C223.77 45.274 223.378 45.4607 222.977 45.722L222.585 44.896C222.939 44.644 223.369 44.4433 223.873 44.294C224.386 44.1447 224.876 44.07 225.343 44.07C226.22 44.07 226.869 44.2847 227.289 44.714C227.718 45.1433 227.933 45.8107 227.933 46.716V51H226.869V49.824C226.691 50.2253 226.416 50.5427 226.043 50.776C225.679 51.0093 225.249 51.126 224.755 51.126ZM224.937 50.272C225.497 50.272 225.954 50.0807 226.309 49.698C226.663 49.306 226.841 48.8113 226.841 48.214V47.794H226.407C225.651 47.794 225.053 47.8313 224.615 47.906C224.185 47.9713 223.882 48.0927 223.705 48.27C223.537 48.438 223.453 48.6713 223.453 48.97C223.453 49.3527 223.583 49.6653 223.845 49.908C224.115 50.1507 224.479 50.272 224.937 50.272ZM232.767 51.126C231.964 51.126 231.362 50.916 230.961 50.496C230.559 50.0667 230.359 49.4507 230.359 48.648V45.078H229.029V44.196H230.359V42.11H231.493V44.196H233.649V45.078H231.493V48.536C231.493 49.068 231.605 49.474 231.829 49.754C232.053 50.0247 232.417 50.16 232.921 50.16C233.07 50.16 233.219 50.1413 233.369 50.104C233.518 50.0667 233.653 50.0293 233.775 49.992L233.971 50.86C233.849 50.9253 233.672 50.986 233.439 51.042C233.205 51.098 232.981 51.126 232.767 51.126ZM237.929 51.126C236.855 51.126 236.006 50.8133 235.381 50.188C234.755 49.5533 234.443 48.6947 234.443 47.612C234.443 46.912 234.583 46.296 234.863 45.764C235.143 45.2227 235.525 44.8073 236.011 44.518C236.505 44.2193 237.075 44.07 237.719 44.07C238.643 44.07 239.366 44.3687 239.889 44.966C240.411 45.554 240.673 46.366 240.673 47.402V47.836H235.549C235.586 48.6107 235.81 49.2033 236.221 49.614C236.631 50.0153 237.201 50.216 237.929 50.216C238.339 50.216 238.731 50.1553 239.105 50.034C239.478 49.9033 239.833 49.6933 240.169 49.404L240.561 50.202C240.253 50.4913 239.861 50.72 239.385 50.888C238.909 51.0467 238.423 51.126 237.929 51.126ZM237.747 44.91C237.103 44.91 236.594 45.1107 236.221 45.512C235.847 45.9133 235.628 46.4407 235.563 47.094H239.693C239.665 46.4033 239.483 45.8667 239.147 45.484C238.82 45.1013 238.353 44.91 237.747 44.91ZM248.794 51.126C248.112 51.126 247.524 50.9813 247.03 50.692C246.535 50.3933 246.152 49.978 245.882 49.446C245.62 48.9047 245.49 48.2747 245.49 47.556C245.49 46.4733 245.784 45.624 246.372 45.008C246.96 44.3827 247.767 44.07 248.794 44.07C249.214 44.07 249.629 44.1447 250.04 44.294C250.45 44.4433 250.791 44.6533 251.062 44.924L250.67 45.75C250.399 45.4887 250.1 45.2973 249.774 45.176C249.456 45.0547 249.153 44.994 248.864 44.994C248.154 44.994 247.608 45.218 247.226 45.666C246.843 46.1047 246.652 46.7393 246.652 47.57C246.652 48.382 246.843 49.026 247.226 49.502C247.608 49.9687 248.154 50.202 248.864 50.202C249.153 50.202 249.456 50.1413 249.774 50.02C250.1 49.8987 250.399 49.7027 250.67 49.432L251.062 50.258C250.791 50.5287 250.446 50.7433 250.026 50.902C249.615 51.0513 249.204 51.126 248.794 51.126ZM255.081 51.126C254.419 51.126 253.845 50.9813 253.359 50.692C252.874 50.4027 252.496 49.9967 252.225 49.474C251.964 48.942 251.833 48.3167 251.833 47.598C251.833 46.8793 251.964 46.2587 252.225 45.736C252.496 45.204 252.874 44.7933 253.359 44.504C253.845 44.2147 254.419 44.07 255.081 44.07C255.735 44.07 256.304 44.2147 256.789 44.504C257.284 44.7933 257.662 45.204 257.923 45.736C258.194 46.2587 258.329 46.8793 258.329 47.598C258.329 48.3167 258.194 48.942 257.923 49.474C257.662 49.9967 257.284 50.4027 256.789 50.692C256.304 50.9813 255.735 51.126 255.081 51.126ZM255.081 50.216C255.716 50.216 256.225 49.992 256.607 49.544C256.99 49.0867 257.181 48.438 257.181 47.598C257.181 46.7487 256.99 46.1 256.607 45.652C256.225 45.204 255.716 44.98 255.081 44.98C254.437 44.98 253.924 45.204 253.541 45.652C253.168 46.1 252.981 46.7487 252.981 47.598C252.981 48.438 253.168 49.0867 253.541 49.544C253.924 49.992 254.437 50.216 255.081 50.216ZM260.033 51V44.196H261.139V45.358C261.363 44.9287 261.68 44.6067 262.091 44.392C262.501 44.1773 262.963 44.07 263.477 44.07C265.091 44.07 265.899 44.966 265.899 46.758V51H264.765V46.828C264.765 46.1933 264.639 45.7313 264.387 45.442C264.144 45.1433 263.752 44.994 263.211 44.994C262.585 44.994 262.086 45.19 261.713 45.582C261.349 45.9647 261.167 46.478 261.167 47.122V51H260.033ZM269.923 51L266.997 44.196H268.229L270.483 49.712L272.765 44.196H273.927L270.987 51H269.923ZM278.097 51.126C277.023 51.126 276.174 50.8133 275.549 50.188C274.923 49.5533 274.611 48.6947 274.611 47.612C274.611 46.912 274.751 46.296 275.031 45.764C275.311 45.2227 275.693 44.8073 276.179 44.518C276.673 44.2193 277.243 44.07 277.887 44.07C278.811 44.07 279.534 44.3687 280.057 44.966C280.579 45.554 280.841 46.366 280.841 47.402V47.836H275.717C275.754 48.6107 275.978 49.2033 276.389 49.614C276.799 50.0153 277.369 50.216 278.097 50.216C278.507 50.216 278.899 50.1553 279.273 50.034C279.646 49.9033 280.001 49.6933 280.337 49.404L280.729 50.202C280.421 50.4913 280.029 50.72 279.553 50.888C279.077 51.0467 278.591 51.126 278.097 51.126ZM277.915 44.91C277.271 44.91 276.762 45.1107 276.389 45.512C276.015 45.9133 275.796 46.4407 275.731 47.094H279.861C279.833 46.4033 279.651 45.8667 279.315 45.484C278.988 45.1013 278.521 44.91 277.915 44.91ZM282.482 51V44.196H283.588V45.358C283.812 44.9287 284.129 44.6067 284.54 44.392C284.951 44.1773 285.413 44.07 285.926 44.07C287.541 44.07 288.348 44.966 288.348 46.758V51H287.214V46.828C287.214 46.1933 287.088 45.7313 286.836 45.442C286.593 45.1433 286.201 44.994 285.66 44.994C285.035 44.994 284.535 45.19 284.162 45.582C283.798 45.9647 283.616 46.478 283.616 47.122V51H282.482ZM290.299 42.502V41.228H291.699V42.502H290.299ZM290.439 51V44.196H291.573V51H290.439ZM296.759 51.126C295.686 51.126 294.836 50.8133 294.211 50.188C293.586 49.5533 293.273 48.6947 293.273 47.612C293.273 46.912 293.413 46.296 293.693 45.764C293.973 45.2227 294.356 44.8073 294.841 44.518C295.336 44.2193 295.905 44.07 296.549 44.07C297.473 44.07 298.196 44.3687 298.719 44.966C299.242 45.554 299.503 46.366 299.503 47.402V47.836H294.379C294.416 48.6107 294.64 49.2033 295.051 49.614C295.462 50.0153 296.031 50.216 296.759 50.216C297.17 50.216 297.562 50.1553 297.935 50.034C298.308 49.9033 298.663 49.6933 298.999 49.404L299.391 50.202C299.083 50.4913 298.691 50.72 298.215 50.888C297.739 51.0467 297.254 51.126 296.759 51.126ZM296.577 44.91C295.933 44.91 295.424 45.1107 295.051 45.512C294.678 45.9133 294.458 46.4407 294.393 47.094H298.523C298.495 46.4033 298.313 45.8667 297.977 45.484C297.65 45.1013 297.184 44.91 296.577 44.91ZM301.144 51V44.196H302.25V45.358C302.474 44.9287 302.791 44.6067 303.202 44.392C303.613 44.1773 304.075 44.07 304.588 44.07C306.203 44.07 307.01 44.966 307.01 46.758V51H305.876V46.828C305.876 46.1933 305.75 45.7313 305.498 45.442C305.255 45.1433 304.863 44.994 304.322 44.994C303.697 44.994 303.197 45.19 302.824 45.582C302.46 45.9647 302.278 46.478 302.278 47.122V51H301.144ZM311.831 51.126C311.028 51.126 310.426 50.916 310.025 50.496C309.624 50.0667 309.423 49.4507 309.423 48.648V45.078H308.093V44.196H309.423V42.11H310.557V44.196H312.713V45.078H310.557V48.536C310.557 49.068 310.669 49.474 310.893 49.754C311.117 50.0247 311.481 50.16 311.985 50.16C312.134 50.16 312.284 50.1413 312.433 50.104C312.582 50.0667 312.718 50.0293 312.839 49.992L313.035 50.86C312.914 50.9253 312.736 50.986 312.503 51.042C312.27 51.098 312.046 51.126 311.831 51.126ZM317.955 51V45.078H316.611V44.196H317.955V43.958C317.955 43.0527 318.179 42.3667 318.627 41.9C319.085 41.4333 319.785 41.172 320.727 41.116L321.273 41.088L321.371 41.956L320.727 41.998C320.149 42.0447 319.729 42.2173 319.467 42.516C319.215 42.8147 319.089 43.2487 319.089 43.818V44.196H321.049V45.078H319.089V51H317.955ZM324.89 51.126C324.227 51.126 323.653 50.9813 323.168 50.692C322.683 50.4027 322.305 49.9967 322.034 49.474C321.773 48.942 321.642 48.3167 321.642 47.598C321.642 46.8793 321.773 46.2587 322.034 45.736C322.305 45.204 322.683 44.7933 323.168 44.504C323.653 44.2147 324.227 44.07 324.89 44.07C325.543 44.07 326.113 44.2147 326.598 44.504C327.093 44.7933 327.471 45.204 327.732 45.736C328.003 46.2587 328.138 46.8793 328.138 47.598C328.138 48.3167 328.003 48.942 327.732 49.474C327.471 49.9967 327.093 50.4027 326.598 50.692C326.113 50.9813 325.543 51.126 324.89 51.126ZM324.89 50.216C325.525 50.216 326.033 49.992 326.416 49.544C326.799 49.0867 326.99 48.438 326.99 47.598C326.99 46.7487 326.799 46.1 326.416 45.652C326.033 45.204 325.525 44.98 324.89 44.98C324.246 44.98 323.733 45.204 323.35 45.652C322.977 46.1 322.79 46.7487 322.79 47.598C322.79 48.438 322.977 49.0867 323.35 49.544C323.733 49.992 324.246 50.216 324.89 50.216ZM329.841 51V44.196H330.947V45.414C331.311 44.5927 332.058 44.14 333.187 44.056L333.593 44.014L333.677 44.994L332.963 45.078C332.319 45.134 331.829 45.3393 331.493 45.694C331.157 46.0393 330.989 46.5153 330.989 47.122V51H329.841ZM339.239 53.52L340.401 50.888L337.531 44.196H338.763L341.017 49.712L343.285 44.196H344.475L340.429 53.52H339.239ZM348.378 51.126C347.716 51.126 347.142 50.9813 346.656 50.692C346.171 50.4027 345.793 49.9967 345.522 49.474C345.261 48.942 345.13 48.3167 345.13 47.598C345.13 46.8793 345.261 46.2587 345.522 45.736C345.793 45.204 346.171 44.7933 346.656 44.504C347.142 44.2147 347.716 44.07 348.378 44.07C349.032 44.07 349.601 44.2147 350.086 44.504C350.581 44.7933 350.959 45.204 351.22 45.736C351.491 46.2587 351.626 46.8793 351.626 47.598C351.626 48.3167 351.491 48.942 351.22 49.474C350.959 49.9967 350.581 50.4027 350.086 50.692C349.601 50.9813 349.032 51.126 348.378 51.126ZM348.378 50.216C349.013 50.216 349.522 49.992 349.904 49.544C350.287 49.0867 350.478 48.438 350.478 47.598C350.478 46.7487 350.287 46.1 349.904 45.652C349.522 45.204 349.013 44.98 348.378 44.98C347.734 44.98 347.221 45.204 346.838 45.652C346.465 46.1 346.278 46.7487 346.278 47.598C346.278 48.438 346.465 49.0867 346.838 49.544C347.221 49.992 347.734 50.216 348.378 50.216ZM355.738 51.126C354.104 51.126 353.288 50.2253 353.288 48.424V44.196H354.422V48.41C354.422 49.0167 354.543 49.4647 354.786 49.754C355.038 50.0433 355.43 50.188 355.962 50.188C356.54 50.188 357.012 49.9967 357.376 49.614C357.74 49.222 357.922 48.704 357.922 48.06V44.196H359.056V51H357.95V49.852C357.735 50.2627 357.432 50.58 357.04 50.804C356.657 51.0187 356.223 51.126 355.738 51.126Z" fill="#363636"/>
<g filter="url(#filter0_d_10642_4)">
<rect x="23.3083" y="18.2163" width="41.6411" height="41.7571" rx="20.8205" fill="#E3B873"/>
<rect x="19.3083" y="14.2163" width="49.6411" height="49.7571" rx="24.8205" stroke="white" stroke-width="8"/>
</g>
<path d="M40.8219 45.27C39.8499 45.27 38.9679 45.012 38.1759 44.496C37.3839 43.98 36.7539 43.23 36.2859 42.246C35.8299 41.25 35.6019 40.068 35.6019 38.7C35.6019 37.332 35.8299 36.156 36.2859 35.172C36.7539 34.176 37.3839 33.42 38.1759 32.904C38.9679 32.388 39.8499 32.13 40.8219 32.13C41.7939 32.13 42.6759 32.388 43.4679 32.904C44.2599 33.42 44.8839 34.176 45.3399 35.172C45.8079 36.156 46.0419 37.332 46.0419 38.7C46.0419 40.068 45.8079 41.25 45.3399 42.246C44.8839 43.23 44.2599 43.98 43.4679 44.496C42.6759 45.012 41.7939 45.27 40.8219 45.27ZM40.8219 44.91C42.2019 44.91 42.8919 42.84 42.8919 38.7C42.8919 34.56 42.2019 32.49 40.8219 32.49C39.4419 32.49 38.7519 34.56 38.7519 38.7C38.7519 42.84 39.4419 44.91 40.8219 44.91ZM48.1105 45V44.73L49.3705 44.37V34.488L47.4805 35.82L47.1205 35.37L50.3965 32.4H52.3405V44.37L53.6005 44.73V45H48.1105Z" fill="white"/>
<defs>
<filter id="filter0_d_10642_4" x="0.30835" y="0.216309" width="87.6411" height="87.7571" filterUnits="userSpaceOnUse" color-interpolation-filters="sRGB">
<feFlood flood-opacity="0" result="BackgroundImageFix"/>
<feColorMatrix in="SourceAlpha" type="matrix" values="0 0 0 0 0 0 0 0 0 0 0 0 0 0 0 0 0 0 127 0" result="hardAlpha"/>
<feOffset dy="5"/>
<feGaussianBlur stdDeviation="7.5"/>
<feColorMatrix type="matrix" values="0 0 0 0 0.890196 0 0 0 0 0.721569 0 0 0 0 0.45098 0 0 0 0.15 0"/>
<feBlend mode="normal" in2="BackgroundImageFix" result="effect1_dropShadow_10642_4"/>
<feBlend mode="normal" in="SourceGraphic" in2="effect1_dropShadow_10642_4" result="shape"/>
</filter>
</defs>
</svg>
