<svg width="169" height="88" viewBox="0 0 169 88" fill="none" xmlns="http://www.w3.org/2000/svg">
<g filter="url(#filter0_d_10642_3)">
<rect x="23.3083" y="18" width="41.6411" height="41.7571" rx="20.8205" fill="#E3B873"/>
<rect x="19.3083" y="14" width="49.6411" height="49.7571" rx="24.8205" stroke="white" stroke-width="8"/>
</g>
<path d="M38.7218 44.7517C37.7498 44.7517 36.8678 44.4937 36.0758 43.9777C35.2838 43.4617 34.6538 42.7117 34.1858 41.7277C33.7298 40.7317 33.5018 39.5497 33.5018 38.1817C33.5018 36.8137 33.7298 35.6377 34.1858 34.6537C34.6538 33.6577 35.2838 32.9017 36.0758 32.3857C36.8678 31.8697 37.7498 31.6117 38.7218 31.6117C39.6938 31.6117 40.5758 31.8697 41.3678 32.3857C42.1598 32.9017 42.7838 33.6577 43.2398 34.6537C43.7078 35.6377 43.9418 36.8137 43.9418 38.1817C43.9418 39.5497 43.7078 40.7317 43.2398 41.7277C42.7838 42.7117 42.1598 43.4617 41.3678 43.9777C40.5758 44.4937 39.6938 44.7517 38.7218 44.7517ZM38.7218 44.3917C40.1018 44.3917 40.7918 42.3217 40.7918 38.1817C40.7918 34.0417 40.1018 31.9717 38.7218 31.9717C37.3418 31.9717 36.6518 34.0417 36.6518 38.1817C36.6518 42.3217 37.3418 44.3917 38.7218 44.3917ZM45.2904 43.6717C45.2904 42.9637 45.4284 42.3217 45.7044 41.7457C45.9924 41.1577 46.3404 40.6477 46.7484 40.2157C47.1564 39.7837 47.6904 39.2737 48.3504 38.6857C48.9624 38.1457 49.4424 37.6957 49.7904 37.3357C50.1384 36.9637 50.4324 36.5497 50.6724 36.0937C50.9124 35.6257 51.0324 35.1217 51.0324 34.5817C51.0324 33.7897 50.8404 33.1717 50.4564 32.7277C50.0724 32.2837 49.5744 32.0617 48.9624 32.0617C48.6144 32.0617 48.2604 32.1097 47.9004 32.2057L47.5224 32.3317V35.2117L47.2884 35.2657C47.0964 35.2897 46.9344 35.3017 46.8024 35.3017C46.3944 35.3017 46.0644 35.1817 45.8124 34.9417C45.5724 34.6897 45.4524 34.3597 45.4524 33.9517C45.4524 33.5677 45.5964 33.1957 45.8844 32.8357C46.1844 32.4757 46.6224 32.1817 47.1984 31.9537C47.7864 31.7257 48.4944 31.6117 49.3224 31.6117C50.9424 31.6117 52.1424 31.9357 52.9224 32.5837C53.7024 33.2317 54.0924 34.1377 54.0924 35.3017C54.0924 36.0337 53.9004 36.6637 53.5164 37.1917C53.1444 37.7197 52.6824 38.1577 52.1304 38.5057C51.5904 38.8537 50.8644 39.2497 49.9524 39.6937C49.1844 40.0657 48.5604 40.3957 48.0804 40.6837C47.6124 40.9597 47.1744 41.2957 46.7664 41.6917C46.3704 42.0877 46.0884 42.5377 45.9204 43.0417H52.5804C52.6644 42.3937 52.8684 41.8537 53.1924 41.4217C53.3244 41.2177 53.4804 41.0377 53.6604 40.8817H54.2004V44.4817H45.2904V43.6717Z" fill="white"/>
<path d="M82.5117 41.6194V31.7494H88.6157V32.7154H83.6597V36.1594H88.3357V37.1254H83.6597V41.6194H82.5117ZM89.8909 41.6194V34.8154H90.9969V36.0334C91.3609 35.2121 92.1076 34.7594 93.2369 34.6754L93.6429 34.6334L93.7269 35.6134L93.0129 35.6974C92.3689 35.7534 91.8789 35.9587 91.5429 36.3134C91.2069 36.6587 91.0389 37.1347 91.0389 37.7414V41.6194H89.8909ZM97.8925 41.7454C96.8191 41.7454 95.9698 41.4327 95.3445 40.8074C94.7191 40.1727 94.4065 39.3141 94.4065 38.2314C94.4065 37.5314 94.5465 36.9154 94.8265 36.3834C95.1065 35.8421 95.4891 35.4267 95.9745 35.1374C96.4691 34.8387 97.0385 34.6894 97.6825 34.6894C98.6065 34.6894 99.3298 34.9881 99.8525 35.5854C100.375 36.1734 100.636 36.9854 100.636 38.0214V38.4554H95.5125C95.5498 39.2301 95.7738 39.8227 96.1845 40.2334C96.5951 40.6347 97.1645 40.8354 97.8925 40.8354C98.3031 40.8354 98.6951 40.7747 99.0685 40.6534C99.4418 40.5227 99.7965 40.3127 100.132 40.0234L100.524 40.8214C100.216 41.1107 99.8245 41.3394 99.3485 41.5074C98.8725 41.6661 98.3871 41.7454 97.8925 41.7454ZM97.7105 35.5294C97.0665 35.5294 96.5578 35.7301 96.1845 36.1314C95.8111 36.5327 95.5918 37.0601 95.5265 37.7134H99.6565C99.6285 37.0227 99.4465 36.4861 99.1105 36.1034C98.7838 35.7207 98.3171 35.5294 97.7105 35.5294ZM105.344 41.7454C104.27 41.7454 103.421 41.4327 102.796 40.8074C102.17 40.1727 101.858 39.3141 101.858 38.2314C101.858 37.5314 101.998 36.9154 102.278 36.3834C102.558 35.8421 102.94 35.4267 103.426 35.1374C103.92 34.8387 104.49 34.6894 105.134 34.6894C106.058 34.6894 106.781 34.9881 107.304 35.5854C107.826 36.1734 108.088 36.9854 108.088 38.0214V38.4554H102.964C103.001 39.2301 103.225 39.8227 103.636 40.2334C104.046 40.6347 104.616 40.8354 105.344 40.8354C105.754 40.8354 106.146 40.7747 106.52 40.6534C106.893 40.5227 107.248 40.3127 107.584 40.0234L107.976 40.8214C107.668 41.1107 107.276 41.3394 106.8 41.5074C106.324 41.6661 105.838 41.7454 105.344 41.7454ZM105.162 35.5294C104.518 35.5294 104.009 35.7301 103.636 36.1314C103.262 36.5327 103.043 37.0601 102.978 37.7134H107.108C107.08 37.0227 106.898 36.4861 106.562 36.1034C106.235 35.7207 105.768 35.5294 105.162 35.5294ZM82.3857 60.6194V53.8154H83.4917V54.9634C83.697 54.5527 83.9817 54.2401 84.3457 54.0254C84.7097 53.8014 85.1344 53.6894 85.6197 53.6894C86.6837 53.6894 87.365 54.1514 87.6637 55.0754C87.869 54.6461 88.1724 54.3101 88.5737 54.0674C88.975 53.8154 89.437 53.6894 89.9597 53.6894C91.4717 53.6894 92.2277 54.5854 92.2277 56.3774V60.6194H91.0937V56.4334C91.0937 55.8081 90.9817 55.3507 90.7577 55.0614C90.543 54.7627 90.1837 54.6134 89.6797 54.6134C89.129 54.6134 88.6904 54.8094 88.3637 55.2014C88.037 55.5934 87.8737 56.1161 87.8737 56.7694V60.6194H86.7397V56.4334C86.7397 55.8081 86.6277 55.3507 86.4037 55.0614C86.189 54.7627 85.8297 54.6134 85.3257 54.6134C84.7657 54.6134 84.3224 54.8094 83.9957 55.2014C83.6784 55.5934 83.5197 56.1161 83.5197 56.7694V60.6194H82.3857ZM97.4139 60.7454C96.3406 60.7454 95.4913 60.4327 94.8659 59.8074C94.2406 59.1727 93.9279 58.3141 93.9279 57.2314C93.9279 56.5314 94.0679 55.9154 94.3479 55.3834C94.6279 54.8421 95.0106 54.4267 95.4959 54.1374C95.9906 53.8387 96.5599 53.6894 97.2039 53.6894C98.1279 53.6894 98.8513 53.9881 99.3739 54.5854C99.8966 55.1734 100.158 55.9854 100.158 57.0214V57.4554H95.0339C95.0713 58.2301 95.2953 58.8227 95.7059 59.2334C96.1166 59.6347 96.6859 59.8354 97.4139 59.8354C97.8246 59.8354 98.2166 59.7747 98.5899 59.6534C98.9633 59.5227 99.3179 59.3127 99.6539 59.0234L100.046 59.8214C99.7379 60.1107 99.3459 60.3394 98.8699 60.5074C98.3939 60.6661 97.9086 60.7454 97.4139 60.7454ZM97.2319 54.5294C96.5879 54.5294 96.0793 54.7301 95.7059 55.1314C95.3326 55.5327 95.1133 56.0601 95.0479 56.7134H99.1779C99.1499 56.0227 98.9679 55.4861 98.6319 55.1034C98.3053 54.7207 97.8386 54.5294 97.2319 54.5294ZM104.529 60.7454C103.726 60.7454 103.124 60.5354 102.723 60.1154C102.322 59.6861 102.121 59.0701 102.121 58.2674V54.6974H100.791V53.8154H102.121V51.7294H103.255V53.8154H105.411V54.6974H103.255V58.1554C103.255 58.6874 103.367 59.0934 103.591 59.3734C103.815 59.6441 104.179 59.7794 104.683 59.7794C104.832 59.7794 104.982 59.7607 105.131 59.7234C105.28 59.6861 105.416 59.6487 105.537 59.6114L105.733 60.4794C105.612 60.5447 105.434 60.6054 105.201 60.6614C104.968 60.7174 104.744 60.7454 104.529 60.7454ZM109.691 60.7454C108.618 60.7454 107.769 60.4327 107.143 59.8074C106.518 59.1727 106.205 58.3141 106.205 57.2314C106.205 56.5314 106.345 55.9154 106.625 55.3834C106.905 54.8421 107.288 54.4267 107.773 54.1374C108.268 53.8387 108.837 53.6894 109.481 53.6894C110.405 53.6894 111.129 53.9881 111.651 54.5854C112.174 55.1734 112.435 55.9854 112.435 57.0214V57.4554H107.311C107.349 58.2301 107.573 58.8227 107.983 59.2334C108.394 59.6347 108.963 59.8354 109.691 59.8354C110.102 59.8354 110.494 59.7747 110.867 59.6534C111.241 59.5227 111.595 59.3127 111.931 59.0234L112.323 59.8214C112.015 60.1107 111.623 60.3394 111.147 60.5074C110.671 60.6661 110.186 60.7454 109.691 60.7454ZM109.509 54.5294C108.865 54.5294 108.357 54.7301 107.983 55.1314C107.61 55.5327 107.391 56.0601 107.325 56.7134H111.455C111.427 56.0227 111.245 55.4861 110.909 55.1034C110.583 54.7207 110.116 54.5294 109.509 54.5294ZM114.076 60.6194V53.8154H115.182V55.0334C115.546 54.2121 116.293 53.7594 117.422 53.6754L117.828 53.6334L117.912 54.6134L117.198 54.6974C116.554 54.7534 116.064 54.9587 115.728 55.3134C115.392 55.6587 115.224 56.1347 115.224 56.7414V60.6194H114.076ZM118.954 52.1214V50.8474H120.354V52.1214H118.954ZM119.094 60.6194V53.8154H120.228V60.6194H119.094ZM122.348 60.6194V53.8154H123.454V54.9774C123.678 54.5481 123.995 54.2261 124.406 54.0114C124.817 53.7967 125.279 53.6894 125.792 53.6894C127.407 53.6894 128.214 54.5854 128.214 56.3774V60.6194H127.08V56.4474C127.08 55.8127 126.954 55.3507 126.702 55.0614C126.459 54.7627 126.067 54.6134 125.526 54.6134C124.901 54.6134 124.401 54.8094 124.028 55.2014C123.664 55.5841 123.482 56.0974 123.482 56.7414V60.6194H122.348ZM133.315 63.2654C132.727 63.2654 132.172 63.1861 131.649 63.0274C131.136 62.8781 130.678 62.6494 130.277 62.3414L130.655 61.5154C131.075 61.8141 131.49 62.0287 131.901 62.1594C132.321 62.2901 132.774 62.3554 133.259 62.3554C134.603 62.3554 135.275 61.6647 135.275 60.2834V59.0794C135.079 59.5087 134.771 59.8494 134.351 60.1014C133.94 60.3441 133.469 60.4654 132.937 60.4654C132.312 60.4654 131.77 60.3207 131.313 60.0314C130.856 59.7421 130.501 59.3454 130.249 58.8414C130.006 58.3281 129.885 57.7354 129.885 57.0634C129.885 56.3914 130.006 55.8034 130.249 55.2994C130.501 54.7861 130.856 54.3894 131.313 54.1094C131.77 53.8294 132.312 53.6894 132.937 53.6894C133.469 53.6894 133.94 53.8107 134.351 54.0534C134.771 54.2961 135.079 54.6274 135.275 55.0474V53.8154H136.381V60.1294C136.381 61.1747 136.12 61.9587 135.597 62.4814C135.084 63.0041 134.323 63.2654 133.315 63.2654ZM133.147 59.5414C133.8 59.5414 134.318 59.3174 134.701 58.8694C135.084 58.4214 135.275 57.8194 135.275 57.0634C135.275 56.3074 135.084 55.7101 134.701 55.2714C134.318 54.8234 133.8 54.5994 133.147 54.5994C132.503 54.5994 131.99 54.8234 131.607 55.2714C131.224 55.7101 131.033 56.3074 131.033 57.0634C131.033 57.8194 131.224 58.4214 131.607 58.8694C131.99 59.3174 132.503 59.5414 133.147 59.5414Z" fill="#363636"/>
<defs>
<filter id="filter0_d_10642_3" x="0.30835" y="0" width="87.6411" height="87.7571" filterUnits="userSpaceOnUse" color-interpolation-filters="sRGB">
<feFlood flood-opacity="0" result="BackgroundImageFix"/>
<feColorMatrix in="SourceAlpha" type="matrix" values="0 0 0 0 0 0 0 0 0 0 0 0 0 0 0 0 0 0 127 0" result="hardAlpha"/>
<feOffset dy="5"/>
<feGaussianBlur stdDeviation="7.5"/>
<feColorMatrix type="matrix" values="0 0 0 0 0.890196 0 0 0 0 0.721569 0 0 0 0 0.45098 0 0 0 0.15 0"/>
<feBlend mode="normal" in2="BackgroundImageFix" result="effect1_dropShadow_10642_3"/>
<feBlend mode="normal" in="SourceGraphic" in2="effect1_dropShadow_10642_3" result="shape"/>
</filter>
</defs>
</svg>
