<svg width="186" height="88" viewBox="0 0 186 88" fill="none" xmlns="http://www.w3.org/2000/svg">
<g filter="url(#filter0_d_10642_2)">
<rect x="23.3083" y="18" width="41.6411" height="41.7571" rx="20.8205" fill="#E3B873"/>
<rect x="19.3083" y="14" width="49.6411" height="49.7571" rx="24.8205" stroke="white" stroke-width="8"/>
</g>
<path d="M38.4875 44.1323C37.5155 44.1323 36.6335 43.8743 35.8415 43.3583C35.0495 42.8423 34.4195 42.0923 33.9515 41.1083C33.4955 40.1123 33.2675 38.9303 33.2675 37.5623C33.2675 36.1943 33.4955 35.0183 33.9515 34.0343C34.4195 33.0383 35.0495 32.2823 35.8415 31.7663C36.6335 31.2503 37.5155 30.9923 38.4875 30.9923C39.4595 30.9923 40.3415 31.2503 41.1335 31.7663C41.9255 32.2823 42.5495 33.0383 43.0055 34.0343C43.4735 35.0183 43.7075 36.1943 43.7075 37.5623C43.7075 38.9303 43.4735 40.1123 43.0055 41.1083C42.5495 42.0923 41.9255 42.8423 41.1335 43.3583C40.3415 43.8743 39.4595 44.1323 38.4875 44.1323ZM38.4875 43.7723C39.8675 43.7723 40.5575 41.7023 40.5575 37.5623C40.5575 33.4223 39.8675 31.3523 38.4875 31.3523C37.1075 31.3523 36.4175 33.4223 36.4175 37.5623C36.4175 41.7023 37.1075 43.7723 38.4875 43.7723ZM48.8361 44.1323C48.0081 44.1323 47.3001 44.0183 46.7121 43.7903C46.1361 43.5623 45.6981 43.2683 45.3981 42.9083C45.1101 42.5483 44.9661 42.1763 44.9661 41.7923C44.9661 41.3843 45.0861 41.0603 45.3261 40.8203C45.5781 40.5683 45.9081 40.4423 46.3161 40.4423C46.4121 40.4423 46.5081 40.4543 46.6041 40.4783C46.7001 40.4903 46.7661 40.4963 46.8021 40.4963L47.0361 40.5323V43.4123C47.0481 43.4123 47.1741 43.4603 47.4141 43.5563C47.7261 43.6403 48.0801 43.6823 48.4761 43.6823C49.3161 43.6823 49.9581 43.4303 50.4021 42.9263C50.8581 42.4103 51.0861 41.6423 51.0861 40.6223C51.0861 39.5783 50.8641 38.7923 50.4201 38.2643C49.9881 37.7363 49.4001 37.4723 48.6561 37.4723H47.7561V37.0223H48.6561C49.1961 37.0223 49.6461 36.7823 50.0061 36.3023C50.3661 35.8223 50.5461 35.1323 50.5461 34.2323C50.5461 33.3323 50.3601 32.6423 49.9881 32.1623C49.6161 31.6823 49.1421 31.4423 48.5661 31.4423C48.2541 31.4423 47.9541 31.4903 47.6661 31.5863C47.6301 31.5983 47.5101 31.6403 47.3061 31.7123V34.5923L47.0721 34.6463C46.8801 34.6703 46.7181 34.6823 46.5861 34.6823C46.1781 34.6823 45.8481 34.5623 45.5961 34.3223C45.3561 34.0703 45.2361 33.7403 45.2361 33.3323C45.2361 32.9603 45.3801 32.5943 45.6681 32.2343C45.9561 31.8743 46.3761 31.5803 46.9281 31.3523C47.4921 31.1123 48.1581 30.9923 48.9261 30.9923C49.9341 30.9923 50.7861 31.1423 51.4821 31.4423C52.1901 31.7303 52.7181 32.1203 53.0661 32.6123C53.4261 33.1043 53.6061 33.6443 53.6061 34.2323C53.6061 34.9163 53.4321 35.4623 53.0841 35.8703C52.7361 36.2663 52.2801 36.5843 51.7161 36.8243C51.1641 37.0403 50.5341 37.1663 49.8261 37.2023V37.2923C50.6181 37.3283 51.3381 37.4663 51.9861 37.7063C53.4261 38.2823 54.1461 39.2543 54.1461 40.6223C54.1461 41.6783 53.7081 42.5303 52.8321 43.1783C51.9681 43.8143 50.6361 44.1323 48.8361 44.1323Z" fill="white"/>
<path d="M80.3708 43V33.13H86.4748V34.096H81.5188V37.54H86.1948V38.506H81.5188V43H80.3708ZM87.75 43V36.196H88.856V37.414C89.22 36.5927 89.9666 36.14 91.096 36.056L91.502 36.014L91.586 36.994L90.872 37.078C90.228 37.134 89.738 37.3393 89.402 37.694C89.066 38.0393 88.898 38.5153 88.898 39.122V43H87.75ZM95.7515 43.126C94.6782 43.126 93.8289 42.8133 93.2035 42.188C92.5782 41.5533 92.2655 40.6947 92.2655 39.612C92.2655 38.912 92.4055 38.296 92.6855 37.764C92.9655 37.2227 93.3482 36.8073 93.8335 36.518C94.3282 36.2193 94.8975 36.07 95.5415 36.07C96.4655 36.07 97.1889 36.3687 97.7115 36.966C98.2342 37.554 98.4955 38.366 98.4955 39.402V39.836H93.3715C93.4089 40.6107 93.6329 41.2033 94.0435 41.614C94.4542 42.0153 95.0235 42.216 95.7515 42.216C96.1622 42.216 96.5542 42.1553 96.9275 42.034C97.3009 41.9033 97.6555 41.6933 97.9915 41.404L98.3835 42.202C98.0755 42.4913 97.6835 42.72 97.2075 42.888C96.7315 43.0467 96.2462 43.126 95.7515 43.126ZM95.5695 36.91C94.9255 36.91 94.4169 37.1107 94.0435 37.512C93.6702 37.9133 93.4509 38.4407 93.3855 39.094H97.5155C97.4875 38.4033 97.3055 37.8667 96.9695 37.484C96.6429 37.1013 96.1762 36.91 95.5695 36.91ZM103.203 43.126C102.129 43.126 101.28 42.8133 100.655 42.188C100.029 41.5533 99.7167 40.6947 99.7167 39.612C99.7167 38.912 99.8567 38.296 100.137 37.764C100.417 37.2227 100.799 36.8073 101.285 36.518C101.779 36.2193 102.349 36.07 102.993 36.07C103.917 36.07 104.64 36.3687 105.163 36.966C105.685 37.554 105.947 38.366 105.947 39.402V39.836H100.823C100.86 40.6107 101.084 41.2033 101.495 41.614C101.905 42.0153 102.475 42.216 103.203 42.216C103.613 42.216 104.005 42.1553 104.379 42.034C104.752 41.9033 105.107 41.6933 105.443 41.404L105.835 42.202C105.527 42.4913 105.135 42.72 104.659 42.888C104.183 43.0467 103.697 43.126 103.203 43.126ZM103.021 36.91C102.377 36.91 101.868 37.1107 101.495 37.512C101.121 37.9133 100.902 38.4407 100.837 39.094H104.967C104.939 38.4033 104.757 37.8667 104.421 37.484C104.094 37.1013 103.627 36.91 103.021 36.91ZM83.1008 62.126C82.4194 62.126 81.8314 61.9813 81.3368 61.692C80.8421 61.3933 80.4594 60.978 80.1888 60.446C79.9274 59.9047 79.7968 59.2747 79.7968 58.556C79.7968 57.4733 80.0908 56.624 80.6788 56.008C81.2668 55.3827 82.0741 55.07 83.1008 55.07C83.5208 55.07 83.9361 55.1447 84.3468 55.294C84.7574 55.4433 85.0981 55.6533 85.3688 55.924L84.9768 56.75C84.7061 56.4887 84.4074 56.2973 84.0808 56.176C83.7634 56.0547 83.4601 55.994 83.1708 55.994C82.4614 55.994 81.9154 56.218 81.5328 56.666C81.1501 57.1047 80.9588 57.7393 80.9588 58.57C80.9588 59.382 81.1501 60.026 81.5328 60.502C81.9154 60.9687 82.4614 61.202 83.1708 61.202C83.4601 61.202 83.7634 61.1413 84.0808 61.02C84.4074 60.8987 84.7061 60.7027 84.9768 60.432L85.3688 61.258C85.0981 61.5287 84.7528 61.7433 84.3328 61.902C83.9221 62.0513 83.5114 62.126 83.1008 62.126ZM89.3885 62.126C88.7259 62.126 88.1519 61.9813 87.6665 61.692C87.1812 61.4027 86.8032 60.9967 86.5325 60.474C86.2712 59.942 86.1405 59.3167 86.1405 58.598C86.1405 57.8793 86.2712 57.2587 86.5325 56.736C86.8032 56.204 87.1812 55.7933 87.6665 55.504C88.1519 55.2147 88.7259 55.07 89.3885 55.07C90.0419 55.07 90.6112 55.2147 91.0965 55.504C91.5912 55.7933 91.9692 56.204 92.2305 56.736C92.5012 57.2587 92.6365 57.8793 92.6365 58.598C92.6365 59.3167 92.5012 59.942 92.2305 60.474C91.9692 60.9967 91.5912 61.4027 91.0965 61.692C90.6112 61.9813 90.0419 62.126 89.3885 62.126ZM89.3885 61.216C90.0232 61.216 90.5319 60.992 90.9145 60.544C91.2972 60.0867 91.4885 59.438 91.4885 58.598C91.4885 57.7487 91.2972 57.1 90.9145 56.652C90.5319 56.204 90.0232 55.98 89.3885 55.98C88.7445 55.98 88.2312 56.204 87.8485 56.652C87.4752 57.1 87.2885 57.7487 87.2885 58.598C87.2885 59.438 87.4752 60.0867 87.8485 60.544C88.2312 60.992 88.7445 61.216 89.3885 61.216ZM94.3398 62V55.196H95.4458V56.358C95.6698 55.9287 95.9872 55.6067 96.3978 55.392C96.8085 55.1773 97.2705 55.07 97.7838 55.07C99.3985 55.07 100.206 55.966 100.206 57.758V62H99.0718V57.828C99.0718 57.1933 98.9458 56.7313 98.6938 56.442C98.4512 56.1433 98.0592 55.994 97.5178 55.994C96.8925 55.994 96.3932 56.19 96.0198 56.582C95.6558 56.9647 95.4738 57.478 95.4738 58.122V62H94.3398ZM104.593 62.126C104.061 62.126 103.557 62.0513 103.081 61.902C102.605 61.7527 102.213 61.5427 101.905 61.272L102.269 60.474C102.605 60.7447 102.974 60.9453 103.375 61.076C103.786 61.1973 104.201 61.258 104.621 61.258C105.153 61.258 105.554 61.16 105.825 60.964C106.096 60.768 106.231 60.502 106.231 60.166C106.231 59.9047 106.142 59.6993 105.965 59.55C105.788 59.3913 105.508 59.27 105.125 59.186L103.851 58.906C102.694 58.654 102.115 58.0567 102.115 57.114C102.115 56.498 102.358 56.0033 102.843 55.63C103.338 55.2567 103.982 55.07 104.775 55.07C105.242 55.07 105.685 55.1447 106.105 55.294C106.534 55.434 106.889 55.644 107.169 55.924L106.791 56.722C106.52 56.47 106.203 56.2787 105.839 56.148C105.484 56.008 105.13 55.938 104.775 55.938C104.252 55.938 103.856 56.0407 103.585 56.246C103.314 56.4513 103.179 56.722 103.179 57.058C103.179 57.5807 103.524 57.9167 104.215 58.066L105.489 58.332C106.086 58.4627 106.539 58.6727 106.847 58.962C107.155 59.242 107.309 59.6247 107.309 60.11C107.309 60.7353 107.062 61.23 106.567 61.594C106.072 61.9487 105.414 62.126 104.593 62.126ZM111.445 62.126C109.812 62.126 108.995 61.2253 108.995 59.424V55.196H110.129V59.41C110.129 60.0167 110.25 60.4647 110.493 60.754C110.745 61.0433 111.137 61.188 111.669 61.188C112.248 61.188 112.719 60.9967 113.083 60.614C113.447 60.222 113.629 59.704 113.629 59.06V55.196H114.763V62H113.657V60.852C113.442 61.2627 113.139 61.58 112.747 61.804C112.364 62.0187 111.93 62.126 111.445 62.126ZM118.971 62.126C118.28 62.126 117.757 61.9253 117.403 61.524C117.057 61.1133 116.885 60.5207 116.885 59.746V52.13H118.019V59.662C118.019 60.6607 118.415 61.16 119.209 61.16C119.442 61.16 119.652 61.132 119.839 61.076L119.811 62.028C119.521 62.0933 119.241 62.126 118.971 62.126ZM123.634 62.126C122.832 62.126 122.23 61.916 121.828 61.496C121.427 61.0667 121.226 60.4507 121.226 59.648V56.078H119.896V55.196H121.226V53.11H122.36V55.196H124.516V56.078H122.36V59.536C122.36 60.068 122.472 60.474 122.696 60.754C122.92 61.0247 123.284 61.16 123.788 61.16C123.938 61.16 124.087 61.1413 124.236 61.104C124.386 61.0667 124.521 61.0293 124.642 60.992L124.838 61.86C124.717 61.9253 124.54 61.986 124.306 62.042C124.073 62.098 123.849 62.126 123.634 62.126ZM127.941 62.126C127.474 62.126 127.054 62.0373 126.681 61.86C126.317 61.6733 126.027 61.4213 125.813 61.104C125.598 60.7867 125.491 60.432 125.491 60.04C125.491 59.5453 125.617 59.1533 125.869 58.864C126.13 58.5747 126.555 58.3693 127.143 58.248C127.74 58.1173 128.552 58.052 129.579 58.052H130.027V57.618C130.027 57.0393 129.905 56.624 129.663 56.372C129.429 56.1107 129.051 55.98 128.529 55.98C128.118 55.98 127.721 56.0407 127.339 56.162C126.956 56.274 126.564 56.4607 126.163 56.722L125.771 55.896C126.125 55.644 126.555 55.4433 127.059 55.294C127.572 55.1447 128.062 55.07 128.529 55.07C129.406 55.07 130.055 55.2847 130.475 55.714C130.904 56.1433 131.119 56.8107 131.119 57.716V62H130.055V60.824C129.877 61.2253 129.602 61.5427 129.229 61.776C128.865 62.0093 128.435 62.126 127.941 62.126ZM128.123 61.272C128.683 61.272 129.14 61.0807 129.495 60.698C129.849 60.306 130.027 59.8113 130.027 59.214V58.794H129.593C128.837 58.794 128.239 58.8313 127.801 58.906C127.371 58.9713 127.068 59.0927 126.891 59.27C126.723 59.438 126.639 59.6713 126.639 59.97C126.639 60.3527 126.769 60.6653 127.031 60.908C127.301 61.1507 127.665 61.272 128.123 61.272ZM135.953 62.126C135.15 62.126 134.548 61.916 134.147 61.496C133.745 61.0667 133.545 60.4507 133.545 59.648V56.078H132.215V55.196H133.545V53.11H134.679V55.196H136.835V56.078H134.679V59.536C134.679 60.068 134.791 60.474 135.015 60.754C135.239 61.0247 135.603 61.16 136.107 61.16C136.256 61.16 136.405 61.1413 136.555 61.104C136.704 61.0667 136.839 61.0293 136.961 60.992L137.157 61.86C137.035 61.9253 136.858 61.986 136.625 62.042C136.391 62.098 136.167 62.126 135.953 62.126ZM137.977 53.502V52.228H139.377V53.502H137.977ZM138.117 62V55.196H139.251V62H138.117ZM144.199 62.126C143.536 62.126 142.962 61.9813 142.477 61.692C141.992 61.4027 141.614 60.9967 141.343 60.474C141.082 59.942 140.951 59.3167 140.951 58.598C140.951 57.8793 141.082 57.2587 141.343 56.736C141.614 56.204 141.992 55.7933 142.477 55.504C142.962 55.2147 143.536 55.07 144.199 55.07C144.852 55.07 145.422 55.2147 145.907 55.504C146.402 55.7933 146.78 56.204 147.041 56.736C147.312 57.2587 147.447 57.8793 147.447 58.598C147.447 59.3167 147.312 59.942 147.041 60.474C146.78 60.9967 146.402 61.4027 145.907 61.692C145.422 61.9813 144.852 62.126 144.199 62.126ZM144.199 61.216C144.834 61.216 145.342 60.992 145.725 60.544C146.108 60.0867 146.299 59.438 146.299 58.598C146.299 57.7487 146.108 57.1 145.725 56.652C145.342 56.204 144.834 55.98 144.199 55.98C143.555 55.98 143.042 56.204 142.659 56.652C142.286 57.1 142.099 57.7487 142.099 58.598C142.099 59.438 142.286 60.0867 142.659 60.544C143.042 60.992 143.555 61.216 144.199 61.216ZM149.15 62V55.196H150.256V56.358C150.48 55.9287 150.798 55.6067 151.208 55.392C151.619 55.1773 152.081 55.07 152.594 55.07C154.209 55.07 155.016 55.966 155.016 57.758V62H153.882V57.828C153.882 57.1933 153.756 56.7313 153.504 56.442C153.262 56.1433 152.87 55.994 152.328 55.994C151.703 55.994 151.204 56.19 150.83 56.582C150.466 56.9647 150.284 57.478 150.284 58.122V62H149.15Z" fill="#363636"/>
<defs>
<filter id="filter0_d_10642_2" x="0.30835" y="0" width="87.6411" height="87.7571" filterUnits="userSpaceOnUse" color-interpolation-filters="sRGB">
<feFlood flood-opacity="0" result="BackgroundImageFix"/>
<feColorMatrix in="SourceAlpha" type="matrix" values="0 0 0 0 0 0 0 0 0 0 0 0 0 0 0 0 0 0 127 0" result="hardAlpha"/>
<feOffset dy="5"/>
<feGaussianBlur stdDeviation="7.5"/>
<feColorMatrix type="matrix" values="0 0 0 0 0.890196 0 0 0 0 0.721569 0 0 0 0 0.45098 0 0 0 0.15 0"/>
<feBlend mode="normal" in2="BackgroundImageFix" result="effect1_dropShadow_10642_2"/>
<feBlend mode="normal" in="SourceGraphic" in2="effect1_dropShadow_10642_2" result="shape"/>
</filter>
</defs>
</svg>
