<svg width="290" height="88" viewBox="0 0 290 88" fill="none" xmlns="http://www.w3.org/2000/svg">
<g filter="url(#filter0_d_1_11108)">
<rect x="23.3083" y="18" width="44.0168" height="41.7571" rx="20.8785" fill="#E3B873"/>
<rect x="19.3083" y="14" width="52.0168" height="49.7571" rx="24.8785" stroke="white" stroke-width="8"/>
</g>
<path d="M39.522 45.1323C38.55 45.1323 37.668 44.8743 36.876 44.3583C36.084 43.8423 35.454 43.0923 34.986 42.1083C34.53 41.1123 34.302 39.9303 34.302 38.5623C34.302 37.1943 34.53 36.0183 34.986 35.0343C35.454 34.0383 36.084 33.2823 36.876 32.7663C37.668 32.2503 38.55 31.9923 39.522 31.9923C40.494 31.9923 41.376 32.2503 42.168 32.7663C42.96 33.2823 43.584 34.0383 44.04 35.0343C44.508 36.0183 44.742 37.1943 44.742 38.5623C44.742 39.9303 44.508 41.1123 44.04 42.1083C43.584 43.0923 42.96 43.8423 42.168 44.3583C41.376 44.8743 40.494 45.1323 39.522 45.1323ZM39.522 44.7723C40.902 44.7723 41.592 42.7023 41.592 38.5623C41.592 34.4223 40.902 32.3523 39.522 32.3523C38.142 32.3523 37.452 34.4223 37.452 38.5623C37.452 42.7023 38.142 44.7723 39.522 44.7723ZM49.7806 44.8623V44.5923L51.0406 44.2323V41.5323H45.9106L45.5506 40.9923L52.3006 32.0823H54.0106V40.7223H55.9006V41.5323H54.0106V44.2323L55.2706 44.5923V44.8623H49.7806ZM46.5406 40.7223H51.0406V34.7823L46.5406 40.7223Z" fill="white"/>
<path d="M87.0108 33.126C85.4241 33.126 84.2155 32.678 83.3848 31.782C82.5541 30.886 82.1388 29.6493 82.1388 28.072C82.1388 27.0267 82.3255 26.126 82.6988 25.37C83.0721 24.614 83.6088 24.0307 84.3088 23.62C85.0088 23.2093 85.8535 23.004 86.8428 23.004C87.5428 23.004 88.1868 23.1113 88.7748 23.326C89.3628 23.5313 89.8621 23.8347 90.2728 24.236L89.8248 25.16C89.3768 24.768 88.9148 24.4833 88.4388 24.306C87.9628 24.1287 87.4261 24.04 86.8288 24.04C85.7088 24.04 84.8501 24.3947 84.2528 25.104C83.6555 25.804 83.3568 26.7933 83.3568 28.072C83.3568 29.3787 83.6648 30.3773 84.2808 31.068C84.8968 31.7587 85.8161 32.104 87.0388 32.104C87.8321 32.104 88.5928 31.9687 89.3208 31.698V28.772H86.8148V27.862H90.3148V32.426C90.0535 32.566 89.7361 32.6873 89.3628 32.79C88.9988 32.8927 88.6115 32.972 88.2008 33.028C87.7901 33.0933 87.3935 33.126 87.0108 33.126ZM95.573 33.126C94.4997 33.126 93.6503 32.8133 93.025 32.188C92.3997 31.5533 92.087 30.6947 92.087 29.612C92.087 28.912 92.227 28.296 92.507 27.764C92.787 27.2227 93.1697 26.8073 93.655 26.518C94.1497 26.2193 94.719 26.07 95.363 26.07C96.287 26.07 97.0103 26.3687 97.533 26.966C98.0557 27.554 98.317 28.366 98.317 29.402V29.836H93.193C93.2303 30.6107 93.4543 31.2033 93.865 31.614C94.2757 32.0153 94.845 32.216 95.573 32.216C95.9837 32.216 96.3757 32.1553 96.749 32.034C97.1223 31.9033 97.477 31.6933 97.813 31.404L98.205 32.202C97.897 32.4913 97.505 32.72 97.029 32.888C96.553 33.0467 96.0677 33.126 95.573 33.126ZM95.391 26.91C94.747 26.91 94.2383 27.1107 93.865 27.512C93.4917 27.9133 93.2723 28.4407 93.207 29.094H97.337C97.309 28.4033 97.127 27.8667 96.791 27.484C96.4643 27.1013 95.9977 26.91 95.391 26.91ZM102.688 33.126C101.885 33.126 101.283 32.916 100.882 32.496C100.481 32.0667 100.28 31.4507 100.28 30.648V27.078H98.9502V26.196H100.28V24.11H101.414V26.196H103.57V27.078H101.414V30.536C101.414 31.068 101.526 31.474 101.75 31.754C101.974 32.0247 102.338 32.16 102.842 32.16C102.991 32.16 103.141 32.1413 103.29 32.104C103.439 32.0667 103.575 32.0293 103.696 31.992L103.892 32.86C103.771 32.9253 103.593 32.986 103.36 33.042C103.127 33.098 102.903 33.126 102.688 33.126ZM110.59 33.126C110.124 33.126 109.704 33.0373 109.33 32.86C108.966 32.6733 108.677 32.4213 108.462 32.104C108.248 31.7867 108.14 31.432 108.14 31.04C108.14 30.5453 108.266 30.1533 108.518 29.864C108.78 29.5747 109.204 29.3693 109.792 29.248C110.39 29.1173 111.202 29.052 112.228 29.052H112.676V28.618C112.676 28.0393 112.555 27.624 112.312 27.372C112.079 27.1107 111.701 26.98 111.178 26.98C110.768 26.98 110.371 27.0407 109.988 27.162C109.606 27.274 109.214 27.4607 108.812 27.722L108.42 26.896C108.775 26.644 109.204 26.4433 109.708 26.294C110.222 26.1447 110.712 26.07 111.178 26.07C112.056 26.07 112.704 26.2847 113.124 26.714C113.554 27.1433 113.768 27.8107 113.768 28.716V33H112.704V31.824C112.527 32.2253 112.252 32.5427 111.878 32.776C111.514 33.0093 111.085 33.126 110.59 33.126ZM110.772 32.272C111.332 32.272 111.79 32.0807 112.144 31.698C112.499 31.306 112.676 30.8113 112.676 30.214V29.794H112.242C111.486 29.794 110.889 29.8313 110.45 29.906C110.021 29.9713 109.718 30.0927 109.54 30.27C109.372 30.438 109.288 30.6713 109.288 30.97C109.288 31.3527 109.419 31.6653 109.68 31.908C109.951 32.1507 110.315 32.272 110.772 32.272ZM122.352 33.126C121.671 33.126 121.083 32.9813 120.588 32.692C120.093 32.3933 119.711 31.978 119.44 31.446C119.179 30.9047 119.048 30.2747 119.048 29.556C119.048 28.4733 119.342 27.624 119.93 27.008C120.518 26.3827 121.325 26.07 122.352 26.07C122.772 26.07 123.187 26.1447 123.598 26.294C124.009 26.4433 124.349 26.6533 124.62 26.924L124.228 27.75C123.957 27.4887 123.659 27.2973 123.332 27.176C123.015 27.0547 122.711 26.994 122.422 26.994C121.713 26.994 121.167 27.218 120.784 27.666C120.401 28.1047 120.21 28.7393 120.21 29.57C120.21 30.382 120.401 31.026 120.784 31.502C121.167 31.9687 121.713 32.202 122.422 32.202C122.711 32.202 123.015 32.1413 123.332 32.02C123.659 31.8987 123.957 31.7027 124.228 31.432L124.62 32.258C124.349 32.5287 124.004 32.7433 123.584 32.902C123.173 33.0513 122.763 33.126 122.352 33.126ZM128.64 33.126C127.977 33.126 127.403 32.9813 126.918 32.692C126.432 32.4027 126.054 31.9967 125.784 31.474C125.522 30.942 125.392 30.3167 125.392 29.598C125.392 28.8793 125.522 28.2587 125.784 27.736C126.054 27.204 126.432 26.7933 126.918 26.504C127.403 26.2147 127.977 26.07 128.64 26.07C129.293 26.07 129.862 26.2147 130.348 26.504C130.842 26.7933 131.22 27.204 131.482 27.736C131.752 28.2587 131.888 28.8793 131.888 29.598C131.888 30.3167 131.752 30.942 131.482 31.474C131.22 31.9967 130.842 32.4027 130.348 32.692C129.862 32.9813 129.293 33.126 128.64 33.126ZM128.64 32.216C129.274 32.216 129.783 31.992 130.166 31.544C130.548 31.0867 130.74 30.438 130.74 29.598C130.74 28.7487 130.548 28.1 130.166 27.652C129.783 27.204 129.274 26.98 128.64 26.98C127.996 26.98 127.482 27.204 127.1 27.652C126.726 28.1 126.54 28.7487 126.54 29.598C126.54 30.438 126.726 31.0867 127.1 31.544C127.482 31.992 127.996 32.216 128.64 32.216ZM135.887 33.126C135.355 33.126 134.851 33.0513 134.375 32.902C133.899 32.7527 133.507 32.5427 133.199 32.272L133.563 31.474C133.899 31.7447 134.268 31.9453 134.669 32.076C135.08 32.1973 135.495 32.258 135.915 32.258C136.447 32.258 136.848 32.16 137.119 31.964C137.39 31.768 137.525 31.502 137.525 31.166C137.525 30.9047 137.436 30.6993 137.259 30.55C137.082 30.3913 136.802 30.27 136.419 30.186L135.145 29.906C133.988 29.654 133.409 29.0567 133.409 28.114C133.409 27.498 133.652 27.0033 134.137 26.63C134.632 26.2567 135.276 26.07 136.069 26.07C136.536 26.07 136.979 26.1447 137.399 26.294C137.828 26.434 138.183 26.644 138.463 26.924L138.085 27.722C137.814 27.47 137.497 27.2787 137.133 27.148C136.778 27.008 136.424 26.938 136.069 26.938C135.546 26.938 135.15 27.0407 134.879 27.246C134.608 27.4513 134.473 27.722 134.473 28.058C134.473 28.5807 134.818 28.9167 135.509 29.066L136.783 29.332C137.38 29.4627 137.833 29.6727 138.141 29.962C138.449 30.242 138.603 30.6247 138.603 31.11C138.603 31.7353 138.356 32.23 137.861 32.594C137.366 32.9487 136.708 33.126 135.887 33.126ZM142.993 33.126C142.19 33.126 141.588 32.916 141.187 32.496C140.786 32.0667 140.585 31.4507 140.585 30.648V27.078H139.255V26.196H140.585V24.11H141.719V26.196H143.875V27.078H141.719V30.536C141.719 31.068 141.831 31.474 142.055 31.754C142.279 32.0247 142.643 32.16 143.147 32.16C143.296 32.16 143.446 32.1413 143.595 32.104C143.744 32.0667 143.88 32.0293 144.001 31.992L144.197 32.86C144.076 32.9253 143.898 32.986 143.665 33.042C143.432 33.098 143.208 33.126 142.993 33.126ZM151.819 33.126C150.746 33.126 149.896 32.8133 149.271 32.188C148.646 31.5533 148.333 30.6947 148.333 29.612C148.333 28.912 148.473 28.296 148.753 27.764C149.033 27.2227 149.416 26.8073 149.901 26.518C150.396 26.2193 150.965 26.07 151.609 26.07C152.533 26.07 153.256 26.3687 153.779 26.966C154.302 27.554 154.563 28.366 154.563 29.402V29.836H149.439C149.476 30.6107 149.7 31.2033 150.111 31.614C150.522 32.0153 151.091 32.216 151.819 32.216C152.23 32.216 152.622 32.1553 152.995 32.034C153.368 31.9033 153.723 31.6933 154.059 31.404L154.451 32.202C154.143 32.4913 153.751 32.72 153.275 32.888C152.799 33.0467 152.314 33.126 151.819 33.126ZM151.637 26.91C150.993 26.91 150.484 27.1107 150.111 27.512C149.738 27.9133 149.518 28.4407 149.453 29.094H153.583C153.555 28.4033 153.373 27.8667 153.037 27.484C152.71 27.1013 152.244 26.91 151.637 26.91ZM158.5 33.126C157.968 33.126 157.464 33.0513 156.988 32.902C156.512 32.7527 156.12 32.5427 155.812 32.272L156.176 31.474C156.512 31.7447 156.881 31.9453 157.282 32.076C157.693 32.1973 158.108 32.258 158.528 32.258C159.06 32.258 159.462 32.16 159.732 31.964C160.003 31.768 160.138 31.502 160.138 31.166C160.138 30.9047 160.05 30.6993 159.872 30.55C159.695 30.3913 159.415 30.27 159.032 30.186L157.758 29.906C156.601 29.654 156.022 29.0567 156.022 28.114C156.022 27.498 156.265 27.0033 156.75 26.63C157.245 26.2567 157.889 26.07 158.682 26.07C159.149 26.07 159.592 26.1447 160.012 26.294C160.442 26.434 160.796 26.644 161.076 26.924L160.698 27.722C160.428 27.47 160.11 27.2787 159.746 27.148C159.392 27.008 159.037 26.938 158.682 26.938C158.16 26.938 157.763 27.0407 157.492 27.246C157.222 27.4513 157.086 27.722 157.086 28.058C157.086 28.5807 157.432 28.9167 158.122 29.066L159.396 29.332C159.994 29.4627 160.446 29.6727 160.754 29.962C161.062 30.242 161.216 30.6247 161.216 31.11C161.216 31.7353 160.969 32.23 160.474 32.594C159.98 32.9487 159.322 33.126 158.5 33.126ZM165.606 33.126C164.803 33.126 164.201 32.916 163.8 32.496C163.399 32.0667 163.198 31.4507 163.198 30.648V27.078H161.868V26.196H163.198V24.11H164.332V26.196H166.488V27.078H164.332V30.536C164.332 31.068 164.444 31.474 164.668 31.754C164.892 32.0247 165.256 32.16 165.76 32.16C165.909 32.16 166.059 32.1413 166.208 32.104C166.357 32.0667 166.493 32.0293 166.614 31.992L166.81 32.86C166.689 32.9253 166.511 32.986 166.278 33.042C166.045 33.098 165.821 33.126 165.606 33.126ZM167.631 24.502V23.228H169.031V24.502H167.631ZM167.771 33V26.196H168.905V33H167.771ZM171.053 33V26.196H172.159V27.344C172.364 26.9333 172.649 26.6207 173.013 26.406C173.377 26.182 173.801 26.07 174.287 26.07C175.351 26.07 176.032 26.532 176.331 27.456C176.536 27.0267 176.839 26.6907 177.241 26.448C177.642 26.196 178.104 26.07 178.627 26.07C180.139 26.07 180.895 26.966 180.895 28.758V33H179.761V28.814C179.761 28.1887 179.649 27.7313 179.425 27.442C179.21 27.1433 178.851 26.994 178.347 26.994C177.796 26.994 177.357 27.19 177.031 27.582C176.704 27.974 176.541 28.4967 176.541 29.15V33H175.407V28.814C175.407 28.1887 175.295 27.7313 175.071 27.442C174.856 27.1433 174.497 26.994 173.993 26.994C173.433 26.994 172.989 27.19 172.663 27.582C172.345 27.974 172.187 28.4967 172.187 29.15V33H171.053ZM185.157 33.126C184.69 33.126 184.27 33.0373 183.897 32.86C183.533 32.6733 183.243 32.4213 183.029 32.104C182.814 31.7867 182.707 31.432 182.707 31.04C182.707 30.5453 182.833 30.1533 183.085 29.864C183.346 29.5747 183.771 29.3693 184.359 29.248C184.956 29.1173 185.768 29.052 186.795 29.052H187.243V28.618C187.243 28.0393 187.121 27.624 186.879 27.372C186.645 27.1107 186.267 26.98 185.745 26.98C185.334 26.98 184.937 27.0407 184.555 27.162C184.172 27.274 183.78 27.4607 183.379 27.722L182.987 26.896C183.341 26.644 183.771 26.4433 184.275 26.294C184.788 26.1447 185.278 26.07 185.745 26.07C186.622 26.07 187.271 26.2847 187.691 26.714C188.12 27.1433 188.335 27.8107 188.335 28.716V33H187.271V31.824C187.093 32.2253 186.818 32.5427 186.445 32.776C186.081 33.0093 185.651 33.126 185.157 33.126ZM185.339 32.272C185.899 32.272 186.356 32.0807 186.711 31.698C187.065 31.306 187.243 30.8113 187.243 30.214V29.794H186.809C186.053 29.794 185.455 29.8313 185.017 29.906C184.587 29.9713 184.284 30.0927 184.107 30.27C183.939 30.438 183.855 30.6713 183.855 30.97C183.855 31.3527 183.985 31.6653 184.247 31.908C184.517 32.1507 184.881 32.272 185.339 32.272ZM193.169 33.126C192.366 33.126 191.764 32.916 191.363 32.496C190.961 32.0667 190.761 31.4507 190.761 30.648V27.078H189.431V26.196H190.761V24.11H191.895V26.196H194.051V27.078H191.895V30.536C191.895 31.068 192.007 31.474 192.231 31.754C192.455 32.0247 192.819 32.16 193.323 32.16C193.472 32.16 193.621 32.1413 193.771 32.104C193.92 32.0667 194.055 32.0293 194.177 31.992L194.373 32.86C194.251 32.9253 194.074 32.986 193.841 33.042C193.607 33.098 193.383 33.126 193.169 33.126ZM198.331 33.126C197.257 33.126 196.408 32.8133 195.783 32.188C195.157 31.5533 194.845 30.6947 194.845 29.612C194.845 28.912 194.985 28.296 195.265 27.764C195.545 27.2227 195.927 26.8073 196.413 26.518C196.907 26.2193 197.477 26.07 198.121 26.07C199.045 26.07 199.768 26.3687 200.291 26.966C200.813 27.554 201.075 28.366 201.075 29.402V29.836H195.951C195.988 30.6107 196.212 31.2033 196.623 31.614C197.033 32.0153 197.603 32.216 198.331 32.216C198.741 32.216 199.133 32.1553 199.507 32.034C199.88 31.9033 200.235 31.6933 200.571 31.404L200.963 32.202C200.655 32.4913 200.263 32.72 199.787 32.888C199.311 33.0467 198.825 33.126 198.331 33.126ZM198.149 26.91C197.505 26.91 196.996 27.1107 196.623 27.512C196.249 27.9133 196.03 28.4407 195.965 29.094H200.095C200.067 28.4033 199.885 27.8667 199.549 27.484C199.222 27.1013 198.755 26.91 198.149 26.91ZM208.454 33.126C207.987 33.126 207.567 33.0373 207.194 32.86C206.83 32.6733 206.54 32.4213 206.326 32.104C206.111 31.7867 206.004 31.432 206.004 31.04C206.004 30.5453 206.13 30.1533 206.382 29.864C206.643 29.5747 207.068 29.3693 207.656 29.248C208.253 29.1173 209.065 29.052 210.092 29.052H210.54V28.618C210.54 28.0393 210.418 27.624 210.176 27.372C209.942 27.1107 209.564 26.98 209.042 26.98C208.631 26.98 208.234 27.0407 207.852 27.162C207.469 27.274 207.077 27.4607 206.676 27.722L206.284 26.896C206.638 26.644 207.068 26.4433 207.572 26.294C208.085 26.1447 208.575 26.07 209.042 26.07C209.919 26.07 210.568 26.2847 210.988 26.714C211.417 27.1433 211.632 27.8107 211.632 28.716V33H210.568V31.824C210.39 32.2253 210.115 32.5427 209.742 32.776C209.378 33.0093 208.948 33.126 208.454 33.126ZM208.636 32.272C209.196 32.272 209.653 32.0807 210.008 31.698C210.362 31.306 210.54 30.8113 210.54 30.214V29.794H210.106C209.35 29.794 208.752 29.8313 208.314 29.906C207.884 29.9713 207.581 30.0927 207.404 30.27C207.236 30.438 207.152 30.6713 207.152 30.97C207.152 31.3527 207.282 31.6653 207.544 31.908C207.814 32.1507 208.178 32.272 208.636 32.272ZM213.736 33V26.196H214.842V27.358C215.066 26.9287 215.383 26.6067 215.794 26.392C216.204 26.1773 216.666 26.07 217.18 26.07C218.794 26.07 219.602 26.966 219.602 28.758V33H218.468V28.828C218.468 28.1933 218.342 27.7313 218.09 27.442C217.847 27.1433 217.455 26.994 216.914 26.994C216.288 26.994 215.789 27.19 215.416 27.582C215.052 27.9647 214.87 28.478 214.87 29.122V33H213.736ZM224.283 33.126C223.676 33.126 223.144 32.9813 222.687 32.692C222.239 32.4027 221.889 31.9967 221.637 31.474C221.394 30.942 221.273 30.3167 221.273 29.598C221.273 28.87 221.394 28.2447 221.637 27.722C221.889 27.19 222.239 26.784 222.687 26.504C223.144 26.2147 223.676 26.07 224.283 26.07C224.815 26.07 225.281 26.1867 225.683 26.42C226.093 26.6533 226.397 26.9753 226.593 27.386V23.13H227.727V33H226.621V31.754C226.425 32.1833 226.121 32.5193 225.711 32.762C225.3 33.0047 224.824 33.126 224.283 33.126ZM224.521 32.216C225.155 32.216 225.664 31.992 226.047 31.544C226.429 31.0867 226.621 30.438 226.621 29.598C226.621 28.7487 226.429 28.1 226.047 27.652C225.664 27.204 225.155 26.98 224.521 26.98C223.877 26.98 223.363 27.204 222.981 27.652C222.607 28.1 222.421 28.7487 222.421 29.598C222.421 30.438 222.607 31.0867 222.981 31.544C223.363 31.992 223.877 32.216 224.521 32.216ZM85.0788 52.126C84.2761 52.126 83.6741 51.916 83.2728 51.496C82.8715 51.0667 82.6708 50.4507 82.6708 49.648V46.078H81.3408V45.196H82.6708V43.11H83.8048V45.196H85.9608V46.078H83.8048V49.536C83.8048 50.068 83.9168 50.474 84.1408 50.754C84.3648 51.0247 84.7288 51.16 85.2328 51.16C85.3821 51.16 85.5315 51.1413 85.6808 51.104C85.8301 51.0667 85.9655 51.0293 86.0868 50.992L86.2828 51.86C86.1615 51.9253 85.9841 51.986 85.7508 52.042C85.5175 52.098 85.2935 52.126 85.0788 52.126ZM87.2433 52V42.13H88.3773V46.316C88.6013 45.9053 88.914 45.5973 89.3153 45.392C89.726 45.1773 90.1833 45.07 90.6873 45.07C92.302 45.07 93.1093 45.966 93.1093 47.758V52H91.9753V47.828C91.9753 47.1933 91.8493 46.7313 91.5973 46.442C91.3547 46.1433 90.9627 45.994 90.4213 45.994C89.796 45.994 89.2967 46.19 88.9233 46.582C88.5593 46.9647 88.3773 47.478 88.3773 48.122V52H87.2433ZM98.2664 52.126C97.193 52.126 96.3437 51.8133 95.7184 51.188C95.093 50.5533 94.7804 49.6947 94.7804 48.612C94.7804 47.912 94.9204 47.296 95.2004 46.764C95.4804 46.2227 95.863 45.8073 96.3484 45.518C96.843 45.2193 97.4124 45.07 98.0564 45.07C98.9804 45.07 99.7037 45.3687 100.226 45.966C100.749 46.554 101.01 47.366 101.01 48.402V48.836H95.8864C95.9237 49.6107 96.1477 50.2033 96.5584 50.614C96.969 51.0153 97.5384 51.216 98.2664 51.216C98.677 51.216 99.069 51.1553 99.4424 51.034C99.8157 50.9033 100.17 50.6933 100.506 50.404L100.898 51.202C100.59 51.4913 100.198 51.72 99.7224 51.888C99.2464 52.0467 98.761 52.126 98.2664 52.126ZM98.0844 45.91C97.4404 45.91 96.9317 46.1107 96.5584 46.512C96.185 46.9133 95.9657 47.4407 95.9004 48.094H100.03C100.002 47.4033 99.8204 46.8667 99.4844 46.484C99.1577 46.1013 98.691 45.91 98.0844 45.91ZM108.977 52.126C108.175 52.126 107.573 51.916 107.171 51.496C106.77 51.0667 106.569 50.4507 106.569 49.648V46.078H105.239V45.196H106.569V43.11H107.703V45.196H109.859V46.078H107.703V49.536C107.703 50.068 107.815 50.474 108.039 50.754C108.263 51.0247 108.627 51.16 109.131 51.16C109.281 51.16 109.43 51.1413 109.579 51.104C109.729 51.0667 109.864 51.0293 109.985 50.992L110.181 51.86C110.06 51.9253 109.883 51.986 109.649 52.042C109.416 52.098 109.192 52.126 108.977 52.126ZM111.002 43.502V42.228H112.402V43.502H111.002ZM111.142 52V45.196H112.276V52H111.142ZM114.424 52V45.196H115.53V46.344C115.735 45.9333 116.02 45.6207 116.384 45.406C116.748 45.182 117.172 45.07 117.658 45.07C118.722 45.07 119.403 45.532 119.702 46.456C119.907 46.0267 120.21 45.6907 120.612 45.448C121.013 45.196 121.475 45.07 121.998 45.07C123.51 45.07 124.266 45.966 124.266 47.758V52H123.132V47.814C123.132 47.1887 123.02 46.7313 122.796 46.442C122.581 46.1433 122.222 45.994 121.718 45.994C121.167 45.994 120.728 46.19 120.402 46.582C120.075 46.974 119.912 47.4967 119.912 48.15V52H118.778V47.814C118.778 47.1887 118.666 46.7313 118.442 46.442C118.227 46.1433 117.868 45.994 117.364 45.994C116.804 45.994 116.36 46.19 116.034 46.582C115.716 46.974 115.558 47.4967 115.558 48.15V52H114.424ZM126.246 43.502V42.228H127.646V43.502H126.246ZM126.386 52V45.196H127.52V52H126.386ZM129.64 52V45.196H130.746V46.358C130.97 45.9287 131.287 45.6067 131.698 45.392C132.108 45.1773 132.57 45.07 133.084 45.07C134.698 45.07 135.506 45.966 135.506 47.758V52H134.372V47.828C134.372 47.1933 134.246 46.7313 133.994 46.442C133.751 46.1433 133.359 45.994 132.818 45.994C132.192 45.994 131.693 46.19 131.32 46.582C130.956 46.9647 130.774 47.478 130.774 48.122V52H129.64ZM140.607 54.646C140.019 54.646 139.464 54.5667 138.941 54.408C138.428 54.2587 137.97 54.03 137.569 53.722L137.947 52.896C138.367 53.1947 138.782 53.4093 139.193 53.54C139.613 53.6707 140.066 53.736 140.551 53.736C141.895 53.736 142.567 53.0453 142.567 51.664V50.46C142.371 50.8893 142.063 51.23 141.643 51.482C141.232 51.7247 140.761 51.846 140.229 51.846C139.604 51.846 139.062 51.7013 138.605 51.412C138.148 51.1227 137.793 50.726 137.541 50.222C137.298 49.7087 137.177 49.116 137.177 48.444C137.177 47.772 137.298 47.184 137.541 46.68C137.793 46.1667 138.148 45.77 138.605 45.49C139.062 45.21 139.604 45.07 140.229 45.07C140.761 45.07 141.232 45.1913 141.643 45.434C142.063 45.6767 142.371 46.008 142.567 46.428V45.196H143.673V51.51C143.673 52.5553 143.412 53.3393 142.889 53.862C142.376 54.3847 141.615 54.646 140.607 54.646ZM140.439 50.922C141.092 50.922 141.61 50.698 141.993 50.25C142.376 49.802 142.567 49.2 142.567 48.444C142.567 47.688 142.376 47.0907 141.993 46.652C141.61 46.204 141.092 45.98 140.439 45.98C139.795 45.98 139.282 46.204 138.899 46.652C138.516 47.0907 138.325 47.688 138.325 48.444C138.325 49.2 138.516 49.802 138.899 50.25C139.282 50.698 139.795 50.922 140.439 50.922ZM152.224 52.126C151.561 52.126 150.987 51.9813 150.502 51.692C150.016 51.4027 149.638 50.9967 149.368 50.474C149.106 49.942 148.976 49.3167 148.976 48.598C148.976 47.8793 149.106 47.2587 149.368 46.736C149.638 46.204 150.016 45.7933 150.502 45.504C150.987 45.2147 151.561 45.07 152.224 45.07C152.877 45.07 153.446 45.2147 153.932 45.504C154.426 45.7933 154.804 46.204 155.066 46.736C155.336 47.2587 155.472 47.8793 155.472 48.598C155.472 49.3167 155.336 49.942 155.066 50.474C154.804 50.9967 154.426 51.4027 153.932 51.692C153.446 51.9813 152.877 52.126 152.224 52.126ZM152.224 51.216C152.858 51.216 153.367 50.992 153.75 50.544C154.132 50.0867 154.324 49.438 154.324 48.598C154.324 47.7487 154.132 47.1 153.75 46.652C153.367 46.204 152.858 45.98 152.224 45.98C151.58 45.98 151.066 46.204 150.684 46.652C150.31 47.1 150.124 47.7487 150.124 48.598C150.124 49.438 150.31 50.0867 150.684 50.544C151.066 50.992 151.58 51.216 152.224 51.216ZM157.471 52V46.078H156.127V45.196H157.471V44.958C157.471 44.0527 157.695 43.3667 158.143 42.9C158.6 42.4333 159.3 42.172 160.243 42.116L160.789 42.088L160.887 42.956L160.243 42.998C159.664 43.0447 159.244 43.2173 158.983 43.516C158.731 43.8147 158.605 44.2487 158.605 44.818V45.196H160.565V46.078H158.605V52H157.471ZM166.148 54.52L167.31 51.888L164.44 45.196H165.672L167.926 50.712L170.194 45.196H171.384L167.338 54.52H166.148ZM175.288 52.126C174.625 52.126 174.051 51.9813 173.566 51.692C173.081 51.4027 172.703 50.9967 172.432 50.474C172.171 49.942 172.04 49.3167 172.04 48.598C172.04 47.8793 172.171 47.2587 172.432 46.736C172.703 46.204 173.081 45.7933 173.566 45.504C174.051 45.2147 174.625 45.07 175.288 45.07C175.941 45.07 176.511 45.2147 176.996 45.504C177.491 45.7933 177.869 46.204 178.13 46.736C178.401 47.2587 178.536 47.8793 178.536 48.598C178.536 49.3167 178.401 49.942 178.13 50.474C177.869 50.9967 177.491 51.4027 176.996 51.692C176.511 51.9813 175.941 52.126 175.288 52.126ZM175.288 51.216C175.923 51.216 176.431 50.992 176.814 50.544C177.197 50.0867 177.388 49.438 177.388 48.598C177.388 47.7487 177.197 47.1 176.814 46.652C176.431 46.204 175.923 45.98 175.288 45.98C174.644 45.98 174.131 46.204 173.748 46.652C173.375 47.1 173.188 47.7487 173.188 48.598C173.188 49.438 173.375 50.0867 173.748 50.544C174.131 50.992 174.644 51.216 175.288 51.216ZM182.647 52.126C181.014 52.126 180.197 51.2253 180.197 49.424V45.196H181.331V49.41C181.331 50.0167 181.453 50.4647 181.695 50.754C181.947 51.0433 182.339 51.188 182.871 51.188C183.45 51.188 183.921 50.9967 184.285 50.614C184.649 50.222 184.831 49.704 184.831 49.06V45.196H185.965V52H184.859V50.852C184.645 51.2627 184.341 51.58 183.949 51.804C183.567 52.0187 183.133 52.126 182.647 52.126ZM188.087 52V45.196H189.193V46.414C189.557 45.5927 190.304 45.14 191.433 45.056L191.839 45.014L191.923 45.994L191.209 46.078C190.565 46.134 190.075 46.3393 189.739 46.694C189.403 47.0393 189.235 47.5153 189.235 48.122V52H188.087ZM197.064 52V46.078H195.72V45.196H197.064V44.958C197.064 44.0527 197.288 43.3667 197.736 42.9C198.194 42.4333 198.894 42.172 199.836 42.116L200.382 42.088L200.48 42.956L199.836 42.998C199.258 43.0447 198.838 43.2173 198.576 43.516C198.324 43.8147 198.198 44.2487 198.198 44.818V45.196H200.158V46.078H198.198V52H197.064ZM203.77 52.126C202.137 52.126 201.32 51.2253 201.32 49.424V45.196H202.454V49.41C202.454 50.0167 202.576 50.4647 202.818 50.754C203.07 51.0433 203.462 51.188 203.994 51.188C204.573 51.188 205.044 50.9967 205.408 50.614C205.772 50.222 205.954 49.704 205.954 49.06V45.196H207.088V52H205.982V50.852C205.768 51.2627 205.464 51.58 205.072 51.804C204.69 52.0187 204.256 52.126 203.77 52.126ZM211.94 52.126C211.137 52.126 210.535 51.916 210.134 51.496C209.733 51.0667 209.532 50.4507 209.532 49.648V46.078H208.202V45.196H209.532V43.11H210.666V45.196H212.822V46.078H210.666V49.536C210.666 50.068 210.778 50.474 211.002 50.754C211.226 51.0247 211.59 51.16 212.094 51.16C212.243 51.16 212.393 51.1413 212.542 51.104C212.691 51.0667 212.827 51.0293 212.948 50.992L213.144 51.86C213.023 51.9253 212.845 51.986 212.612 52.042C212.379 52.098 212.155 52.126 211.94 52.126ZM216.513 52.126C214.879 52.126 214.063 51.2253 214.063 49.424V45.196H215.197V49.41C215.197 50.0167 215.318 50.4647 215.561 50.754C215.813 51.0433 216.205 51.188 216.737 51.188C217.315 51.188 217.787 50.9967 218.151 50.614C218.515 50.222 218.697 49.704 218.697 49.06V45.196H219.831V52H218.725V50.852C218.51 51.2627 218.207 51.58 217.815 51.804C217.432 52.0187 216.998 52.126 216.513 52.126ZM221.952 52V45.196H223.058V46.414C223.422 45.5927 224.169 45.14 225.298 45.056L225.704 45.014L225.788 45.994L225.074 46.078C224.43 46.134 223.94 46.3393 223.604 46.694C223.268 47.0393 223.1 47.5153 223.1 48.122V52H221.952ZM229.954 52.126C228.881 52.126 228.031 51.8133 227.406 51.188C226.781 50.5533 226.468 49.6947 226.468 48.612C226.468 47.912 226.608 47.296 226.888 46.764C227.168 46.2227 227.551 45.8073 228.036 45.518C228.531 45.2193 229.1 45.07 229.744 45.07C230.668 45.07 231.391 45.3687 231.914 45.966C232.437 46.554 232.698 47.366 232.698 48.402V48.836H227.574C227.611 49.6107 227.835 50.2033 228.246 50.614C228.657 51.0153 229.226 51.216 229.954 51.216C230.365 51.216 230.757 51.1553 231.13 51.034C231.503 50.9033 231.858 50.6933 232.194 50.404L232.586 51.202C232.278 51.4913 231.886 51.72 231.41 51.888C230.934 52.0467 230.449 52.126 229.954 52.126ZM229.772 45.91C229.128 45.91 228.619 46.1107 228.246 46.512C227.873 46.9133 227.653 47.4407 227.588 48.094H231.718C231.69 47.4033 231.508 46.8667 231.172 46.484C230.845 46.1013 230.379 45.91 229.772 45.91ZM237.935 52V45.196H239.041V46.414C239.405 45.5927 240.151 45.14 241.281 45.056L241.687 45.014L241.771 45.994L241.057 46.078C240.413 46.134 239.923 46.3393 239.587 46.694C239.251 47.0393 239.083 47.5153 239.083 48.122V52H237.935ZM245.936 52.126C244.863 52.126 244.014 51.8133 243.388 51.188C242.763 50.5533 242.45 49.6947 242.45 48.612C242.45 47.912 242.59 47.296 242.87 46.764C243.15 46.2227 243.533 45.8073 244.018 45.518C244.513 45.2193 245.082 45.07 245.726 45.07C246.65 45.07 247.374 45.3687 247.896 45.966C248.419 46.554 248.68 47.366 248.68 48.402V48.836H243.556C243.594 49.6107 243.818 50.2033 244.228 50.614C244.639 51.0153 245.208 51.216 245.936 51.216C246.347 51.216 246.739 51.1553 247.112 51.034C247.486 50.9033 247.84 50.6933 248.176 50.404L248.568 51.202C248.26 51.4913 247.868 51.72 247.392 51.888C246.916 52.0467 246.431 52.126 245.936 52.126ZM245.754 45.91C245.11 45.91 244.602 46.1107 244.228 46.512C243.855 46.9133 243.636 47.4407 243.57 48.094H247.7C247.672 47.4033 247.49 46.8667 247.154 46.484C246.828 46.1013 246.361 45.91 245.754 45.91ZM250.321 54.52V45.196H251.427V46.414C251.633 45.994 251.936 45.6673 252.337 45.434C252.748 45.1913 253.224 45.07 253.765 45.07C254.372 45.07 254.899 45.2147 255.347 45.504C255.805 45.784 256.155 46.19 256.397 46.722C256.649 47.2447 256.775 47.87 256.775 48.598C256.775 49.3167 256.649 49.942 256.397 50.474C256.155 50.9967 255.805 51.4027 255.347 51.692C254.899 51.9813 254.372 52.126 253.765 52.126C253.243 52.126 252.776 52.0093 252.365 51.776C251.955 51.5427 251.651 51.2207 251.455 50.81V54.52H250.321ZM253.527 51.216C254.162 51.216 254.671 50.992 255.053 50.544C255.436 50.0867 255.627 49.438 255.627 48.598C255.627 47.7487 255.436 47.1 255.053 46.652C254.671 46.204 254.162 45.98 253.527 45.98C252.893 45.98 252.384 46.204 252.001 46.652C251.619 47.1 251.427 47.7487 251.427 48.598C251.427 49.438 251.619 50.0867 252.001 50.544C252.384 50.992 252.893 51.216 253.527 51.216ZM260.626 52.126C260.159 52.126 259.739 52.0373 259.366 51.86C259.002 51.6733 258.712 51.4213 258.498 51.104C258.283 50.7867 258.176 50.432 258.176 50.04C258.176 49.5453 258.302 49.1533 258.554 48.864C258.815 48.5747 259.24 48.3693 259.828 48.248C260.425 48.1173 261.237 48.052 262.264 48.052H262.712V47.618C262.712 47.0393 262.59 46.624 262.348 46.372C262.114 46.1107 261.736 45.98 261.214 45.98C260.803 45.98 260.406 46.0407 260.024 46.162C259.641 46.274 259.249 46.4607 258.848 46.722L258.456 45.896C258.81 45.644 259.24 45.4433 259.744 45.294C260.257 45.1447 260.747 45.07 261.214 45.07C262.091 45.07 262.74 45.2847 263.16 45.714C263.589 46.1433 263.804 46.8107 263.804 47.716V52H262.74V50.824C262.562 51.2253 262.287 51.5427 261.914 51.776C261.55 52.0093 261.12 52.126 260.626 52.126ZM260.808 51.272C261.368 51.272 261.825 51.0807 262.18 50.698C262.534 50.306 262.712 49.8113 262.712 49.214V48.794H262.278C261.522 48.794 260.924 48.8313 260.486 48.906C260.056 48.9713 259.753 49.0927 259.576 49.27C259.408 49.438 259.324 49.6713 259.324 49.97C259.324 50.3527 259.454 50.6653 259.716 50.908C259.986 51.1507 260.35 51.272 260.808 51.272ZM265.767 43.502V42.228H267.167V43.502H265.767ZM265.907 52V45.196H267.041V52H265.907ZM269.161 52V45.196H270.267V46.414C270.631 45.5927 271.378 45.14 272.507 45.056L272.913 45.014L272.997 45.994L272.283 46.078C271.639 46.134 271.149 46.3393 270.813 46.694C270.477 47.0393 270.309 47.5153 270.309 48.122V52H269.161ZM276.407 52.126C275.875 52.126 275.371 52.0513 274.895 51.902C274.419 51.7527 274.027 51.5427 273.719 51.272L274.083 50.474C274.419 50.7447 274.787 50.9453 275.189 51.076C275.599 51.1973 276.015 51.258 276.435 51.258C276.967 51.258 277.368 51.16 277.639 50.964C277.909 50.768 278.045 50.502 278.045 50.166C278.045 49.9047 277.956 49.6993 277.779 49.55C277.601 49.3913 277.321 49.27 276.939 49.186L275.665 48.906C274.507 48.654 273.929 48.0567 273.929 47.114C273.929 46.498 274.171 46.0033 274.657 45.63C275.151 45.2567 275.795 45.07 276.589 45.07C277.055 45.07 277.499 45.1447 277.919 45.294C278.348 45.434 278.703 45.644 278.983 45.924L278.605 46.722C278.334 46.47 278.017 46.2787 277.653 46.148C277.298 46.008 276.943 45.938 276.589 45.938C276.066 45.938 275.669 46.0407 275.399 46.246C275.128 46.4513 274.993 46.722 274.993 47.058C274.993 47.5807 275.338 47.9167 276.029 48.066L277.303 48.332C277.9 48.4627 278.353 48.6727 278.661 48.962C278.969 49.242 279.123 49.6247 279.123 50.11C279.123 50.7353 278.875 51.23 278.381 51.594C277.886 51.9487 277.228 52.126 276.407 52.126Z" fill="#363636"/>
<defs>
<filter id="filter0_d_1_11108" x="0.30835" y="0" width="90.0168" height="87.7571" filterUnits="userSpaceOnUse" color-interpolation-filters="sRGB">
<feFlood flood-opacity="0" result="BackgroundImageFix"/>
<feColorMatrix in="SourceAlpha" type="matrix" values="0 0 0 0 0 0 0 0 0 0 0 0 0 0 0 0 0 0 127 0" result="hardAlpha"/>
<feOffset dy="5"/>
<feGaussianBlur stdDeviation="7.5"/>
<feColorMatrix type="matrix" values="0 0 0 0 0.890196 0 0 0 0 0.721569 0 0 0 0 0.45098 0 0 0 0.15 0"/>
<feBlend mode="normal" in2="BackgroundImageFix" result="effect1_dropShadow_1_11108"/>
<feBlend mode="normal" in="SourceGraphic" in2="effect1_dropShadow_1_11108" result="shape"/>
</filter>
</defs>
</svg>
