<svg width="294" height="55" viewBox="0 0 294 55" fill="none" xmlns="http://www.w3.org/2000/svg">
<g filter="url(#filter0_d_1_11286)">
<rect x="0.713867" width="292.937" height="54" fill="#E3B873"/>
</g>
<path d="M69.6303 33.0703V32.8153L70.8203 32.4753V29.9253H65.9753L65.6353 29.4153L72.0103 21.0003H73.6253V29.1603H75.4103V29.9253H73.6253V32.4753L74.8153 32.8153V33.0703H69.6303ZM66.5703 29.1603H70.8203V23.5503L66.5703 29.1603ZM81.1916 33.3253C80.2736 33.3253 79.4406 33.0816 78.6926 32.5943C77.9446 32.107 77.3496 31.3986 76.9076 30.4693C76.477 29.5286 76.2616 28.4123 76.2616 27.1203C76.2616 25.8283 76.477 24.7176 76.9076 23.7883C77.3496 22.8476 77.9446 22.1336 78.6926 21.6463C79.4406 21.159 80.2736 20.9153 81.1916 20.9153C82.1096 20.9153 82.9426 21.159 83.6906 21.6463C84.4386 22.1336 85.028 22.8476 85.4586 23.7883C85.9006 24.7176 86.1216 25.8283 86.1216 27.1203C86.1216 28.4123 85.9006 29.5286 85.4586 30.4693C85.028 31.3986 84.4386 32.107 83.6906 32.5943C82.9426 33.0816 82.1096 33.3253 81.1916 33.3253ZM81.1916 32.9853C82.495 32.9853 83.1466 31.0303 83.1466 27.1203C83.1466 23.2103 82.495 21.2553 81.1916 21.2553C79.8883 21.2553 79.2366 23.2103 79.2366 27.1203C79.2366 31.0303 79.8883 32.9853 81.1916 32.9853ZM94.03 23.2953V32.3053L95.39 32.8153V33.0703H92.16V32.8153L93.52 32.3053V21.6803L92.5 21.4253V21.1703H94.625C95.2143 21.1703 95.679 21.295 96.019 21.5443C96.3703 21.7823 96.6706 22.1393 96.92 22.6153L100.626 29.7043L103.465 22.6153C103.658 22.1166 103.918 21.754 104.247 21.5273C104.576 21.2893 105.08 21.1703 105.76 21.1703H107.545V21.4253L106.525 21.6803V32.5603L107.545 32.8153V33.0703H102.7V32.8153L103.72 32.5603V23.2953L99.725 33.2403H99.215L94.03 23.2953ZM108.911 32.3053C108.911 31.6366 109.041 31.0303 109.302 30.4863C109.574 29.931 109.903 29.4493 110.288 29.0413C110.673 28.6333 111.178 28.1516 111.801 27.5963C112.379 27.0863 112.832 26.6613 113.161 26.3213C113.49 25.97 113.767 25.579 113.994 25.1483C114.221 24.7063 114.334 24.2303 114.334 23.7203C114.334 22.9723 114.153 22.3886 113.79 21.9693C113.427 21.55 112.957 21.3403 112.379 21.3403C112.05 21.3403 111.716 21.3856 111.376 21.4763L111.019 21.5953V24.3153L110.798 24.3663C110.617 24.389 110.464 24.4003 110.339 24.4003C109.954 24.4003 109.642 24.287 109.404 24.0603C109.177 23.8223 109.064 23.5106 109.064 23.1253C109.064 22.7626 109.2 22.4113 109.472 22.0713C109.755 21.7313 110.169 21.4536 110.713 21.2383C111.268 21.023 111.937 20.9153 112.719 20.9153C114.249 20.9153 115.382 21.2213 116.119 21.8333C116.856 22.4453 117.224 23.301 117.224 24.4003C117.224 25.0916 117.043 25.6866 116.68 26.1853C116.329 26.684 115.892 27.0976 115.371 27.4263C114.861 27.755 114.175 28.129 113.314 28.5483C112.589 28.8996 111.999 29.2113 111.546 29.4833C111.104 29.744 110.69 30.0613 110.305 30.4353C109.931 30.8093 109.665 31.2343 109.506 31.7103H115.796C115.875 31.0983 116.068 30.5883 116.374 30.1803C116.499 29.9876 116.646 29.8176 116.816 29.6703H117.326V33.0703H108.911V32.3053Z" fill="white"/>
<path d="M49.7414 11.7637C49.7414 11.6257 49.6294 11.5137 49.4914 11.5137H21.3049C21.2145 11.5137 21.1579 11.4456 21.1579 11.3819C21.1579 11.3181 21.2145 11.25 21.3049 11.25H49.8884C49.9788 11.25 50.0354 11.3181 50.0354 11.3819V39.0039C50.0354 39.0677 49.9788 39.1358 49.8884 39.1358C49.7979 39.1358 49.7414 39.0677 49.7414 39.0039V11.7637Z" fill="white" stroke="white" stroke-width="0.5" stroke-linecap="round" stroke-linejoin="round"/>
<path d="M21.4131 15.2885L21.1996 15.0744L21.1996 15.3768L21.1996 39.3123L20.6618 39.3123L20.6618 15.3768L20.6618 15.0744L20.4483 15.2885L18.6142 17.1278C18.5092 17.233 18.3392 17.233 18.2342 17.1278C18.129 17.0223 18.129 16.8512 18.2342 16.7458L20.7407 14.2323C20.8457 14.127 21.0157 14.127 21.1207 14.2323L23.6272 16.7458C23.7324 16.8512 23.7324 17.0223 23.6272 17.1278C23.5222 17.233 23.3522 17.233 23.2472 17.1278L21.4131 15.2885Z" fill="white" stroke="white" stroke-width="0.25"/>
<path d="M44.743 39.9199L44.957 39.7064H44.6547L20.6609 39.7064V39.1665L44.6547 39.1665H44.957L44.743 38.953L42.8993 37.1138C42.7936 37.0084 42.7936 36.8376 42.8993 36.7322C43.0051 36.6266 43.1768 36.6266 43.2826 36.7322L45.8022 39.2457C45.9079 39.3511 45.9079 39.5218 45.8022 39.6272L43.2826 42.1407C43.1768 42.2463 43.0051 42.2463 42.8993 42.1407C42.7936 42.0353 42.7936 41.8646 42.8993 41.7592L44.743 39.9199Z" fill="white" stroke="white" stroke-width="0.25"/>
<path d="M31.4098 11.2922L31.2328 11.1157L31.4098 11.2922C31.4659 11.2359 31.5567 11.2359 31.6128 11.2922L31.7469 11.1584L31.6128 11.2922C31.6693 11.3489 31.6693 11.441 31.6128 11.4977L26.8865 16.2372C26.8303 16.2935 26.7396 16.2935 26.6835 16.2372C26.627 16.1805 26.627 16.0884 26.6835 16.0317L26.5065 15.8552L26.6835 16.0317L31.4098 11.2922Z" fill="white" stroke="white" stroke-width="0.5" stroke-linecap="round" stroke-linejoin="round"/>
<path d="M49.8617 30.1189C49.9183 30.1755 49.9183 30.2677 49.8617 30.3244L45.5293 34.6689C45.4732 34.7252 45.3824 34.7252 45.3263 34.6689C45.2698 34.6122 45.2698 34.5201 45.3263 34.4634L49.6588 30.1189C49.7149 30.0626 49.8056 30.0626 49.8617 30.1189L50.0388 29.9423L49.8617 30.1189Z" fill="white" stroke="white" stroke-width="0.5" stroke-linecap="round" stroke-linejoin="round"/>
<path d="M37.52 11.2916C37.5769 11.3479 37.5775 11.44 37.5213 11.4971L27.281 21.8976C27.2252 21.9542 27.1345 21.9548 27.078 21.8989C27.0211 21.8426 27.0206 21.7504 27.0767 21.6934L26.8986 21.518L27.0767 21.6934L37.3171 11.2929C37.3729 11.2362 37.4636 11.2356 37.52 11.2916Z" fill="white" stroke="white" stroke-width="0.5" stroke-linecap="round" stroke-linejoin="round"/>
<path d="M49.9929 23.5357C50.0494 23.5923 50.0494 23.6845 49.9929 23.7412L40.0151 33.7468C39.959 33.803 39.8683 33.803 39.8122 33.7468C39.7556 33.6901 39.7556 33.5979 39.8122 33.5413L49.79 23.5357C49.8461 23.4794 49.9368 23.4794 49.9929 23.5357Z" fill="white" stroke="white" stroke-width="0.5" stroke-linecap="round" stroke-linejoin="round"/>
<path d="M43.8233 11.4247C43.8794 11.4818 43.8786 11.574 43.8217 11.6302L27.4108 27.8234C27.3543 27.8793 27.2636 27.8785 27.2079 27.8218C27.1518 27.7647 27.1526 27.6725 27.2095 27.6163L43.6204 11.423C43.6769 11.3672 43.7677 11.3679 43.8233 11.4247Z" fill="white" stroke="white" stroke-width="0.5" stroke-linecap="round" stroke-linejoin="round"/>
<path d="M49.993 17.3483C50.0496 17.405 50.0496 17.4971 49.993 17.5538L33.4509 34.142C33.3948 34.1983 33.3041 34.1983 33.2479 34.142C33.1914 34.0854 33.1914 33.9932 33.2479 33.9365L49.7901 17.3483C49.8462 17.292 49.9369 17.292 49.993 17.3483Z" fill="white" stroke="white" stroke-width="0.5" stroke-linecap="round" stroke-linejoin="round"/>
<path d="M49.7304 11.4239C49.7869 11.4805 49.7869 11.5727 49.7304 11.6294L27.1491 34.2736C27.093 34.3299 27.0023 34.3299 26.9461 34.2736C26.8896 34.2169 26.8896 34.1248 26.9461 34.0681L49.5275 11.4239C49.5836 11.3676 49.6743 11.3676 49.7304 11.4239Z" fill="white" stroke="white" stroke-width="0.5" stroke-linecap="round" stroke-linejoin="round"/>
<path d="M204.303 33.1387V32.8837L205.493 32.5437V29.9937H200.648L200.308 29.4837L206.683 21.0687H208.298V29.2287H210.083V29.9937H208.298V32.5437L209.488 32.8837V33.1387H204.303ZM201.243 29.2287H205.493V23.6187L201.243 29.2287ZM215.849 33.3937C214.421 33.3937 213.338 33.1103 212.602 32.5437C211.876 31.977 211.514 31.2403 211.514 30.3337C211.514 29.7103 211.786 29.1097 212.33 28.5317C212.874 27.9423 213.537 27.523 214.319 27.2737C213.571 26.8543 212.998 26.3953 212.602 25.8967C212.216 25.3867 212.024 24.769 212.024 24.0437C212.024 23.137 212.386 22.4003 213.112 21.8337C213.848 21.267 214.931 20.9837 216.359 20.9837C217.073 20.9837 217.696 21.114 218.229 21.3747C218.773 21.6353 219.192 21.9753 219.487 22.3947C219.781 22.814 219.929 23.2503 219.929 23.7037C219.929 24.2363 219.696 24.752 219.232 25.2507C218.778 25.7493 218.246 26.0837 217.634 26.2537C218.665 26.707 219.447 27.2453 219.98 27.8687C220.512 28.492 220.779 29.257 220.779 30.1637C220.779 30.753 220.597 31.2913 220.235 31.7787C219.872 32.266 219.322 32.657 218.586 32.9517C217.849 33.2463 216.937 33.3937 215.849 33.3937ZM217.124 25.9137C217.554 25.721 217.9 25.4433 218.161 25.0807C218.433 24.718 218.569 24.259 218.569 23.7037C218.569 23.2957 218.467 22.916 218.263 22.5647C218.07 22.2133 217.815 21.9357 217.498 21.7317C217.192 21.5163 216.869 21.4087 216.529 21.4087C216.041 21.4087 215.633 21.6013 215.305 21.9867C214.987 22.3607 214.829 22.8763 214.829 23.5337C214.829 24.4403 215.594 25.2337 217.124 25.9137ZM215.679 32.9687C216.404 32.9687 216.965 32.7703 217.362 32.3737C217.77 31.9657 217.974 31.399 217.974 30.6737C217.974 30.1297 217.702 29.58 217.158 29.0247C216.614 28.4693 215.894 27.999 214.999 27.6137C214.364 27.8403 213.865 28.1803 213.503 28.6337C213.14 29.0757 212.959 29.6423 212.959 30.3337C212.959 30.8097 213.078 31.2517 213.316 31.6597C213.565 32.0563 213.894 32.3737 214.302 32.6117C214.721 32.8497 215.18 32.9687 215.679 32.9687ZM226.907 32.8837L227.927 32.6287V21.7487L226.907 21.4937V21.2387H231.242C233.271 21.2387 234.824 21.76 235.9 22.8027C236.988 23.8453 237.532 25.3073 237.532 27.1887C237.532 29.07 236.988 30.532 235.9 31.5747C234.824 32.6173 233.271 33.1387 231.242 33.1387H226.907V32.8837ZM231.242 32.7137C232.296 32.7137 233.112 32.2887 233.69 31.4387C234.268 30.5773 234.557 29.1607 234.557 27.1887C234.557 25.2167 234.268 23.8057 233.69 22.9557C233.112 22.0943 232.296 21.6637 231.242 21.6637H230.732V32.7137H231.242ZM237.355 32.8837L238.715 32.3737L243.39 21.0687H243.9L248.745 32.6287L249.595 32.8837V33.1387H247.555C246.966 33.1387 246.484 33.0083 246.11 32.7477C245.736 32.4757 245.458 32.1243 245.277 31.6937L244.41 29.6537H240.347L239.225 32.3737L240.5 32.8837V33.1387H237.355V32.8837ZM240.517 29.2287H244.24L242.37 24.7577L240.517 29.2287ZM251.37 32.8837L252.39 32.6287V28.7187L248.905 21.7487L248.055 21.4937V21.2387H250.18C250.769 21.2387 251.239 21.3633 251.591 21.6127C251.953 21.862 252.248 22.219 252.475 22.6837L254.991 27.6987L257.575 22.0037L256.3 21.4937V21.2387H259.53V21.4937L258.17 22.0037L255.195 28.5487V32.6287L256.215 32.8837V33.1387H251.37V32.8837ZM263.861 33.3937C263.056 33.3937 262.302 33.2123 261.6 32.8497C261.282 32.691 261.016 32.504 260.801 32.2887C260.642 32.5493 260.444 32.7817 260.206 32.9857C260.002 33.133 259.888 33.2123 259.866 33.2237H259.441V29.9937H260.121C260.291 30.549 260.529 31.0477 260.835 31.4897C261.526 32.4757 262.421 32.9687 263.521 32.9687C264.167 32.9687 264.682 32.776 265.068 32.3907C265.453 32.0053 265.646 31.4897 265.646 30.8437C265.646 30.4697 265.532 30.1353 265.306 29.8407C265.09 29.546 264.818 29.2853 264.49 29.0587C264.161 28.832 263.702 28.5487 263.113 28.2087C262.365 27.7893 261.758 27.4097 261.294 27.0697C260.829 26.7297 260.432 26.3047 260.104 25.7947C259.775 25.2733 259.611 24.6613 259.611 23.9587C259.611 23.4033 259.764 22.9047 260.07 22.4627C260.387 22.0093 260.857 21.6523 261.481 21.3917C262.104 21.1197 262.869 20.9837 263.776 20.9837C264.433 20.9837 265.09 21.1707 265.748 21.5447C265.997 21.6807 266.246 21.862 266.496 22.0887C266.688 21.794 266.887 21.5617 267.091 21.3917C267.295 21.2443 267.408 21.165 267.431 21.1537H267.856V24.3837H267.176C267.028 23.8397 266.807 23.3467 266.513 22.9047C266.241 22.474 265.901 22.117 265.493 21.8337C265.096 21.5503 264.637 21.4087 264.116 21.4087C263.674 21.4087 263.294 21.5843 262.977 21.9357C262.659 22.287 262.501 22.7347 262.501 23.2787C262.501 23.698 262.62 24.0777 262.858 24.4177C263.107 24.7463 263.407 25.0353 263.759 25.2847C264.121 25.534 264.609 25.8343 265.221 26.1857C265.935 26.5937 266.513 26.9563 266.955 27.2737C267.397 27.591 267.771 27.9877 268.077 28.4637C268.383 28.9283 268.536 29.4667 268.536 30.0787C268.536 30.6907 268.36 31.2517 268.009 31.7617C267.657 32.2603 267.13 32.657 266.428 32.9517C265.725 33.2463 264.869 33.3937 263.861 33.3937Z" fill="white"/>
<path d="M135.428 54.035L135.428 0" stroke="white" stroke-width="0.75"/>
<path d="M176.824 13.1997C176.561 11.9464 175.423 11 174.062 11C173.751 11 173.499 11.2458 173.499 11.5499C173.499 11.854 173.751 12.0998 174.062 12.0998C174.995 12.0998 175.753 12.84 175.753 13.7496C175.753 14.6591 174.995 15.3993 174.062 15.3993C173.751 15.3993 173.499 15.6451 173.499 15.9492C173.499 16.2533 173.751 16.4992 174.062 16.4992C175.423 16.4992 176.561 15.5528 176.824 14.2995H184.208V19.2487H153.772V14.2995H161.663H163.354C163.665 14.2995 163.917 14.0537 163.917 13.7496C163.917 13.4455 163.665 13.1997 163.354 13.1997H162.33C162.563 12.5607 163.183 12.0998 163.917 12.0998C164.849 12.0998 165.608 12.84 165.608 13.7496C165.608 14.6591 164.849 15.3993 163.917 15.3993C163.606 15.3993 163.354 15.6451 163.354 15.9492C163.354 16.2533 163.606 16.4992 163.917 16.4992C165.471 16.4992 166.735 15.2657 166.735 13.7496C166.735 12.2335 165.471 11 163.917 11C162.557 11 161.418 11.9464 161.156 13.1997H152.645V20.3486V42.3452H185.335V20.3486V13.1997H176.824ZM184.208 41.2454H153.772V20.3486H184.208V41.2454Z" fill="white"/>
<path d="M167.299 12.0998C168.231 12.0998 168.99 12.84 168.99 13.7496C168.99 14.6591 168.231 15.3993 167.299 15.3993C166.988 15.3993 166.735 15.6451 166.735 15.9492C166.735 16.2533 166.988 16.4992 167.299 16.4992C168.853 16.4992 170.117 15.2657 170.117 13.7496C170.117 12.2335 168.853 11 167.299 11C166.988 11 166.735 11.2458 166.735 11.5499C166.735 11.854 166.988 12.0998 167.299 12.0998Z" fill="white"/>
<path d="M170.681 12.0998C171.613 12.0998 172.371 12.84 172.371 13.7496C172.371 14.6591 171.613 15.3993 170.681 15.3993C170.37 15.3993 170.117 15.6451 170.117 15.9492C170.117 16.2533 170.37 16.4992 170.681 16.4992C172.235 16.4992 173.499 15.2657 173.499 13.7496C173.499 12.2335 172.235 11 170.681 11C170.37 11 170.117 11.2458 170.117 11.5499C170.117 11.854 170.37 12.0998 170.681 12.0998Z" fill="white"/>
<path d="M157.717 24.7475H170.117C170.428 24.7475 170.681 24.5017 170.681 24.1976C170.681 23.8935 170.428 23.6476 170.117 23.6476H157.717C157.406 23.6476 157.154 23.8935 157.154 24.1976C157.154 24.5017 157.406 24.7475 157.717 24.7475Z" fill="white"/>
<path d="M180.262 32.4467H171.808C171.497 32.4467 171.244 32.6925 171.244 32.9966C171.244 33.3007 171.497 33.5465 171.808 33.5465H180.262C180.573 33.5465 180.826 33.3007 180.826 32.9966C180.826 32.6925 180.573 32.4467 180.262 32.4467Z" fill="white"/>
<path d="M157.717 29.1472H163.354C163.665 29.1472 163.917 28.9014 163.917 28.5973C163.917 28.2932 163.665 28.0474 163.354 28.0474H157.717C157.406 28.0474 157.154 28.2932 157.154 28.5973C157.154 28.9014 157.406 29.1472 157.717 29.1472Z" fill="white"/>
<path d="M180.262 36.8459H174.626C174.315 36.8459 174.062 37.0917 174.062 37.3958C174.062 37.6999 174.315 37.9457 174.626 37.9457H180.262C180.573 37.9457 180.826 37.6999 180.826 37.3958C180.826 37.0917 180.573 36.8459 180.262 36.8459Z" fill="white"/>
<path d="M168.426 28.5973C168.426 28.9014 168.679 29.1472 168.99 29.1472H177.444C177.755 29.1472 178.008 28.9014 178.008 28.5973C178.008 28.2932 177.755 28.0474 177.444 28.0474H168.99C168.679 28.0474 168.426 28.2932 168.426 28.5973Z" fill="white"/>
<path d="M166.572 28.988C166.673 28.8835 166.735 28.7405 166.735 28.5975C166.735 28.454 166.673 28.311 166.572 28.2071C166.363 28.0036 165.98 28.0036 165.772 28.2071C165.67 28.311 165.608 28.454 165.608 28.5975C165.608 28.7405 165.67 28.8835 165.772 28.988C165.879 29.0919 166.025 29.1475 166.172 29.1475C166.318 29.1475 166.465 29.0919 166.572 28.988Z" fill="white"/>
<path d="M159.972 32.9966C159.972 33.3007 160.224 33.5465 160.535 33.5465H168.99C169.301 33.5465 169.553 33.3007 169.553 32.9966C169.553 32.6925 169.301 32.4467 168.99 32.4467H160.535C160.224 32.4467 159.972 32.6925 159.972 32.9966Z" fill="white"/>
<path d="M157.717 33.5469C157.864 33.5469 158.01 33.4864 158.118 33.3875C158.219 33.283 158.281 33.14 158.281 32.997C158.281 32.8535 158.219 32.7105 158.118 32.6121C157.909 32.4031 157.526 32.4031 157.317 32.6066C157.216 32.7105 157.154 32.8535 157.154 32.997C157.154 33.14 157.216 33.283 157.317 33.3875C157.424 33.4864 157.565 33.5469 157.717 33.5469Z" fill="white"/>
<path d="M180.262 29.1475C180.409 29.1475 180.555 29.0919 180.662 28.988C180.769 28.8835 180.826 28.7405 180.826 28.5975C180.826 28.454 180.769 28.311 180.662 28.2071C180.448 28.0036 180.071 28.0036 179.862 28.2071C179.761 28.311 179.699 28.454 179.699 28.5975C179.699 28.7405 179.761 28.8835 179.862 28.988C179.969 29.0919 180.116 29.1475 180.262 29.1475Z" fill="white"/>
<path d="M171.808 36.8459H157.717C157.406 36.8459 157.154 37.0917 157.154 37.3958C157.154 37.6999 157.406 37.9457 157.717 37.9457H171.808C172.119 37.9457 172.372 37.6999 172.372 37.3958C172.372 37.0917 172.119 36.8459 171.808 36.8459Z" fill="white"/>
<defs>
<filter id="filter0_d_1_11286" x="-14.2861" y="-15" width="332.937" height="94" filterUnits="userSpaceOnUse" color-interpolation-filters="sRGB">
<feFlood flood-opacity="0" result="BackgroundImageFix"/>
<feColorMatrix in="SourceAlpha" type="matrix" values="0 0 0 0 0 0 0 0 0 0 0 0 0 0 0 0 0 0 127 0" result="hardAlpha"/>
<feOffset dx="5" dy="5"/>
<feGaussianBlur stdDeviation="10"/>
<feColorMatrix type="matrix" values="0 0 0 0 0.890196 0 0 0 0 0.721569 0 0 0 0 0.45098 0 0 0 0.5 0"/>
<feBlend mode="normal" in2="BackgroundImageFix" result="effect1_dropShadow_1_11286"/>
<feBlend mode="normal" in="SourceGraphic" in2="effect1_dropShadow_1_11286" result="shape"/>
</filter>
</defs>
</svg>
