<svg width="294" height="55" viewBox="0 0 294 55" fill="none" xmlns="http://www.w3.org/2000/svg">
<g filter="url(#filter0_d_1_11430)">
<rect x="0.324951" width="292.937" height="54" fill="#E3B873"/>
</g>
<path d="M69.4964 33.3258C68.7144 33.3258 68.0458 33.2181 67.4904 33.0028C66.9464 32.7875 66.5328 32.5098 66.2494 32.1698C65.9774 31.8298 65.8414 31.4785 65.8414 31.1158C65.8414 30.7305 65.9548 30.4245 66.1814 30.1978C66.4194 29.9598 66.7311 29.8408 67.1164 29.8408C67.2071 29.8408 67.2978 29.8521 67.3884 29.8748C67.4791 29.8861 67.5414 29.8918 67.5754 29.8918L67.7964 29.9258V32.6458C67.8078 32.6458 67.9268 32.6911 68.1534 32.7818C68.4481 32.8611 68.7824 32.9008 69.1564 32.9008C69.8364 32.9008 70.3748 32.6231 70.7714 32.0678C71.1681 31.5011 71.3664 30.6171 71.3664 29.4158C71.3664 28.2258 71.1624 27.3645 70.7544 26.8318C70.3464 26.2878 69.7571 26.0158 68.9864 26.0158C68.6918 26.0158 68.4141 26.0668 68.1534 26.1688C67.8928 26.2708 67.6151 26.4068 67.3204 26.5768C67.0824 26.7241 66.8444 26.9055 66.6064 27.1208L66.2664 26.8658L66.9464 21.1708H71.9614C72.0408 20.5588 72.2334 20.0488 72.5394 19.6408C72.6641 19.4481 72.8114 19.2781 72.9814 19.1308H73.4914V22.4458H67.3204L66.8614 26.3558C67.0201 26.2425 67.2524 26.1178 67.5584 25.9818C68.1931 25.7211 68.7824 25.5908 69.3264 25.5908C70.9811 25.5908 72.2164 25.9308 73.0324 26.6108C73.8484 27.2795 74.2564 28.2145 74.2564 29.4158C74.2564 30.6398 73.8541 31.5975 73.0494 32.2888C72.2448 32.9801 71.0604 33.3258 69.4964 33.3258ZM80.3817 33.3258C78.9537 33.3258 77.8317 32.8158 77.0157 31.7958C76.1997 30.7758 75.7917 29.2175 75.7917 27.1208C75.7917 25.0808 76.2337 23.5395 77.1177 22.4968C78.0131 21.4428 79.2427 20.9158 80.8068 20.9158C81.4754 20.9158 82.0591 21.0291 82.5577 21.2558C83.0677 21.4711 83.4531 21.7488 83.7138 22.0888C83.9857 22.4288 84.1217 22.7745 84.1217 23.1258C84.1217 23.5111 84.0028 23.8228 83.7648 24.0608C83.5381 24.2875 83.2321 24.4008 82.8468 24.4008C82.6881 24.4008 82.5294 24.3895 82.3707 24.3668L82.1667 24.3158V21.5958L81.8437 21.4768C81.5944 21.3861 81.3621 21.3408 81.1467 21.3408C80.5914 21.3408 80.1324 21.4881 79.7697 21.7828C79.4184 22.0775 79.1464 22.6215 78.9537 23.4148C78.7724 24.2081 78.6817 25.3301 78.6817 26.7808C78.8064 26.5881 78.9594 26.4181 79.1407 26.2708C79.5714 25.9308 80.0701 25.7608 80.6367 25.7608C81.4641 25.7608 82.1837 25.9195 82.7957 26.2368C83.4191 26.5428 83.8951 26.9735 84.2237 27.5288C84.5524 28.0841 84.7168 28.7131 84.7168 29.4158C84.7168 30.6285 84.3371 31.5861 83.5777 32.2888C82.8298 32.9801 81.7644 33.3258 80.3817 33.3258ZM80.3817 32.9858C80.6084 32.9858 80.8294 32.8725 81.0448 32.6458C81.2714 32.4191 81.4584 32.0508 81.6057 31.5408C81.7531 31.0308 81.8268 30.3791 81.8268 29.5858C81.8268 28.7925 81.7474 28.1408 81.5888 27.6308C81.4414 27.1208 81.2487 26.7525 81.0107 26.5258C80.7841 26.2991 80.5461 26.1858 80.2968 26.1858C79.8321 26.1858 79.4581 26.4125 79.1747 26.8658C78.9027 27.3191 78.7667 28.0275 78.7667 28.9908C78.7667 30.4301 78.9197 31.4558 79.2257 32.0678C79.5431 32.6798 79.9284 32.9858 80.3817 32.9858ZM92.6284 23.2958V32.3058L93.9884 32.8158V33.0708H90.7584V32.8158L92.1184 32.3058V21.6808L90.9284 21.4258V21.1708H93.2234C93.8127 21.1708 94.2774 21.2955 94.6174 21.5448C94.9687 21.7828 95.2691 22.1398 95.5184 22.6158L99.2244 29.7048L102.063 22.6158C102.256 22.1171 102.517 21.7545 102.845 21.5278C103.174 21.2898 103.678 21.1708 104.358 21.1708H106.143V21.4258L105.123 21.6808V32.5608L106.143 32.8158V33.0708H101.298V32.8158L102.318 32.5608V23.2958L98.3234 33.2408H97.8134L92.6284 23.2958ZM107.509 32.3058C107.509 31.6371 107.64 31.0308 107.9 30.4868C108.172 29.9315 108.501 29.4498 108.886 29.0418C109.272 28.6338 109.776 28.1521 110.399 27.5968C110.977 27.0868 111.431 26.6618 111.759 26.3218C112.088 25.9705 112.366 25.5795 112.592 25.1488C112.819 24.7068 112.932 24.2308 112.932 23.7208C112.932 22.9728 112.751 22.3891 112.388 21.9698C112.026 21.5505 111.555 21.3408 110.977 21.3408C110.649 21.3408 110.314 21.3861 109.974 21.4768L109.617 21.5958V24.3158L109.396 24.3668C109.215 24.3895 109.062 24.4008 108.937 24.4008C108.552 24.4008 108.24 24.2875 108.002 24.0608C107.776 23.8228 107.662 23.5111 107.662 23.1258C107.662 22.7631 107.798 22.4118 108.07 22.0718C108.354 21.7318 108.767 21.4541 109.311 21.2388C109.867 21.0235 110.535 20.9158 111.317 20.9158C112.847 20.9158 113.981 21.2218 114.717 21.8338C115.454 22.4458 115.822 23.3015 115.822 24.4008C115.822 25.0921 115.641 25.6871 115.278 26.1858C114.927 26.6845 114.491 27.0981 113.969 27.4268C113.459 27.7555 112.774 28.1295 111.912 28.5488C111.187 28.9001 110.598 29.2118 110.144 29.4838C109.702 29.7445 109.289 30.0618 108.903 30.4358C108.529 30.8098 108.263 31.2348 108.104 31.7108H114.394C114.474 31.0988 114.666 30.5888 114.972 30.1808C115.097 29.9881 115.244 29.8181 115.414 29.6708H115.924V33.0708H107.509V32.3058Z" fill="white"/>
<path fill-rule="evenodd" clip-rule="evenodd" d="M20.5189 11.3819C20.5189 11.171 20.6967 11 20.9159 11H49.4997C49.7189 11 49.8967 11.171 49.8967 11.3819V39.0042C49.8967 39.2151 49.7189 39.3861 49.4997 39.3861C49.2804 39.3861 49.1027 39.2151 49.1027 39.0042V11.7638H20.9159C20.6967 11.7638 20.5189 11.5928 20.5189 11.3819Z" fill="white" stroke="white" stroke-width="0.5" stroke-linecap="round" stroke-linejoin="round"/>
<path d="M20.9356 39.562L21.0606 39.562L21.0606 39.437L21.0606 15.6787L22.6812 17.3039C22.8839 17.5071 23.2126 17.5071 23.4153 17.3039C23.6177 17.1008 23.6177 16.7718 23.4153 16.5688L20.9087 14.0552C20.7061 13.852 20.3774 13.852 20.1747 14.0552L17.6682 16.5688C17.4657 16.7718 17.4657 17.1008 17.6682 17.3039L17.6682 17.3039C17.8708 17.5071 18.1995 17.5071 18.4022 17.3039L18.3137 17.2156L18.4022 17.3039L20.0228 15.6787L20.0228 39.437L20.0228 39.562L20.1478 39.562L20.9356 39.562Z" fill="white" stroke="white" stroke-width="0.25"/>
<path d="M42.3339 42.3184L42.4222 42.2299L42.3339 42.3184C42.5373 42.5213 42.867 42.5213 43.0704 42.3184L45.59 39.8049C45.7936 39.6018 45.7936 39.2724 45.59 39.0693L43.0704 36.5558C42.867 36.3529 42.5373 36.3529 42.3339 36.5558L42.3339 36.5558C42.1303 36.7589 42.1303 37.0883 42.3339 37.2914L43.9636 38.9171L20.1469 38.9171H20.0219V39.0421V39.8321V39.9571H20.1469L43.9636 39.9571L42.3339 41.5828C42.1303 41.7859 42.1303 42.1153 42.3339 42.3184Z" fill="white" stroke="white" stroke-width="0.25"/>
<path fill-rule="evenodd" clip-rule="evenodd" d="M31.4009 11.1157C31.5547 11.2699 31.5547 11.52 31.4009 11.6742L26.6745 16.4138C26.5207 16.568 26.2713 16.568 26.1175 16.4138C25.9637 16.2595 25.9637 16.0095 26.1175 15.8552L30.8439 11.1157C30.9977 10.9614 31.2471 10.9614 31.4009 11.1157Z" fill="white" stroke="white" stroke-width="0.5" stroke-linecap="round" stroke-linejoin="round"/>
<path fill-rule="evenodd" clip-rule="evenodd" d="M49.65 29.9423C49.8038 30.0965 49.8038 30.3466 49.65 30.5008L45.3175 34.8454C45.1637 34.9997 44.9143 34.9997 44.7605 34.8454C44.6067 34.6912 44.6067 34.4411 44.7605 34.2869L49.093 29.9423C49.2468 29.788 49.4962 29.788 49.65 29.9423Z" fill="white" stroke="white" stroke-width="0.5" stroke-linecap="round" stroke-linejoin="round"/>
<path fill-rule="evenodd" clip-rule="evenodd" d="M37.3071 11.1139C37.4618 11.2672 37.4634 11.5172 37.3106 11.6725L27.0701 22.0731C26.9173 22.2283 26.6679 22.2299 26.5131 22.0767C26.3583 21.9234 26.3568 21.6733 26.5096 21.5181L36.7501 11.1175C36.9029 10.9622 37.1523 10.9607 37.3071 11.1139Z" fill="white" stroke="white" stroke-width="0.5" stroke-linecap="round" stroke-linejoin="round"/>
<path fill-rule="evenodd" clip-rule="evenodd" d="M49.7812 23.3589C49.935 23.5131 49.935 23.7632 49.7812 23.9175L39.8033 33.9232C39.6495 34.0774 39.4001 34.0774 39.2463 33.9232C39.0925 33.7689 39.0925 33.5188 39.2463 33.3646L49.2242 23.3589C49.378 23.2047 49.6274 23.2047 49.7812 23.3589Z" fill="white" stroke="white" stroke-width="0.5" stroke-linecap="round" stroke-linejoin="round"/>
<path fill-rule="evenodd" clip-rule="evenodd" d="M43.6129 11.2492C43.7655 11.4046 43.7635 11.6547 43.6084 11.8077L27.1974 28.0011C27.0424 28.1541 26.793 28.1521 26.6404 27.9966C26.4879 27.8411 26.4899 27.5911 26.6449 27.4381L43.056 11.2447C43.211 11.0917 43.4604 11.0937 43.6129 11.2492Z" fill="white" stroke="white" stroke-width="0.5" stroke-linecap="round" stroke-linejoin="round"/>
<path fill-rule="evenodd" clip-rule="evenodd" d="M49.7813 17.1715C49.9351 17.3257 49.9351 17.5758 49.7813 17.73L33.239 34.3184C33.0852 34.4726 32.8358 34.4726 32.682 34.3184C32.5282 34.1642 32.5282 33.9141 32.682 33.7598L49.2243 17.1715C49.3781 17.0172 49.6275 17.0172 49.7813 17.1715Z" fill="white" stroke="white" stroke-width="0.5" stroke-linecap="round" stroke-linejoin="round"/>
<path fill-rule="evenodd" clip-rule="evenodd" d="M49.5188 11.2469C49.6726 11.4011 49.6726 11.6512 49.5188 11.8055L26.9372 34.4499C26.7834 34.6042 26.534 34.6042 26.3802 34.4499C26.2264 34.2957 26.2264 34.0456 26.3802 33.8914L48.9617 11.2469C49.1156 11.0927 49.3649 11.0927 49.5188 11.2469Z" fill="white" stroke="white" stroke-width="0.5" stroke-linecap="round" stroke-linejoin="round"/>
<path d="M204.935 33.3946C203.507 33.3946 202.424 33.1113 201.688 32.5446C200.962 31.978 200.6 31.2413 200.6 30.3346C200.6 29.7113 200.872 29.1106 201.416 28.5326C201.96 27.9433 202.623 27.524 203.405 27.2746C202.657 26.8553 202.084 26.3963 201.688 25.8976C201.302 25.3876 201.11 24.77 201.11 24.0446C201.11 23.138 201.472 22.4013 202.198 21.8346C202.934 21.268 204.017 20.9846 205.445 20.9846C206.159 20.9846 206.782 21.115 207.315 21.3756C207.859 21.6363 208.278 21.9763 208.573 22.3956C208.867 22.815 209.015 23.2513 209.015 23.7046C209.015 24.2373 208.782 24.753 208.318 25.2516C207.864 25.7503 207.332 26.0846 206.72 26.2546C207.751 26.708 208.533 27.2463 209.066 27.8696C209.598 28.493 209.865 29.258 209.865 30.1646C209.865 30.754 209.683 31.2923 209.321 31.7796C208.958 32.267 208.408 32.658 207.672 32.9526C206.935 33.2473 206.023 33.3946 204.935 33.3946ZM206.21 25.9146C206.64 25.722 206.986 25.4443 207.247 25.0816C207.519 24.719 207.655 24.26 207.655 23.7046C207.655 23.2966 207.553 22.917 207.349 22.5656C207.156 22.2143 206.901 21.9366 206.584 21.7326C206.278 21.5173 205.955 21.4096 205.615 21.4096C205.127 21.4096 204.719 21.6023 204.391 21.9876C204.073 22.3616 203.915 22.8773 203.915 23.5346C203.915 24.4413 204.68 25.2346 206.21 25.9146ZM204.765 32.9696C205.49 32.9696 206.051 32.7713 206.448 32.3746C206.856 31.9666 207.06 31.4 207.06 30.6746C207.06 30.1306 206.788 29.581 206.244 29.0256C205.7 28.4703 204.98 28 204.085 27.6146C203.45 27.8413 202.951 28.1813 202.589 28.6346C202.226 29.0766 202.045 29.6433 202.045 30.3346C202.045 30.8106 202.164 31.2526 202.402 31.6606C202.651 32.0573 202.98 32.3746 203.388 32.6126C203.807 32.8506 204.266 32.9696 204.765 32.9696ZM215.486 33.3946C214.058 33.3946 212.936 32.8846 212.12 31.8646C211.304 30.8446 210.896 29.2863 210.896 27.1896C210.896 25.1496 211.338 23.6083 212.222 22.5656C213.118 21.5116 214.347 20.9846 215.911 20.9846C216.58 20.9846 217.164 21.098 217.662 21.3246C218.172 21.54 218.558 21.8176 218.818 22.1576C219.09 22.4976 219.226 22.8433 219.226 23.1946C219.226 23.58 219.107 23.8916 218.869 24.1296C218.643 24.3563 218.337 24.4696 217.951 24.4696C217.793 24.4696 217.634 24.4583 217.475 24.4356L217.271 24.3846V21.6646L216.948 21.5456C216.699 21.455 216.467 21.4096 216.251 21.4096C215.696 21.4096 215.237 21.557 214.874 21.8516C214.523 22.1463 214.251 22.6903 214.058 23.4836C213.877 24.277 213.786 25.399 213.786 26.8496C213.911 26.657 214.064 26.487 214.245 26.3396C214.676 25.9996 215.175 25.8296 215.741 25.8296C216.569 25.8296 217.288 25.9883 217.9 26.3056C218.524 26.6116 219 27.0423 219.328 27.5976C219.657 28.153 219.821 28.782 219.821 29.4846C219.821 30.6973 219.442 31.655 218.682 32.3576C217.934 33.049 216.869 33.3946 215.486 33.3946ZM215.486 33.0546C215.713 33.0546 215.934 32.9413 216.149 32.7146C216.376 32.488 216.563 32.1196 216.71 31.6096C216.858 31.0996 216.931 30.448 216.931 29.6546C216.931 28.8613 216.852 28.2096 216.693 27.6996C216.546 27.1896 216.353 26.8213 216.115 26.5946C215.889 26.368 215.651 26.2546 215.401 26.2546C214.937 26.2546 214.563 26.4813 214.279 26.9346C214.007 27.388 213.871 28.0963 213.871 29.0596C213.871 30.499 214.024 31.5246 214.33 32.1366C214.648 32.7486 215.033 33.0546 215.486 33.0546ZM226.203 32.8846L227.223 32.6296V21.7496L226.203 21.4946V21.2396H230.538C232.567 21.2396 234.119 21.761 235.196 22.8036C236.284 23.8463 236.828 25.3083 236.828 27.1896C236.828 29.071 236.284 30.533 235.196 31.5756C234.119 32.6183 232.567 33.1396 230.538 33.1396H226.203V32.8846ZM230.538 32.7146C231.592 32.7146 232.408 32.2896 232.986 31.4396C233.564 30.5783 233.853 29.1616 233.853 27.1896C233.853 25.2176 233.564 23.8066 232.986 22.9566C232.408 22.0953 231.592 21.6646 230.538 21.6646H230.028V32.7146H230.538ZM236.651 32.8846L238.011 32.3746L242.686 21.0696H243.196L248.041 32.6296L248.891 32.8846V33.1396H246.851C246.261 33.1396 245.78 33.0093 245.406 32.7486C245.032 32.4766 244.754 32.1253 244.573 31.6946L243.706 29.6546H239.643L238.521 32.3746L239.796 32.8846V33.1396H236.651V32.8846ZM239.813 29.2296H243.536L241.666 24.7586L239.813 29.2296ZM250.665 32.8846L251.685 32.6296V28.7196L248.2 21.7496L247.35 21.4946V21.2396H249.475C250.065 21.2396 250.535 21.3643 250.886 21.6136C251.249 21.863 251.544 22.22 251.77 22.6846L254.286 27.6996L256.87 22.0046L255.595 21.4946V21.2396H258.825V21.4946L257.465 22.0046L254.49 28.5496V32.6296L255.51 32.8846V33.1396H250.665V32.8846ZM263.156 33.3946C262.352 33.3946 261.598 33.2133 260.895 32.8506C260.578 32.692 260.312 32.505 260.096 32.2896C259.938 32.5503 259.739 32.7826 259.501 32.9866C259.297 33.134 259.184 33.2133 259.161 33.2246H258.736V29.9946H259.416C259.586 30.55 259.824 31.0486 260.13 31.4906C260.822 32.4766 261.717 32.9696 262.816 32.9696C263.462 32.9696 263.978 32.777 264.363 32.3916C264.749 32.0063 264.941 31.4906 264.941 30.8446C264.941 30.4706 264.828 30.1363 264.601 29.8416C264.386 29.547 264.114 29.2863 263.785 29.0596C263.457 28.833 262.998 28.5496 262.408 28.2096C261.66 27.7903 261.054 27.4106 260.589 27.0706C260.125 26.7306 259.728 26.3056 259.399 25.7956C259.071 25.2743 258.906 24.6623 258.906 23.9596C258.906 23.4043 259.059 22.9056 259.365 22.4636C259.683 22.0103 260.153 21.6533 260.776 21.3926C261.4 21.1206 262.165 20.9846 263.071 20.9846C263.729 20.9846 264.386 21.1716 265.043 21.5456C265.293 21.6816 265.542 21.863 265.791 22.0896C265.984 21.795 266.182 21.5626 266.386 21.3926C266.59 21.2453 266.704 21.166 266.726 21.1546H267.151V24.3846H266.471C266.324 23.8406 266.103 23.3476 265.808 22.9056C265.536 22.475 265.196 22.118 264.788 21.8346C264.392 21.5513 263.933 21.4096 263.411 21.4096C262.969 21.4096 262.59 21.5853 262.272 21.9366C261.955 22.288 261.796 22.7356 261.796 23.2796C261.796 23.699 261.915 24.0786 262.153 24.4186C262.403 24.7473 262.703 25.0363 263.054 25.2856C263.417 25.535 263.904 25.8353 264.516 26.1866C265.23 26.5946 265.808 26.9573 266.25 27.2746C266.692 27.592 267.066 27.9886 267.372 28.4646C267.678 28.9293 267.831 29.4676 267.831 30.0796C267.831 30.6916 267.656 31.2526 267.304 31.7626C266.953 32.2613 266.426 32.658 265.723 32.9526C265.021 33.2473 264.165 33.3946 263.156 33.3946Z" fill="white"/>
<path d="M135.04 54.035L135.04 0" stroke="white" stroke-width="0.75"/>
<path d="M176.435 13.1997C176.173 11.9464 175.035 11 173.673 11C173.362 11 173.11 11.2458 173.11 11.5499C173.11 11.854 173.362 12.0998 173.673 12.0998C174.606 12.0998 175.364 12.84 175.364 13.7496C175.364 14.6591 174.606 15.3993 173.673 15.3993C173.362 15.3993 173.11 15.6451 173.11 15.9492C173.11 16.2533 173.362 16.4992 173.673 16.4992C175.034 16.4992 176.173 15.5528 176.435 14.2995H183.819V19.2487H153.383V14.2995H161.274H162.965C163.276 14.2995 163.528 14.0537 163.528 13.7496C163.528 13.4455 163.276 13.1997 162.965 13.1997H161.941C162.174 12.5607 162.794 12.0998 163.528 12.0998C164.461 12.0998 165.219 12.84 165.219 13.7496C165.219 14.6591 164.461 15.3993 163.528 15.3993C163.217 15.3993 162.965 15.6451 162.965 15.9492C162.965 16.2533 163.217 16.4992 163.528 16.4992C165.082 16.4992 166.346 15.2657 166.346 13.7496C166.346 12.2335 165.082 11 163.528 11C162.168 11 161.029 11.9464 160.767 13.1997H152.256V20.3486V42.3452H184.946V20.3486V13.1997H176.435ZM183.819 41.2454H153.383V20.3486H183.819V41.2454Z" fill="white"/>
<path d="M166.91 12.0998C167.842 12.0998 168.601 12.84 168.601 13.7496C168.601 14.6591 167.842 15.3993 166.91 15.3993C166.599 15.3993 166.346 15.6451 166.346 15.9492C166.346 16.2533 166.599 16.4992 166.91 16.4992C168.464 16.4992 169.728 15.2657 169.728 13.7496C169.728 12.2335 168.464 11 166.91 11C166.599 11 166.346 11.2458 166.346 11.5499C166.346 11.854 166.599 12.0998 166.91 12.0998Z" fill="white"/>
<path d="M170.292 12.0998C171.224 12.0998 171.983 12.84 171.983 13.7496C171.983 14.6591 171.224 15.3993 170.292 15.3993C169.981 15.3993 169.728 15.6451 169.728 15.9492C169.728 16.2533 169.981 16.4992 170.292 16.4992C171.846 16.4992 173.11 15.2657 173.11 13.7496C173.11 12.2335 171.846 11 170.292 11C169.981 11 169.728 11.2458 169.728 11.5499C169.728 11.854 169.981 12.0998 170.292 12.0998Z" fill="white"/>
<path d="M157.328 24.7475H169.728C170.039 24.7475 170.292 24.5017 170.292 24.1976C170.292 23.8935 170.039 23.6476 169.728 23.6476H157.328C157.017 23.6476 156.765 23.8935 156.765 24.1976C156.765 24.5017 157.017 24.7475 157.328 24.7475Z" fill="white"/>
<path d="M179.873 32.4467H171.419C171.108 32.4467 170.855 32.6925 170.855 32.9966C170.855 33.3007 171.108 33.5465 171.419 33.5465H179.873C180.184 33.5465 180.437 33.3007 180.437 32.9966C180.437 32.6925 180.184 32.4467 179.873 32.4467Z" fill="white"/>
<path d="M157.328 29.1477H162.965C163.276 29.1477 163.528 28.9019 163.528 28.5978C163.528 28.2937 163.276 28.0479 162.965 28.0479H157.328C157.017 28.0479 156.765 28.2937 156.765 28.5978C156.765 28.9019 157.017 29.1477 157.328 29.1477Z" fill="white"/>
<path d="M179.873 36.8464H174.237C173.926 36.8464 173.674 37.0922 173.674 37.3963C173.674 37.7004 173.926 37.9462 174.237 37.9462H179.873C180.184 37.9462 180.437 37.7004 180.437 37.3963C180.437 37.0922 180.184 36.8464 179.873 36.8464Z" fill="white"/>
<path d="M168.037 28.5978C168.037 28.9019 168.29 29.1477 168.601 29.1477H177.055C177.366 29.1477 177.619 28.9019 177.619 28.5978C177.619 28.2937 177.366 28.0479 177.055 28.0479H168.601C168.29 28.0479 168.037 28.2937 168.037 28.5978Z" fill="white"/>
<path d="M166.183 28.988C166.284 28.8835 166.346 28.7405 166.346 28.5975C166.346 28.454 166.284 28.311 166.183 28.2071C165.974 28.0036 165.591 28.0036 165.383 28.2071C165.281 28.311 165.219 28.454 165.219 28.5975C165.219 28.7405 165.281 28.8835 165.383 28.988C165.49 29.0919 165.636 29.1475 165.783 29.1475C165.929 29.1475 166.076 29.0919 166.183 28.988Z" fill="white"/>
<path d="M159.583 32.9966C159.583 33.3007 159.835 33.5465 160.147 33.5465H168.601C168.912 33.5465 169.164 33.3007 169.164 32.9966C169.164 32.6925 168.912 32.4467 168.601 32.4467H160.147C159.835 32.4467 159.583 32.6925 159.583 32.9966Z" fill="white"/>
<path d="M157.328 33.5465C157.475 33.5465 157.622 33.486 157.729 33.387C157.83 33.2825 157.892 33.1396 157.892 32.9966C157.892 32.8531 157.83 32.7101 157.729 32.6116C157.52 32.4027 157.137 32.4027 156.928 32.6061C156.827 32.7101 156.765 32.8531 156.765 32.9966C156.765 33.1396 156.827 33.2825 156.928 33.387C157.035 33.486 157.176 33.5465 157.328 33.5465Z" fill="white"/>
<path d="M179.873 29.1475C180.02 29.1475 180.166 29.0919 180.273 28.988C180.381 28.8835 180.437 28.7405 180.437 28.5975C180.437 28.454 180.381 28.311 180.273 28.2071C180.059 28.0036 179.682 28.0036 179.473 28.2071C179.372 28.311 179.31 28.454 179.31 28.5975C179.31 28.7405 179.372 28.8835 179.473 28.988C179.58 29.0919 179.727 29.1475 179.873 29.1475Z" fill="white"/>
<path d="M171.419 36.8464H157.328C157.017 36.8464 156.765 37.0922 156.765 37.3963C156.765 37.7004 157.017 37.9462 157.328 37.9462H171.419C171.73 37.9462 171.983 37.7004 171.983 37.3963C171.983 37.0922 171.73 36.8464 171.419 36.8464Z" fill="white"/>
<defs>
<filter id="filter0_d_1_11430" x="-14.675" y="-15" width="332.937" height="94" filterUnits="userSpaceOnUse" color-interpolation-filters="sRGB">
<feFlood flood-opacity="0" result="BackgroundImageFix"/>
<feColorMatrix in="SourceAlpha" type="matrix" values="0 0 0 0 0 0 0 0 0 0 0 0 0 0 0 0 0 0 127 0" result="hardAlpha"/>
<feOffset dx="5" dy="5"/>
<feGaussianBlur stdDeviation="10"/>
<feColorMatrix type="matrix" values="0 0 0 0 0.890196 0 0 0 0 0.721569 0 0 0 0 0.45098 0 0 0 0.5 0"/>
<feBlend mode="normal" in2="BackgroundImageFix" result="effect1_dropShadow_1_11430"/>
<feBlend mode="normal" in="SourceGraphic" in2="effect1_dropShadow_1_11430" result="shape"/>
</filter>
</defs>
</svg>
