<svg width="294" height="55" viewBox="0 0 294 55" fill="none" xmlns="http://www.w3.org/2000/svg">
<g filter="url(#filter0_d_1_11358)">
<rect x="0.519348" width="292.937" height="54" fill="#E3B873"/>
</g>
<path d="M70.1158 33.3258C69.4472 33.3258 68.8578 33.2181 68.3478 33.0028C67.8492 32.7761 67.4638 32.4928 67.1918 32.1528C66.9312 31.8128 66.8008 31.4671 66.8008 31.1158C66.8008 30.7305 66.9142 30.4245 67.1408 30.1978C67.3788 29.9598 67.6905 29.8408 68.0758 29.8408C68.1665 29.8408 68.2572 29.8521 68.3478 29.8748C68.4385 29.8861 68.5008 29.8918 68.5348 29.8918L68.7558 29.9258V32.6458L69.0788 32.7818C69.2828 32.8611 69.5152 32.9008 69.7758 32.9008C70.3312 32.9008 70.7845 32.7535 71.1358 32.4588C71.4872 32.1641 71.7592 31.6201 71.9518 30.8268C72.1445 30.0335 72.2408 28.9115 72.2408 27.4608C72.1388 27.6308 71.9802 27.8008 71.7648 27.9708C71.3342 28.3108 70.8412 28.4808 70.2858 28.4808C69.4585 28.4808 68.7332 28.3278 68.1098 28.0218C67.4978 27.7045 67.0275 27.2681 66.6988 26.7128C66.3702 26.1575 66.2058 25.5285 66.2058 24.8258C66.2058 23.6131 66.5798 22.6611 67.3278 21.9698C68.0872 21.2671 69.1582 20.9158 70.5408 20.9158C71.9688 20.9158 73.0908 21.4258 73.9068 22.4458C74.7228 23.4658 75.1308 25.0241 75.1308 27.1208C75.1308 29.1608 74.6832 30.7078 73.7878 31.7618C72.9038 32.8045 71.6798 33.3258 70.1158 33.3258ZM70.6258 28.0558C71.0905 28.0558 71.4588 27.8291 71.7308 27.3758C72.0142 26.9225 72.1558 26.2141 72.1558 25.2508C72.1558 23.8115 71.9972 22.7858 71.6798 22.1738C71.3738 21.5618 70.9942 21.2558 70.5408 21.2558C70.3142 21.2558 70.0875 21.3691 69.8608 21.5958C69.6455 21.8225 69.4642 22.1908 69.3168 22.7008C69.1695 23.2108 69.0958 23.8625 69.0958 24.6558C69.0958 25.4491 69.1695 26.1008 69.3168 26.6108C69.4755 27.1208 69.6682 27.4891 69.8948 27.7158C70.1328 27.9425 70.3765 28.0558 70.6258 28.0558ZM81.6778 33.3258C80.7598 33.3258 79.9268 33.0821 79.1788 32.5948C78.4308 32.1075 77.8358 31.3991 77.3938 30.4698C76.9632 29.5291 76.7478 28.4128 76.7478 27.1208C76.7478 25.8288 76.9632 24.7181 77.3938 23.7888C77.8358 22.8481 78.4308 22.1341 79.1788 21.6468C79.9268 21.1595 80.7598 20.9158 81.6778 20.9158C82.5958 20.9158 83.4288 21.1595 84.1768 21.6468C84.9248 22.1341 85.5142 22.8481 85.9448 23.7888C86.3868 24.7181 86.6078 25.8288 86.6078 27.1208C86.6078 28.4128 86.3868 29.5291 85.9448 30.4698C85.5142 31.3991 84.9248 32.1075 84.1768 32.5948C83.4288 33.0821 82.5958 33.3258 81.6778 33.3258ZM81.6778 32.9858C82.9812 32.9858 83.6328 31.0308 83.6328 27.1208C83.6328 23.2108 82.9812 21.2558 81.6778 21.2558C80.3745 21.2558 79.7228 23.2108 79.7228 27.1208C79.7228 31.0308 80.3745 32.9858 81.6778 32.9858ZM94.5161 23.2958V32.3058L95.8761 32.8158V33.0708H92.6461V32.8158L94.0061 32.3058V21.6808L92.8161 21.4258V21.1708H95.1111C95.7005 21.1708 96.1651 21.2955 96.5051 21.5448C96.8565 21.7828 97.1568 22.1398 97.4061 22.6158L101.112 29.7048L103.951 22.6158C104.144 22.1171 104.404 21.7545 104.733 21.5278C105.062 21.2898 105.566 21.1708 106.246 21.1708H108.031V21.4258L107.011 21.6808V32.5608L108.031 32.8158V33.0708H103.186V32.8158L104.206 32.5608V23.2958L100.211 33.2408H99.7011L94.5161 23.2958ZM109.397 32.3058C109.397 31.6371 109.527 31.0308 109.788 30.4868C110.06 29.9315 110.389 29.4498 110.774 29.0418C111.159 28.6338 111.664 28.1521 112.287 27.5968C112.865 27.0868 113.318 26.6618 113.647 26.3218C113.976 25.9705 114.253 25.5795 114.48 25.1488C114.707 24.7068 114.82 24.2308 114.82 23.7208C114.82 22.9728 114.639 22.3891 114.276 21.9698C113.913 21.5505 113.443 21.3408 112.865 21.3408C112.536 21.3408 112.202 21.3861 111.862 21.4768L111.505 21.5958V24.3158L111.284 24.3668C111.103 24.3895 110.95 24.4008 110.825 24.4008C110.44 24.4008 110.128 24.2875 109.89 24.0608C109.663 23.8228 109.55 23.5111 109.55 23.1258C109.55 22.7631 109.686 22.4118 109.958 22.0718C110.241 21.7318 110.655 21.4541 111.199 21.2388C111.754 21.0235 112.423 20.9158 113.205 20.9158C114.735 20.9158 115.868 21.2218 116.605 21.8338C117.342 22.4458 117.71 23.3015 117.71 24.4008C117.71 25.0921 117.529 25.6871 117.166 26.1858C116.815 26.6845 116.378 27.0981 115.857 27.4268C115.347 27.7555 114.661 28.1295 113.8 28.5488C113.075 28.9001 112.485 29.2118 112.032 29.4838C111.59 29.7445 111.176 30.0618 110.791 30.4358C110.417 30.8098 110.151 31.2348 109.992 31.7108H116.282C116.361 31.0988 116.554 30.5888 116.86 30.1808C116.985 29.9881 117.132 29.8181 117.302 29.6708H117.812V33.0708H109.397V32.3058Z" fill="white"/>
<path fill-rule="evenodd" clip-rule="evenodd" d="M20.7134 11.3819C20.7134 11.171 20.8911 11 21.1104 11H49.6939C49.9131 11 50.0909 11.171 50.0909 11.3819V39.004C50.0909 39.2149 49.9131 39.3858 49.6939 39.3858C49.4746 39.3858 49.2969 39.2149 49.2969 39.004V11.7637H21.1104C20.8911 11.7637 20.7134 11.5928 20.7134 11.3819Z" fill="white" stroke="white" stroke-width="0.5"/>
<path d="M23.6097 17.3039L23.5212 17.2156L23.6097 17.3039C23.8122 17.1008 23.8122 16.7718 23.6097 16.5688L21.1032 14.0553L21.0147 14.1435L21.1032 14.0553C20.9005 13.8521 20.5718 13.8521 20.3691 14.0553L17.8626 16.5688C17.6602 16.7718 17.6602 17.1008 17.8626 17.3039L17.8626 17.3039C18.0653 17.5071 18.394 17.5071 18.5967 17.3039L18.5081 17.2156L18.5967 17.3039L20.2173 15.6787L20.2173 39.4368L20.2173 39.5618L20.3423 39.5618L21.13 39.5618L21.255 39.5618L21.255 39.4368L21.255 15.6787L22.8757 17.3039C23.0783 17.5071 23.407 17.5071 23.6097 17.3039Z" fill="white" stroke="white" stroke-width="0.25"/>
<path d="M20.2163 39.8319V39.9569H20.3413L44.1579 39.9569L42.5281 41.5827C42.3246 41.7858 42.3246 42.1151 42.5281 42.3182C42.7315 42.5211 43.0612 42.5211 43.2646 42.3182L45.7842 39.8047C45.9878 39.6017 45.9878 39.2723 45.7842 39.0692L43.2646 36.5557C43.0612 36.3528 42.7315 36.3528 42.5281 36.5557C42.3246 36.7588 42.3246 37.0882 42.5281 37.2912L44.1579 38.917L20.3413 38.917H20.2163V39.042V39.8319Z" fill="white" stroke="white" stroke-width="0.25"/>
<path fill-rule="evenodd" clip-rule="evenodd" d="M31.5953 11.1157C31.7491 11.2699 31.7491 11.52 31.5953 11.6742L26.869 16.4137C26.7151 16.568 26.4658 16.568 26.312 16.4137C26.1581 16.2595 26.1581 16.0094 26.312 15.8552L31.0383 11.1157C31.1921 10.9614 31.4415 10.9614 31.5953 11.1157Z" fill="white" stroke="white" stroke-width="0.5" stroke-linecap="round" stroke-linejoin="round"/>
<path fill-rule="evenodd" clip-rule="evenodd" d="M49.8442 29.942C49.998 30.0962 49.998 30.3463 49.8442 30.5005L45.5117 34.8451C45.3579 34.9993 45.1086 34.9993 44.9547 34.8451C44.8009 34.6908 44.8009 34.4408 44.9547 34.2865L49.2872 29.942C49.441 29.7877 49.6904 29.7877 49.8442 29.942Z" fill="white" stroke="white" stroke-width="0.5" stroke-linecap="round" stroke-linejoin="round"/>
<path fill-rule="evenodd" clip-rule="evenodd" d="M37.5014 11.1139C37.6562 11.2672 37.6578 11.5172 37.5049 11.6725L27.2646 22.073C27.1117 22.2282 26.8624 22.2298 26.7076 22.0766C26.5528 21.9233 26.5512 21.6732 26.704 21.518L36.9444 11.1175C37.0972 10.9622 37.3466 10.9607 37.5014 11.1139Z" fill="white" stroke="white" stroke-width="0.5" stroke-linecap="round" stroke-linejoin="round"/>
<path fill-rule="evenodd" clip-rule="evenodd" d="M49.9754 23.3589C50.1292 23.5131 50.1292 23.7632 49.9754 23.9175L39.9976 33.9231C39.8438 34.0773 39.5944 34.0773 39.4406 33.9231C39.2868 33.7688 39.2868 33.5188 39.4406 33.3645L49.4184 23.3589C49.5722 23.2047 49.8216 23.2047 49.9754 23.3589Z" fill="white" stroke="white" stroke-width="0.5" stroke-linecap="round" stroke-linejoin="round"/>
<path fill-rule="evenodd" clip-rule="evenodd" d="M43.8072 11.249C43.9598 11.4045 43.9578 11.6545 43.8027 11.8075L27.3918 28.0008C27.2368 28.1538 26.9874 28.1518 26.8349 27.9963C26.6823 27.8408 26.6843 27.5908 26.8394 27.4378L43.2502 11.2445C43.4053 11.0915 43.6546 11.0935 43.8072 11.249Z" fill="white" stroke="white" stroke-width="0.5" stroke-linecap="round" stroke-linejoin="round"/>
<path fill-rule="evenodd" clip-rule="evenodd" d="M49.9755 17.1715C50.1294 17.3258 50.1294 17.5758 49.9755 17.7301L33.4334 34.3183C33.2796 34.4726 33.0302 34.4726 32.8764 34.3183C32.7226 34.1641 32.7226 33.914 32.8764 33.7598L49.4185 17.1715C49.5723 17.0173 49.8217 17.0173 49.9755 17.1715Z" fill="white" stroke="white" stroke-width="0.5" stroke-linecap="round" stroke-linejoin="round"/>
<path fill-rule="evenodd" clip-rule="evenodd" d="M49.713 11.2467C49.8668 11.401 49.8668 11.651 49.713 11.8053L27.1316 34.4495C26.9778 34.6038 26.7284 34.6038 26.5746 34.4495C26.4208 34.2953 26.4208 34.0452 26.5746 33.891L49.156 11.2467C49.3098 11.0925 49.5591 11.0925 49.713 11.2467Z" fill="white" stroke="white" stroke-width="0.5" stroke-linecap="round" stroke-linejoin="round"/>
<path d="M200.375 33.0708V32.8158L201.565 32.4758V23.1428L199.78 24.4008L199.44 23.9758L202.534 21.1708H204.37V32.4758L205.56 32.8158V33.0708H200.375ZM206.751 32.3058C206.751 31.6371 206.881 31.0308 207.142 30.4868C207.414 29.9315 207.742 29.4498 208.128 29.0418C208.513 28.6338 209.017 28.1521 209.641 27.5968C210.219 27.0868 210.672 26.6618 211.001 26.3218C211.329 25.9705 211.607 25.5795 211.834 25.1488C212.06 24.7068 212.174 24.2308 212.174 23.7208C212.174 22.9728 211.992 22.3891 211.63 21.9698C211.267 21.5505 210.797 21.3408 210.219 21.3408C209.89 21.3408 209.556 21.3861 209.216 21.4768L208.859 21.5958V24.3158L208.638 24.3668C208.456 24.3895 208.303 24.4008 208.179 24.4008C207.793 24.4008 207.482 24.2875 207.244 24.0608C207.017 23.8228 206.904 23.5111 206.904 23.1258C206.904 22.7631 207.04 22.4118 207.312 22.0718C207.595 21.7318 208.009 21.4541 208.553 21.2388C209.108 21.0235 209.777 20.9158 210.559 20.9158C212.089 20.9158 213.222 21.2218 213.959 21.8338C214.695 22.4458 215.064 23.3015 215.064 24.4008C215.064 25.0921 214.882 25.6871 214.52 26.1858C214.168 26.6845 213.732 27.0981 213.211 27.4268C212.701 27.7555 212.015 28.1295 211.154 28.5488C210.428 28.9001 209.839 29.2118 209.386 29.4838C208.944 29.7445 208.53 30.0618 208.145 30.4358C207.771 30.8098 207.504 31.2348 207.346 31.7108H213.636C213.715 31.0988 213.908 30.5888 214.214 30.1808C214.338 29.9881 214.486 29.8181 214.656 29.6708H215.166V33.0708H206.751V32.3058ZM221.034 33.3258C219.606 33.3258 218.524 33.0425 217.787 32.4758C217.062 31.9091 216.699 31.1725 216.699 30.2658C216.699 29.6425 216.971 29.0418 217.515 28.4638C218.059 27.8745 218.722 27.4551 219.504 27.2058C218.756 26.7865 218.184 26.3275 217.787 25.8288C217.402 25.3188 217.209 24.7011 217.209 23.9758C217.209 23.0691 217.572 22.3325 218.297 21.7658C219.034 21.1991 220.116 20.9158 221.544 20.9158C222.258 20.9158 222.881 21.0461 223.414 21.3068C223.958 21.5675 224.377 21.9075 224.672 22.3268C224.967 22.7461 225.114 23.1825 225.114 23.6358C225.114 24.1685 224.882 24.6841 224.417 25.1828C223.964 25.6815 223.431 26.0158 222.819 26.1858C223.85 26.6391 224.632 27.1775 225.165 27.8008C225.698 28.4241 225.964 29.1891 225.964 30.0958C225.964 30.6851 225.783 31.2235 225.42 31.7108C225.057 32.1981 224.508 32.5891 223.771 32.8838C223.034 33.1785 222.122 33.3258 221.034 33.3258ZM222.309 25.8458C222.74 25.6531 223.085 25.3755 223.346 25.0128C223.618 24.6501 223.754 24.1911 223.754 23.6358C223.754 23.2278 223.652 22.8481 223.448 22.4968C223.255 22.1455 223 21.8678 222.683 21.6638C222.377 21.4485 222.054 21.3408 221.714 21.3408C221.227 21.3408 220.819 21.5335 220.49 21.9188C220.173 22.2928 220.014 22.8085 220.014 23.4658C220.014 24.3725 220.779 25.1658 222.309 25.8458ZM220.864 32.9008C221.589 32.9008 222.15 32.7025 222.547 32.3058C222.955 31.8978 223.159 31.3311 223.159 30.6058C223.159 30.0618 222.887 29.5121 222.343 28.9568C221.799 28.4015 221.079 27.9311 220.184 27.5458C219.549 27.7725 219.051 28.1125 218.688 28.5658C218.325 29.0078 218.144 29.5745 218.144 30.2658C218.144 30.7418 218.263 31.1838 218.501 31.5918C218.75 31.9885 219.079 32.3058 219.487 32.5438C219.906 32.7818 220.365 32.9008 220.864 32.9008ZM232.093 32.8158L233.113 32.5608V21.6808L232.093 21.4258V21.1708H236.428C238.456 21.1708 240.009 21.6921 241.086 22.7348C242.174 23.7775 242.718 25.2395 242.718 27.1208C242.718 29.0021 242.174 30.4641 241.086 31.5068C240.009 32.5495 238.456 33.0708 236.428 33.0708H232.093V32.8158ZM236.428 32.6458C237.482 32.6458 238.298 32.2208 238.876 31.3708C239.454 30.5095 239.743 29.0928 239.743 27.1208C239.743 25.1488 239.454 23.7378 238.876 22.8878C238.298 22.0265 237.482 21.5958 236.428 21.5958H235.918V32.6458H236.428ZM242.54 32.8158L243.9 32.3058L248.575 21.0008H249.085L253.93 32.5608L254.78 32.8158V33.0708H252.74C252.151 33.0708 251.669 32.9405 251.295 32.6798C250.921 32.4078 250.644 32.0565 250.462 31.6258L249.595 29.5858H245.532L244.41 32.3058L245.685 32.8158V33.0708H242.54V32.8158ZM245.702 29.1608H249.425L247.555 24.6898L245.702 29.1608ZM256.555 32.8158L257.575 32.5608V28.6508L254.09 21.6808L253.24 21.4258V21.1708H255.365C255.954 21.1708 256.424 21.2955 256.776 21.5448C257.138 21.7941 257.433 22.1511 257.66 22.6158L260.176 27.6308L262.76 21.9358L261.485 21.4258V21.1708H264.715V21.4258L263.355 21.9358L260.38 28.4808V32.5608L261.4 32.8158V33.0708H256.555V32.8158ZM269.046 33.3258C268.241 33.3258 267.487 33.1445 266.785 32.7818C266.467 32.6231 266.201 32.4361 265.986 32.2208C265.827 32.4815 265.629 32.7138 265.391 32.9178C265.187 33.0651 265.073 33.1445 265.051 33.1558H264.626V29.9258H265.306C265.476 30.4811 265.714 30.9798 266.02 31.4218C266.711 32.4078 267.606 32.9008 268.706 32.9008C269.352 32.9008 269.867 32.7081 270.253 32.3228C270.638 31.9375 270.831 31.4218 270.831 30.7758C270.831 30.4018 270.717 30.0675 270.491 29.7728C270.275 29.4781 270.003 29.2175 269.675 28.9908C269.346 28.7641 268.887 28.4808 268.298 28.1408C267.55 27.7215 266.943 27.3418 266.479 27.0018C266.014 26.6618 265.617 26.2368 265.289 25.7268C264.96 25.2055 264.796 24.5935 264.796 23.8908C264.796 23.3355 264.949 22.8368 265.255 22.3948C265.572 21.9415 266.042 21.5845 266.666 21.3238C267.289 21.0518 268.054 20.9158 268.961 20.9158C269.618 20.9158 270.275 21.1028 270.933 21.4768C271.182 21.6128 271.431 21.7941 271.681 22.0208C271.873 21.7261 272.072 21.4938 272.276 21.3238C272.48 21.1765 272.593 21.0971 272.616 21.0858H273.041V24.3158H272.361C272.213 23.7718 271.992 23.2788 271.698 22.8368C271.426 22.4061 271.086 22.0491 270.678 21.7658C270.281 21.4825 269.822 21.3408 269.301 21.3408C268.859 21.3408 268.479 21.5165 268.162 21.8678C267.844 22.2191 267.686 22.6668 267.686 23.2108C267.686 23.6301 267.805 24.0098 268.043 24.3498C268.292 24.6785 268.592 24.9675 268.944 25.2168C269.306 25.4661 269.794 25.7665 270.406 26.1178C271.12 26.5258 271.698 26.8885 272.14 27.2058C272.582 27.5231 272.956 27.9198 273.262 28.3958C273.568 28.8605 273.721 29.3988 273.721 30.0108C273.721 30.6228 273.545 31.1838 273.194 31.6938C272.842 32.1925 272.315 32.5891 271.613 32.8838C270.91 33.1785 270.054 33.3258 269.046 33.3258Z" fill="white"/>
<path d="M135.234 54.035L135.234 0" stroke="white" stroke-width="0.75"/>
<path d="M176.626 13.1987C176.364 11.946 175.226 11 173.866 11C173.555 11 173.302 11.2457 173.302 11.5497C173.302 11.8536 173.555 12.0993 173.866 12.0993C174.797 12.0993 175.556 12.8392 175.556 13.7484C175.556 14.6575 174.797 15.3974 173.866 15.3974C173.555 15.3974 173.302 15.6431 173.302 15.947C173.302 16.251 173.555 16.4967 173.866 16.4967C175.226 16.4967 176.364 15.5507 176.626 14.298H184.006V19.2451H153.584V14.298H161.471H163.162C163.473 14.298 163.725 14.0523 163.725 13.7484C163.725 13.4444 163.473 13.1987 163.162 13.1987H162.138C162.372 12.56 162.991 12.0993 163.725 12.0993C164.657 12.0993 165.415 12.8392 165.415 13.7484C165.415 14.6575 164.657 15.3974 163.725 15.3974C163.414 15.3974 163.162 15.6431 163.162 15.947C163.162 16.251 163.414 16.4967 163.725 16.4967C165.278 16.4967 166.542 15.2638 166.542 13.7484C166.542 12.2329 165.278 11 163.725 11C162.365 11 161.227 11.946 160.965 13.1987H152.457V20.3444V42.3313H185.133V20.3444V13.1987H176.626ZM184.006 41.232H153.584V20.3444H184.006V41.232Z" fill="white"/>
<path d="M167.105 12.0993C168.037 12.0993 168.795 12.8392 168.795 13.7484C168.795 14.6575 168.037 15.3974 167.105 15.3974C166.794 15.3974 166.542 15.6431 166.542 15.947C166.542 16.251 166.794 16.4967 167.105 16.4967C168.658 16.4967 169.922 15.2638 169.922 13.7484C169.922 12.2329 168.658 11 167.105 11C166.794 11 166.542 11.2457 166.542 11.5497C166.542 11.8536 166.794 12.0993 167.105 12.0993Z" fill="white"/>
<path d="M170.485 12.0993C171.417 12.0993 172.175 12.8392 172.175 13.7484C172.175 14.6575 171.417 15.3974 170.485 15.3974C170.174 15.3974 169.922 15.6431 169.922 15.947C169.922 16.251 170.174 16.4967 170.485 16.4967C172.039 16.4967 173.302 15.2638 173.302 13.7484C173.302 12.2329 172.039 11 170.485 11C170.174 11 169.922 11.2457 169.922 11.5497C169.922 11.8536 170.174 12.0993 170.485 12.0993Z" fill="white"/>
<path d="M157.528 24.7416H169.922C170.233 24.7416 170.485 24.4959 170.485 24.1919C170.485 23.8879 170.233 23.6422 169.922 23.6422H157.528C157.217 23.6422 156.964 23.8879 156.964 24.1919C156.964 24.4959 157.217 24.7416 157.528 24.7416Z" fill="white"/>
<path d="M180.063 32.4373H171.612C171.301 32.4373 171.049 32.683 171.049 32.9869C171.049 33.2909 171.301 33.5366 171.612 33.5366H180.063C180.374 33.5366 180.626 33.2909 180.626 32.9869C180.626 32.683 180.374 32.4373 180.063 32.4373Z" fill="white"/>
<path d="M157.528 29.1395H163.162C163.473 29.1395 163.725 28.8938 163.725 28.5898C163.725 28.2859 163.473 28.0402 163.162 28.0402H157.528C157.217 28.0402 156.964 28.2859 156.964 28.5898C156.964 28.8938 157.217 29.1395 157.528 29.1395Z" fill="white"/>
<path d="M180.063 36.8347H174.429C174.118 36.8347 173.866 37.0804 173.866 37.3844C173.866 37.6884 174.118 37.9341 174.429 37.9341H180.063C180.374 37.9341 180.626 37.6884 180.626 37.3844C180.626 37.0804 180.374 36.8347 180.063 36.8347Z" fill="white"/>
<path d="M168.232 28.5898C168.232 28.8938 168.484 29.1395 168.795 29.1395H177.246C177.557 29.1395 177.809 28.8938 177.809 28.5898C177.809 28.2859 177.557 28.0402 177.246 28.0402H168.795C168.484 28.0402 168.232 28.2859 168.232 28.5898Z" fill="white"/>
<path d="M166.378 28.9799C166.48 28.8754 166.542 28.7325 166.542 28.5896C166.542 28.4462 166.48 28.3032 166.378 28.1993C166.17 27.996 165.787 27.996 165.578 28.1993C165.477 28.3032 165.415 28.4462 165.415 28.5896C165.415 28.7325 165.477 28.8754 165.578 28.9799C165.685 29.0838 165.832 29.1393 165.978 29.1393C166.125 29.1393 166.271 29.0838 166.378 28.9799Z" fill="white"/>
<path d="M159.781 32.9869C159.781 33.2909 160.034 33.5366 160.345 33.5366H168.795C169.106 33.5366 169.359 33.2909 169.359 32.9869C169.359 32.683 169.106 32.4373 168.795 32.4373H160.345C160.034 32.4373 159.781 32.683 159.781 32.9869Z" fill="white"/>
<path d="M157.528 33.5366C157.674 33.5366 157.821 33.4761 157.928 33.3772C158.029 33.2727 158.091 33.1298 158.091 32.9869C158.091 32.8434 158.029 32.7005 157.928 32.6021C157.719 32.3932 157.336 32.3932 157.128 32.5966C157.026 32.7005 156.964 32.8434 156.964 32.9869C156.964 33.1298 157.026 33.2727 157.128 33.3772C157.235 33.4761 157.376 33.5366 157.528 33.5366Z" fill="white"/>
<path d="M180.063 29.1393C180.209 29.1393 180.356 29.0838 180.463 28.9799C180.57 28.8754 180.626 28.7325 180.626 28.5896C180.626 28.4462 180.57 28.3032 180.463 28.1993C180.249 27.996 179.871 27.996 179.663 28.1993C179.561 28.3032 179.499 28.4462 179.499 28.5896C179.499 28.7325 179.561 28.8754 179.663 28.9799C179.77 29.0838 179.916 29.1393 180.063 29.1393Z" fill="white"/>
<path d="M171.612 36.8347H157.528C157.217 36.8347 156.964 37.0804 156.964 37.3844C156.964 37.6884 157.217 37.9341 157.528 37.9341H171.612C171.923 37.9341 172.175 37.6884 172.175 37.3844C172.175 37.0804 171.923 36.8347 171.612 36.8347Z" fill="white"/>
<defs>
<filter id="filter0_d_1_11358" x="-14.4807" y="-15" width="332.937" height="94" filterUnits="userSpaceOnUse" color-interpolation-filters="sRGB">
<feFlood flood-opacity="0" result="BackgroundImageFix"/>
<feColorMatrix in="SourceAlpha" type="matrix" values="0 0 0 0 0 0 0 0 0 0 0 0 0 0 0 0 0 0 127 0" result="hardAlpha"/>
<feOffset dx="5" dy="5"/>
<feGaussianBlur stdDeviation="10"/>
<feColorMatrix type="matrix" values="0 0 0 0 0.890196 0 0 0 0 0.721569 0 0 0 0 0.45098 0 0 0 0.5 0"/>
<feBlend mode="normal" in2="BackgroundImageFix" result="effect1_dropShadow_1_11358"/>
<feBlend mode="normal" in="SourceGraphic" in2="effect1_dropShadow_1_11358" result="shape"/>
</filter>
</defs>
</svg>
