<svg width="114" height="28" viewBox="0 0 114 28" fill="none" xmlns="http://www.w3.org/2000/svg">
<rect x="0.000488281" y="12.812" width="32" height="1.54334" rx="0.771672" fill="#E3B873"/>
<rect x="82.0005" y="12.812" width="32" height="1.54334" rx="0.771672" fill="#E3B873"/>
<path d="M72.3775 8.97342L48.2569 0.0371919C47.9484 -0.0768141 47.6057 0.0809442 47.4919 0.389711C47.4916 0.389961 47.4916 0.390211 47.4914 0.390461L44.8213 7.6586C44.7077 7.96736 44.866 8.30988 45.1748 8.42339H45.1753L47.9712 9.44994L47.3551 11.1283C47.2419 11.437 47.4001 11.7791 47.7089 11.8926L53.3017 13.9459L52.8907 15.0647C52.5172 16.0668 52.8657 17.1949 53.7397 17.8111V20.8513H45.7238C45.3358 19.9642 44.5417 19.3202 43.5934 19.1237V17.8726C43.5934 17.5436 43.3269 17.2769 42.9977 17.2769H40.5958C40.2668 17.2769 40 17.5436 40 17.8726V27.4044C40 27.7337 40.2668 28.0002 40.5958 28.0002H42.9977C43.3269 28.0002 43.5934 27.7337 43.5934 27.4044V26.1536C44.5417 25.9568 45.3358 25.313 45.7238 24.4257H53.7397V25.0215C53.7397 26.0086 54.5398 26.8089 55.5268 26.8089C56.5139 26.8089 57.3142 26.0086 57.3142 25.0215V18.4219C57.8557 18.1534 58.274 17.6876 58.4825 17.1201L58.8935 16.0013L63.9268 17.8481C63.9925 17.8724 64.0618 17.8846 64.1318 17.8846C64.3815 17.8846 64.6051 17.7289 64.6913 17.4944L64.9146 16.8861C66.8532 17.2509 68.7203 15.975 69.0848 14.0367C69.2195 13.3204 69.132 12.5801 68.834 11.9151L72.4455 10.0607C72.7382 9.91072 72.854 9.5517 72.704 9.25893C72.636 9.12592 72.5205 9.02342 72.3805 8.97167L72.3775 8.97342ZM54.931 18.3539L55.4243 18.5327C55.6488 18.6132 55.8843 18.6594 56.1226 18.6697V20.8513H54.931V18.3539ZM42.4021 26.8089H41.1916V18.4684H42.4021V26.8089ZM44.785 23.2344C44.784 23.9915 44.307 24.6662 43.5934 24.9198V20.3575C44.307 20.6108 44.784 21.2856 44.785 22.0429V23.2344ZM45.9951 22.0429H56.1226V23.2344H45.9951V22.0429ZM55.5268 25.6173C55.1978 25.6173 54.931 25.3505 54.931 25.0215V24.4257H56.1226V25.0215C56.1226 25.3505 55.8558 25.6173 55.5268 25.6173ZM57.7752 15.591L57.3642 16.7098C57.1372 17.3269 56.4529 17.6434 55.8353 17.4169L54.7148 17.0063C54.0972 16.7796 53.7802 16.095 54.007 15.4773C54.007 15.4773 54.007 15.4773 54.007 15.477L54.4183 14.359L57.4379 15.4675L57.7752 15.591ZM63.7785 16.5263L48.6787 10.9815L49.09 9.86271L58.0375 13.1484C58.2492 13.2254 58.4867 13.1771 58.6515 13.0231L60.3233 11.4493L65.0106 13.1709L63.7785 16.5263ZM67.8065 14.1979C67.429 15.2157 66.4137 15.8518 65.3333 15.747L66.2539 13.2394L67.7575 12.4651C67.9927 13.0156 68.0102 13.6352 67.8065 14.1979ZM65.7956 12.1381C65.7641 12.1408 65.7329 12.1463 65.7021 12.1546L60.3906 10.2042C60.1788 10.1265 59.9413 10.1747 59.7768 10.3292L58.103 11.9033L46.1451 7.51209L48.4037 1.36226L70.6939 9.62045L65.7956 12.1381Z" fill="#E3B873"/>
<path d="M51.6556 7.91125L51.1301 9.33118M53.9454 8.75129L53.4199 10.1712M56.1674 9.57777L55.6419 10.9977" stroke="#E3B873" stroke-linecap="round"/>
</svg>
