<svg width="28" height="28" viewBox="0 0 28 28" fill="none" xmlns="http://www.w3.org/2000/svg">
<circle cx="14" cy="14" r="14" fill="#E3B873"/>
<path d="M16.9389 7.39941H10.9556C9.30331 7.39941 7.9639 8.74256 7.9639 10.3994V16.3994C7.9639 18.0563 9.30331 19.3994 10.9556 19.3994H16.9389C18.5911 19.3994 19.9306 18.0563 19.9306 16.3994V10.3994C19.9306 8.74256 18.5911 7.39941 16.9389 7.39941Z" stroke="white" stroke-width="1.5"/>
<path d="M16.3406 13.0216C16.4144 13.5209 16.3294 14.0309 16.0975 14.479C15.8657 14.9271 15.4988 15.2904 15.0492 15.5174C14.5995 15.7444 14.0899 15.8234 13.5929 15.7432C13.0959 15.663 12.6368 15.4276 12.2808 15.0707C11.9248 14.7137 11.6902 14.2533 11.6102 13.7549C11.5302 13.2565 11.609 12.7455 11.8353 12.2946C12.0617 11.8437 12.424 11.4758 12.8708 11.2433C13.3177 11.0108 13.8262 10.9255 14.3242 10.9996C14.8321 11.0751 15.3024 11.3125 15.6655 11.6766C16.0286 12.0407 16.2653 12.5122 16.3406 13.0216Z" stroke="white" stroke-width="1.5" stroke-linecap="round" stroke-linejoin="round"/>
</svg>
