<svg width="114" height="28" viewBox="0 0 114 28" fill="none" xmlns="http://www.w3.org/2000/svg">
<rect x="0.158913" y="12.9998" width="31.9111" height="1.54334" rx="0.771672" fill="#E3B873"/>
<rect x="81.9311" y="12.9998" width="31.9111" height="1.54334" rx="0.771672" fill="#E3B873"/>
<path d="M67.3767 21.1434C66.7967 20.7342 66.1275 20.5144 65.4515 20.4785C62.9035 18.8054 61.2345 17.5495 60.2601 16.5724L57.2667 13.5707L59.0832 11.5318C59.4274 11.7267 59.7972 11.8551 60.167 11.908C60.4461 11.9546 60.6321 11.9546 60.8182 11.9546C61.1904 11.9546 61.2833 11.9546 61.6555 12.2811C61.4694 12.4211 61.3764 12.6543 61.3764 12.8875C61.3764 13.1207 61.4694 13.4006 61.6555 13.5871L63.2835 15.2197C63.5161 15.4995 63.8881 15.6394 64.2603 15.6394C64.6324 15.6394 65.0045 15.4995 65.237 15.173L68.5395 11.8613C68.8186 11.6281 68.9582 11.255 68.9582 10.8818C68.9582 10.5087 68.8186 10.1822 68.5395 9.90232L66.9115 8.26979C66.7255 8.08324 66.4929 7.98993 66.2603 7.98993C66.0277 7.98993 65.7952 8.12986 65.6091 8.26979C65.237 7.94331 65.237 7.85 65.237 7.47684C65.237 7.29028 65.237 7.05705 65.1439 6.77719C65.0509 6.12416 64.7253 5.4712 64.2137 4.9581L62.5392 3.27894C61.5624 2.29944 61.0973 1.83302 59.8414 1.2733C57.1436 0.013935 54.3993 0.24717 50.3991 2.06626C50.1665 2.15956 50.0735 2.34612 50.12 2.57935C50.1665 2.81258 50.3526 2.95251 50.5851 2.95251H51.1898C53.2364 2.95251 54.3062 2.95251 56.1668 4.81823C56.9814 5.63518 57.0049 6.88782 56.275 7.80944C56.1766 7.82431 56.1017 7.86859 56.0272 7.94331L53.961 10.2559L52.3992 8.68963C50.6825 6.96817 49.475 5.33946 48.5457 3.5259C48.4969 2.60821 48.1297 1.74961 47.4687 1.0868C46.678 0.293904 45.5617 -0.0792603 44.4454 0.0140445C44.3058 0.0606695 44.1663 0.153974 44.1198 0.247279C44.0267 0.387209 44.0267 0.573763 44.1198 0.713693L45.4222 3.04587C45.1431 3.65222 44.4919 4.02538 43.8407 3.97876L42.4918 1.73983C42.4453 1.5999 42.2592 1.50659 42.1197 1.50659C41.9801 1.45997 41.8406 1.55322 41.7475 1.69315C40.6312 3.3723 41.0498 5.61118 42.7243 6.77724C43.3012 7.19047 43.9512 7.42026 44.6094 7.46738C44.6168 7.4705 44.6237 7.47432 44.6314 7.47689C46.4454 8.40977 48.0734 9.62246 49.7944 11.3483L51.4955 13.0154L41.6081 24.082C41.2359 24.4551 41.0499 24.9682 41.0499 25.4813C41.0499 25.9944 41.2359 26.4608 41.6081 26.8339L42.2593 27.487C42.6314 27.8134 43.0965 28 43.5616 28C44.0267 28 44.5384 27.8135 44.9105 27.4403L54.7867 16.3546L57.6553 19.2311C58.6311 20.2097 59.8856 21.9332 61.5577 24.4481C61.6177 25.3458 61.984 26.1839 62.6323 26.8339C63.33 27.5336 64.2603 27.9067 65.237 27.9067C65.3766 27.9067 65.5161 27.9067 65.6092 27.9067C65.7487 27.9067 65.8883 27.8134 65.9813 27.6735C66.0743 27.5336 66.0743 27.347 65.9813 27.2071L64.6324 24.9216C64.958 24.3153 65.5627 23.9421 66.2604 23.9887L67.5627 26.2276C67.6092 26.3675 67.7953 26.4608 67.9349 26.4608C68.1209 26.4142 68.2604 26.3675 68.3535 26.2276C69.4698 24.5484 69.0046 22.3095 67.3767 21.1434ZM56.7715 4.07201C55.2831 2.62608 54.1667 2.15962 52.9109 2.01969C55.5622 1.18011 57.5157 1.22673 59.4693 2.11299C60.5856 2.57941 60.9578 2.95257 61.9346 3.93208L63.609 5.61123C63.9812 5.9844 64.2137 6.45081 64.2603 6.91723C64.3067 7.15046 64.3068 7.33702 64.3068 7.47695C64.3068 7.99004 64.3532 8.36315 64.9114 8.92287C65.0974 9.10942 65.3765 9.20273 65.6091 9.20273C65.8882 9.20273 66.1208 9.10942 66.2603 8.92287L67.8883 10.5554C67.9814 10.6487 68.0279 10.742 68.0279 10.8819C68.0279 11.0218 67.9814 11.1151 67.8883 11.2084L64.5858 14.5201C64.3998 14.7066 64.1207 14.7066 63.9346 14.5201L62.3066 12.8875C62.4927 12.7476 62.5857 12.5144 62.5392 12.2345C62.5392 12.0013 62.4462 11.7214 62.2601 11.5349C61.702 10.9751 61.3298 10.9285 60.8182 10.9285C60.6787 10.9285 60.4926 10.9285 60.2601 10.8819C59.7484 10.8353 59.3298 10.602 58.9577 10.2289L56.9576 8.22322C57.9809 6.96391 57.8879 5.19145 56.7715 4.07201ZM42.1662 2.95257L43.143 4.63173C43.2361 4.77166 43.3756 4.86496 43.5151 4.86496H43.7477C44.8176 4.91159 45.7943 4.35187 46.2595 3.41904L46.3525 3.1858C46.4456 3.04587 46.4456 2.90594 46.3525 2.76601L45.3292 0.993553C45.8873 1.08686 46.399 1.36672 46.8176 1.78651C47.2972 2.30747 47.6042 2.96634 47.6224 3.67408C47.6134 3.70999 47.6083 3.74864 47.6083 3.7922C47.6083 4.00822 47.5823 4.21893 47.5342 4.42205C47.3587 5.09743 46.938 5.68628 46.3525 6.07776C45.4222 6.6841 44.1663 6.6841 43.2361 6.03113C42.2593 5.33137 41.8406 4.07201 42.1662 2.95257ZM50.4456 10.6953C49.0502 9.24941 47.6548 8.12997 46.1664 7.24371C46.3989 7.15041 46.678 7.01048 46.9106 6.87055C47.6083 6.40413 48.0734 5.79773 48.3525 5.05146C49.2362 6.54406 50.3525 7.94336 51.7479 9.34266L53.3456 10.9447L52.0927 12.347L50.4456 10.6953ZM44.2593 26.7406C43.8872 27.1138 43.2825 27.1604 42.9104 26.7873L42.2592 26.1809C42.0732 25.9944 41.9801 25.7611 41.9801 25.5279C41.9801 25.248 42.0732 25.0148 42.3057 24.7816L42.5691 24.4861L43.236 25.1548C43.329 25.2481 43.422 25.2947 43.5616 25.2947C43.7011 25.2947 43.7942 25.2481 43.8872 25.1548C44.0732 24.9682 44.0732 24.6884 43.8872 24.5018L43.1838 23.7964L43.7985 23.1068L44.5384 23.8487C44.6314 23.942 44.7244 23.9887 44.8639 23.9887C45.0035 23.9887 45.0965 23.942 45.1895 23.8487C45.3756 23.6622 45.3756 23.3823 45.1895 23.1957L44.4132 22.4172L56.3774 8.99415L58.331 10.9532L56.4115 13.1067C56.3567 13.13 56.3082 13.1656 56.2599 13.2141L54.3993 15.313C54.3462 15.3663 54.3088 15.4273 54.286 15.4914L44.2593 26.7406ZM55.4232 15.6401L56.6961 14.2113L59.7018 17.2254C60.5391 18.1116 61.981 19.231 64.0741 20.6303C63.795 20.7236 63.5159 20.8636 63.2369 21.0501C62.6598 21.4118 62.2511 21.914 61.9663 22.4691C61.9621 22.477 61.9582 22.4851 61.9541 22.4931C61.9372 22.5265 61.9207 22.5601 61.9047 22.5938C61.8817 22.6417 61.8599 22.69 61.8391 22.7389C61.8248 22.772 61.8105 22.805 61.7971 22.8383C61.7952 22.8431 61.7933 22.848 61.7914 22.8528C61.7768 22.8893 61.7622 22.9258 61.7485 22.9625C61.4843 22.5739 61.2301 22.2072 60.9856 21.8618L61.6089 21.2367C61.795 21.0502 61.795 20.7703 61.6089 20.5837C61.4229 20.3972 61.1438 20.3972 60.9577 20.5837L60.4392 21.1037C60.2459 20.8407 60.0592 20.5926 59.8791 20.3593L60.3066 19.9307C60.4926 19.7441 60.4926 19.4643 60.3066 19.2777C60.1205 19.0911 59.8414 19.0911 59.6553 19.2777L59.3003 19.6337C58.9584 19.2206 58.6431 18.8689 58.353 18.578L55.4232 15.6401ZM67.8883 24.9682L66.9115 23.289C66.8184 23.1491 66.6789 23.0558 66.5394 23.0558H66.3068C65.2369 22.9625 64.2601 23.5689 63.795 24.5017L63.702 24.7349C63.6089 24.8749 63.6089 25.0148 63.702 25.1547L64.7253 26.9272C64.1671 26.8339 63.6554 26.554 63.2368 26.1342C62.7663 25.6231 62.4622 24.9793 62.4336 24.2869C62.4416 24.2528 62.4461 24.2162 62.4461 24.1752C62.4461 23.5843 62.6331 23.0311 62.9591 22.5625C63.1595 22.283 63.41 22.0383 63.7019 21.8431C64.167 21.5166 64.6787 21.3767 65.2369 21.3767C65.795 21.3767 66.3532 21.5632 66.8183 21.8898C67.7953 22.5894 68.2139 23.8487 67.8883 24.9682Z" fill="#E3B873"/>
</svg>
