<svg width="114" height="30" viewBox="0 0 114 30" fill="none" xmlns="http://www.w3.org/2000/svg">
<rect x="0.153381" y="14" width="31.9111" height="1.54334" rx="0.771672" fill="#E3B873"/>
<rect x="81.9256" y="14" width="31.9111" height="1.54334" rx="0.771672" fill="#E3B873"/>
<path d="M62.4055 9.56018L57.5735 8.10643C57.2107 7.99791 56.8379 7.9597 56.4685 7.97323V7.96076H50.5956L40.1809 4.49023L40.2124 19.1652L43.202 20.6637L44.9722 16.3243L47.5581 17.3617L48.2285 15.6814L49.1996 16.6551L48.2936 17.5639C47.9788 17.8796 47.7983 18.3164 47.7983 18.7632C47.7983 19.6775 48.5254 20.421 49.4298 20.4531C49.4613 21.3393 50.1717 22.0517 51.0555 22.0833C51.0869 22.9695 51.7974 23.6819 52.6811 23.7135C52.7137 24.6204 53.4545 25.3495 54.3666 25.3495C54.8119 25.3495 55.2477 25.1685 55.5623 24.8528L56.4685 23.9443L56.8326 24.3094C57.1475 24.6251 57.583 24.8061 58.0286 24.8061C58.9406 24.8061 59.6817 24.077 59.7138 23.1701C60.5975 23.1385 61.3079 22.4261 61.3394 21.5399C62.2232 21.5083 62.9336 20.7959 62.9651 19.9097C63.8695 19.877 64.5968 19.1341 64.5968 18.2198C64.5968 18.1426 64.5844 18.0664 64.5741 17.9897L65.3517 17.2099L65.9801 18.4708L69.3839 16.7639L71.4408 20.702L73.8089 19.1195V5.07476L62.4055 9.56018ZM42.6406 19.1673L41.2951 18.4925L41.2679 5.99758L47.2059 7.97668L42.6406 19.1673ZM46.9545 15.9488L45.382 15.3184L48.2367 8.32002L49.7902 8.83795L46.9545 15.9488ZM48.8821 18.7632C48.8821 18.6027 48.9464 18.4458 49.0596 18.332L50.0124 17.3768C50.1257 17.2633 50.2823 17.1985 50.4421 17.1985C50.7771 17.1985 51.0496 17.4721 51.0496 17.8077C51.0496 17.968 50.9851 18.1251 50.8718 18.2386L49.9193 19.1941C49.806 19.3076 49.6494 19.3721 49.4896 19.3721C49.1546 19.3721 48.8821 19.0988 48.8821 18.7632ZM50.5077 20.3934C50.5077 20.2328 50.572 20.076 50.6853 19.9622L51.6381 19.007C51.7513 18.8935 51.908 18.8287 52.0678 18.8287C52.4028 18.8287 52.6753 19.1023 52.6753 19.4379C52.6753 19.5982 52.6107 19.7553 52.4975 19.8688L51.545 20.8243C51.4317 20.9378 51.2751 21.0023 51.1152 21.0023C50.7803 21.0023 50.5077 20.729 50.5077 20.3934ZM52.1334 22.0236C52.1334 21.863 52.1977 21.7062 52.3109 21.5924L53.2638 20.6372C53.377 20.5237 53.5336 20.4589 53.6935 20.4589C54.0284 20.4589 54.301 20.7325 54.301 21.0681C54.301 21.2284 54.2364 21.3854 54.1232 21.499L53.1706 22.4545C53.0574 22.568 52.9007 22.6325 52.7409 22.6325C52.4059 22.6325 52.1334 22.3592 52.1334 22.0236ZM55.7488 23.1292L54.7963 24.0847C54.683 24.1982 54.5264 24.2627 54.3666 24.2627C54.0316 24.2627 53.7591 23.9894 53.7591 23.6538C53.7591 23.4932 53.8234 23.3364 53.9366 23.2226L54.8894 22.2674C55.0027 22.1538 55.1593 22.0891 55.3191 22.0891C55.6541 22.0891 55.9266 22.3627 55.9266 22.6983C55.9266 22.8586 55.8621 23.0156 55.7488 23.1292ZM62.9056 18.8287C62.7457 18.8287 62.5891 18.7642 62.4759 18.6507L57.9354 14.0973L57.1692 14.8657L61.7096 19.4188C61.8228 19.5326 61.8874 19.6895 61.8874 19.85C61.8874 20.1856 61.6149 20.4589 61.2799 20.4589C61.1201 20.4589 60.9634 20.3944 60.8502 20.2809L56.3098 15.7275L55.5435 16.4959L60.0839 21.049C60.1972 21.1628 60.2617 21.3196 60.2617 21.4802C60.2617 21.8158 59.9892 22.0891 59.6542 22.0891C59.4944 22.0891 59.3378 22.0246 59.2245 21.9111L54.6841 17.3577L53.9178 18.1261L58.4583 22.6792C58.5715 22.793 58.6361 22.9498 58.6361 23.1104C58.6361 23.446 58.3635 23.7193 58.0286 23.7193C57.8687 23.7193 57.7121 23.6548 57.5989 23.5413L56.9876 22.9281C56.9985 22.8522 57.0104 22.776 57.0104 22.6983C57.0104 21.7837 56.283 21.0405 55.3787 21.0084C55.3472 20.1222 54.6367 19.4098 53.753 19.3782C53.7215 18.492 53.0111 17.7796 52.1273 17.748C52.0948 16.8411 51.3542 16.1117 50.4421 16.1117C50.3651 16.1117 50.2892 16.1242 50.213 16.1345L48.6659 14.5832L50.8745 9.04756H54.0766L52.0868 11.0431C51.7669 11.3631 51.5915 11.7892 51.5915 12.2424C51.5915 13.1774 52.3501 13.9381 53.2828 13.9381C53.7281 13.9381 54.1639 13.7572 54.4785 13.4414L55.9142 12.0015C56.2079 11.708 56.7252 11.6966 57.031 11.9776L58.2979 13.1421C58.7189 13.529 59.1867 13.8508 59.6873 14.1029L63.3353 17.7886C63.4485 17.9024 63.5131 18.0593 63.5131 18.2198C63.5131 18.5554 63.2405 18.8287 62.9056 18.8287ZM64.0549 16.9735L61.8276 14.723C62.0266 14.7418 62.2271 14.7532 62.4293 14.7532V13.6664C61.1677 13.6664 59.9604 13.1955 59.0306 12.3406L57.7634 11.1766C57.0482 10.518 55.8351 10.5443 55.1485 11.2336L53.713 12.6733C53.5993 12.7863 53.4426 12.8513 53.2828 12.8513C52.9478 12.8513 52.6753 12.5781 52.6753 12.2424C52.6753 12.0792 52.738 11.9267 52.8528 11.8112L54.9185 9.74007C55.5255 9.1314 56.437 8.89977 57.2618 9.14759L62.0488 10.5875L64.84 16.1863L64.0549 16.9735ZM66.4646 17.0128L63.1791 10.423L65.5787 9.47899L68.8809 15.801L66.4646 17.0128ZM72.7252 18.5382L71.8417 19.1288L66.5937 9.08019L72.7252 6.6686V18.5382Z" fill="#E3B873"/>
<circle cx="61.6667" cy="1.70141" r="0.485591" fill="#E3B873"/>
<circle cx="49.4099" cy="24.6306" r="0.485591" fill="#E3B873"/>
<circle cx="51.468" cy="26.3191" r="0.485591" fill="#E3B873"/>
<circle cx="53.8166" cy="27.5579" r="0.485591" fill="#E3B873"/>
<circle cx="56.3655" cy="28.3503" r="0.485591" fill="#E3B873"/>
<circle cx="64.2141" cy="2.47436" r="0.485591" fill="#E3B873"/>
<circle cx="66.5632" cy="3.72876" r="0.485591" fill="#E3B873"/>
<path d="M68.8305 3.02686V5.82855H65.9971" stroke="#E3B873" stroke-linecap="round" stroke-linejoin="round"/>
<path d="M47.0104 24.314L47.0104 22.0471L49.2744 22.0471" stroke="#E3B873" stroke-linecap="round" stroke-linejoin="round"/>
<path d="M49.8008 5.00987C51.3359 3.67406 52.3124 3.05949 54.1519 2.34124C56.1032 1.5793 57.4236 1.40038 59.5441 1.40039" stroke="#E3B873" stroke-linecap="round"/>
<path d="M70.4046 22.4984C69.2633 24.2786 67.1376 26.0167 65.4089 26.9712C63.575 27.9837 61.6102 28.5543 58.9931 28.6906" stroke="#E3B873" stroke-linecap="round"/>
</svg>
