<svg width="460" height="113" viewBox="0 0 460 113" fill="none" xmlns="http://www.w3.org/2000/svg">
<g filter="url(#filter0_d_1_11112)">
<path d="M118.39 40.9424V28.2524H119.866V33.8684H127.48V28.2524H128.956V40.9424H127.48V35.1464H119.866V40.9424H118.39ZM135.827 41.1044C134.447 41.1044 133.355 40.7024 132.551 39.8984C131.747 39.0824 131.345 37.9784 131.345 36.5864C131.345 35.6864 131.525 34.8944 131.885 34.2104C132.245 33.5144 132.737 32.9804 133.361 32.6084C133.997 32.2244 134.729 32.0324 135.557 32.0324C136.745 32.0324 137.675 32.4164 138.347 33.1844C139.019 33.9404 139.355 34.9844 139.355 36.3164V36.8744H132.767C132.815 37.8704 133.103 38.6324 133.631 39.1604C134.159 39.6764 134.891 39.9344 135.827 39.9344C136.355 39.9344 136.859 39.8564 137.339 39.7004C137.819 39.5324 138.275 39.2624 138.707 38.8904L139.211 39.9164C138.815 40.2884 138.311 40.5824 137.699 40.7984C137.087 41.0024 136.463 41.1044 135.827 41.1044ZM135.593 33.1124C134.765 33.1124 134.111 33.3704 133.631 33.8864C133.151 34.4024 132.869 35.0804 132.785 35.9204H138.095C138.059 35.0324 137.825 34.3424 137.393 33.8504C136.973 33.3584 136.373 33.1124 135.593 33.1124ZM144.147 41.1044C143.259 41.1044 142.587 40.8464 142.131 40.3304C141.687 39.8024 141.465 39.0404 141.465 38.0444V28.2524H142.923V37.9364C142.923 39.2204 143.433 39.8624 144.453 39.8624C144.753 39.8624 145.023 39.8264 145.263 39.7544L145.227 40.9784C144.855 41.0624 144.495 41.1044 144.147 41.1044ZM146.791 44.1824V32.1944H148.213V33.7604C148.477 33.2204 148.867 32.8004 149.383 32.5004C149.911 32.1884 150.523 32.0324 151.219 32.0324C151.999 32.0324 152.677 32.2184 153.253 32.5904C153.841 32.9504 154.291 33.4724 154.603 34.1564C154.927 34.8284 155.089 35.6324 155.089 36.5684C155.089 37.4924 154.927 38.2964 154.603 38.9804C154.291 39.6524 153.841 40.1744 153.253 40.5464C152.677 40.9184 151.999 41.1044 151.219 41.1044C150.547 41.1044 149.947 40.9544 149.419 40.6544C148.891 40.3544 148.501 39.9404 148.249 39.4124V44.1824H146.791ZM150.913 39.9344C151.729 39.9344 152.383 39.6464 152.875 39.0704C153.367 38.4824 153.613 37.6484 153.613 36.5684C153.613 35.4764 153.367 34.6424 152.875 34.0664C152.383 33.4904 151.729 33.2024 150.913 33.2024C150.097 33.2024 149.443 33.4904 148.951 34.0664C148.459 34.6424 148.213 35.4764 148.213 36.5684C148.213 37.6484 148.459 38.4824 148.951 39.0704C149.443 39.6464 150.097 39.9344 150.913 39.9344ZM164.86 41.1044C164.176 41.1044 163.528 41.0084 162.916 40.8164C162.304 40.6244 161.8 40.3544 161.404 40.0064L161.872 38.9804C162.304 39.3284 162.778 39.5864 163.294 39.7544C163.822 39.9104 164.356 39.9884 164.896 39.9884C165.58 39.9884 166.096 39.8624 166.444 39.6104C166.792 39.3584 166.966 39.0164 166.966 38.5844C166.966 38.2484 166.852 37.9844 166.624 37.7924C166.396 37.5884 166.036 37.4324 165.544 37.3244L163.906 36.9644C162.418 36.6404 161.674 35.8724 161.674 34.6604C161.674 33.8684 161.986 33.2324 162.61 32.7524C163.246 32.2724 164.074 32.0324 165.094 32.0324C165.694 32.0324 166.264 32.1284 166.804 32.3204C167.356 32.5004 167.812 32.7704 168.172 33.1304L167.686 34.1564C167.338 33.8324 166.93 33.5864 166.462 33.4184C166.006 33.2384 165.55 33.1484 165.094 33.1484C164.422 33.1484 163.912 33.2804 163.564 33.5444C163.216 33.8084 163.042 34.1564 163.042 34.5884C163.042 35.2604 163.486 35.6924 164.374 35.8844L166.012 36.2264C166.78 36.3944 167.362 36.6644 167.758 37.0364C168.154 37.3964 168.352 37.8884 168.352 38.5124C168.352 39.3164 168.034 39.9524 167.398 40.4204C166.762 40.8764 165.916 41.1044 164.86 41.1044ZM173.328 41.1044C172.728 41.1044 172.188 40.9904 171.708 40.7624C171.24 40.5224 170.868 40.1984 170.592 39.7904C170.316 39.3824 170.178 38.9264 170.178 38.4224C170.178 37.7864 170.34 37.2824 170.664 36.9104C171 36.5384 171.546 36.2744 172.302 36.1184C173.07 35.9504 174.114 35.8664 175.434 35.8664H176.01V35.3084C176.01 34.5644 175.854 34.0304 175.542 33.7064C175.242 33.3704 174.756 33.2024 174.084 33.2024C173.556 33.2024 173.046 33.2804 172.554 33.4364C172.062 33.5804 171.558 33.8204 171.042 34.1564L170.538 33.0944C170.994 32.7704 171.546 32.5124 172.194 32.3204C172.854 32.1284 173.484 32.0324 174.084 32.0324C175.212 32.0324 176.046 32.3084 176.586 32.8604C177.138 33.4124 177.414 34.2704 177.414 35.4344V40.9424H176.046V39.4304C175.818 39.9464 175.464 40.3544 174.984 40.6544C174.516 40.9544 173.964 41.1044 173.328 41.1044ZM173.562 40.0064C174.282 40.0064 174.87 39.7604 175.326 39.2684C175.782 38.7644 176.01 38.1284 176.01 37.3604V36.8204H175.452C174.48 36.8204 173.712 36.8684 173.148 36.9644C172.596 37.0484 172.206 37.2044 171.978 37.4324C171.762 37.6484 171.654 37.9484 171.654 38.3324C171.654 38.8244 171.822 39.2264 172.158 39.5384C172.506 39.8504 172.974 40.0064 173.562 40.0064ZM182.605 40.9424L178.843 32.1944H180.427L183.325 39.2864L186.259 32.1944H187.753L183.973 40.9424H182.605ZM193.114 41.1044C191.734 41.1044 190.642 40.7024 189.838 39.8984C189.034 39.0824 188.632 37.9784 188.632 36.5864C188.632 35.6864 188.812 34.8944 189.172 34.2104C189.532 33.5144 190.024 32.9804 190.648 32.6084C191.284 32.2244 192.016 32.0324 192.844 32.0324C194.032 32.0324 194.962 32.4164 195.634 33.1844C196.306 33.9404 196.642 34.9844 196.642 36.3164V36.8744H190.054C190.102 37.8704 190.39 38.6324 190.918 39.1604C191.446 39.6764 192.178 39.9344 193.114 39.9344C193.642 39.9344 194.146 39.8564 194.626 39.7004C195.106 39.5324 195.562 39.2624 195.994 38.8904L196.498 39.9164C196.102 40.2884 195.598 40.5824 194.986 40.7984C194.374 41.0024 193.75 41.1044 193.114 41.1044ZM192.88 33.1124C192.052 33.1124 191.398 33.3704 190.918 33.8864C190.438 34.4024 190.156 35.0804 190.072 35.9204H195.382C195.346 35.0324 195.112 34.3424 194.68 33.8504C194.26 33.3584 193.66 33.1124 192.88 33.1124ZM204.239 40.9424V39.6824H207.137V30.0344L204.851 31.4744L204.221 30.3764L207.551 28.2524H208.613V39.6824H211.331V40.9424H204.239ZM218.2 41.1044C216.748 41.1044 215.644 40.5464 214.888 39.4304C214.132 38.3144 213.754 36.7004 213.754 34.5884C213.754 32.4644 214.132 30.8504 214.888 29.7464C215.644 28.6424 216.748 28.0904 218.2 28.0904C219.664 28.0904 220.768 28.6424 221.512 29.7464C222.268 30.8384 222.646 32.4464 222.646 34.5704C222.646 36.6944 222.262 38.3144 221.494 39.4304C220.738 40.5464 219.64 41.1044 218.2 41.1044ZM218.2 39.8264C219.208 39.8264 219.952 39.4004 220.432 38.5484C220.924 37.6964 221.17 36.3704 221.17 34.5704C221.17 32.7704 220.93 31.4564 220.45 30.6284C219.97 29.7884 219.22 29.3684 218.2 29.3684C217.192 29.3684 216.442 29.7884 215.95 30.6284C215.47 31.4684 215.23 32.7824 215.23 34.5704C215.23 36.3704 215.47 37.6964 215.95 38.5484C216.442 39.4004 217.192 39.8264 218.2 39.8264ZM229.512 36.7484V35.5424H234.552V36.7484H229.512ZM242.088 40.9424V39.8264L246.426 35.1464C247.038 34.4744 247.476 33.8624 247.74 33.3104C248.016 32.7584 248.154 32.1944 248.154 31.6184C248.154 30.1424 247.296 29.4044 245.58 29.4044C244.296 29.4044 243.162 29.8844 242.178 30.8444L241.62 29.6924C242.088 29.2124 242.682 28.8284 243.402 28.5404C244.134 28.2404 244.902 28.0904 245.706 28.0904C246.978 28.0904 247.95 28.3904 248.622 28.9904C249.306 29.5784 249.648 30.4184 249.648 31.5104C249.648 32.2664 249.462 33.0104 249.09 33.7424C248.718 34.4624 248.148 35.2304 247.38 36.0464L243.978 39.6824H250.17V40.9424H242.088ZM256.661 41.1044C255.209 41.1044 254.105 40.5464 253.349 39.4304C252.593 38.3144 252.215 36.7004 252.215 34.5884C252.215 32.4644 252.593 30.8504 253.349 29.7464C254.105 28.6424 255.209 28.0904 256.661 28.0904C258.125 28.0904 259.229 28.6424 259.973 29.7464C260.729 30.8384 261.107 32.4464 261.107 34.5704C261.107 36.6944 260.723 38.3144 259.955 39.4304C259.199 40.5464 258.101 41.1044 256.661 41.1044ZM256.661 39.8264C257.669 39.8264 258.413 39.4004 258.893 38.5484C259.385 37.6964 259.631 36.3704 259.631 34.5704C259.631 32.7704 259.391 31.4564 258.911 30.6284C258.431 29.7884 257.681 29.3684 256.661 29.3684C255.653 29.3684 254.903 29.7884 254.411 30.6284C253.931 31.4684 253.691 32.7824 253.691 34.5704C253.691 36.3704 253.931 37.6964 254.411 38.5484C254.903 39.4004 255.653 39.8264 256.661 39.8264ZM267.202 41.3924L266.176 40.7984L273.646 27.8024L274.654 28.3964L267.202 41.3924ZM266.122 35.8664C265.162 35.8664 264.412 35.5244 263.872 34.8404C263.332 34.1564 263.062 33.2024 263.062 31.9784C263.062 30.7544 263.332 29.8064 263.872 29.1344C264.412 28.4504 265.162 28.1084 266.122 28.1084C267.07 28.1084 267.814 28.4504 268.354 29.1344C268.906 29.8064 269.182 30.7544 269.182 31.9784C269.182 33.2024 268.906 34.1564 268.354 34.8404C267.814 35.5244 267.07 35.8664 266.122 35.8664ZM266.122 34.8044C266.674 34.8044 267.112 34.5704 267.436 34.1024C267.76 33.6224 267.922 32.9144 267.922 31.9784C267.922 31.0424 267.76 30.3404 267.436 29.8724C267.112 29.4044 266.674 29.1704 266.122 29.1704C265.558 29.1704 265.114 29.4044 264.79 29.8724C264.478 30.3404 264.322 31.0424 264.322 31.9784C264.322 32.9144 264.478 33.6224 264.79 34.1024C265.114 34.5704 265.558 34.8044 266.122 34.8044ZM274.726 41.1044C273.778 41.1044 273.028 40.7624 272.476 40.0784C271.936 39.3944 271.666 38.4404 271.666 37.2164C271.666 36.0044 271.936 35.0564 272.476 34.3724C273.028 33.6884 273.778 33.3464 274.726 33.3464C275.686 33.3464 276.436 33.6884 276.976 34.3724C277.516 35.0564 277.786 36.0044 277.786 37.2164C277.786 38.4404 277.516 39.3944 276.976 40.0784C276.436 40.7624 275.686 41.1044 274.726 41.1044ZM274.726 40.0424C275.29 40.0424 275.728 39.8084 276.04 39.3404C276.364 38.8604 276.526 38.1524 276.526 37.2164C276.526 36.2804 276.364 35.5784 276.04 35.1104C275.728 34.6424 275.29 34.4084 274.726 34.4084C274.174 34.4084 273.736 34.6424 273.412 35.1104C273.1 35.5784 272.944 36.2804 272.944 37.2164C272.944 38.1644 273.1 38.8724 273.412 39.3404C273.736 39.8084 274.174 40.0424 274.726 40.0424ZM288.415 41.1044C287.563 41.1044 286.825 40.9184 286.201 40.5464C285.577 40.1744 285.091 39.6524 284.743 38.9804C284.407 38.2964 284.239 37.4924 284.239 36.5684C284.239 35.6444 284.407 34.8464 284.743 34.1744C285.091 33.4904 285.577 32.9624 286.201 32.5904C286.825 32.2184 287.563 32.0324 288.415 32.0324C289.255 32.0324 289.987 32.2184 290.611 32.5904C291.247 32.9624 291.733 33.4904 292.069 34.1744C292.417 34.8464 292.591 35.6444 292.591 36.5684C292.591 37.4924 292.417 38.2964 292.069 38.9804C291.733 39.6524 291.247 40.1744 290.611 40.5464C289.987 40.9184 289.255 41.1044 288.415 41.1044ZM288.415 39.9344C289.231 39.9344 289.885 39.6464 290.377 39.0704C290.869 38.4824 291.115 37.6484 291.115 36.5684C291.115 35.4764 290.869 34.6424 290.377 34.0664C289.885 33.4904 289.231 33.2024 288.415 33.2024C287.587 33.2024 286.927 33.4904 286.435 34.0664C285.955 34.6424 285.715 35.4764 285.715 36.5684C285.715 37.6484 285.955 38.4824 286.435 39.0704C286.927 39.6464 287.587 39.9344 288.415 39.9344ZM295.162 40.9424V33.3284H293.434V32.1944H295.162V31.8884C295.162 30.7244 295.45 29.8424 296.026 29.2424C296.614 28.6424 297.514 28.3064 298.726 28.2344L299.428 28.1984L299.554 29.3144L298.726 29.3684C297.982 29.4284 297.442 29.6504 297.106 30.0344C296.782 30.4184 296.62 30.9764 296.62 31.7084V32.1944H299.14V33.3284H296.62V40.9424H295.162ZM308.821 41.1044C307.789 41.1044 307.015 40.8344 306.499 40.2944C305.983 39.7424 305.725 38.9504 305.725 37.9184V33.3284H304.015V32.1944H305.725V29.5124H307.183V32.1944H309.955V33.3284H307.183V37.7744C307.183 38.4584 307.327 38.9804 307.615 39.3404C307.903 39.6884 308.371 39.8624 309.019 39.8624C309.211 39.8624 309.403 39.8384 309.595 39.7904C309.787 39.7424 309.961 39.6944 310.117 39.6464L310.369 40.7624C310.213 40.8464 309.985 40.9244 309.685 40.9964C309.385 41.0684 309.097 41.1044 308.821 41.1044ZM311.604 40.9424V28.2524H313.062V33.6344C313.35 33.1064 313.752 32.7104 314.268 32.4464C314.796 32.1704 315.384 32.0324 316.032 32.0324C318.108 32.0324 319.146 33.1844 319.146 35.4884V40.9424H317.688V35.5784C317.688 34.7624 317.526 34.1684 317.202 33.7964C316.89 33.4124 316.386 33.2204 315.69 33.2204C314.886 33.2204 314.244 33.4724 313.764 33.9764C313.296 34.4684 313.062 35.1284 313.062 35.9564V40.9424H311.604ZM325.776 41.1044C324.396 41.1044 323.304 40.7024 322.5 39.8984C321.696 39.0824 321.294 37.9784 321.294 36.5864C321.294 35.6864 321.474 34.8944 321.834 34.2104C322.194 33.5144 322.686 32.9804 323.31 32.6084C323.946 32.2244 324.678 32.0324 325.506 32.0324C326.694 32.0324 327.624 32.4164 328.296 33.1844C328.968 33.9404 329.304 34.9844 329.304 36.3164V36.8744H322.716C322.764 37.8704 323.052 38.6324 323.58 39.1604C324.108 39.6764 324.84 39.9344 325.776 39.9344C326.304 39.9344 326.808 39.8564 327.288 39.7004C327.768 39.5324 328.224 39.2624 328.656 38.8904L329.16 39.9164C328.764 40.2884 328.26 40.5824 327.648 40.7984C327.036 41.0024 326.412 41.1044 325.776 41.1044ZM325.542 33.1124C324.714 33.1124 324.06 33.3704 323.58 33.8864C323.1 34.4024 322.818 35.0804 322.734 35.9204H328.044C328.008 35.0324 327.774 34.3424 327.342 33.8504C326.922 33.3584 326.322 33.1124 325.542 33.1124ZM121.9 67.1044C121.024 67.1044 120.268 66.9184 119.632 66.5464C118.996 66.1624 118.504 65.6284 118.156 64.9444C117.82 64.2484 117.652 63.4384 117.652 62.5144C117.652 61.1224 118.03 60.0304 118.786 59.2384C119.542 58.4344 120.58 58.0324 121.9 58.0324C122.44 58.0324 122.974 58.1284 123.502 58.3204C124.03 58.5124 124.468 58.7824 124.816 59.1304L124.312 60.1924C123.964 59.8564 123.58 59.6104 123.16 59.4544C122.752 59.2984 122.362 59.2204 121.99 59.2204C121.078 59.2204 120.376 59.5084 119.884 60.0844C119.392 60.6484 119.146 61.4644 119.146 62.5324C119.146 63.5764 119.392 64.4044 119.884 65.0164C120.376 65.6164 121.078 65.9164 121.99 65.9164C122.362 65.9164 122.752 65.8384 123.16 65.6824C123.58 65.5264 123.964 65.2744 124.312 64.9264L124.816 65.9884C124.468 66.3364 124.024 66.6124 123.484 66.8164C122.956 67.0084 122.428 67.1044 121.9 67.1044ZM129.984 67.1044C129.132 67.1044 128.394 66.9184 127.77 66.5464C127.146 66.1744 126.66 65.6524 126.312 64.9804C125.976 64.2964 125.808 63.4924 125.808 62.5684C125.808 61.6444 125.976 60.8464 126.312 60.1744C126.66 59.4904 127.146 58.9624 127.77 58.5904C128.394 58.2184 129.132 58.0324 129.984 58.0324C130.824 58.0324 131.556 58.2184 132.18 58.5904C132.816 58.9624 133.302 59.4904 133.638 60.1744C133.986 60.8464 134.16 61.6444 134.16 62.5684C134.16 63.4924 133.986 64.2964 133.638 64.9804C133.302 65.6524 132.816 66.1744 132.18 66.5464C131.556 66.9184 130.824 67.1044 129.984 67.1044ZM129.984 65.9344C130.8 65.9344 131.454 65.6464 131.946 65.0704C132.438 64.4824 132.684 63.6484 132.684 62.5684C132.684 61.4764 132.438 60.6424 131.946 60.0664C131.454 59.4904 130.8 59.2024 129.984 59.2024C129.156 59.2024 128.496 59.4904 128.004 60.0664C127.524 60.6424 127.284 61.4764 127.284 62.5684C127.284 63.6484 127.524 64.4824 128.004 65.0704C128.496 65.6464 129.156 65.9344 129.984 65.9344ZM139.302 67.1044C138.618 67.1044 137.97 67.0084 137.358 66.8164C136.746 66.6244 136.242 66.3544 135.846 66.0064L136.314 64.9804C136.746 65.3284 137.22 65.5864 137.736 65.7544C138.264 65.9104 138.798 65.9884 139.338 65.9884C140.022 65.9884 140.538 65.8624 140.886 65.6104C141.234 65.3584 141.408 65.0164 141.408 64.5844C141.408 64.2484 141.294 63.9844 141.066 63.7924C140.838 63.5884 140.478 63.4324 139.986 63.3244L138.348 62.9644C136.86 62.6404 136.116 61.8724 136.116 60.6604C136.116 59.8684 136.428 59.2324 137.052 58.7524C137.688 58.2724 138.516 58.0324 139.536 58.0324C140.136 58.0324 140.706 58.1284 141.246 58.3204C141.798 58.5004 142.254 58.7704 142.614 59.1304L142.128 60.1564C141.78 59.8324 141.372 59.5864 140.904 59.4184C140.448 59.2384 139.992 59.1484 139.536 59.1484C138.864 59.1484 138.354 59.2804 138.006 59.5444C137.658 59.8084 137.484 60.1564 137.484 60.5884C137.484 61.2604 137.928 61.6924 138.816 61.8844L140.454 62.2264C141.222 62.3944 141.804 62.6644 142.2 63.0364C142.596 63.3964 142.794 63.8884 142.794 64.5124C142.794 65.3164 142.476 65.9524 141.84 66.4204C141.204 66.8764 140.358 67.1044 139.302 67.1044ZM148.438 67.1044C147.406 67.1044 146.632 66.8344 146.116 66.2944C145.6 65.7424 145.342 64.9504 145.342 63.9184V59.3284H143.632V58.1944H145.342V55.5124H146.8V58.1944H149.572V59.3284H146.8V63.7744C146.8 64.4584 146.944 64.9804 147.232 65.3404C147.52 65.6884 147.988 65.8624 148.636 65.8624C148.828 65.8624 149.02 65.8384 149.212 65.7904C149.404 65.7424 149.578 65.6944 149.734 65.6464L149.986 66.7624C149.83 66.8464 149.602 66.9244 149.302 66.9964C149.002 67.0684 148.714 67.1044 148.438 67.1044ZM159.48 67.1044C158.628 67.1044 157.89 66.9184 157.266 66.5464C156.642 66.1744 156.156 65.6524 155.808 64.9804C155.472 64.2964 155.304 63.4924 155.304 62.5684C155.304 61.6444 155.472 60.8464 155.808 60.1744C156.156 59.4904 156.642 58.9624 157.266 58.5904C157.89 58.2184 158.628 58.0324 159.48 58.0324C160.32 58.0324 161.052 58.2184 161.676 58.5904C162.312 58.9624 162.798 59.4904 163.134 60.1744C163.482 60.8464 163.656 61.6444 163.656 62.5684C163.656 63.4924 163.482 64.2964 163.134 64.9804C162.798 65.6524 162.312 66.1744 161.676 66.5464C161.052 66.9184 160.32 67.1044 159.48 67.1044ZM159.48 65.9344C160.296 65.9344 160.95 65.6464 161.442 65.0704C161.934 64.4824 162.18 63.6484 162.18 62.5684C162.18 61.4764 161.934 60.6424 161.442 60.0664C160.95 59.4904 160.296 59.2024 159.48 59.2024C158.652 59.2024 157.992 59.4904 157.5 60.0664C157.02 60.6424 156.78 61.4764 156.78 62.5684C156.78 63.6484 157.02 64.4824 157.5 65.0704C157.992 65.6464 158.652 65.9344 159.48 65.9344ZM166.226 66.9424V59.3284H164.498V58.1944H166.226V57.8884C166.226 56.7244 166.514 55.8424 167.09 55.2424C167.678 54.6424 168.578 54.3064 169.79 54.2344L170.492 54.1984L170.618 55.3144L169.79 55.3684C169.046 55.4284 168.506 55.6504 168.17 56.0344C167.846 56.4184 167.684 56.9764 167.684 57.7084V58.1944H170.204V59.3284H167.684V66.9424H166.226ZM176.411 66.9424V58.1944H177.833V59.6704C178.097 59.1424 178.463 58.7404 178.931 58.4644C179.399 58.1764 179.945 58.0324 180.569 58.0324C181.937 58.0324 182.813 58.6264 183.197 59.8144C183.461 59.2624 183.851 58.8304 184.367 58.5184C184.883 58.1944 185.477 58.0324 186.149 58.0324C188.093 58.0324 189.065 59.1844 189.065 61.4884V66.9424H187.607V61.5604C187.607 60.7564 187.463 60.1684 187.175 59.7964C186.899 59.4124 186.437 59.2204 185.789 59.2204C185.081 59.2204 184.517 59.4724 184.097 59.9764C183.677 60.4804 183.467 61.1524 183.467 61.9924V66.9424H182.009V61.5604C182.009 60.7564 181.865 60.1684 181.577 59.7964C181.301 59.4124 180.839 59.2204 180.191 59.2204C179.471 59.2204 178.901 59.4724 178.481 59.9764C178.073 60.4804 177.869 61.1524 177.869 61.9924V66.9424H176.411ZM194.545 67.1044C193.945 67.1044 193.405 66.9904 192.925 66.7624C192.457 66.5224 192.085 66.1984 191.809 65.7904C191.533 65.3824 191.395 64.9264 191.395 64.4224C191.395 63.7864 191.557 63.2824 191.881 62.9104C192.217 62.5384 192.763 62.2744 193.519 62.1184C194.287 61.9504 195.331 61.8664 196.651 61.8664H197.227V61.3084C197.227 60.5644 197.071 60.0304 196.759 59.7064C196.459 59.3704 195.973 59.2024 195.301 59.2024C194.773 59.2024 194.263 59.2804 193.771 59.4364C193.279 59.5804 192.775 59.8204 192.259 60.1564L191.755 59.0944C192.211 58.7704 192.763 58.5124 193.411 58.3204C194.071 58.1284 194.701 58.0324 195.301 58.0324C196.429 58.0324 197.263 58.3084 197.803 58.8604C198.355 59.4124 198.631 60.2704 198.631 61.4344V66.9424H197.263V65.4304C197.035 65.9464 196.681 66.3544 196.201 66.6544C195.733 66.9544 195.181 67.1044 194.545 67.1044ZM194.779 66.0064C195.499 66.0064 196.087 65.7604 196.543 65.2684C196.999 64.7644 197.227 64.1284 197.227 63.3604V62.8204H196.669C195.697 62.8204 194.929 62.8684 194.365 62.9644C193.813 63.0484 193.423 63.2044 193.195 63.4324C192.979 63.6484 192.871 63.9484 192.871 64.3324C192.871 64.8244 193.039 65.2264 193.375 65.5384C193.723 65.8504 194.191 66.0064 194.779 66.0064ZM204.846 67.1044C203.814 67.1044 203.04 66.8344 202.524 66.2944C202.008 65.7424 201.75 64.9504 201.75 63.9184V59.3284H200.04V58.1944H201.75V55.5124H203.208V58.1944H205.98V59.3284H203.208V63.7744C203.208 64.4584 203.352 64.9804 203.64 65.3404C203.928 65.6884 204.396 65.8624 205.044 65.8624C205.236 65.8624 205.428 65.8384 205.62 65.7904C205.812 65.7424 205.986 65.6944 206.142 65.6464L206.394 66.7624C206.238 66.8464 206.01 66.9244 205.71 66.9964C205.41 67.0684 205.122 67.1044 204.846 67.1044ZM211.483 67.1044C210.103 67.1044 209.011 66.7024 208.207 65.8984C207.403 65.0824 207.001 63.9784 207.001 62.5864C207.001 61.6864 207.181 60.8944 207.541 60.2104C207.901 59.5144 208.393 58.9804 209.017 58.6084C209.653 58.2244 210.385 58.0324 211.213 58.0324C212.401 58.0324 213.331 58.4164 214.003 59.1844C214.675 59.9404 215.011 60.9844 215.011 62.3164V62.8744H208.423C208.471 63.8704 208.759 64.6324 209.287 65.1604C209.815 65.6764 210.547 65.9344 211.483 65.9344C212.011 65.9344 212.515 65.8564 212.995 65.7004C213.475 65.5324 213.931 65.2624 214.363 64.8904L214.867 65.9164C214.471 66.2884 213.967 66.5824 213.355 66.7984C212.743 67.0024 212.119 67.1044 211.483 67.1044ZM211.249 59.1124C210.421 59.1124 209.767 59.3704 209.287 59.8864C208.807 60.4024 208.525 61.0804 208.441 61.9204H213.751C213.715 61.0324 213.481 60.3424 213.049 59.8504C212.629 59.3584 212.029 59.1124 211.249 59.1124ZM217.121 66.9424V58.1944H218.543V59.7604C219.011 58.7044 219.971 58.1224 221.423 58.0144L221.945 57.9604L222.053 59.2204L221.135 59.3284C220.307 59.4004 219.677 59.6644 219.245 60.1204C218.813 60.5644 218.597 61.1764 218.597 61.9564V66.9424H217.121ZM223.392 56.0164V54.3784H225.192V56.0164H223.392ZM223.572 66.9424V58.1944H225.03V66.9424H223.572ZM230.51 67.1044C229.91 67.1044 229.37 66.9904 228.89 66.7624C228.422 66.5224 228.05 66.1984 227.774 65.7904C227.498 65.3824 227.36 64.9264 227.36 64.4224C227.36 63.7864 227.522 63.2824 227.846 62.9104C228.182 62.5384 228.728 62.2744 229.484 62.1184C230.252 61.9504 231.296 61.8664 232.616 61.8664H233.192V61.3084C233.192 60.5644 233.036 60.0304 232.724 59.7064C232.424 59.3704 231.938 59.2024 231.266 59.2024C230.738 59.2024 230.228 59.2804 229.736 59.4364C229.244 59.5804 228.74 59.8204 228.224 60.1564L227.72 59.0944C228.176 58.7704 228.728 58.5124 229.376 58.3204C230.036 58.1284 230.666 58.0324 231.266 58.0324C232.394 58.0324 233.228 58.3084 233.768 58.8604C234.32 59.4124 234.596 60.2704 234.596 61.4344V66.9424H233.228V65.4304C233 65.9464 232.646 66.3544 232.166 66.6544C231.698 66.9544 231.146 67.1044 230.51 67.1044ZM230.744 66.0064C231.464 66.0064 232.052 65.7604 232.508 65.2684C232.964 64.7644 233.192 64.1284 233.192 63.3604V62.8204H232.634C231.662 62.8204 230.894 62.8684 230.33 62.9644C229.778 63.0484 229.388 63.2044 229.16 63.4324C228.944 63.6484 228.836 63.9484 228.836 64.3324C228.836 64.8244 229.004 65.2264 229.34 65.5384C229.688 65.8504 230.156 66.0064 230.744 66.0064ZM239.983 67.1044C239.095 67.1044 238.423 66.8464 237.967 66.3304C237.523 65.8024 237.301 65.0404 237.301 64.0444V54.2524H238.759V63.9364C238.759 65.2204 239.269 65.8624 240.289 65.8624C240.589 65.8624 240.859 65.8264 241.099 65.7544L241.063 66.9784C240.691 67.0624 240.331 67.1044 239.983 67.1044ZM245.491 67.1044C244.807 67.1044 244.159 67.0084 243.547 66.8164C242.935 66.6244 242.431 66.3544 242.035 66.0064L242.503 64.9804C242.935 65.3284 243.409 65.5864 243.925 65.7544C244.453 65.9104 244.987 65.9884 245.527 65.9884C246.211 65.9884 246.727 65.8624 247.075 65.6104C247.423 65.3584 247.597 65.0164 247.597 64.5844C247.597 64.2484 247.483 63.9844 247.255 63.7924C247.027 63.5884 246.667 63.4324 246.175 63.3244L244.537 62.9644C243.049 62.6404 242.305 61.8724 242.305 60.6604C242.305 59.8684 242.617 59.2324 243.241 58.7524C243.877 58.2724 244.705 58.0324 245.725 58.0324C246.325 58.0324 246.895 58.1284 247.435 58.3204C247.987 58.5004 248.443 58.7704 248.803 59.1304L248.317 60.1564C247.969 59.8324 247.561 59.5864 247.093 59.4184C246.637 59.2384 246.181 59.1484 245.725 59.1484C245.053 59.1484 244.543 59.2804 244.195 59.5444C243.847 59.8084 243.673 60.1564 243.673 60.5884C243.673 61.2604 244.117 61.6924 245.005 61.8844L246.643 62.2264C247.411 62.3944 247.993 62.6644 248.389 63.0364C248.785 63.3964 248.983 63.8884 248.983 64.5124C248.983 65.3164 248.665 65.9524 248.029 66.4204C247.393 66.8764 246.547 67.1044 245.491 67.1044Z" fill="#E3B873"/>
</g>
<g filter="url(#filter1_d_1_11112)">
<ellipse cx="55.993" cy="46.4424" rx="35.9" ry="36" fill="#E3B873"/>
</g>
<path d="M56.3317 53.7206C55.9543 53.7206 55.6465 54.02 55.6465 54.3917V55.7163C55.6465 56.088 55.9543 56.3873 56.3317 56.3873C56.709 56.3873 57.0168 56.088 57.0168 55.7163V54.3917C57.0168 54.02 56.709 53.7206 56.3317 53.7206Z" fill="white" stroke="white" stroke-width="0.1"/>
<path d="M73.0039 44.4428L73.0039 44.4428C72.5539 42.2849 71.5449 40.2509 70.086 38.5602C68.6815 36.9327 66.8843 35.6514 64.8802 34.8437C64.5521 33.5077 63.864 32.1301 62.5136 31.0927C61.1992 30.0829 59.8754 29.8882 59.8162 29.8799L59.8162 29.8799C59.6202 29.8526 59.4211 29.9096 59.2709 30.0369C59.1207 30.1643 59.0343 30.3492 59.0343 30.5442V33.8478H56.8162C56.2285 31.9337 54.4117 30.5357 52.2668 30.5357C50.0746 30.5357 48.2241 31.9957 47.6792 33.9747C44.5399 34.4005 41.6525 35.8912 39.508 38.2047L39.5447 38.2387L39.508 38.2047C37.245 40.6463 35.9986 43.807 35.9986 47.1048C35.9986 54.4944 39.9215 60.5046 41.1234 62.1702C41.5037 62.6973 42.1261 63.0115 42.788 63.0115H45.4915C46.6154 63.0115 47.5317 62.1173 47.5317 61.0156V60.214C48.1997 60.3117 48.8778 60.3618 49.5566 60.3618H55.6467V61.0156C55.6467 62.1173 56.5629 63.0115 57.6869 63.0115H60.6565C61.6115 63.0115 62.4508 62.349 62.6513 61.4341L62.9706 59.9775C67.1352 58.9759 70.4851 56.1194 72.1441 52.4129H74.6248C75.3752 52.4129 75.9875 51.8158 75.9875 51.0795V45.78C75.9875 45.4234 75.8454 45.0883 75.5879 44.8365C75.3305 44.5849 74.9884 44.4465 74.6249 44.4465H74.6248H74.6248H74.6248H74.6247H74.6247H74.6247H74.6246L73.005 44.4467C73.0045 44.4454 73.0041 44.4441 73.0039 44.4428ZM74.6172 51.0293H74.6171V51.0708H72.6579C72.9927 50.0272 73.199 48.9313 73.2589 47.802C73.2787 47.4309 72.987 47.1162 72.61 47.0971C72.2333 47.0784 71.9101 47.3612 71.8904 47.7324C71.6239 52.755 68.1452 57.0485 63.2947 58.4988L64.164 54.5325C64.2437 54.169 64.0067 53.8128 63.6374 53.7355C63.2687 53.658 62.9037 53.8878 62.8242 54.2508L61.3115 61.1523C61.246 61.451 60.9709 61.6694 60.6565 61.6694H57.6867C57.3163 61.6694 57.0169 61.375 57.0169 61.0156V58.3658C57.0169 57.9942 56.709 57.6948 56.3317 57.6948C55.9543 57.6948 55.6465 57.9942 55.6465 58.3658V59.0197H49.5565C48.8766 59.0197 48.1979 58.9637 47.5316 58.8549V54.3914C47.5316 54.0197 47.2238 53.7204 46.8464 53.7204C46.469 53.7204 46.1612 54.0197 46.1612 54.3914V61.0156C46.1612 61.3751 45.8617 61.6695 45.4913 61.6695H42.788C42.566 61.6695 42.3678 61.5694 42.2425 61.3957L42.2425 61.3957C41.0988 59.8105 37.3689 54.0966 37.3689 47.1047C37.3689 44.1413 38.4888 41.3009 40.5226 39.1068C42.3711 37.1124 44.8333 35.7983 47.5202 35.3561C47.5351 35.7441 47.5996 36.1276 47.711 36.4974H47.524C47.1467 36.4974 46.8388 36.7968 46.8388 37.1684C46.8388 37.5401 47.1467 37.8395 47.524 37.8395H57.0093C57.3867 37.8395 57.6945 37.5401 57.6945 37.1684C57.6945 36.7968 57.3867 36.4974 57.0093 36.4974H56.8223C56.9497 36.0748 57.0161 35.6344 57.0169 35.1897H59.0342V36.506C59.0342 36.8776 59.342 37.177 59.7194 37.177C60.0967 37.177 60.4045 36.8776 60.4045 36.506V31.432C60.9974 31.6612 61.8197 32.1097 62.5036 32.965C63.2132 33.8526 63.7768 35.182 63.7768 37.1685C63.7768 37.5402 64.0846 37.8395 64.462 37.8395C64.8394 37.8395 65.1472 37.5402 65.1472 37.1685C65.1472 36.9306 65.1393 36.6808 65.1214 36.423C66.6162 37.1478 67.9574 38.1729 69.0394 39.4267C70.3506 40.9461 71.2572 42.7736 71.6612 44.7113C71.7915 45.3362 72.3522 45.7889 72.9943 45.7888L74.6172 45.7887V51.0293ZM52.2667 31.8778C54.1314 31.8778 55.6466 33.3609 55.6466 35.1813C55.6466 35.6361 55.5493 36.0844 55.3656 36.4975H49.1676C48.9841 36.0843 48.8867 35.6361 48.8867 35.1813C48.8867 33.3608 50.4019 31.8778 52.2667 31.8778Z" fill="white" stroke="white" stroke-width="0.1"/>
<path d="M63.8825 44.8829L63.8825 44.8829C64.2848 43.8281 65.3476 43.1218 66.5258 43.1218C67.7039 43.1218 68.7669 43.8282 69.1689 44.8829C69.3017 45.231 69.1202 45.6174 68.7661 45.7465C68.7661 45.7465 68.7661 45.7465 68.7661 45.7465L63.8825 44.8829ZM63.8825 44.8829C63.7497 45.2311 63.9312 45.6174 64.2853 45.7465M63.8825 44.8829L64.2853 45.7465M64.2853 45.7465C64.639 45.8756 65.0337 45.7 65.1662 45.3524L64.2853 45.7465Z" fill="white" stroke="white" stroke-width="0.1"/>
<path d="M55.2069 47.5181C54.5573 47.0763 53.7196 46.8056 52.9518 46.5933V43.5144C53.5449 43.5915 54.0468 43.7638 54.402 43.9765C54.7721 44.1981 54.969 44.4544 54.969 44.683C54.969 45.0546 55.2769 45.354 55.6542 45.354C56.0316 45.354 56.3394 45.0546 56.3394 44.683C56.3394 44.0274 55.9664 43.4413 55.3538 42.9981C54.7506 42.5617 53.9117 42.2607 52.9518 42.1628V42.1368C52.9518 41.7651 52.644 41.4657 52.2666 41.4657C51.8893 41.4657 51.5814 41.7651 51.5814 42.1368V42.1628C50.6216 42.2607 49.7826 42.5617 49.1795 42.9981C48.5668 43.4413 48.1939 44.0274 48.1939 44.683C48.1939 45.6104 48.664 46.2413 49.3263 46.6918C49.976 47.1335 50.8137 47.4043 51.5814 47.6166V50.6955C50.9883 50.6184 50.4865 50.4461 50.1312 50.2333C49.7612 50.0117 49.5642 49.7554 49.5642 49.5269C49.5642 49.1552 49.2564 48.8559 48.879 48.8559C48.5017 48.8559 48.1939 49.1552 48.1939 49.5269C48.1939 50.1824 48.5668 50.7685 49.1795 51.2118C49.7826 51.6481 50.6216 51.9492 51.5814 52.047V52.0731C51.5814 52.4448 51.8893 52.7441 52.2666 52.7441C52.644 52.7441 52.9518 52.4448 52.9518 52.0731V52.047C53.9117 51.9492 54.7506 51.6481 55.3538 51.2118C55.9664 50.7685 56.3394 50.1824 56.3394 49.5269C56.3394 48.5994 55.8692 47.9685 55.2069 47.5181ZM51.5814 43.5144V46.2105C50.836 45.9782 50.3337 45.757 50.0165 45.5157C49.6935 45.27 49.5642 45.0051 49.5642 44.683C49.5642 44.4544 49.7612 44.1981 50.1312 43.9765C50.4865 43.7638 50.9883 43.5915 51.5814 43.5144ZM54.402 50.2334C54.0467 50.4462 53.5449 50.6184 52.9518 50.6956V47.9995C53.6973 48.2317 54.1996 48.4529 54.5168 48.6942C54.8398 48.94 54.969 49.2048 54.969 49.527C54.969 49.7555 54.7721 50.0118 54.402 50.2334Z" fill="white" stroke="white" stroke-width="0.1"/>
<defs>
<filter id="filter0_d_1_11112" x="107.652" y="20.8024" width="231.653" height="59.302" filterUnits="userSpaceOnUse" color-interpolation-filters="sRGB">
<feFlood flood-opacity="0" result="BackgroundImageFix"/>
<feColorMatrix in="SourceAlpha" type="matrix" values="0 0 0 0 0 0 0 0 0 0 0 0 0 0 0 0 0 0 127 0" result="hardAlpha"/>
<feOffset dy="3"/>
<feGaussianBlur stdDeviation="5"/>
<feColorMatrix type="matrix" values="0 0 0 0 0.890196 0 0 0 0 0.721569 0 0 0 0 0.45098 0 0 0 0.15 0"/>
<feBlend mode="normal" in2="BackgroundImageFix" result="effect1_dropShadow_1_11112"/>
<feBlend mode="normal" in="SourceGraphic" in2="effect1_dropShadow_1_11112" result="shape"/>
</filter>
<filter id="filter1_d_1_11112" x="0.0930176" y="0.442383" width="111.8" height="112" filterUnits="userSpaceOnUse" color-interpolation-filters="sRGB">
<feFlood flood-opacity="0" result="BackgroundImageFix"/>
<feColorMatrix in="SourceAlpha" type="matrix" values="0 0 0 0 0 0 0 0 0 0 0 0 0 0 0 0 0 0 127 0" result="hardAlpha"/>
<feOffset dy="10"/>
<feGaussianBlur stdDeviation="10"/>
<feColorMatrix type="matrix" values="0 0 0 0 0.929412 0 0 0 0 0.752941 0 0 0 0 0.470588 0 0 0 0.2 0"/>
<feBlend mode="normal" in2="BackgroundImageFix" result="effect1_dropShadow_1_11112"/>
<feBlend mode="normal" in="SourceGraphic" in2="effect1_dropShadow_1_11112" result="shape"/>
</filter>
</defs>
</svg>
