<svg width="727" height="777" viewBox="0 0 727 777" fill="none" xmlns="http://www.w3.org/2000/svg">
<g opacity="0.05" clip-path="url(#clip0_1_11586)">
<path d="M470.586 646.696H527.426V779.996H470.586V646.696Z" fill="#333333"/>
<path d="M501.589 639.971H527.426V647.559H501.589V639.971Z" fill="#333333"/>
<path d="M512.441 635.66H527.426V639.971H512.441V635.66Z" fill="#333333"/>
<path opacity="0.06" d="M494.355 656.008H503.656V662.906H494.355V656.008Z" fill="white"/>
<path opacity="0.12" d="M494.355 673.08H503.656V679.978H494.355V673.08Z" fill="white"/>
<path opacity="0.19" d="M494.355 707.224H503.656V714.122H494.355V707.224Z" fill="white"/>
<path opacity="0.14" d="M494.355 741.368H503.656V748.266H494.355V741.368Z" fill="white"/>
<path opacity="0.1" d="M494.355 758.44H503.656V765.338H494.355V758.44Z" fill="white"/>
<path d="M613.201 661.181H691.054V732.573H613.201V661.181Z" fill="#333333"/>
<path d="M625.43 654.801H678.653V685.496H625.43V654.801Z" fill="#333333"/>
<path d="M607.517 706.189H685.37V777.581H607.517V706.189Z" fill="#333333"/>
<path d="M619.919 699.808H673.141V730.503H619.919V699.808Z" fill="#333333"/>
<path d="M503.828 696.704H581.681V778.961H503.828V696.704Z" fill="#333333"/>
<path d="M516.058 689.462H569.28V724.985H516.058V689.462Z" fill="#333333"/>
<path d="M243.229 721.71H321.081V801.206H243.229V721.71Z" fill="#333333"/>
<path d="M255.458 714.639H308.68V748.956H255.458V714.639Z" fill="#333333"/>
<path d="M412.024 557.542H499.006V778.789H412.024V557.542Z" fill="#333333"/>
<path opacity="0.46" d="M473.686 567.544H494.7V571.511H473.686V567.544Z" fill="#E6E6E6"/>
<path opacity="0.34" d="M444.922 567.544H465.936V571.511H444.922V567.544Z" fill="#E6E6E6"/>
<path opacity="0.52" d="M416.33 567.544H437.344V571.511H416.33V567.544Z" fill="#E6E6E6"/>
<path opacity="0.54" d="M473.686 576.684H494.7V580.65H473.686V576.684Z" fill="#E6E6E6"/>
<path opacity="0.3" d="M444.922 576.684H465.936V580.65H444.922V576.684Z" fill="#E6E6E6"/>
<path opacity="0.06" d="M416.33 576.684H437.344V580.65H416.33V576.684Z" fill="#E6E6E6"/>
<path opacity="0.15" d="M473.686 585.823H494.7V589.79H473.686V585.823Z" fill="#E6E6E6"/>
<path opacity="0.42" d="M444.922 585.823H465.936V589.79H444.922V585.823Z" fill="#E6E6E6"/>
<path opacity="0.48" d="M416.33 585.823H437.344V589.79H416.33V585.823Z" fill="#E6E6E6"/>
<path opacity="0.18" d="M473.686 594.963H494.7V598.929H473.686V594.963Z" fill="#E6E6E6"/>
<path opacity="0.28" d="M416.33 594.963H437.344V598.929H416.33V594.963Z" fill="#E6E6E6"/>
<path opacity="0.29" d="M473.686 604.102H494.7V608.069H473.686V604.102Z" fill="#E6E6E6"/>
<path opacity="0.28" d="M444.922 604.102H465.936V608.069H444.922V604.102Z" fill="#E6E6E6"/>
<path opacity="0.56" d="M416.33 604.102H437.344V608.069H416.33V604.102Z" fill="#E6E6E6"/>
<path opacity="0.41" d="M473.686 613.242H494.7V617.208H473.686V613.242Z" fill="#E6E6E6"/>
<path opacity="0.16" d="M444.922 613.242H465.936V617.208H444.922V613.242Z" fill="#E6E6E6"/>
<path opacity="0.4" d="M416.33 613.242H437.344V617.208H416.33V613.242Z" fill="#E6E6E6"/>
<path opacity="0.1" d="M473.686 622.382H494.7V626.348H473.686V622.382Z" fill="#E6E6E6"/>
<path opacity="0.17" d="M444.922 622.382H465.936V626.348H444.922V622.382Z" fill="#E6E6E6"/>
<path opacity="0.08" d="M416.33 622.382H437.344V626.348H416.33V622.382Z" fill="#E6E6E6"/>
<path opacity="0.49" d="M473.686 631.521H494.7V635.487H473.686V631.521Z" fill="#E6E6E6"/>
<path opacity="0.58" d="M444.922 631.521H465.936V635.487H444.922V631.521Z" fill="#E6E6E6"/>
<path opacity="0.58" d="M416.33 631.521H437.344V635.487H416.33V631.521Z" fill="#E6E6E6"/>
<path opacity="0.26" d="M473.686 640.661H494.7V644.627H473.686V640.661Z" fill="#E6E6E6"/>
<path opacity="0.37" d="M444.922 640.661H465.936V644.627H444.922V640.661Z" fill="#E6E6E6"/>
<path opacity="0.34" d="M416.33 640.661H437.344V644.627H416.33V640.661Z" fill="#E6E6E6"/>
<path opacity="0.55" d="M473.686 649.8H494.7V653.766H473.686V649.8Z" fill="#E6E6E6"/>
<path opacity="0.12" d="M444.922 649.8H465.936V653.766H444.922V649.8Z" fill="#E6E6E6"/>
<path opacity="0.6" d="M416.33 649.8H437.344V653.766H416.33V649.8Z" fill="#E6E6E6"/>
<path opacity="0.02" d="M473.686 658.94H494.7V662.906H473.686V658.94Z" fill="#E6E6E6"/>
<path opacity="0.28" d="M444.922 658.94H465.936V662.906H444.922V658.94Z" fill="#E6E6E6"/>
<path opacity="0.21" d="M416.33 658.94H437.344V662.906H416.33V658.94Z" fill="#E6E6E6"/>
<path opacity="0.57" d="M473.686 668.079H494.7V672.046H473.686V668.079Z" fill="#E6E6E6"/>
<path opacity="0.38" d="M444.922 668.079H465.936V672.046H444.922V668.079Z" fill="#E6E6E6"/>
<path opacity="0.25" d="M416.33 668.079H437.344V672.046H416.33V668.079Z" fill="#E6E6E6"/>
<path opacity="0.15" d="M473.686 677.219H494.7V681.185H473.686V677.219Z" fill="#E6E6E6"/>
<path opacity="0.47" d="M444.922 677.219H465.936V681.185H444.922V677.219Z" fill="#E6E6E6"/>
<path opacity="0.3" d="M416.33 677.219H437.344V681.185H416.33V677.219Z" fill="#E6E6E6"/>
<path opacity="0.4" d="M473.686 686.358H494.7V690.325H473.686V686.358Z" fill="#E6E6E6"/>
<path opacity="0.39" d="M444.922 686.358H465.936V690.325H444.922V686.358Z" fill="#E6E6E6"/>
<path opacity="0.24" d="M416.33 686.358H437.344V690.325H416.33V686.358Z" fill="#E6E6E6"/>
<path opacity="0.46" d="M473.686 695.498H494.7V699.464H473.686V695.498Z" fill="#E6E6E6"/>
<path opacity="0.22" d="M444.922 695.498H465.936V699.464H444.922V695.498Z" fill="#E6E6E6"/>
<path opacity="0.11" d="M416.33 695.498H437.344V699.464H416.33V695.498Z" fill="#E6E6E6"/>
<path opacity="0.11" d="M444.922 704.638H465.936V708.604H444.922V704.638Z" fill="#E6E6E6"/>
<path opacity="0.02" d="M416.33 704.638H437.344V708.604H416.33V704.638Z" fill="#E6E6E6"/>
<path opacity="0.27" d="M473.686 713.777H494.7V717.744H473.686V713.777Z" fill="#E6E6E6"/>
<path opacity="0.21" d="M444.922 713.777H465.936V717.744H444.922V713.777Z" fill="#E6E6E6"/>
<path opacity="0.49" d="M416.33 713.777H437.344V717.744H416.33V713.777Z" fill="#E6E6E6"/>
<path opacity="0.6" d="M473.686 722.917H494.7V726.883H473.686V722.917Z" fill="#E6E6E6"/>
<path opacity="0.31" d="M444.922 722.917H465.936V726.883H444.922V722.917Z" fill="#E6E6E6"/>
<path opacity="0.22" d="M416.33 722.917H437.344V726.883H416.33V722.917Z" fill="#E6E6E6"/>
<path opacity="0.54" d="M473.686 732.056H494.7V736.023H473.686V732.056Z" fill="#E6E6E6"/>
<path opacity="0.6" d="M444.922 732.056H465.936V736.023H444.922V732.056Z" fill="#E6E6E6"/>
<path opacity="0.08" d="M416.33 732.056H437.344V736.023H416.33V732.056Z" fill="#E6E6E6"/>
<path opacity="0.55" d="M444.922 741.196H465.936V745.162H444.922V741.196Z" fill="#E6E6E6"/>
<path d="M416.33 741.196H437.344V745.162H416.33V741.196Z" fill="#E6E6E6"/>
<path opacity="0.6" d="M472.308 567.544H473.686V745.162H472.308V567.544Z" fill="#E6E6E6"/>
<path opacity="0.6" d="M437.344 567.544H438.722V745.162H437.344V567.544Z" fill="#E6E6E6"/>
<path d="M368.62 557.542H412.024V778.789H368.62V557.542Z" fill="#4D4D4D"/>
<path opacity="0.69" d="M374.993 567.544H407.718V571.511H374.993V567.544Z" fill="#E6E6E6"/>
<path opacity="0.79" d="M374.993 576.684H407.718V580.65H374.993V576.684Z" fill="#E6E6E6"/>
<path opacity="0.19" d="M374.993 585.823H407.718V589.79H374.993V585.823Z" fill="#E6E6E6"/>
<path opacity="0.88" d="M374.993 594.963H407.718V598.929H374.993V594.963Z" fill="#E6E6E6"/>
<path opacity="0.5" d="M374.993 604.102H407.718V608.069H374.993V604.102Z" fill="#E6E6E6"/>
<path opacity="0.25" d="M374.993 613.242H407.718V617.208H374.993V613.242Z" fill="#E6E6E6"/>
<path opacity="0.91" d="M374.993 622.382H407.718V626.348H374.993V622.382Z" fill="#E6E6E6"/>
<path opacity="0.02" d="M374.993 631.521H407.718V635.487H374.993V631.521Z" fill="#E6E6E6"/>
<path opacity="0.53" d="M374.993 640.661H407.718V644.627H374.993V640.661Z" fill="#E6E6E6"/>
<path opacity="0.65" d="M374.993 649.8H407.718V653.766H374.993V649.8Z" fill="#E6E6E6"/>
<path d="M374.993 658.94H407.718V662.906H374.993V658.94Z" fill="#E6E6E6"/>
<path opacity="0.8" d="M374.993 668.079H407.718V672.046H374.993V668.079Z" fill="#E6E6E6"/>
<path opacity="0.82" d="M374.993 677.219H407.718V681.185H374.993V677.219Z" fill="#E6E6E6"/>
<path opacity="0.75" d="M374.993 686.358H407.718V690.325H374.993V686.358Z" fill="#E6E6E6"/>
<path opacity="0.31" d="M374.993 695.498H407.718V699.464H374.993V695.498Z" fill="#E6E6E6"/>
<path opacity="0.22" d="M374.993 704.638H407.718V708.604H374.993V704.638Z" fill="#E6E6E6"/>
<path opacity="0.43" d="M374.993 713.777H407.718V717.744H374.993V713.777Z" fill="#E6E6E6"/>
<path opacity="0.68" d="M374.993 722.917H407.718V726.883H374.993V722.917Z" fill="#E6E6E6"/>
<path opacity="0.38" d="M374.993 732.056H407.718V736.023H374.993V732.056Z" fill="#E6E6E6"/>
<path opacity="0.84" d="M374.993 741.196H407.718V745.162H374.993V741.196Z" fill="#E6E6E6"/>
<path d="M483.676 545.816V557.542H427.354V545.816H483.676ZM471.103 553.749H476.959V549.782H471.103V553.749ZM461.974 553.749H467.658V549.782H461.974V553.749ZM452.673 553.749H458.357V549.782H452.673V553.749ZM443.372 553.749H449.228V549.782H443.372V553.749ZM434.071 553.749H439.927V549.782H434.071V553.749Z" fill="#333333"/>
<path d="M417.019 549.782H418.569V553.749H417.019V549.782Z" fill="#333333"/>
<path d="M427.354 545.816V557.542H400.829V545.816H427.354ZM417.019 553.749H422.703V549.782H417.019V553.749ZM404.79 553.749H410.474V549.782H404.79V553.749Z" fill="#4D4D4D"/>
<path d="M404.962 549.782H406.513V553.749H404.962V549.782Z" fill="#333333"/>
<path d="M400.484 793.79H517.608L400.484 707.223V793.79Z" fill="#333333"/>
<path d="M575.136 510.637H584.609V546.678H575.136V510.637Z" fill="#4D4D4D"/>
<path d="M584.437 510.637H594.083V546.678H584.437V510.637Z" fill="#333333"/>
<path d="M565.318 510.637H574.964V546.678H565.318V510.637Z" fill="#666666"/>
<path d="M537.415 571.338H564.285V776.892H537.415V571.338Z" fill="#666666"/>
<path d="M595.805 571.338H619.23V776.892H595.805V571.338Z" fill="#333333"/>
<path d="M564.285 571.338H595.977V776.892H564.285V571.338Z" fill="#4D4D4D"/>
<path opacity="0.6" d="M612.512 577.373H615.957V774.132H612.512V577.373Z" fill="#E6E6E6"/>
<path opacity="0.6" d="M605.795 577.373H609.24V774.132H605.795V577.373Z" fill="#E6E6E6"/>
<path opacity="0.6" d="M599.077 577.373H602.522V774.132H599.077V577.373Z" fill="#E6E6E6"/>
<path d="M558.945 577.373H562.39V774.132H558.945V577.373Z" fill="#E6E6E6"/>
<path d="M552.228 577.373H555.673V774.132H552.228V577.373Z" fill="#E6E6E6"/>
<path d="M539.138 577.373H542.583V774.132H539.138V577.373Z" fill="#E6E6E6"/>
<path d="M545.511 577.373H548.955V774.132H545.511V577.373Z" fill="#E6E6E6"/>
<path opacity="0.8" d="M592.016 774.132H568.246V577.373H592.016V774.132ZM588.226 580.822H572.036V770.684H588.226V580.822Z" fill="#E6E6E6"/>
<path opacity="0.8" d="M585.126 767.407H574.964V583.926H585.126V767.407ZM581.681 588.237H580.476H579.787H578.409V763.096H579.787H580.476H581.681V588.237Z" fill="#E6E6E6"/>
<path opacity="0.8" d="M579.787 588.237H580.476V763.096H579.787V588.237Z" fill="#E6E6E6"/>
<path d="M567.902 535.297H591.671V571.338H567.902V535.297Z" fill="#4D4D4D"/>
<path d="M567.902 535.297H591.671V571.338H567.902V535.297Z" fill="#4D4D4D"/>
<path d="M544.133 535.297H567.902V571.338H544.133V535.297Z" fill="#666666"/>
<path d="M591.671 535.297H615.44V571.338H591.671V535.297Z" fill="#333333"/>
<path d="M565.491 510.637H594.083L584.609 517.19H574.964L565.491 510.637Z" fill="#808080"/>
<path d="M54.453 497.359H68.2321V537.884H54.453V497.359Z" fill="#4D4D4D"/>
<path d="M68.4046 497.359H82.1839V537.884H68.4046V497.359Z" fill="#333333"/>
<path d="M40.6736 497.359H54.453V537.884H40.6736V497.359Z" fill="#666666"/>
<path d="M0.0250282 565.82H38.9513V797.413H0.0250282V565.82Z" fill="#666666"/>
<path d="M84.7675 565.82H118.526V797.413H84.7675V565.82Z" fill="#333333"/>
<path d="M38.9514 565.82H84.7674V797.413H38.9514V565.82Z" fill="#4D4D4D"/>
<path opacity="0.4" d="M108.881 572.717H113.876V794.308H108.881V572.717Z" fill="#E6E6E6"/>
<path opacity="0.4" d="M99.0632 572.717H104.058V794.308H99.0632V572.717Z" fill="#E6E6E6"/>
<path opacity="0.4" d="M89.2455 572.717H94.2406V794.308H89.2455V572.717Z" fill="#E6E6E6"/>
<path d="M31.2005 572.717H36.1955V794.308H31.2005V572.717Z" fill="#E6E6E6"/>
<path d="M21.3828 572.717H26.3779V794.308H21.3828V572.717Z" fill="#E6E6E6"/>
<path d="M2.60864 572.717H7.60364V794.308H2.60864V572.717Z" fill="#E6E6E6"/>
<path d="M11.7373 572.717H16.7324V794.308H11.7373V572.717Z" fill="#E6E6E6"/>
<path d="M78.9112 794.308H44.463V572.717H78.9112V794.308ZM73.5718 576.511H50.1469V790.514H73.5718V576.511Z" fill="#E6E6E6"/>
<path d="M69.2657 786.893H54.453V580.133H69.2657V786.893ZM64.0985 584.961H62.2038H61.3426H59.448V782.065H61.3426H62.2038H64.0985V584.961Z" fill="#E6E6E6"/>
<path d="M61.3426 584.961H62.2038V782.065H61.3426V584.961Z" fill="#E6E6E6"/>
<path d="M44.1185 525.295H78.5667V565.82H44.1185V525.295Z" fill="#4D4D4D"/>
<path d="M44.1185 525.295H78.5667V565.82H44.1185V525.295Z" fill="#4D4D4D"/>
<path d="M9.67051 525.295H44.1185V565.82H9.67051V525.295Z" fill="#666666"/>
<path d="M78.3944 525.295H112.843V565.82H78.3944V525.295Z" fill="#333333"/>
<path d="M40.5016 497.359H82.1839L68.2323 504.774H54.4531L40.5016 497.359Z" fill="#808080"/>
<path d="M153.836 597.894H248.051V629.278H153.836V597.894Z" fill="#E6E6E6"/>
<path d="M211.02 597.894H248.051V629.278H211.02V597.894Z" fill="#B3B3B3"/>
<path d="M211.02 629.451H284.222V781.892H211.02V629.451Z" fill="#333333"/>
<path d="M96.6519 629.451H211.02V781.892H96.6519V629.451Z" fill="#4D4D4D"/>
<path d="M219.976 613.931H276.299V629.451H219.976V613.931Z" fill="#333333"/>
<path d="M113.704 613.931H194.14V629.451H113.704V613.931Z" fill="#4D4D4D"/>
<path d="M178.811 585.995H211.02V597.893H178.811V585.995Z" fill="#E6E6E6"/>
<path d="M195.001 573.924H211.02V585.823H195.001V573.924Z" fill="#4D4D4D"/>
<path d="M211.192 573.924H227.21V585.823H211.192V573.924Z" fill="#333333"/>
<path d="M211.02 585.995H235.65V597.893H211.02V585.995Z" fill="#B3B3B3"/>
<path d="M212.053 573.924L211.02 546.333L210.159 573.924H212.053Z" fill="#333333"/>
<path opacity="0.12" d="M261.142 635.659H267.17V641.694H261.142V635.659Z" fill="white"/>
<path opacity="0.25" d="M252.874 635.659H258.903V641.694H252.874V635.659Z" fill="white"/>
<path opacity="0.36" d="M244.607 635.659H250.635V641.694H244.607V635.659Z" fill="white"/>
<path opacity="0.12" d="M236.339 635.659H242.367V641.694H236.339V635.659Z" fill="white"/>
<path opacity="0.14" d="M228.072 635.659H234.1V641.694H228.072V635.659Z" fill="white"/>
<path opacity="0.28" d="M261.142 643.591H267.17V649.627H261.142V643.591Z" fill="white"/>
<path opacity="0.4" d="M252.874 643.591H258.903V649.627H252.874V643.591Z" fill="white"/>
<path opacity="0.16" d="M244.607 643.591H250.635V649.627H244.607V643.591Z" fill="white"/>
<path opacity="0.17" d="M228.072 643.591H234.1V649.627H228.072V643.591Z" fill="white"/>
<path opacity="0.27" d="M261.142 651.524H267.17V657.559H261.142V651.524Z" fill="white"/>
<path opacity="0.45" d="M252.874 651.524H258.903V657.559H252.874V651.524Z" fill="white"/>
<path opacity="0.45" d="M244.607 651.524H250.635V657.559H244.607V651.524Z" fill="white"/>
<path opacity="0.48" d="M236.339 651.524H242.367V657.559H236.339V651.524Z" fill="white"/>
<path opacity="0.25" d="M228.072 651.524H234.1V657.559H228.072V651.524Z" fill="white"/>
<path opacity="0.28" d="M261.142 659.456H267.17V665.492H261.142V659.456Z" fill="white"/>
<path opacity="0.13" d="M252.874 659.456H258.903V665.492H252.874V659.456Z" fill="white"/>
<path opacity="0.07" d="M244.607 659.456H250.635V665.492H244.607V659.456Z" fill="white"/>
<path opacity="0.39" d="M236.339 659.456H242.367V665.492H236.339V659.456Z" fill="white"/>
<path opacity="0.47" d="M228.072 659.456H234.1V665.492H228.072V659.456Z" fill="white"/>
<path opacity="0.28" d="M261.142 667.388H267.17V673.424H261.142V667.388Z" fill="white"/>
<path opacity="0.2" d="M252.874 667.388H258.903V673.424H252.874V667.388Z" fill="white"/>
<path opacity="0.04" d="M244.607 667.388H250.635V673.424H244.607V667.388Z" fill="white"/>
<path opacity="0.43" d="M236.339 667.388H242.367V673.424H236.339V667.388Z" fill="white"/>
<path opacity="0.48" d="M228.072 667.388H234.1V673.424H228.072V667.388Z" fill="white"/>
<path opacity="0.28" d="M261.142 675.321H267.17V681.357H261.142V675.321Z" fill="white"/>
<path opacity="0.19" d="M252.874 675.321H258.903V681.357H252.874V675.321Z" fill="white"/>
<path opacity="0.01" d="M244.607 675.321H250.635V681.357H244.607V675.321Z" fill="white"/>
<path opacity="0.27" d="M236.339 675.321H242.367V681.357H236.339V675.321Z" fill="white"/>
<path opacity="0.24" d="M228.072 675.321H234.1V681.357H228.072V675.321Z" fill="white"/>
<path opacity="0.07" d="M261.142 683.426H267.17V689.461H261.142V683.426Z" fill="white"/>
<path opacity="0.25" d="M252.874 683.426H258.903V689.461H252.874V683.426Z" fill="white"/>
<path opacity="0.26" d="M244.607 683.426H250.635V689.461H244.607V683.426Z" fill="white"/>
<path opacity="0.39" d="M236.339 683.426H242.367V689.461H236.339V683.426Z" fill="white"/>
<path opacity="0.22" d="M228.072 683.426H234.1V689.461H228.072V683.426Z" fill="white"/>
<path opacity="0.15" d="M261.142 691.358H267.17V697.394H261.142V691.358Z" fill="white"/>
<path opacity="0.23" d="M252.874 691.358H258.903V697.394H252.874V691.358Z" fill="white"/>
<path opacity="0.05" d="M244.607 691.358H250.635V697.394H244.607V691.358Z" fill="white"/>
<path opacity="0.2" d="M236.339 691.358H242.367V697.394H236.339V691.358Z" fill="white"/>
<path opacity="0.31" d="M228.072 691.358H234.1V697.394H228.072V691.358Z" fill="white"/>
<path opacity="0.15" d="M261.142 699.291H267.17V705.326H261.142V699.291Z" fill="white"/>
<path opacity="0.33" d="M252.874 699.291H258.903V705.326H252.874V699.291Z" fill="white"/>
<path opacity="0.46" d="M244.607 699.291H250.635V705.326H244.607V699.291Z" fill="white"/>
<path opacity="0.25" d="M236.339 699.291H242.367V705.326H236.339V699.291Z" fill="white"/>
<path opacity="0.43" d="M228.072 699.291H234.1V705.326H228.072V699.291Z" fill="white"/>
<path opacity="0.4" d="M261.142 707.223H267.17V713.259H261.142V707.223Z" fill="white"/>
<path opacity="0.39" d="M252.874 707.223H258.903V713.259H252.874V707.223Z" fill="white"/>
<path opacity="0.01" d="M244.607 707.223H250.635V713.259H244.607V707.223Z" fill="white"/>
<path opacity="0.12" d="M236.339 707.223H242.367V713.259H236.339V707.223Z" fill="white"/>
<path opacity="0.07" d="M228.072 707.223H234.1V713.259H228.072V707.223Z" fill="white"/>
<path opacity="0.07" d="M261.142 715.156H267.17V721.191H261.142V715.156Z" fill="white"/>
<path opacity="0.02" d="M252.874 715.156H258.903V721.191H252.874V715.156Z" fill="white"/>
<path opacity="0.12" d="M244.607 715.156H250.635V721.191H244.607V715.156Z" fill="white"/>
<path opacity="0.23" d="M236.339 715.156H242.367V721.191H236.339V715.156Z" fill="white"/>
<path opacity="0.26" d="M228.072 715.156H234.1V721.191H228.072V715.156Z" fill="white"/>
<path opacity="0.27" d="M261.142 723.088H267.17V729.124H261.142V723.088Z" fill="white"/>
<path opacity="0.38" d="M252.874 723.088H258.903V729.124H252.874V723.088Z" fill="white"/>
<path opacity="0.05" d="M244.607 723.088H250.635V729.124H244.607V723.088Z" fill="white"/>
<path opacity="0.45" d="M236.339 723.088H242.367V729.124H236.339V723.088Z" fill="white"/>
<path opacity="0.15" d="M228.072 723.088H234.1V729.124H228.072V723.088Z" fill="white"/>
<path opacity="0.06" d="M261.142 731.021H267.17V737.056H261.142V731.021Z" fill="white"/>
<path opacity="0.47" d="M252.874 731.021H258.903V737.056H252.874V731.021Z" fill="white"/>
<path opacity="0.15" d="M244.607 731.021H250.635V737.056H244.607V731.021Z" fill="white"/>
<path opacity="0.44" d="M236.339 731.021H242.367V737.056H236.339V731.021Z" fill="white"/>
<path opacity="0.14" d="M228.072 731.021H234.1V737.056H228.072V731.021Z" fill="white"/>
<path opacity="0.15" d="M261.142 738.953H267.17V744.989H261.142V738.953Z" fill="white"/>
<path opacity="0.43" d="M252.874 738.953H258.903V744.989H252.874V738.953Z" fill="white"/>
<path opacity="0.07" d="M244.607 738.953H250.635V744.989H244.607V738.953Z" fill="white"/>
<path opacity="0.47" d="M236.339 738.953H242.367V744.989H236.339V738.953Z" fill="white"/>
<path opacity="0.11" d="M228.072 738.953H234.1V744.989H228.072V738.953Z" fill="white"/>
<path opacity="0.07" d="M261.142 746.885H267.17V752.921H261.142V746.885Z" fill="white"/>
<path opacity="0.34" d="M252.874 746.885H258.903V752.921H252.874V746.885Z" fill="white"/>
<path opacity="0.5" d="M244.607 746.885H250.635V752.921H244.607V746.885Z" fill="white"/>
<path opacity="0.36" d="M236.339 746.885H242.367V752.921H236.339V746.885Z" fill="white"/>
<path opacity="0.34" d="M228.072 746.885H234.1V752.921H228.072V746.885Z" fill="white"/>
<path opacity="0.47" d="M261.142 754.818H267.17V760.854H261.142V754.818Z" fill="white"/>
<path opacity="0.41" d="M252.874 754.818H258.903V760.854H252.874V754.818Z" fill="white"/>
<path opacity="0.3" d="M244.607 754.818H250.635V760.854H244.607V754.818Z" fill="white"/>
<path opacity="0.33" d="M236.339 754.818H242.367V760.854H236.339V754.818Z" fill="white"/>
<path opacity="0.12" d="M228.072 754.818H234.1V760.854H228.072V754.818Z" fill="white"/>
<path opacity="0.24" d="M261.142 762.75H267.17V768.786H261.142V762.75Z" fill="white"/>
<path opacity="0.29" d="M252.874 762.75H258.903V768.786H252.874V762.75Z" fill="white"/>
<path opacity="0.27" d="M236.339 762.75H242.367V768.786H236.339V762.75Z" fill="white"/>
<path opacity="0.04" d="M228.072 762.75H234.1V768.786H228.072V762.75Z" fill="white"/>
<path opacity="0.11" d="M261.142 770.683H267.17V776.718H261.142V770.683Z" fill="white"/>
<path opacity="0.05" d="M252.874 770.683H258.903V776.718H252.874V770.683Z" fill="white"/>
<path opacity="0.04" d="M244.607 770.683H250.635V776.718H244.607V770.683Z" fill="white"/>
<path opacity="0.02" d="M236.339 770.683H242.367V776.718H236.339V770.683Z" fill="white"/>
<path opacity="0.3" d="M191.04 635.659H197.068V641.694H191.04V635.659Z" fill="white"/>
<path opacity="0.72" d="M183.117 635.659H189.145V641.694H183.117V635.659Z" fill="white"/>
<path opacity="0.7" d="M175.022 635.659H181.05V641.694H175.022V635.659Z" fill="white"/>
<path opacity="0.52" d="M166.926 635.659H172.955V641.694H166.926V635.659Z" fill="white"/>
<path opacity="0.2" d="M158.831 635.659H164.859V641.694H158.831V635.659Z" fill="white"/>
<path opacity="0.32" d="M150.908 635.659H156.936V641.694H150.908V635.659Z" fill="white"/>
<path opacity="0.13" d="M142.813 635.659H148.841V641.694H142.813V635.659Z" fill="white"/>
<path opacity="0.38" d="M134.717 635.659H140.746V641.694H134.717V635.659Z" fill="white"/>
<path opacity="0.61" d="M126.794 635.659H132.823V641.694H126.794V635.659Z" fill="white"/>
<path d="M118.699 635.659H124.727V641.694H118.699V635.659Z" fill="white"/>
<path opacity="0.91" d="M110.604 635.659H116.632V641.694H110.604V635.659Z" fill="white"/>
<path opacity="0.66" d="M191.04 643.591H197.068V649.627H191.04V643.591Z" fill="white"/>
<path opacity="0.31" d="M183.117 643.591H189.145V649.627H183.117V643.591Z" fill="white"/>
<path opacity="0.95" d="M175.022 643.591H181.05V649.627H175.022V643.591Z" fill="white"/>
<path opacity="0.7" d="M166.926 643.591H172.955V649.627H166.926V643.591Z" fill="white"/>
<path opacity="0.12" d="M158.831 643.591H164.859V649.627H158.831V643.591Z" fill="white"/>
<path opacity="0.24" d="M150.908 643.591H156.936V649.627H150.908V643.591Z" fill="white"/>
<path opacity="0.66" d="M142.813 643.591H148.841V649.627H142.813V643.591Z" fill="white"/>
<path opacity="0.71" d="M134.717 643.591H140.746V649.627H134.717V643.591Z" fill="white"/>
<path opacity="0.42" d="M126.794 643.591H132.823V649.627H126.794V643.591Z" fill="white"/>
<path opacity="0.09" d="M118.699 643.591H124.727V649.627H118.699V643.591Z" fill="white"/>
<path opacity="0.32" d="M110.604 643.591H116.632V649.627H110.604V643.591Z" fill="white"/>
<path opacity="0.65" d="M191.04 651.524H197.068V657.559H191.04V651.524Z" fill="white"/>
<path d="M183.117 651.524H189.145V657.559H183.117V651.524Z" fill="white"/>
<path d="M175.022 651.524H181.05V657.559H175.022V651.524Z" fill="white"/>
<path opacity="0.71" d="M166.926 651.524H172.955V657.559H166.926V651.524Z" fill="white"/>
<path opacity="0.2" d="M158.831 651.524H164.859V657.559H158.831V651.524Z" fill="white"/>
<path opacity="0.19" d="M150.908 651.524H156.936V657.559H150.908V651.524Z" fill="white"/>
<path opacity="0.62" d="M142.813 651.524H148.841V657.559H142.813V651.524Z" fill="white"/>
<path opacity="0.93" d="M134.717 651.524H140.746V657.559H134.717V651.524Z" fill="white"/>
<path opacity="0.56" d="M126.794 651.524H132.823V657.559H126.794V651.524Z" fill="white"/>
<path opacity="0.57" d="M118.699 651.524H124.727V657.559H118.699V651.524Z" fill="white"/>
<path opacity="0.52" d="M110.604 651.524H116.632V657.559H110.604V651.524Z" fill="white"/>
<path opacity="0.74" d="M191.04 659.456H197.068V665.492H191.04V659.456Z" fill="white"/>
<path opacity="0.56" d="M183.117 659.456H189.145V665.492H183.117V659.456Z" fill="white"/>
<path opacity="0.78" d="M175.022 659.456H181.05V665.492H175.022V659.456Z" fill="white"/>
<path opacity="0.41" d="M166.926 659.456H172.955V665.492H166.926V659.456Z" fill="white"/>
<path opacity="0.14" d="M158.831 659.456H164.859V665.492H158.831V659.456Z" fill="white"/>
<path opacity="0.28" d="M150.908 659.456H156.936V665.492H150.908V659.456Z" fill="white"/>
<path opacity="0.36" d="M142.813 659.456H148.841V665.492H142.813V659.456Z" fill="white"/>
<path opacity="0.14" d="M134.717 659.456H140.746V665.492H134.717V659.456Z" fill="white"/>
<path opacity="0.5" d="M126.794 659.456H132.823V665.492H126.794V659.456Z" fill="white"/>
<path opacity="0.98" d="M118.699 659.456H124.727V665.492H118.699V659.456Z" fill="white"/>
<path opacity="0.59" d="M110.604 659.456H116.632V665.492H110.604V659.456Z" fill="white"/>
<path opacity="0.07" d="M191.04 667.388H197.068V673.424H191.04V667.388Z" fill="white"/>
<path opacity="0.1" d="M183.117 667.388H189.145V673.424H183.117V667.388Z" fill="white"/>
<path opacity="0.88" d="M175.022 667.388H181.05V673.424H175.022V667.388Z" fill="white"/>
<path opacity="0.68" d="M166.926 667.388H172.955V673.424H166.926V667.388Z" fill="white"/>
<path opacity="0.81" d="M158.831 667.388H164.859V673.424H158.831V667.388Z" fill="white"/>
<path opacity="0.62" d="M150.908 667.388H156.936V673.424H150.908V667.388Z" fill="white"/>
<path opacity="0.97" d="M142.813 667.388H148.841V673.424H142.813V667.388Z" fill="white"/>
<path opacity="0.81" d="M134.717 667.388H140.746V673.424H134.717V667.388Z" fill="white"/>
<path opacity="0.79" d="M126.794 667.388H132.823V673.424H126.794V667.388Z" fill="white"/>
<path opacity="0.03" d="M118.699 667.388H124.727V673.424H118.699V667.388Z" fill="white"/>
<path opacity="0.95" d="M110.604 667.388H116.632V673.424H110.604V667.388Z" fill="white"/>
<path opacity="0.62" d="M191.04 675.321H197.068V681.357H191.04V675.321Z" fill="white"/>
<path opacity="0.22" d="M183.117 675.321H189.145V681.357H183.117V675.321Z" fill="white"/>
<path opacity="0.42" d="M175.022 675.321H181.05V681.357H175.022V675.321Z" fill="white"/>
<path opacity="0.56" d="M166.926 675.321H172.955V681.357H166.926V675.321Z" fill="white"/>
<path opacity="0.03" d="M158.831 675.321H164.859V681.357H158.831V675.321Z" fill="white"/>
<path opacity="0.64" d="M150.908 675.321H156.936V681.357H150.908V675.321Z" fill="white"/>
<path opacity="0.82" d="M142.813 675.321H148.841V681.357H142.813V675.321Z" fill="white"/>
<path opacity="0.52" d="M134.717 675.321H140.746V681.357H134.717V675.321Z" fill="white"/>
<path opacity="0.46" d="M126.794 675.321H132.823V681.357H126.794V675.321Z" fill="white"/>
<path opacity="0.27" d="M118.699 675.321H124.727V681.357H118.699V675.321Z" fill="white"/>
<path opacity="0.46" d="M110.604 675.321H116.632V681.357H110.604V675.321Z" fill="white"/>
<path opacity="0.66" d="M191.04 683.426H197.068V689.461H191.04V683.426Z" fill="white"/>
<path opacity="0.7" d="M183.117 683.426H189.145V689.461H183.117V683.426Z" fill="white"/>
<path opacity="0.94" d="M175.022 683.426H181.05V689.461H175.022V683.426Z" fill="white"/>
<path opacity="0.5" d="M166.926 683.426H172.955V689.461H166.926V683.426Z" fill="white"/>
<path opacity="0.12" d="M158.831 683.426H164.859V689.461H158.831V683.426Z" fill="white"/>
<path opacity="0.36" d="M150.908 683.426H156.936V689.461H150.908V683.426Z" fill="white"/>
<path opacity="0.51" d="M142.813 683.426H148.841V689.461H142.813V683.426Z" fill="white"/>
<path opacity="0.37" d="M134.717 683.426H140.746V689.461H134.717V683.426Z" fill="white"/>
<path opacity="0.66" d="M126.794 683.426H132.823V689.461H126.794V683.426Z" fill="white"/>
<path opacity="0.42" d="M118.699 683.426H124.727V689.461H118.699V683.426Z" fill="white"/>
<path opacity="0.5" d="M110.604 683.426H116.632V689.461H110.604V683.426Z" fill="white"/>
<path opacity="0.52" d="M191.04 691.358H197.068V697.394H191.04V691.358Z" fill="white"/>
<path opacity="0.61" d="M183.117 691.358H189.145V697.394H183.117V691.358Z" fill="white"/>
<path opacity="0.84" d="M175.022 691.358H181.05V697.394H175.022V691.358Z" fill="white"/>
<path opacity="0.89" d="M166.926 691.358H172.955V697.394H166.926V691.358Z" fill="white"/>
<path opacity="0.33" d="M158.831 691.358H164.859V697.394H158.831V691.358Z" fill="white"/>
<path opacity="0.25" d="M150.908 691.358H156.936V697.394H150.908V691.358Z" fill="white"/>
<path opacity="0.95" d="M142.813 691.358H148.841V697.394H142.813V691.358Z" fill="white"/>
<path opacity="0.09" d="M134.717 691.358H140.746V697.394H134.717V691.358Z" fill="white"/>
<path opacity="0.44" d="M126.794 691.358H132.823V697.394H126.794V691.358Z" fill="white"/>
<path opacity="0.51" d="M118.699 691.358H124.727V697.394H118.699V691.358Z" fill="white"/>
<path opacity="0.97" d="M110.604 691.358H116.632V697.394H110.604V691.358Z" fill="white"/>
<path opacity="0.26" d="M191.04 699.291H197.068V705.326H191.04V699.291Z" fill="white"/>
<path opacity="0.92" d="M183.117 699.291H189.145V705.326H183.117V699.291Z" fill="white"/>
<path opacity="0.33" d="M175.022 699.291H181.05V705.326H175.022V699.291Z" fill="white"/>
<path opacity="0.23" d="M166.926 699.291H172.955V705.326H166.926V699.291Z" fill="white"/>
<path opacity="0.42" d="M158.831 699.291H164.859V705.326H158.831V699.291Z" fill="white"/>
<path opacity="0.57" d="M150.908 699.291H156.936V705.326H150.908V699.291Z" fill="white"/>
<path opacity="0.73" d="M142.813 699.291H148.841V705.326H142.813V699.291Z" fill="white"/>
<path opacity="0.87" d="M134.717 699.291H140.746V705.326H134.717V699.291Z" fill="white"/>
<path opacity="0.22" d="M126.794 699.291H132.823V705.326H126.794V699.291Z" fill="white"/>
<path opacity="0.89" d="M118.699 699.291H124.727V705.326H118.699V699.291Z" fill="white"/>
<path opacity="0.73" d="M110.604 699.291H116.632V705.326H110.604V699.291Z" fill="white"/>
<path opacity="0.35" d="M191.04 707.223H197.068V713.259H191.04V707.223Z" fill="white"/>
<path opacity="0.81" d="M183.117 707.223H189.145V713.259H183.117V707.223Z" fill="white"/>
<path opacity="0.56" d="M175.022 707.223H181.05V713.259H175.022V707.223Z" fill="white"/>
<path opacity="0.81" d="M166.926 707.223H172.955V713.259H166.926V707.223Z" fill="white"/>
<path opacity="0.87" d="M158.831 707.223H164.859V713.259H158.831V707.223Z" fill="white"/>
<path opacity="0.39" d="M150.908 707.223H156.936V713.259H150.908V707.223Z" fill="white"/>
<path opacity="0.31" d="M142.813 707.223H148.841V713.259H142.813V707.223Z" fill="white"/>
<path opacity="0.98" d="M134.717 707.223H140.746V713.259H134.717V707.223Z" fill="white"/>
<path opacity="0.17" d="M126.794 707.223H132.823V713.259H126.794V707.223Z" fill="white"/>
<path opacity="0.06" d="M118.699 707.223H124.727V713.259H118.699V707.223Z" fill="white"/>
<path opacity="0.57" d="M110.604 707.223H116.632V713.259H110.604V707.223Z" fill="white"/>
<path opacity="0.67" d="M191.04 715.156H197.068V721.191H191.04V715.156Z" fill="white"/>
<path opacity="0.83" d="M183.117 715.156H189.145V721.191H183.117V715.156Z" fill="white"/>
<path opacity="0.99" d="M175.022 715.156H181.05V721.191H175.022V715.156Z" fill="white"/>
<path opacity="0.62" d="M166.926 715.156H172.955V721.191H166.926V715.156Z" fill="white"/>
<path opacity="0.87" d="M158.831 715.156H164.859V721.191H158.831V715.156Z" fill="white"/>
<path opacity="0.14" d="M150.908 715.156H156.936V721.191H150.908V715.156Z" fill="white"/>
<path opacity="0.12" d="M142.813 715.156H148.841V721.191H142.813V715.156Z" fill="white"/>
<path opacity="0.11" d="M134.717 715.156H140.746V721.191H134.717V715.156Z" fill="white"/>
<path opacity="0.39" d="M126.794 715.156H132.823V721.191H126.794V715.156Z" fill="white"/>
<path opacity="0.58" d="M118.699 715.156H124.727V721.191H118.699V715.156Z" fill="white"/>
<path opacity="0.54" d="M110.604 715.156H116.632V721.191H110.604V715.156Z" fill="white"/>
<path opacity="0.99" d="M191.04 723.088H197.068V729.124H191.04V723.088Z" fill="white"/>
<path opacity="0.28" d="M183.117 723.088H189.145V729.124H183.117V723.088Z" fill="white"/>
<path opacity="0.78" d="M175.022 723.088H181.05V729.124H175.022V723.088Z" fill="white"/>
<path opacity="0.65" d="M166.926 723.088H172.955V729.124H166.926V723.088Z" fill="white"/>
<path opacity="0.32" d="M158.831 723.088H164.859V729.124H158.831V723.088Z" fill="white"/>
<path opacity="0.55" d="M150.908 723.088H156.936V729.124H150.908V723.088Z" fill="white"/>
<path opacity="0.4" d="M142.813 723.088H148.841V729.124H142.813V723.088Z" fill="white"/>
<path opacity="0.22" d="M134.717 723.088H140.746V729.124H134.717V723.088Z" fill="white"/>
<path opacity="0.87" d="M126.794 723.088H132.823V729.124H126.794V723.088Z" fill="white"/>
<path opacity="0.02" d="M118.699 723.088H124.727V729.124H118.699V723.088Z" fill="white"/>
<path opacity="0.39" d="M110.604 723.088H116.632V729.124H110.604V723.088Z" fill="white"/>
<path opacity="0.89" d="M191.04 731.021H197.068V737.056H191.04V731.021Z" fill="white"/>
<path opacity="0.97" d="M183.117 731.021H189.145V737.056H183.117V731.021Z" fill="white"/>
<path opacity="0.79" d="M175.022 731.021H181.05V737.056H175.022V731.021Z" fill="white"/>
<path opacity="0.41" d="M166.926 731.021H172.955V737.056H166.926V731.021Z" fill="white"/>
<path opacity="0.13" d="M158.831 731.021H164.859V737.056H158.831V731.021Z" fill="white"/>
<path opacity="0.9" d="M150.908 731.021H156.936V737.056H150.908V731.021Z" fill="white"/>
<path opacity="0.98" d="M142.813 731.021H148.841V737.056H142.813V731.021Z" fill="white"/>
<path opacity="0.67" d="M134.717 731.021H140.746V737.056H134.717V731.021Z" fill="white"/>
<path opacity="0.65" d="M126.794 731.021H132.823V737.056H126.794V731.021Z" fill="white"/>
<path opacity="0.89" d="M118.699 731.021H124.727V737.056H118.699V731.021Z" fill="white"/>
<path opacity="0.98" d="M110.604 731.021H116.632V737.056H110.604V731.021Z" fill="white"/>
<path opacity="0.29" d="M191.04 738.953H197.068V744.989H191.04V738.953Z" fill="white"/>
<path opacity="0.74" d="M183.117 738.953H189.145V744.989H183.117V738.953Z" fill="white"/>
<path opacity="0.64" d="M175.022 738.953H181.05V744.989H175.022V738.953Z" fill="white"/>
<path opacity="0.65" d="M166.926 738.953H172.955V744.989H166.926V738.953Z" fill="white"/>
<path opacity="0.07" d="M158.831 738.953H164.859V744.989H158.831V738.953Z" fill="white"/>
<path opacity="0.16" d="M150.908 738.953H156.936V744.989H150.908V738.953Z" fill="white"/>
<path opacity="0.84" d="M142.813 738.953H148.841V744.989H142.813V738.953Z" fill="white"/>
<path opacity="0.88" d="M134.717 738.953H140.746V744.989H134.717V738.953Z" fill="white"/>
<path opacity="0.57" d="M126.794 738.953H132.823V744.989H126.794V738.953Z" fill="white"/>
<path opacity="0.31" d="M118.699 738.953H124.727V744.989H118.699V738.953Z" fill="white"/>
<path opacity="0.03" d="M110.604 738.953H116.632V744.989H110.604V738.953Z" fill="white"/>
<path opacity="0.3" d="M191.04 746.885H197.068V752.921H191.04V746.885Z" fill="white"/>
<path opacity="0.59" d="M183.117 746.885H189.145V752.921H183.117V746.885Z" fill="white"/>
<path opacity="0.93" d="M175.022 746.885H181.05V752.921H175.022V746.885Z" fill="white"/>
<path opacity="0.06" d="M166.926 746.885H172.955V752.921H166.926V746.885Z" fill="white"/>
<path opacity="0.74" d="M158.831 746.885H164.859V752.921H158.831V746.885Z" fill="white"/>
<path opacity="0.22" d="M150.908 746.885H156.936V752.921H150.908V746.885Z" fill="white"/>
<path opacity="0.51" d="M142.813 746.885H148.841V752.921H142.813V746.885Z" fill="white"/>
<path opacity="0.7" d="M134.717 746.885H140.746V752.921H134.717V746.885Z" fill="white"/>
<path opacity="0.47" d="M126.794 746.885H132.823V752.921H126.794V746.885Z" fill="white"/>
<path opacity="0.08" d="M118.699 746.885H124.727V752.921H118.699V746.885Z" fill="white"/>
<path opacity="0.93" d="M110.604 746.885H116.632V752.921H110.604V746.885Z" fill="white"/>
<path opacity="0.81" d="M191.04 754.818H197.068V760.854H191.04V754.818Z" fill="white"/>
<path opacity="0.9" d="M183.117 754.818H189.145V760.854H183.117V754.818Z" fill="white"/>
<path opacity="0.55" d="M175.022 754.818H181.05V760.854H175.022V754.818Z" fill="white"/>
<path opacity="0.14" d="M166.926 754.818H172.955V760.854H166.926V754.818Z" fill="white"/>
<path opacity="0.66" d="M158.831 754.818H164.859V760.854H158.831V754.818Z" fill="white"/>
<path opacity="0.92" d="M150.908 754.818H156.936V760.854H150.908V754.818Z" fill="white"/>
<path opacity="0.4" d="M142.813 754.818H148.841V760.854H142.813V754.818Z" fill="white"/>
<path opacity="0.6" d="M134.717 754.818H140.746V760.854H134.717V754.818Z" fill="white"/>
<path opacity="0.99" d="M126.794 754.818H132.823V760.854H126.794V754.818Z" fill="white"/>
<path opacity="0.68" d="M118.699 754.818H124.727V760.854H118.699V754.818Z" fill="white"/>
<path opacity="0.01" d="M110.604 754.818H116.632V760.854H110.604V754.818Z" fill="white"/>
<path opacity="0.82" d="M191.04 762.75H197.068V768.786H191.04V762.75Z" fill="white"/>
<path opacity="0.92" d="M183.117 762.75H189.145V768.786H183.117V762.75Z" fill="white"/>
<path opacity="0.29" d="M175.022 762.75H181.05V768.786H175.022V762.75Z" fill="white"/>
<path opacity="0.73" d="M166.926 762.75H172.955V768.786H166.926V762.75Z" fill="white"/>
<path opacity="0.42" d="M158.831 762.75H164.859V768.786H158.831V762.75Z" fill="white"/>
<path opacity="0.06" d="M150.908 762.75H156.936V768.786H150.908V762.75Z" fill="white"/>
<path opacity="0.7" d="M142.813 762.75H148.841V768.786H142.813V762.75Z" fill="white"/>
<path opacity="0.97" d="M134.717 762.75H140.746V768.786H134.717V762.75Z" fill="white"/>
<path opacity="0.51" d="M126.794 762.75H132.823V768.786H126.794V762.75Z" fill="white"/>
<path opacity="0.69" d="M118.699 762.75H124.727V768.786H118.699V762.75Z" fill="white"/>
<path opacity="0.49" d="M110.604 762.75H116.632V768.786H110.604V762.75Z" fill="white"/>
<path opacity="0.45" d="M191.04 770.683H197.068V776.718H191.04V770.683Z" fill="white"/>
<path opacity="0.46" d="M183.117 770.683H189.145V776.718H183.117V770.683Z" fill="white"/>
<path opacity="0.04" d="M175.022 770.683H181.05V776.718H175.022V770.683Z" fill="white"/>
<path opacity="0.56" d="M166.926 770.683H172.955V776.718H166.926V770.683Z" fill="white"/>
<path opacity="0.4" d="M158.831 770.683H164.859V776.718H158.831V770.683Z" fill="white"/>
<path opacity="0.59" d="M150.908 770.683H156.936V776.718H150.908V770.683Z" fill="white"/>
<path opacity="0.82" d="M142.813 770.683H148.841V776.718H142.813V770.683Z" fill="white"/>
<path opacity="0.99" d="M134.717 770.683H140.746V776.718H134.717V770.683Z" fill="white"/>
<path opacity="0.1" d="M126.794 770.683H132.823V776.718H126.794V770.683Z" fill="white"/>
<path opacity="0.87" d="M118.699 770.683H124.727V776.718H118.699V770.683Z" fill="white"/>
<path d="M110.604 770.683H116.632V776.718H110.604V770.683Z" fill="white"/>
<path d="M292.834 596.859H349.673V775.167H292.834V596.859Z" fill="#333333"/>
<path d="M323.837 587.892H349.673V597.894H323.837V587.892Z" fill="#333333"/>
<path d="M334.688 582.029H349.673V587.892H334.688V582.029Z" fill="#333333"/>
<path opacity="0.25" d="M316.775 609.448H326.076V618.76H316.775V609.448Z" fill="white"/>
<path opacity="0.15" d="M316.775 632.383H326.076V641.695H316.775V632.383Z" fill="white"/>
<path opacity="0.19" d="M316.775 678.08H326.076V687.392H316.775V678.08Z" fill="white"/>
<path opacity="0.17" d="M316.775 700.843H326.076V710.155H316.775V700.843Z" fill="white"/>
<path opacity="0.22" d="M316.775 723.606H326.076V732.918H316.775V723.606Z" fill="white"/>
<path d="M316.775 746.541H326.076V755.853H316.775V746.541Z" fill="white"/>
<path d="M335.033 696.187H388.255V711.879H335.033V696.187Z" fill="#333333"/>
<path d="M308.508 696.187H335.033V711.879H308.508V696.187Z" fill="#4D4D4D"/>
<path d="M388.255 696.187L371.72 688.255L335.033 696.187H388.255Z" fill="#333333"/>
<path d="M371.72 688.255L335.033 696.187H308.508L371.72 688.255Z" fill="#4D4D4D"/>
<path d="M322.631 707.223H400.484V778.615H322.631V707.223Z" fill="#333333"/>
<path d="M296.795 707.223H322.631V778.615H296.795V707.223Z" fill="#4D4D4D"/>
<path opacity="0.81" d="M302.824 712.224H316.775V717.398H302.824V712.224Z" fill="white"/>
<path opacity="0.76" d="M302.824 721.709H316.775V726.882H302.824V721.709Z" fill="white"/>
<path opacity="0.32" d="M302.824 731.193H316.775V736.367H302.824V731.193Z" fill="white"/>
<path opacity="0.49" d="M302.824 740.85H316.775V746.023H302.824V740.85Z" fill="white"/>
<path opacity="0.99" d="M302.824 759.819H316.775V764.992H302.824V759.819Z" fill="white"/>
<path opacity="0.1" d="M374.131 712.224H388.083V717.398H374.131V712.224Z" fill="white"/>
<path opacity="0.04" d="M354.668 712.224H368.62V717.398H354.668V712.224Z" fill="white"/>
<path opacity="0.07" d="M335.033 712.224H348.984V717.398H335.033V712.224Z" fill="white"/>
<path opacity="0.06" d="M374.131 721.709H388.083V726.882H374.131V721.709Z" fill="white"/>
<path opacity="0.44" d="M354.668 721.709H368.62V726.882H354.668V721.709Z" fill="white"/>
<path opacity="0.24" d="M335.033 721.709H348.984V726.882H335.033V721.709Z" fill="white"/>
<path opacity="0.55" d="M374.131 731.193H388.083V736.367H374.131V731.193Z" fill="white"/>
<path opacity="0.02" d="M354.668 731.193H368.62V736.367H354.668V731.193Z" fill="white"/>
<path opacity="0.14" d="M335.033 731.193H348.984V736.367H335.033V731.193Z" fill="white"/>
<path opacity="0.43" d="M374.131 740.85H388.083V746.023H374.131V740.85Z" fill="white"/>
<path opacity="0.41" d="M354.668 740.85H368.62V746.023H354.668V740.85Z" fill="white"/>
<path opacity="0.46" d="M335.033 740.85H348.984V746.023H335.033V740.85Z" fill="white"/>
<path opacity="0.45" d="M374.131 750.335H388.083V755.508H374.131V750.335Z" fill="white"/>
<path opacity="0.33" d="M354.668 750.335H368.62V755.508H354.668V750.335Z" fill="white"/>
<path opacity="0.05" d="M335.033 750.335H348.984V755.508H335.033V750.335Z" fill="white"/>
<path opacity="0.27" d="M374.131 759.819H388.083V764.993H374.131V759.819Z" fill="white"/>
<path opacity="0.15" d="M354.668 759.819H368.62V764.993H354.668V759.819Z" fill="white"/>
<path opacity="0.7" d="M335.033 759.819H348.984V764.993H335.033V759.819Z" fill="white"/>
<path d="M701.388 635.832H749.616V784.651H701.388V635.832Z" fill="#333333"/>
<path d="M646.444 635.832H701.216V784.651H646.444V635.832Z" fill="#4D4D4D"/>
<path d="M701.388 648.42H749.616V651.007H701.388V648.42Z" fill="#4D4D4D"/>
<path d="M646.444 648.42H701.216V651.007H646.444V648.42Z" fill="#333333"/>
<path opacity="0.32" d="M726.363 653.939H731.53V659.112H726.363V653.939Z" fill="white"/>
<path opacity="0.25" d="M719.301 653.939H724.469V659.112H719.301V653.939Z" fill="white"/>
<path opacity="0.12" d="M705.178 653.939H710.345V659.112H705.178V653.939Z" fill="white"/>
<path opacity="0.22" d="M726.363 661.009H731.53V666.182H726.363V661.009Z" fill="white"/>
<path opacity="0.47" d="M719.301 661.009H724.469V666.182H719.301V661.009Z" fill="white"/>
<path opacity="0.22" d="M712.239 661.009H717.407V666.182H712.239V661.009Z" fill="white"/>
<path opacity="0.32" d="M705.178 661.009H710.345V666.182H705.178V661.009Z" fill="white"/>
<path opacity="0.18" d="M726.363 668.079H731.53V673.252H726.363V668.079Z" fill="white"/>
<path opacity="0.28" d="M719.301 668.079H724.469V673.252H719.301V668.079Z" fill="white"/>
<path opacity="0.2" d="M705.178 668.079H710.345V673.252H705.178V668.079Z" fill="white"/>
<path opacity="0.33" d="M726.363 675.149H731.53V680.323H726.363V675.149Z" fill="white"/>
<path opacity="0.05" d="M719.301 675.149H724.469V680.323H719.301V675.149Z" fill="white"/>
<path opacity="0.08" d="M712.239 675.149H717.407V680.323H712.239V675.149Z" fill="white"/>
<path opacity="0.08" d="M719.301 682.219H724.469V687.393H719.301V682.219Z" fill="white"/>
<path opacity="0.02" d="M712.239 682.219H717.407V687.393H712.239V682.219Z" fill="white"/>
<path opacity="0.05" d="M726.363 689.29H731.53V694.463H726.363V689.29Z" fill="white"/>
<path opacity="0.2" d="M719.301 689.29H724.469V694.463H719.301V689.29Z" fill="white"/>
<path opacity="0.23" d="M712.239 689.29H717.407V694.463H712.239V689.29Z" fill="white"/>
<path opacity="0.14" d="M726.363 696.36H731.53V701.533H726.363V696.36Z" fill="white"/>
<path opacity="0.24" d="M712.239 696.36H717.407V701.533H712.239V696.36Z" fill="white"/>
<path opacity="0.23" d="M726.363 703.43H731.53V708.603H726.363V703.43Z" fill="white"/>
<path opacity="0.02" d="M719.301 703.43H724.469V708.603H719.301V703.43Z" fill="white"/>
<path opacity="0.04" d="M712.239 703.43H717.407V708.603H712.239V703.43Z" fill="white"/>
<path opacity="0.3" d="M705.178 703.43H710.345V708.603H705.178V703.43Z" fill="white"/>
<path opacity="0.4" d="M705.178 710.328H710.345V715.501H705.178V710.328Z" fill="white"/>
<path opacity="0.12" d="M726.363 717.398H731.53V722.572H726.363V717.398Z" fill="white"/>
<path opacity="0.19" d="M712.239 717.398H717.407V722.572H712.239V717.398Z" fill="white"/>
<path opacity="0.43" d="M705.178 717.398H710.345V722.572H705.178V717.398Z" fill="white"/>
<path opacity="0.42" d="M719.301 724.468H724.469V729.642H719.301V724.468Z" fill="white"/>
<path opacity="0.31" d="M705.178 724.468H710.345V729.642H705.178V724.468Z" fill="white"/>
<path opacity="0.31" d="M719.301 731.539H724.469V736.712H719.301V731.539Z" fill="white"/>
<path opacity="0.33" d="M705.178 731.539H710.345V736.712H705.178V731.539Z" fill="white"/>
<path opacity="0.17" d="M719.301 738.609H724.469V743.782H719.301V738.609Z" fill="white"/>
<path opacity="0.01" d="M712.239 738.609H717.407V743.782H712.239V738.609Z" fill="white"/>
<path opacity="0.48" d="M705.178 738.609H710.345V743.782H705.178V738.609Z" fill="white"/>
<path opacity="0.28" d="M726.363 745.679H731.53V750.852H726.363V745.679Z" fill="white"/>
<path opacity="0.02" d="M719.301 745.679H724.469V750.852H719.301V745.679Z" fill="white"/>
<path opacity="0.17" d="M712.239 745.679H717.407V750.852H712.239V745.679Z" fill="white"/>
<path opacity="0.42" d="M705.178 745.679H710.345V750.852H705.178V745.679Z" fill="white"/>
<path opacity="0.11" d="M726.363 752.749H731.53V757.923H726.363V752.749Z" fill="white"/>
<path opacity="0.02" d="M719.301 752.749H724.469V757.923H719.301V752.749Z" fill="white"/>
<path opacity="0.3" d="M705.178 752.749H710.345V757.923H705.178V752.749Z" fill="white"/>
<path opacity="0.19" d="M726.363 759.82H731.53V764.993H726.363V759.82Z" fill="white"/>
<path opacity="0.05" d="M719.301 759.82H724.469V764.993H719.301V759.82Z" fill="white"/>
<path opacity="0.2" d="M705.178 759.82H710.345V764.993H705.178V759.82Z" fill="white"/>
<path opacity="0.27" d="M719.301 766.89H724.469V772.063H719.301V766.89Z" fill="white"/>
<path opacity="0.13" d="M712.239 766.89H717.407V772.063H712.239V766.89Z" fill="white"/>
<path opacity="0.46" d="M726.363 773.96H731.53V779.133H726.363V773.96Z" fill="white"/>
<path opacity="0.12" d="M719.301 773.96H724.469V779.133H719.301V773.96Z" fill="white"/>
<path opacity="0.04" d="M712.239 773.96H717.407V779.133H712.239V773.96Z" fill="white"/>
<path opacity="0.3" d="M705.178 773.96H710.345V779.133H705.178V773.96Z" fill="white"/>
<path opacity="0.08" d="M712.239 653.939H717.407V659.112H712.239V653.939Z" fill="white"/>
<path opacity="0.08" d="M712.239 668.079H717.407V673.252H712.239V668.079Z" fill="white"/>
<path opacity="0.01" d="M705.178 675.149H710.345V680.323H705.178V675.149Z" fill="white"/>
<path opacity="0.15" d="M726.363 682.219H731.53V687.393H726.363V682.219Z" fill="white"/>
<path opacity="0.12" d="M705.178 682.219H710.345V687.393H705.178V682.219Z" fill="white"/>
<path opacity="0.13" d="M719.301 696.36H724.469V701.533H719.301V696.36Z" fill="white"/>
<path opacity="0.07" d="M705.178 696.36H710.345V701.533H705.178V696.36Z" fill="white"/>
<path opacity="0.02" d="M726.363 710.328H731.53V715.501H726.363V710.328Z" fill="white"/>
<path opacity="0.02" d="M719.301 710.328H724.469V715.501H719.301V710.328Z" fill="white"/>
<path opacity="0.14" d="M712.239 710.328H717.407V715.501H712.239V710.328Z" fill="white"/>
<path opacity="0.09" d="M726.363 724.468H731.53V729.642H726.363V724.468Z" fill="white"/>
<path opacity="0.02" d="M712.239 724.468H717.407V729.642H712.239V724.468Z" fill="white"/>
<path opacity="0.19" d="M726.363 731.539H731.53V736.712H726.363V731.539Z" fill="white"/>
<path opacity="0.06" d="M712.239 731.539H717.407V736.712H712.239V731.539Z" fill="white"/>
<path opacity="0.16" d="M726.363 738.609H731.53V743.782H726.363V738.609Z" fill="white"/>
<path opacity="0.04" d="M712.239 752.749H717.407V757.923H712.239V752.749Z" fill="white"/>
<path opacity="0.04" d="M712.239 759.82H717.407V764.993H712.239V759.82Z" fill="white"/>
<path opacity="0.18" d="M705.178 766.89H710.345V772.063H705.178V766.89Z" fill="white"/>
<g opacity="0.7">
<path opacity="0.7" d="M690.882 651.007H696.221V778.098H690.882V651.007Z" fill="#E6E6E6"/>
<path opacity="0.7" d="M681.753 651.007H687.092V778.098H681.753V651.007Z" fill="#E6E6E6"/>
<path opacity="0.7" d="M672.452 651.007H677.791V778.098H672.452V651.007Z" fill="#E6E6E6"/>
<path opacity="0.7" d="M663.151 651.007H668.49V778.098H663.151V651.007Z" fill="#E6E6E6"/>
<path opacity="0.7" d="M653.85 651.007H659.189V778.098H653.85V651.007Z" fill="#E6E6E6"/>
</g>
<path d="M618.885 778.099H726.019L618.885 684.634V778.099Z" fill="#333333"/>
<path d="M628.014 761.544H664.873V782.237H628.014V761.544Z" fill="#4D4D4D"/>
<path d="M630.77 756.716H662.118V766.373H630.77V756.716Z" fill="#4D4D4D"/>
<path d="M634.387 759.647H658.673L650.233 745.507H642.827L634.387 759.647Z" fill="#4D4D4D"/>
<path d="M637.832 765.683H655.056V778.271H637.832V765.683Z" fill="white"/>
<path d="M635.765 770.684H657.123V773.27H635.765V770.684Z" fill="#4D4D4D"/>
<path d="M463.524 795.515C463.007 808.966 473.342 820.52 486.949 821.037C500.384 821.554 511.924 811.035 512.44 797.585C512.957 784.134 502.623 772.58 489.016 772.063C475.581 771.546 464.213 782.065 463.524 795.515Z" fill="#333333"/>
<path d="M467.658 788.79C467.313 796.55 473.342 803.103 481.093 803.448C488.843 803.793 495.389 797.757 495.733 789.997C496.077 782.237 490.049 775.684 482.298 775.339C474.547 774.994 468.002 781.03 467.658 788.79Z" fill="#4D4D4D"/>
<path d="M709.484 770.166C709.484 773.443 712.239 776.202 715.512 776.202C718.785 776.202 721.54 773.443 721.54 770.166C721.54 766.89 718.785 764.131 715.512 764.131C712.239 764.131 709.484 766.717 709.484 770.166Z" fill="#333333"/>
<path d="M707.417 776.202C707.417 780.685 711.034 784.307 715.512 784.307C719.99 784.307 723.607 780.685 723.607 776.202C723.607 771.718 719.99 768.097 715.512 768.097C711.034 768.097 707.417 771.718 707.417 776.202Z" fill="#333333"/>
<path d="M711.551 764.993C711.551 767.235 713.273 769.132 715.512 769.132C717.751 769.132 719.474 767.235 719.474 764.993C719.474 762.751 717.751 760.854 715.512 760.854C713.273 760.854 711.551 762.751 711.551 764.993Z" fill="#333333"/>
<path d="M710.345 770.166C710.345 772.063 711.895 773.615 713.79 773.615C715.684 773.615 717.234 772.063 717.234 770.166C717.234 768.269 715.684 766.717 713.79 766.717C711.895 766.717 710.345 768.269 710.345 770.166Z" fill="#4D4D4D"/>
<path d="M712.067 765.51C712.067 766.89 713.273 768.097 714.651 768.097C716.029 768.097 717.234 766.89 717.234 765.51C717.234 764.131 716.029 762.923 714.651 762.923C713.273 762.751 712.067 763.958 712.067 765.51Z" fill="#4D4D4D"/>
<path d="M594.599 782.754C594.599 787.066 598.216 790.687 602.522 790.687C606.828 790.687 610.445 787.066 610.445 782.754C610.445 778.443 607 774.822 602.522 774.822C598.216 774.822 594.599 778.443 594.599 782.754Z" fill="#333333"/>
<path d="M597.355 776.029C597.355 778.961 599.594 781.375 602.522 781.375C605.45 781.375 607.689 778.961 607.689 776.029C607.689 773.098 605.45 770.683 602.522 770.683C599.766 770.683 597.355 773.098 597.355 776.029Z" fill="#333333"/>
<path d="M598.044 776.546C598.044 778.443 599.594 779.995 601.489 779.995C603.383 779.995 604.934 778.443 604.934 776.546C604.934 774.649 603.383 773.097 601.489 773.097C599.594 773.097 598.044 774.649 598.044 776.546Z" fill="#4D4D4D"/>
<path d="M605.278 788.618C606.139 796.895 613.546 802.758 621.641 801.896C629.909 801.034 635.765 793.619 634.904 785.514C634.042 777.236 626.636 771.373 618.541 772.236C610.445 773.098 604.417 780.34 605.278 788.618Z" fill="#333333"/>
<path d="M609.067 775.34C609.584 780.858 614.407 784.997 619.919 784.479C625.258 783.962 629.22 778.961 628.703 773.443C628.186 767.925 623.363 763.786 617.852 764.303C612.34 764.821 608.551 769.821 609.067 775.34Z" fill="#333333"/>
<path d="M610.445 776.374C610.79 779.996 614.062 782.582 617.507 782.237C621.124 781.892 623.708 778.616 623.363 775.167C623.019 771.546 619.746 768.959 616.302 769.304C612.684 769.649 610.101 772.925 610.445 776.374Z" fill="#4D4D4D"/>
<path d="M527.253 781.375C527.253 788.963 533.282 794.998 540.86 794.998C548.439 794.998 554.467 788.963 554.467 781.375C554.467 773.787 548.439 767.752 540.86 767.752C533.454 767.752 527.253 773.787 527.253 781.375Z" fill="#333333"/>
<path d="M532.076 769.649C532.076 774.822 536.038 778.961 541.033 778.961C546.027 778.961 549.989 774.822 549.989 769.649C549.989 764.475 546.027 760.337 541.033 760.337C536.038 760.509 532.076 764.648 532.076 769.649Z" fill="#333333"/>
<path d="M529.32 781.375C529.32 785.686 532.765 789.307 537.243 789.307C541.549 789.307 545.166 785.859 545.166 781.375C545.166 777.064 541.721 773.443 537.243 773.443C532.937 773.615 529.32 777.064 529.32 781.375Z" fill="#4D4D4D"/>
<path d="M533.282 770.856C533.282 774.132 535.865 776.891 539.31 776.891C542.583 776.891 545.338 774.305 545.338 770.856C545.338 767.579 542.755 764.993 539.31 764.993C535.865 764.82 533.282 767.579 533.282 770.856Z" fill="#4D4D4D"/>
<path d="M557.395 792.756C557.395 802.413 565.318 810.345 574.964 810.345C584.609 810.345 592.532 802.413 592.532 792.756C592.532 783.099 584.609 775.167 574.964 775.167C565.318 775.167 557.395 782.927 557.395 792.756Z" fill="#333333"/>
<path d="M563.424 777.581C563.424 784.134 568.591 789.48 574.964 789.48C581.337 789.48 586.504 784.134 586.504 777.581C586.504 771.028 581.337 765.682 574.964 765.682C568.591 765.682 563.424 771.028 563.424 777.581Z" fill="#333333"/>
<path d="M564.974 779.133C564.974 783.444 568.419 786.721 572.725 786.721C577.031 786.721 580.476 783.272 580.476 779.133C580.476 774.822 577.031 771.373 572.725 771.373C568.419 771.373 564.974 774.822 564.974 779.133Z" fill="#4D4D4D"/>
<path d="M514.852 779.65C514.852 781.72 516.402 783.272 518.297 783.272C520.191 783.272 521.742 781.72 521.742 779.65C521.742 777.581 520.191 776.029 518.297 776.029C516.402 776.029 514.852 777.581 514.852 779.65Z" fill="#333333"/>
<path d="M440.788 775.34C440.788 782.065 446.128 787.411 452.845 787.411C459.563 787.411 464.902 782.065 464.902 775.34C464.902 768.614 459.563 763.268 452.845 763.268C446.128 763.268 440.788 768.614 440.788 775.34Z" fill="#333333"/>
<path d="M436.655 787.411C436.655 796.378 443.889 803.621 452.845 803.621C461.802 803.621 469.036 796.378 469.036 787.411C469.036 778.444 461.802 771.201 452.845 771.201C443.889 771.201 436.655 778.444 436.655 787.411Z" fill="#333333"/>
<path d="M444.922 764.993C444.922 769.477 448.539 773.27 452.845 773.27C457.151 773.27 460.768 769.649 460.768 764.993C460.768 760.509 457.151 756.716 452.845 756.716C448.539 756.716 444.922 760.509 444.922 764.993Z" fill="#333333"/>
<path d="M442.683 775.34C442.683 779.133 445.783 782.237 449.573 782.237C453.362 782.237 456.462 779.133 456.462 775.34C456.462 771.546 453.362 768.442 449.573 768.442C445.783 768.442 442.683 771.546 442.683 775.34Z" fill="#4D4D4D"/>
<path d="M445.956 766.028C445.956 768.959 448.367 771.373 451.295 771.373C454.223 771.373 456.635 768.959 456.635 766.028C456.635 763.096 454.223 760.682 451.295 760.682C448.367 760.682 445.956 763.096 445.956 766.028Z" fill="#4D4D4D"/>
<path d="M395.834 790.515C395.834 799.482 403.068 806.724 412.024 806.724C420.981 806.724 428.215 799.482 428.215 790.515C428.215 781.548 420.981 774.305 412.024 774.305C403.068 774.477 395.834 781.72 395.834 790.515Z" fill="#333333"/>
<path d="M401.518 776.719C401.518 782.755 406.34 787.756 412.024 787.756C417.881 787.756 422.703 782.927 422.703 776.719C422.703 770.684 417.881 765.855 412.024 765.855C406.168 765.855 401.518 770.684 401.518 776.719Z" fill="#333333"/>
<path d="M402.895 778.099C402.895 782.065 405.996 785.169 409.957 785.169C413.919 785.169 417.019 782.065 417.019 778.099C417.019 774.133 413.919 771.029 409.957 771.029C405.996 771.029 402.895 774.133 402.895 778.099Z" fill="#4D4D4D"/>
<path d="M132.306 797.068C132.306 811.898 144.19 823.797 159.003 823.797C173.816 823.797 185.7 811.898 185.7 797.068C185.7 782.237 173.816 770.339 159.003 770.339C144.19 770.339 132.306 782.41 132.306 797.068Z" fill="#333333"/>
<path d="M136.267 789.653C136.267 798.102 143.157 805 151.597 805C160.036 805 166.926 798.102 166.926 789.653C166.926 781.203 160.036 774.305 151.597 774.305C143.157 774.305 136.267 781.203 136.267 789.653Z" fill="#4D4D4D"/>
<path d="M98.0299 785.514C98.0299 797.93 108.192 808.104 120.593 808.104C132.995 808.104 143.157 797.93 143.157 785.514C143.157 773.098 132.995 762.924 120.593 762.924C108.02 762.924 98.0299 772.925 98.0299 785.514Z" fill="#333333"/>
<path d="M101.475 779.133C101.475 786.376 107.331 792.067 114.393 792.067C121.627 792.067 127.311 786.204 127.311 779.133C127.311 772.063 121.455 766.2 114.393 766.2C107.331 766.2 101.475 772.063 101.475 779.133Z" fill="#4D4D4D"/>
<path d="M155.558 789.135C155.558 801.551 165.72 811.725 178.122 811.725C190.523 811.725 200.685 801.551 200.685 789.135C200.685 776.719 190.523 766.545 178.122 766.545C165.548 766.545 155.558 776.546 155.558 789.135Z" fill="#333333"/>
<path d="M159.003 782.755C159.003 789.997 164.859 795.688 171.921 795.688C178.983 795.688 184.839 789.825 184.839 782.755C184.839 775.512 178.983 769.821 171.921 769.821C164.859 769.821 159.003 775.512 159.003 782.755Z" fill="#4D4D4D"/>
<path d="M225.143 794.309C225.143 806.725 235.305 816.899 247.707 816.899C260.108 816.899 270.27 806.725 270.27 794.309C270.27 781.893 260.108 771.719 247.707 771.719C235.133 771.719 225.143 781.893 225.143 794.309Z" fill="#333333"/>
<path d="M228.588 787.928C228.588 795.171 234.444 800.862 241.506 800.862C248.74 800.862 254.424 794.999 254.424 787.928C254.424 780.686 248.568 774.995 241.506 774.995C234.444 774.995 228.588 780.858 228.588 787.928Z" fill="#4D4D4D"/>
<path d="M252.357 790.515C252.357 802.931 262.52 813.105 274.921 813.105C287.322 813.105 297.484 802.931 297.484 790.515C297.484 778.099 287.322 767.925 274.921 767.925C262.52 767.925 252.357 777.926 252.357 790.515Z" fill="#333333"/>
<path d="M255.802 784.134C255.802 791.377 261.658 797.068 268.72 797.068C275.954 797.068 281.638 791.205 281.638 784.134C281.638 776.892 275.782 771.201 268.72 771.201C261.658 771.201 255.802 776.892 255.802 784.134Z" fill="#4D4D4D"/>
<path d="M234.789 786.893C234.789 794.136 240.645 799.826 247.707 799.826C254.941 799.826 260.625 793.963 260.625 786.893C260.625 779.65 254.769 773.96 247.707 773.96C240.473 773.96 234.789 779.823 234.789 786.893Z" fill="#4D4D4D"/>
<path d="M331.071 787.928C331.071 796.033 337.616 802.758 345.884 802.758C353.979 802.758 360.697 796.205 360.697 787.928C360.697 779.823 354.151 773.097 345.884 773.097C337.616 773.27 331.071 779.823 331.071 787.928Z" fill="#333333"/>
<path d="M333.31 783.789C333.31 788.445 337.1 792.239 341.75 792.239C346.401 792.239 350.19 788.445 350.19 783.789C350.19 779.133 346.401 775.339 341.75 775.339C337.1 775.339 333.31 779.133 333.31 783.789Z" fill="#4D4D4D"/>
<path d="M718.096 776.202C718.096 783.099 723.607 788.618 730.497 788.618C737.387 788.618 742.898 783.099 742.898 776.202C742.898 769.304 737.387 763.786 730.497 763.786C723.78 763.613 718.096 769.304 718.096 776.202Z" fill="#333333"/>
<path d="M713.962 788.618C713.962 797.93 721.368 805.345 730.669 805.345C739.97 805.345 747.377 797.93 747.377 788.618C747.377 779.306 739.97 771.891 730.669 771.891C721.368 771.891 713.962 779.306 713.962 788.618Z" fill="#333333"/>
<path d="M722.402 765.51C722.402 770.166 726.019 773.96 730.669 773.96C735.148 773.96 738.937 770.166 738.937 765.51C738.937 760.854 735.32 757.06 730.669 757.06C726.019 757.06 722.402 760.854 722.402 765.51Z" fill="#333333"/>
<path d="M719.99 776.201C719.99 780.168 723.263 783.444 727.225 783.444C731.186 783.444 734.459 780.168 734.459 776.201C734.459 772.235 731.186 768.959 727.225 768.959C723.263 768.959 719.99 772.235 719.99 776.201Z" fill="#4D4D4D"/>
<path d="M723.435 766.545C723.435 769.476 725.847 772.063 728.947 772.063C731.875 772.063 734.459 769.649 734.459 766.545C734.459 763.613 732.047 761.027 728.947 761.027C726.019 761.027 723.435 763.441 723.435 766.545Z" fill="#4D4D4D"/>
<path d="M659.362 781.03C659.362 786.549 663.84 791.032 669.352 791.032C674.863 791.032 679.342 786.549 679.342 781.03C679.342 775.512 674.863 771.029 669.352 771.029C663.84 771.029 659.362 775.512 659.362 781.03Z" fill="#333333"/>
<path d="M662.806 772.408C662.806 776.202 665.735 779.306 669.352 779.306C672.969 779.306 675.897 776.202 675.897 772.408C675.897 768.614 672.969 765.51 669.352 765.51C665.735 765.683 662.806 768.614 662.806 772.408Z" fill="#333333"/>
<path d="M660.912 781.03C660.912 784.307 663.496 786.893 666.768 786.893C670.041 786.893 672.624 784.307 672.624 781.03C672.624 777.926 670.041 775.34 666.768 775.34C663.496 775.167 660.912 777.754 660.912 781.03Z" fill="#4D4D4D"/>
<path d="M663.668 773.27C663.668 775.685 665.562 777.581 667.974 777.581C670.385 777.581 672.28 775.685 672.28 773.27C672.28 770.856 670.385 768.959 667.974 768.959C665.562 768.787 663.668 770.856 663.668 773.27Z" fill="#4D4D4D"/>
</g>
<defs>
<clipPath id="clip0_1_11586">
<rect width="1123.87" height="776" fill="white" transform="matrix(-1 0 0 1 1123.89 0.321777)"/>
</clipPath>
</defs>
</svg>
