<svg width="727" height="777" viewBox="0 0 727 777" fill="none" xmlns="http://www.w3.org/2000/svg">
<g opacity="0.05" clip-path="url(#clip0_1_12798)">
<path d="M256.414 646.696H199.574V779.996H256.414V646.696Z" fill="#333333"/>
<path d="M225.411 639.971H199.574V647.559H225.411V639.971Z" fill="#333333"/>
<path d="M214.559 635.66H199.574V639.971H214.559V635.66Z" fill="#333333"/>
<path opacity="0.06" d="M232.645 656.008H223.344V662.906H232.645V656.008Z" fill="white"/>
<path opacity="0.12" d="M232.645 673.08H223.344V679.978H232.645V673.08Z" fill="white"/>
<path opacity="0.19" d="M232.645 707.224H223.344V714.122H232.645V707.224Z" fill="white"/>
<path opacity="0.14" d="M232.645 741.368H223.344V748.266H232.645V741.368Z" fill="white"/>
<path opacity="0.1" d="M232.645 758.44H223.344V765.338H232.645V758.44Z" fill="white"/>
<path d="M113.799 661.181H35.9459V732.573H113.799V661.181Z" fill="#333333"/>
<path d="M101.57 654.801H48.3473V685.496H101.57V654.801Z" fill="#333333"/>
<path d="M119.483 706.189H41.6299V777.581H119.483V706.189Z" fill="#333333"/>
<path d="M107.081 699.808H53.8589V730.503H107.081V699.808Z" fill="#333333"/>
<path d="M223.171 696.704H145.319V778.961H223.171V696.704Z" fill="#333333"/>
<path d="M210.942 689.462H157.72V724.985H210.942V689.462Z" fill="#333333"/>
<path d="M483.771 721.71H405.919V801.206H483.771V721.71Z" fill="#333333"/>
<path d="M471.542 714.639H418.32V748.956H471.542V714.639Z" fill="#333333"/>
<path d="M314.976 557.542H227.994V778.789H314.976V557.542Z" fill="#333333"/>
<path opacity="0.46" d="M253.314 567.544H232.3V571.511H253.314V567.544Z" fill="#E6E6E6"/>
<path opacity="0.34" d="M282.078 567.544H261.064V571.511H282.078V567.544Z" fill="#E6E6E6"/>
<path opacity="0.52" d="M310.67 567.544H289.656V571.511H310.67V567.544Z" fill="#E6E6E6"/>
<path opacity="0.54" d="M253.314 576.684H232.3V580.65H253.314V576.684Z" fill="#E6E6E6"/>
<path opacity="0.3" d="M282.078 576.684H261.064V580.65H282.078V576.684Z" fill="#E6E6E6"/>
<path opacity="0.06" d="M310.67 576.684H289.656V580.65H310.67V576.684Z" fill="#E6E6E6"/>
<path opacity="0.15" d="M253.314 585.823H232.3V589.79H253.314V585.823Z" fill="#E6E6E6"/>
<path opacity="0.42" d="M282.078 585.823H261.064V589.79H282.078V585.823Z" fill="#E6E6E6"/>
<path opacity="0.48" d="M310.67 585.823H289.656V589.79H310.67V585.823Z" fill="#E6E6E6"/>
<path opacity="0.18" d="M253.314 594.963H232.3V598.929H253.314V594.963Z" fill="#E6E6E6"/>
<path opacity="0.28" d="M310.67 594.963H289.656V598.929H310.67V594.963Z" fill="#E6E6E6"/>
<path opacity="0.29" d="M253.314 604.102H232.3V608.069H253.314V604.102Z" fill="#E6E6E6"/>
<path opacity="0.28" d="M282.078 604.102H261.064V608.069H282.078V604.102Z" fill="#E6E6E6"/>
<path opacity="0.56" d="M310.67 604.102H289.656V608.069H310.67V604.102Z" fill="#E6E6E6"/>
<path opacity="0.41" d="M253.314 613.242H232.3V617.208H253.314V613.242Z" fill="#E6E6E6"/>
<path opacity="0.16" d="M282.078 613.242H261.064V617.208H282.078V613.242Z" fill="#E6E6E6"/>
<path opacity="0.4" d="M310.67 613.242H289.656V617.208H310.67V613.242Z" fill="#E6E6E6"/>
<path opacity="0.1" d="M253.314 622.382H232.3V626.348H253.314V622.382Z" fill="#E6E6E6"/>
<path opacity="0.17" d="M282.078 622.382H261.064V626.348H282.078V622.382Z" fill="#E6E6E6"/>
<path opacity="0.08" d="M310.67 622.382H289.656V626.348H310.67V622.382Z" fill="#E6E6E6"/>
<path opacity="0.49" d="M253.314 631.521H232.3V635.487H253.314V631.521Z" fill="#E6E6E6"/>
<path opacity="0.58" d="M282.078 631.521H261.064V635.487H282.078V631.521Z" fill="#E6E6E6"/>
<path opacity="0.58" d="M310.67 631.521H289.656V635.487H310.67V631.521Z" fill="#E6E6E6"/>
<path opacity="0.26" d="M253.314 640.661H232.3V644.627H253.314V640.661Z" fill="#E6E6E6"/>
<path opacity="0.37" d="M282.078 640.661H261.064V644.627H282.078V640.661Z" fill="#E6E6E6"/>
<path opacity="0.34" d="M310.67 640.661H289.656V644.627H310.67V640.661Z" fill="#E6E6E6"/>
<path opacity="0.55" d="M253.314 649.8H232.3V653.766H253.314V649.8Z" fill="#E6E6E6"/>
<path opacity="0.12" d="M282.078 649.8H261.064V653.766H282.078V649.8Z" fill="#E6E6E6"/>
<path opacity="0.6" d="M310.67 649.8H289.656V653.766H310.67V649.8Z" fill="#E6E6E6"/>
<path opacity="0.02" d="M253.314 658.94H232.3V662.906H253.314V658.94Z" fill="#E6E6E6"/>
<path opacity="0.28" d="M282.078 658.94H261.064V662.906H282.078V658.94Z" fill="#E6E6E6"/>
<path opacity="0.21" d="M310.67 658.94H289.656V662.906H310.67V658.94Z" fill="#E6E6E6"/>
<path opacity="0.57" d="M253.314 668.079H232.3V672.046H253.314V668.079Z" fill="#E6E6E6"/>
<path opacity="0.38" d="M282.078 668.079H261.064V672.046H282.078V668.079Z" fill="#E6E6E6"/>
<path opacity="0.25" d="M310.67 668.079H289.656V672.046H310.67V668.079Z" fill="#E6E6E6"/>
<path opacity="0.15" d="M253.314 677.219H232.3V681.185H253.314V677.219Z" fill="#E6E6E6"/>
<path opacity="0.47" d="M282.078 677.219H261.064V681.185H282.078V677.219Z" fill="#E6E6E6"/>
<path opacity="0.3" d="M310.67 677.219H289.656V681.185H310.67V677.219Z" fill="#E6E6E6"/>
<path opacity="0.4" d="M253.314 686.358H232.3V690.325H253.314V686.358Z" fill="#E6E6E6"/>
<path opacity="0.39" d="M282.078 686.358H261.064V690.325H282.078V686.358Z" fill="#E6E6E6"/>
<path opacity="0.24" d="M310.67 686.358H289.656V690.325H310.67V686.358Z" fill="#E6E6E6"/>
<path opacity="0.46" d="M253.314 695.498H232.3V699.464H253.314V695.498Z" fill="#E6E6E6"/>
<path opacity="0.22" d="M282.078 695.498H261.064V699.464H282.078V695.498Z" fill="#E6E6E6"/>
<path opacity="0.11" d="M310.67 695.498H289.656V699.464H310.67V695.498Z" fill="#E6E6E6"/>
<path opacity="0.11" d="M282.078 704.638H261.064V708.604H282.078V704.638Z" fill="#E6E6E6"/>
<path opacity="0.02" d="M310.67 704.638H289.656V708.604H310.67V704.638Z" fill="#E6E6E6"/>
<path opacity="0.27" d="M253.314 713.777H232.3V717.744H253.314V713.777Z" fill="#E6E6E6"/>
<path opacity="0.21" d="M282.078 713.777H261.064V717.744H282.078V713.777Z" fill="#E6E6E6"/>
<path opacity="0.49" d="M310.67 713.777H289.656V717.744H310.67V713.777Z" fill="#E6E6E6"/>
<path opacity="0.6" d="M253.314 722.917H232.3V726.883H253.314V722.917Z" fill="#E6E6E6"/>
<path opacity="0.31" d="M282.078 722.917H261.064V726.883H282.078V722.917Z" fill="#E6E6E6"/>
<path opacity="0.22" d="M310.67 722.917H289.656V726.883H310.67V722.917Z" fill="#E6E6E6"/>
<path opacity="0.54" d="M253.314 732.056H232.3V736.023H253.314V732.056Z" fill="#E6E6E6"/>
<path opacity="0.6" d="M282.078 732.056H261.064V736.023H282.078V732.056Z" fill="#E6E6E6"/>
<path opacity="0.08" d="M310.67 732.056H289.656V736.023H310.67V732.056Z" fill="#E6E6E6"/>
<path opacity="0.55" d="M282.078 741.196H261.064V745.162H282.078V741.196Z" fill="#E6E6E6"/>
<path d="M310.67 741.196H289.656V745.162H310.67V741.196Z" fill="#E6E6E6"/>
<path opacity="0.6" d="M254.691 567.544H253.314V745.162H254.691V567.544Z" fill="#E6E6E6"/>
<path opacity="0.6" d="M289.656 567.544H288.278V745.162H289.656V567.544Z" fill="#E6E6E6"/>
<path d="M358.38 557.542H314.976V778.789H358.38V557.542Z" fill="#4D4D4D"/>
<path opacity="0.69" d="M352.007 567.544H319.282V571.511H352.007V567.544Z" fill="#E6E6E6"/>
<path opacity="0.79" d="M352.007 576.684H319.282V580.65H352.007V576.684Z" fill="#E6E6E6"/>
<path opacity="0.19" d="M352.007 585.823H319.282V589.79H352.007V585.823Z" fill="#E6E6E6"/>
<path opacity="0.88" d="M352.007 594.963H319.282V598.929H352.007V594.963Z" fill="#E6E6E6"/>
<path opacity="0.5" d="M352.007 604.102H319.282V608.069H352.007V604.102Z" fill="#E6E6E6"/>
<path opacity="0.25" d="M352.007 613.242H319.282V617.208H352.007V613.242Z" fill="#E6E6E6"/>
<path opacity="0.91" d="M352.007 622.382H319.282V626.348H352.007V622.382Z" fill="#E6E6E6"/>
<path opacity="0.02" d="M352.007 631.521H319.282V635.487H352.007V631.521Z" fill="#E6E6E6"/>
<path opacity="0.53" d="M352.007 640.661H319.282V644.627H352.007V640.661Z" fill="#E6E6E6"/>
<path opacity="0.65" d="M352.007 649.8H319.282V653.766H352.007V649.8Z" fill="#E6E6E6"/>
<path d="M352.007 658.94H319.282V662.906H352.007V658.94Z" fill="#E6E6E6"/>
<path opacity="0.8" d="M352.007 668.079H319.282V672.046H352.007V668.079Z" fill="#E6E6E6"/>
<path opacity="0.82" d="M352.007 677.219H319.282V681.185H352.007V677.219Z" fill="#E6E6E6"/>
<path opacity="0.75" d="M352.007 686.358H319.282V690.325H352.007V686.358Z" fill="#E6E6E6"/>
<path opacity="0.31" d="M352.007 695.498H319.282V699.464H352.007V695.498Z" fill="#E6E6E6"/>
<path opacity="0.22" d="M352.007 704.638H319.282V708.604H352.007V704.638Z" fill="#E6E6E6"/>
<path opacity="0.43" d="M352.007 713.777H319.282V717.744H352.007V713.777Z" fill="#E6E6E6"/>
<path opacity="0.68" d="M352.007 722.917H319.282V726.883H352.007V722.917Z" fill="#E6E6E6"/>
<path opacity="0.38" d="M352.007 732.056H319.282V736.023H352.007V732.056Z" fill="#E6E6E6"/>
<path opacity="0.84" d="M352.007 741.196H319.282V745.162H352.007V741.196Z" fill="#E6E6E6"/>
<path d="M243.324 545.816V557.542H299.646V545.816H243.324ZM255.897 553.749H250.041V549.782H255.897V553.749ZM265.026 553.749H259.342V549.782H265.026V553.749ZM274.327 553.749H268.643V549.782H274.327V553.749ZM283.628 553.749H277.772V549.782H283.628V553.749ZM292.929 553.749H287.073V549.782H292.929V553.749Z" fill="#333333"/>
<path d="M309.981 549.782H308.43V553.749H309.981V549.782Z" fill="#333333"/>
<path d="M299.646 545.816V557.542H326.171V545.816H299.646ZM309.981 553.749H304.297V549.782H309.981V553.749ZM322.21 553.749H316.526V549.782H322.21V553.749Z" fill="#4D4D4D"/>
<path d="M322.038 549.782H320.487V553.749H322.038V549.782Z" fill="#333333"/>
<path d="M326.516 793.79H209.392L326.516 707.223V793.79Z" fill="#333333"/>
<path d="M151.864 510.637H142.391V546.678H151.864V510.637Z" fill="#4D4D4D"/>
<path d="M142.563 510.637H132.918V546.678H142.563V510.637Z" fill="#333333"/>
<path d="M161.682 510.637H152.036V546.678H161.682V510.637Z" fill="#666666"/>
<path d="M189.585 571.338H162.715V776.892H189.585V571.338Z" fill="#666666"/>
<path d="M131.195 571.338H107.77V776.892H131.195V571.338Z" fill="#333333"/>
<path d="M162.715 571.338H131.023V776.892H162.715V571.338Z" fill="#4D4D4D"/>
<path opacity="0.6" d="M114.488 577.373H111.043V774.132H114.488V577.373Z" fill="#E6E6E6"/>
<path opacity="0.6" d="M121.205 577.373H117.76V774.132H121.205V577.373Z" fill="#E6E6E6"/>
<path opacity="0.6" d="M127.923 577.373H124.478V774.132H127.923V577.373Z" fill="#E6E6E6"/>
<path d="M168.055 577.373H164.61V774.132H168.055V577.373Z" fill="#E6E6E6"/>
<path d="M174.772 577.373H171.327V774.132H174.772V577.373Z" fill="#E6E6E6"/>
<path d="M187.862 577.373H184.417V774.132H187.862V577.373Z" fill="#E6E6E6"/>
<path d="M181.489 577.373H178.045V774.132H181.489V577.373Z" fill="#E6E6E6"/>
<path opacity="0.8" d="M134.984 774.132H158.754V577.373H134.984V774.132ZM138.774 580.822H154.964V770.684H138.774V580.822Z" fill="#E6E6E6"/>
<path opacity="0.8" d="M141.874 767.407H152.036V583.926H141.874V767.407ZM145.319 588.237H146.525H147.213H148.591V763.096H147.213H146.525H145.319V588.237Z" fill="#E6E6E6"/>
<path opacity="0.8" d="M147.213 588.237H146.524V763.096H147.213V588.237Z" fill="#E6E6E6"/>
<path d="M159.098 535.297H135.329V571.338H159.098V535.297Z" fill="#4D4D4D"/>
<path d="M159.098 535.297H135.329V571.338H159.098V535.297Z" fill="#4D4D4D"/>
<path d="M182.867 535.297H159.098V571.338H182.867V535.297Z" fill="#666666"/>
<path d="M135.329 535.297H111.56V571.338H135.329V535.297Z" fill="#333333"/>
<path d="M161.51 510.637H132.918L142.391 517.19H152.036L161.51 510.637Z" fill="#808080"/>
<path d="M672.547 497.359H658.768V537.884H672.547V497.359Z" fill="#4D4D4D"/>
<path d="M658.595 497.359H644.816V537.884H658.595V497.359Z" fill="#333333"/>
<path d="M686.326 497.359H672.547V537.884H686.326V497.359Z" fill="#666666"/>
<path d="M726.975 565.82H688.049V797.413H726.975V565.82Z" fill="#666666"/>
<path d="M642.233 565.82H608.474V797.413H642.233V565.82Z" fill="#333333"/>
<path d="M688.049 565.82H642.233V797.413H688.049V565.82Z" fill="#4D4D4D"/>
<path opacity="0.4" d="M618.119 572.717H613.124V794.308H618.119V572.717Z" fill="#E6E6E6"/>
<path opacity="0.4" d="M627.937 572.717H622.942V794.308H627.937V572.717Z" fill="#E6E6E6"/>
<path opacity="0.4" d="M637.755 572.717H632.759V794.308H637.755V572.717Z" fill="#E6E6E6"/>
<path d="M695.799 572.717H690.804V794.308H695.799V572.717Z" fill="#E6E6E6"/>
<path d="M705.617 572.717H700.622V794.308H705.617V572.717Z" fill="#E6E6E6"/>
<path d="M724.391 572.717H719.396V794.308H724.391V572.717Z" fill="#E6E6E6"/>
<path d="M715.263 572.717H710.268V794.308H715.263V572.717Z" fill="#E6E6E6"/>
<path d="M648.089 794.308H682.537V572.717H648.089V794.308ZM653.428 576.511H676.853V790.514H653.428V576.511Z" fill="#E6E6E6"/>
<path d="M657.734 786.893H672.547V580.133H657.734V786.893ZM662.901 584.961H664.796H665.657H667.552V782.065H665.657H664.796H662.901V584.961Z" fill="#E6E6E6"/>
<path d="M665.657 584.961H664.796V782.065H665.657V584.961Z" fill="#E6E6E6"/>
<path d="M682.881 525.295H648.433V565.82H682.881V525.295Z" fill="#4D4D4D"/>
<path d="M682.881 525.295H648.433V565.82H682.881V525.295Z" fill="#4D4D4D"/>
<path d="M717.329 525.295H682.882V565.82H717.329V525.295Z" fill="#666666"/>
<path d="M648.606 525.295H614.157V565.82H648.606V525.295Z" fill="#333333"/>
<path d="M686.498 497.359H644.816L658.768 504.774H672.547L686.498 497.359Z" fill="#808080"/>
<path d="M573.164 597.894H478.949V629.278H573.164V597.894Z" fill="#E6E6E6"/>
<path d="M515.98 597.894H478.949V629.278H515.98V597.894Z" fill="#B3B3B3"/>
<path d="M515.98 629.451H442.778V781.892H515.98V629.451Z" fill="#333333"/>
<path d="M630.348 629.451H515.98V781.892H630.348V629.451Z" fill="#4D4D4D"/>
<path d="M507.024 613.931H450.701V629.451H507.024V613.931Z" fill="#333333"/>
<path d="M613.296 613.931H532.86V629.451H613.296V613.931Z" fill="#4D4D4D"/>
<path d="M548.189 585.995H515.98V597.893H548.189V585.995Z" fill="#E6E6E6"/>
<path d="M531.999 573.924H515.98V585.823H531.999V573.924Z" fill="#4D4D4D"/>
<path d="M515.808 573.924H499.79V585.823H515.808V573.924Z" fill="#333333"/>
<path d="M515.98 585.995H491.35V597.893H515.98V585.995Z" fill="#B3B3B3"/>
<path d="M514.947 573.924L515.98 546.333L516.841 573.924H514.947Z" fill="#333333"/>
<path opacity="0.12" d="M465.858 635.659H459.83V641.694H465.858V635.659Z" fill="white"/>
<path opacity="0.25" d="M474.126 635.659H468.097V641.694H474.126V635.659Z" fill="white"/>
<path opacity="0.36" d="M482.393 635.659H476.365V641.694H482.393V635.659Z" fill="white"/>
<path opacity="0.12" d="M490.661 635.659H484.633V641.694H490.661V635.659Z" fill="white"/>
<path opacity="0.14" d="M498.928 635.659H492.9V641.694H498.928V635.659Z" fill="white"/>
<path opacity="0.28" d="M465.858 643.591H459.83V649.627H465.858V643.591Z" fill="white"/>
<path opacity="0.4" d="M474.126 643.591H468.097V649.627H474.126V643.591Z" fill="white"/>
<path opacity="0.16" d="M482.393 643.591H476.365V649.627H482.393V643.591Z" fill="white"/>
<path opacity="0.17" d="M498.928 643.591H492.9V649.627H498.928V643.591Z" fill="white"/>
<path opacity="0.27" d="M465.858 651.524H459.83V657.559H465.858V651.524Z" fill="white"/>
<path opacity="0.45" d="M474.126 651.524H468.097V657.559H474.126V651.524Z" fill="white"/>
<path opacity="0.45" d="M482.393 651.524H476.365V657.559H482.393V651.524Z" fill="white"/>
<path opacity="0.48" d="M490.661 651.524H484.633V657.559H490.661V651.524Z" fill="white"/>
<path opacity="0.25" d="M498.928 651.524H492.9V657.559H498.928V651.524Z" fill="white"/>
<path opacity="0.28" d="M465.858 659.456H459.83V665.492H465.858V659.456Z" fill="white"/>
<path opacity="0.13" d="M474.126 659.456H468.097V665.492H474.126V659.456Z" fill="white"/>
<path opacity="0.07" d="M482.393 659.456H476.365V665.492H482.393V659.456Z" fill="white"/>
<path opacity="0.39" d="M490.661 659.456H484.633V665.492H490.661V659.456Z" fill="white"/>
<path opacity="0.47" d="M498.928 659.456H492.9V665.492H498.928V659.456Z" fill="white"/>
<path opacity="0.28" d="M465.858 667.388H459.83V673.424H465.858V667.388Z" fill="white"/>
<path opacity="0.2" d="M474.126 667.388H468.097V673.424H474.126V667.388Z" fill="white"/>
<path opacity="0.04" d="M482.393 667.388H476.365V673.424H482.393V667.388Z" fill="white"/>
<path opacity="0.43" d="M490.661 667.388H484.633V673.424H490.661V667.388Z" fill="white"/>
<path opacity="0.48" d="M498.928 667.388H492.9V673.424H498.928V667.388Z" fill="white"/>
<path opacity="0.28" d="M465.858 675.321H459.83V681.357H465.858V675.321Z" fill="white"/>
<path opacity="0.19" d="M474.126 675.321H468.097V681.357H474.126V675.321Z" fill="white"/>
<path opacity="0.01" d="M482.393 675.321H476.365V681.357H482.393V675.321Z" fill="white"/>
<path opacity="0.27" d="M490.661 675.321H484.633V681.357H490.661V675.321Z" fill="white"/>
<path opacity="0.24" d="M498.928 675.321H492.9V681.357H498.928V675.321Z" fill="white"/>
<path opacity="0.07" d="M465.858 683.426H459.83V689.461H465.858V683.426Z" fill="white"/>
<path opacity="0.25" d="M474.126 683.426H468.097V689.461H474.126V683.426Z" fill="white"/>
<path opacity="0.26" d="M482.393 683.426H476.365V689.461H482.393V683.426Z" fill="white"/>
<path opacity="0.39" d="M490.661 683.426H484.633V689.461H490.661V683.426Z" fill="white"/>
<path opacity="0.22" d="M498.928 683.426H492.9V689.461H498.928V683.426Z" fill="white"/>
<path opacity="0.15" d="M465.858 691.358H459.83V697.394H465.858V691.358Z" fill="white"/>
<path opacity="0.23" d="M474.126 691.358H468.097V697.394H474.126V691.358Z" fill="white"/>
<path opacity="0.05" d="M482.393 691.358H476.365V697.394H482.393V691.358Z" fill="white"/>
<path opacity="0.2" d="M490.661 691.358H484.633V697.394H490.661V691.358Z" fill="white"/>
<path opacity="0.31" d="M498.928 691.358H492.9V697.394H498.928V691.358Z" fill="white"/>
<path opacity="0.15" d="M465.858 699.291H459.83V705.326H465.858V699.291Z" fill="white"/>
<path opacity="0.33" d="M474.126 699.291H468.097V705.326H474.126V699.291Z" fill="white"/>
<path opacity="0.46" d="M482.393 699.291H476.365V705.326H482.393V699.291Z" fill="white"/>
<path opacity="0.25" d="M490.661 699.291H484.633V705.326H490.661V699.291Z" fill="white"/>
<path opacity="0.43" d="M498.928 699.291H492.9V705.326H498.928V699.291Z" fill="white"/>
<path opacity="0.4" d="M465.858 707.223H459.83V713.259H465.858V707.223Z" fill="white"/>
<path opacity="0.39" d="M474.126 707.223H468.097V713.259H474.126V707.223Z" fill="white"/>
<path opacity="0.01" d="M482.393 707.223H476.365V713.259H482.393V707.223Z" fill="white"/>
<path opacity="0.12" d="M490.661 707.223H484.633V713.259H490.661V707.223Z" fill="white"/>
<path opacity="0.07" d="M498.928 707.223H492.9V713.259H498.928V707.223Z" fill="white"/>
<path opacity="0.07" d="M465.858 715.156H459.83V721.191H465.858V715.156Z" fill="white"/>
<path opacity="0.02" d="M474.126 715.156H468.097V721.191H474.126V715.156Z" fill="white"/>
<path opacity="0.12" d="M482.393 715.156H476.365V721.191H482.393V715.156Z" fill="white"/>
<path opacity="0.23" d="M490.661 715.156H484.633V721.191H490.661V715.156Z" fill="white"/>
<path opacity="0.26" d="M498.928 715.156H492.9V721.191H498.928V715.156Z" fill="white"/>
<path opacity="0.27" d="M465.858 723.088H459.83V729.124H465.858V723.088Z" fill="white"/>
<path opacity="0.38" d="M474.126 723.088H468.097V729.124H474.126V723.088Z" fill="white"/>
<path opacity="0.05" d="M482.393 723.088H476.365V729.124H482.393V723.088Z" fill="white"/>
<path opacity="0.45" d="M490.661 723.088H484.633V729.124H490.661V723.088Z" fill="white"/>
<path opacity="0.15" d="M498.928 723.088H492.9V729.124H498.928V723.088Z" fill="white"/>
<path opacity="0.06" d="M465.858 731.021H459.83V737.056H465.858V731.021Z" fill="white"/>
<path opacity="0.47" d="M474.126 731.021H468.097V737.056H474.126V731.021Z" fill="white"/>
<path opacity="0.15" d="M482.393 731.021H476.365V737.056H482.393V731.021Z" fill="white"/>
<path opacity="0.44" d="M490.661 731.021H484.633V737.056H490.661V731.021Z" fill="white"/>
<path opacity="0.14" d="M498.928 731.021H492.9V737.056H498.928V731.021Z" fill="white"/>
<path opacity="0.15" d="M465.858 738.953H459.83V744.989H465.858V738.953Z" fill="white"/>
<path opacity="0.43" d="M474.126 738.953H468.097V744.989H474.126V738.953Z" fill="white"/>
<path opacity="0.07" d="M482.393 738.953H476.365V744.989H482.393V738.953Z" fill="white"/>
<path opacity="0.47" d="M490.661 738.953H484.633V744.989H490.661V738.953Z" fill="white"/>
<path opacity="0.11" d="M498.928 738.953H492.9V744.989H498.928V738.953Z" fill="white"/>
<path opacity="0.07" d="M465.858 746.885H459.83V752.921H465.858V746.885Z" fill="white"/>
<path opacity="0.34" d="M474.126 746.885H468.097V752.921H474.126V746.885Z" fill="white"/>
<path opacity="0.5" d="M482.393 746.885H476.365V752.921H482.393V746.885Z" fill="white"/>
<path opacity="0.36" d="M490.661 746.885H484.633V752.921H490.661V746.885Z" fill="white"/>
<path opacity="0.34" d="M498.928 746.885H492.9V752.921H498.928V746.885Z" fill="white"/>
<path opacity="0.47" d="M465.858 754.818H459.83V760.854H465.858V754.818Z" fill="white"/>
<path opacity="0.41" d="M474.126 754.818H468.097V760.854H474.126V754.818Z" fill="white"/>
<path opacity="0.3" d="M482.393 754.818H476.365V760.854H482.393V754.818Z" fill="white"/>
<path opacity="0.33" d="M490.661 754.818H484.633V760.854H490.661V754.818Z" fill="white"/>
<path opacity="0.12" d="M498.928 754.818H492.9V760.854H498.928V754.818Z" fill="white"/>
<path opacity="0.24" d="M465.858 762.75H459.83V768.786H465.858V762.75Z" fill="white"/>
<path opacity="0.29" d="M474.126 762.75H468.097V768.786H474.126V762.75Z" fill="white"/>
<path opacity="0.27" d="M490.661 762.75H484.633V768.786H490.661V762.75Z" fill="white"/>
<path opacity="0.04" d="M498.928 762.75H492.9V768.786H498.928V762.75Z" fill="white"/>
<path opacity="0.11" d="M465.858 770.683H459.83V776.718H465.858V770.683Z" fill="white"/>
<path opacity="0.05" d="M474.126 770.683H468.097V776.718H474.126V770.683Z" fill="white"/>
<path opacity="0.04" d="M482.393 770.683H476.365V776.718H482.393V770.683Z" fill="white"/>
<path opacity="0.02" d="M490.661 770.683H484.633V776.718H490.661V770.683Z" fill="white"/>
<path opacity="0.3" d="M535.96 635.659H529.932V641.694H535.96V635.659Z" fill="white"/>
<path opacity="0.72" d="M543.883 635.659H537.855V641.694H543.883V635.659Z" fill="white"/>
<path opacity="0.7" d="M551.979 635.659H545.95V641.694H551.979V635.659Z" fill="white"/>
<path opacity="0.52" d="M560.074 635.659H554.045V641.694H560.074V635.659Z" fill="white"/>
<path opacity="0.2" d="M568.169 635.659H562.141V641.694H568.169V635.659Z" fill="white"/>
<path opacity="0.32" d="M576.092 635.659H570.064V641.694H576.092V635.659Z" fill="white"/>
<path opacity="0.13" d="M584.187 635.659H578.159V641.694H584.187V635.659Z" fill="white"/>
<path opacity="0.38" d="M592.283 635.659H586.254V641.694H592.283V635.659Z" fill="white"/>
<path opacity="0.61" d="M600.206 635.659H594.177V641.694H600.206V635.659Z" fill="white"/>
<path d="M608.301 635.659H602.273V641.694H608.301V635.659Z" fill="white"/>
<path opacity="0.91" d="M616.396 635.659H610.368V641.694H616.396V635.659Z" fill="white"/>
<path opacity="0.66" d="M535.96 643.591H529.932V649.627H535.96V643.591Z" fill="white"/>
<path opacity="0.31" d="M543.883 643.591H537.855V649.627H543.883V643.591Z" fill="white"/>
<path opacity="0.95" d="M551.979 643.591H545.95V649.627H551.979V643.591Z" fill="white"/>
<path opacity="0.7" d="M560.074 643.591H554.045V649.627H560.074V643.591Z" fill="white"/>
<path opacity="0.12" d="M568.169 643.591H562.141V649.627H568.169V643.591Z" fill="white"/>
<path opacity="0.24" d="M576.092 643.591H570.064V649.627H576.092V643.591Z" fill="white"/>
<path opacity="0.66" d="M584.187 643.591H578.159V649.627H584.187V643.591Z" fill="white"/>
<path opacity="0.71" d="M592.283 643.591H586.254V649.627H592.283V643.591Z" fill="white"/>
<path opacity="0.42" d="M600.206 643.591H594.177V649.627H600.206V643.591Z" fill="white"/>
<path opacity="0.09" d="M608.301 643.591H602.273V649.627H608.301V643.591Z" fill="white"/>
<path opacity="0.32" d="M616.396 643.591H610.368V649.627H616.396V643.591Z" fill="white"/>
<path opacity="0.65" d="M535.96 651.524H529.932V657.559H535.96V651.524Z" fill="white"/>
<path d="M543.883 651.524H537.855V657.559H543.883V651.524Z" fill="white"/>
<path d="M551.979 651.524H545.95V657.559H551.979V651.524Z" fill="white"/>
<path opacity="0.71" d="M560.074 651.524H554.045V657.559H560.074V651.524Z" fill="white"/>
<path opacity="0.2" d="M568.169 651.524H562.141V657.559H568.169V651.524Z" fill="white"/>
<path opacity="0.19" d="M576.092 651.524H570.064V657.559H576.092V651.524Z" fill="white"/>
<path opacity="0.62" d="M584.187 651.524H578.159V657.559H584.187V651.524Z" fill="white"/>
<path opacity="0.93" d="M592.283 651.524H586.254V657.559H592.283V651.524Z" fill="white"/>
<path opacity="0.56" d="M600.206 651.524H594.177V657.559H600.206V651.524Z" fill="white"/>
<path opacity="0.57" d="M608.301 651.524H602.273V657.559H608.301V651.524Z" fill="white"/>
<path opacity="0.52" d="M616.396 651.524H610.368V657.559H616.396V651.524Z" fill="white"/>
<path opacity="0.74" d="M535.96 659.456H529.932V665.492H535.96V659.456Z" fill="white"/>
<path opacity="0.56" d="M543.883 659.456H537.855V665.492H543.883V659.456Z" fill="white"/>
<path opacity="0.78" d="M551.979 659.456H545.95V665.492H551.979V659.456Z" fill="white"/>
<path opacity="0.41" d="M560.074 659.456H554.045V665.492H560.074V659.456Z" fill="white"/>
<path opacity="0.14" d="M568.169 659.456H562.141V665.492H568.169V659.456Z" fill="white"/>
<path opacity="0.28" d="M576.092 659.456H570.064V665.492H576.092V659.456Z" fill="white"/>
<path opacity="0.36" d="M584.187 659.456H578.159V665.492H584.187V659.456Z" fill="white"/>
<path opacity="0.14" d="M592.283 659.456H586.254V665.492H592.283V659.456Z" fill="white"/>
<path opacity="0.5" d="M600.206 659.456H594.177V665.492H600.206V659.456Z" fill="white"/>
<path opacity="0.98" d="M608.301 659.456H602.273V665.492H608.301V659.456Z" fill="white"/>
<path opacity="0.59" d="M616.396 659.456H610.368V665.492H616.396V659.456Z" fill="white"/>
<path opacity="0.07" d="M535.96 667.388H529.932V673.424H535.96V667.388Z" fill="white"/>
<path opacity="0.1" d="M543.883 667.388H537.855V673.424H543.883V667.388Z" fill="white"/>
<path opacity="0.88" d="M551.979 667.388H545.95V673.424H551.979V667.388Z" fill="white"/>
<path opacity="0.68" d="M560.074 667.388H554.045V673.424H560.074V667.388Z" fill="white"/>
<path opacity="0.81" d="M568.169 667.388H562.141V673.424H568.169V667.388Z" fill="white"/>
<path opacity="0.62" d="M576.092 667.388H570.064V673.424H576.092V667.388Z" fill="white"/>
<path opacity="0.97" d="M584.187 667.388H578.159V673.424H584.187V667.388Z" fill="white"/>
<path opacity="0.81" d="M592.283 667.388H586.254V673.424H592.283V667.388Z" fill="white"/>
<path opacity="0.79" d="M600.206 667.388H594.177V673.424H600.206V667.388Z" fill="white"/>
<path opacity="0.03" d="M608.301 667.388H602.273V673.424H608.301V667.388Z" fill="white"/>
<path opacity="0.95" d="M616.396 667.388H610.368V673.424H616.396V667.388Z" fill="white"/>
<path opacity="0.62" d="M535.96 675.321H529.932V681.357H535.96V675.321Z" fill="white"/>
<path opacity="0.22" d="M543.883 675.321H537.855V681.357H543.883V675.321Z" fill="white"/>
<path opacity="0.42" d="M551.979 675.321H545.95V681.357H551.979V675.321Z" fill="white"/>
<path opacity="0.56" d="M560.074 675.321H554.045V681.357H560.074V675.321Z" fill="white"/>
<path opacity="0.03" d="M568.169 675.321H562.141V681.357H568.169V675.321Z" fill="white"/>
<path opacity="0.64" d="M576.092 675.321H570.064V681.357H576.092V675.321Z" fill="white"/>
<path opacity="0.82" d="M584.187 675.321H578.159V681.357H584.187V675.321Z" fill="white"/>
<path opacity="0.52" d="M592.283 675.321H586.254V681.357H592.283V675.321Z" fill="white"/>
<path opacity="0.46" d="M600.206 675.321H594.177V681.357H600.206V675.321Z" fill="white"/>
<path opacity="0.27" d="M608.301 675.321H602.273V681.357H608.301V675.321Z" fill="white"/>
<path opacity="0.46" d="M616.396 675.321H610.368V681.357H616.396V675.321Z" fill="white"/>
<path opacity="0.66" d="M535.96 683.426H529.932V689.461H535.96V683.426Z" fill="white"/>
<path opacity="0.7" d="M543.883 683.426H537.855V689.461H543.883V683.426Z" fill="white"/>
<path opacity="0.94" d="M551.979 683.426H545.95V689.461H551.979V683.426Z" fill="white"/>
<path opacity="0.5" d="M560.074 683.426H554.045V689.461H560.074V683.426Z" fill="white"/>
<path opacity="0.12" d="M568.169 683.426H562.141V689.461H568.169V683.426Z" fill="white"/>
<path opacity="0.36" d="M576.092 683.426H570.064V689.461H576.092V683.426Z" fill="white"/>
<path opacity="0.51" d="M584.187 683.426H578.159V689.461H584.187V683.426Z" fill="white"/>
<path opacity="0.37" d="M592.283 683.426H586.254V689.461H592.283V683.426Z" fill="white"/>
<path opacity="0.66" d="M600.206 683.426H594.177V689.461H600.206V683.426Z" fill="white"/>
<path opacity="0.42" d="M608.301 683.426H602.273V689.461H608.301V683.426Z" fill="white"/>
<path opacity="0.5" d="M616.396 683.426H610.368V689.461H616.396V683.426Z" fill="white"/>
<path opacity="0.52" d="M535.96 691.358H529.932V697.394H535.96V691.358Z" fill="white"/>
<path opacity="0.61" d="M543.883 691.358H537.855V697.394H543.883V691.358Z" fill="white"/>
<path opacity="0.84" d="M551.979 691.358H545.95V697.394H551.979V691.358Z" fill="white"/>
<path opacity="0.89" d="M560.074 691.358H554.045V697.394H560.074V691.358Z" fill="white"/>
<path opacity="0.33" d="M568.169 691.358H562.141V697.394H568.169V691.358Z" fill="white"/>
<path opacity="0.25" d="M576.092 691.358H570.064V697.394H576.092V691.358Z" fill="white"/>
<path opacity="0.95" d="M584.187 691.358H578.159V697.394H584.187V691.358Z" fill="white"/>
<path opacity="0.09" d="M592.283 691.358H586.254V697.394H592.283V691.358Z" fill="white"/>
<path opacity="0.44" d="M600.206 691.358H594.177V697.394H600.206V691.358Z" fill="white"/>
<path opacity="0.51" d="M608.301 691.358H602.273V697.394H608.301V691.358Z" fill="white"/>
<path opacity="0.97" d="M616.396 691.358H610.368V697.394H616.396V691.358Z" fill="white"/>
<path opacity="0.26" d="M535.96 699.291H529.932V705.326H535.96V699.291Z" fill="white"/>
<path opacity="0.92" d="M543.883 699.291H537.855V705.326H543.883V699.291Z" fill="white"/>
<path opacity="0.33" d="M551.979 699.291H545.95V705.326H551.979V699.291Z" fill="white"/>
<path opacity="0.23" d="M560.074 699.291H554.045V705.326H560.074V699.291Z" fill="white"/>
<path opacity="0.42" d="M568.169 699.291H562.141V705.326H568.169V699.291Z" fill="white"/>
<path opacity="0.57" d="M576.092 699.291H570.064V705.326H576.092V699.291Z" fill="white"/>
<path opacity="0.73" d="M584.187 699.291H578.159V705.326H584.187V699.291Z" fill="white"/>
<path opacity="0.87" d="M592.283 699.291H586.254V705.326H592.283V699.291Z" fill="white"/>
<path opacity="0.22" d="M600.206 699.291H594.177V705.326H600.206V699.291Z" fill="white"/>
<path opacity="0.89" d="M608.301 699.291H602.273V705.326H608.301V699.291Z" fill="white"/>
<path opacity="0.73" d="M616.396 699.291H610.368V705.326H616.396V699.291Z" fill="white"/>
<path opacity="0.35" d="M535.96 707.223H529.932V713.259H535.96V707.223Z" fill="white"/>
<path opacity="0.81" d="M543.883 707.223H537.855V713.259H543.883V707.223Z" fill="white"/>
<path opacity="0.56" d="M551.979 707.223H545.95V713.259H551.979V707.223Z" fill="white"/>
<path opacity="0.81" d="M560.074 707.223H554.045V713.259H560.074V707.223Z" fill="white"/>
<path opacity="0.87" d="M568.169 707.223H562.141V713.259H568.169V707.223Z" fill="white"/>
<path opacity="0.39" d="M576.092 707.223H570.064V713.259H576.092V707.223Z" fill="white"/>
<path opacity="0.31" d="M584.187 707.223H578.159V713.259H584.187V707.223Z" fill="white"/>
<path opacity="0.98" d="M592.283 707.223H586.254V713.259H592.283V707.223Z" fill="white"/>
<path opacity="0.17" d="M600.206 707.223H594.177V713.259H600.206V707.223Z" fill="white"/>
<path opacity="0.06" d="M608.301 707.223H602.273V713.259H608.301V707.223Z" fill="white"/>
<path opacity="0.57" d="M616.396 707.223H610.368V713.259H616.396V707.223Z" fill="white"/>
<path opacity="0.67" d="M535.96 715.156H529.932V721.191H535.96V715.156Z" fill="white"/>
<path opacity="0.83" d="M543.883 715.156H537.855V721.191H543.883V715.156Z" fill="white"/>
<path opacity="0.99" d="M551.979 715.156H545.95V721.191H551.979V715.156Z" fill="white"/>
<path opacity="0.62" d="M560.074 715.156H554.045V721.191H560.074V715.156Z" fill="white"/>
<path opacity="0.87" d="M568.169 715.156H562.141V721.191H568.169V715.156Z" fill="white"/>
<path opacity="0.14" d="M576.092 715.156H570.064V721.191H576.092V715.156Z" fill="white"/>
<path opacity="0.12" d="M584.187 715.156H578.159V721.191H584.187V715.156Z" fill="white"/>
<path opacity="0.11" d="M592.283 715.156H586.254V721.191H592.283V715.156Z" fill="white"/>
<path opacity="0.39" d="M600.206 715.156H594.177V721.191H600.206V715.156Z" fill="white"/>
<path opacity="0.58" d="M608.301 715.156H602.273V721.191H608.301V715.156Z" fill="white"/>
<path opacity="0.54" d="M616.396 715.156H610.368V721.191H616.396V715.156Z" fill="white"/>
<path opacity="0.99" d="M535.96 723.088H529.932V729.124H535.96V723.088Z" fill="white"/>
<path opacity="0.28" d="M543.883 723.088H537.855V729.124H543.883V723.088Z" fill="white"/>
<path opacity="0.78" d="M551.979 723.088H545.95V729.124H551.979V723.088Z" fill="white"/>
<path opacity="0.65" d="M560.074 723.088H554.045V729.124H560.074V723.088Z" fill="white"/>
<path opacity="0.32" d="M568.169 723.088H562.141V729.124H568.169V723.088Z" fill="white"/>
<path opacity="0.55" d="M576.092 723.088H570.064V729.124H576.092V723.088Z" fill="white"/>
<path opacity="0.4" d="M584.187 723.088H578.159V729.124H584.187V723.088Z" fill="white"/>
<path opacity="0.22" d="M592.283 723.088H586.254V729.124H592.283V723.088Z" fill="white"/>
<path opacity="0.87" d="M600.206 723.088H594.177V729.124H600.206V723.088Z" fill="white"/>
<path opacity="0.02" d="M608.301 723.088H602.273V729.124H608.301V723.088Z" fill="white"/>
<path opacity="0.39" d="M616.396 723.088H610.368V729.124H616.396V723.088Z" fill="white"/>
<path opacity="0.89" d="M535.96 731.021H529.932V737.056H535.96V731.021Z" fill="white"/>
<path opacity="0.97" d="M543.883 731.021H537.855V737.056H543.883V731.021Z" fill="white"/>
<path opacity="0.79" d="M551.979 731.021H545.95V737.056H551.979V731.021Z" fill="white"/>
<path opacity="0.41" d="M560.074 731.021H554.045V737.056H560.074V731.021Z" fill="white"/>
<path opacity="0.13" d="M568.169 731.021H562.141V737.056H568.169V731.021Z" fill="white"/>
<path opacity="0.9" d="M576.092 731.021H570.064V737.056H576.092V731.021Z" fill="white"/>
<path opacity="0.98" d="M584.187 731.021H578.159V737.056H584.187V731.021Z" fill="white"/>
<path opacity="0.67" d="M592.283 731.021H586.254V737.056H592.283V731.021Z" fill="white"/>
<path opacity="0.65" d="M600.206 731.021H594.177V737.056H600.206V731.021Z" fill="white"/>
<path opacity="0.89" d="M608.301 731.021H602.273V737.056H608.301V731.021Z" fill="white"/>
<path opacity="0.98" d="M616.396 731.021H610.368V737.056H616.396V731.021Z" fill="white"/>
<path opacity="0.29" d="M535.96 738.953H529.932V744.989H535.96V738.953Z" fill="white"/>
<path opacity="0.74" d="M543.883 738.953H537.855V744.989H543.883V738.953Z" fill="white"/>
<path opacity="0.64" d="M551.979 738.953H545.95V744.989H551.979V738.953Z" fill="white"/>
<path opacity="0.65" d="M560.074 738.953H554.045V744.989H560.074V738.953Z" fill="white"/>
<path opacity="0.07" d="M568.169 738.953H562.141V744.989H568.169V738.953Z" fill="white"/>
<path opacity="0.16" d="M576.092 738.953H570.064V744.989H576.092V738.953Z" fill="white"/>
<path opacity="0.84" d="M584.187 738.953H578.159V744.989H584.187V738.953Z" fill="white"/>
<path opacity="0.88" d="M592.283 738.953H586.254V744.989H592.283V738.953Z" fill="white"/>
<path opacity="0.57" d="M600.206 738.953H594.177V744.989H600.206V738.953Z" fill="white"/>
<path opacity="0.31" d="M608.301 738.953H602.273V744.989H608.301V738.953Z" fill="white"/>
<path opacity="0.03" d="M616.396 738.953H610.368V744.989H616.396V738.953Z" fill="white"/>
<path opacity="0.3" d="M535.96 746.885H529.932V752.921H535.96V746.885Z" fill="white"/>
<path opacity="0.59" d="M543.883 746.885H537.855V752.921H543.883V746.885Z" fill="white"/>
<path opacity="0.93" d="M551.979 746.885H545.95V752.921H551.979V746.885Z" fill="white"/>
<path opacity="0.06" d="M560.074 746.885H554.045V752.921H560.074V746.885Z" fill="white"/>
<path opacity="0.74" d="M568.169 746.885H562.141V752.921H568.169V746.885Z" fill="white"/>
<path opacity="0.22" d="M576.092 746.885H570.064V752.921H576.092V746.885Z" fill="white"/>
<path opacity="0.51" d="M584.187 746.885H578.159V752.921H584.187V746.885Z" fill="white"/>
<path opacity="0.7" d="M592.283 746.885H586.254V752.921H592.283V746.885Z" fill="white"/>
<path opacity="0.47" d="M600.206 746.885H594.177V752.921H600.206V746.885Z" fill="white"/>
<path opacity="0.08" d="M608.301 746.885H602.273V752.921H608.301V746.885Z" fill="white"/>
<path opacity="0.93" d="M616.396 746.885H610.368V752.921H616.396V746.885Z" fill="white"/>
<path opacity="0.81" d="M535.96 754.818H529.932V760.854H535.96V754.818Z" fill="white"/>
<path opacity="0.9" d="M543.883 754.818H537.855V760.854H543.883V754.818Z" fill="white"/>
<path opacity="0.55" d="M551.979 754.818H545.95V760.854H551.979V754.818Z" fill="white"/>
<path opacity="0.14" d="M560.074 754.818H554.045V760.854H560.074V754.818Z" fill="white"/>
<path opacity="0.66" d="M568.169 754.818H562.141V760.854H568.169V754.818Z" fill="white"/>
<path opacity="0.92" d="M576.092 754.818H570.064V760.854H576.092V754.818Z" fill="white"/>
<path opacity="0.4" d="M584.187 754.818H578.159V760.854H584.187V754.818Z" fill="white"/>
<path opacity="0.6" d="M592.283 754.818H586.254V760.854H592.283V754.818Z" fill="white"/>
<path opacity="0.99" d="M600.206 754.818H594.177V760.854H600.206V754.818Z" fill="white"/>
<path opacity="0.68" d="M608.301 754.818H602.273V760.854H608.301V754.818Z" fill="white"/>
<path opacity="0.01" d="M616.396 754.818H610.368V760.854H616.396V754.818Z" fill="white"/>
<path opacity="0.82" d="M535.96 762.75H529.932V768.786H535.96V762.75Z" fill="white"/>
<path opacity="0.92" d="M543.883 762.75H537.855V768.786H543.883V762.75Z" fill="white"/>
<path opacity="0.29" d="M551.979 762.75H545.95V768.786H551.979V762.75Z" fill="white"/>
<path opacity="0.73" d="M560.074 762.75H554.045V768.786H560.074V762.75Z" fill="white"/>
<path opacity="0.42" d="M568.169 762.75H562.141V768.786H568.169V762.75Z" fill="white"/>
<path opacity="0.06" d="M576.092 762.75H570.064V768.786H576.092V762.75Z" fill="white"/>
<path opacity="0.7" d="M584.187 762.75H578.159V768.786H584.187V762.75Z" fill="white"/>
<path opacity="0.97" d="M592.283 762.75H586.254V768.786H592.283V762.75Z" fill="white"/>
<path opacity="0.51" d="M600.206 762.75H594.177V768.786H600.206V762.75Z" fill="white"/>
<path opacity="0.69" d="M608.301 762.75H602.273V768.786H608.301V762.75Z" fill="white"/>
<path opacity="0.49" d="M616.396 762.75H610.368V768.786H616.396V762.75Z" fill="white"/>
<path opacity="0.45" d="M535.96 770.683H529.932V776.718H535.96V770.683Z" fill="white"/>
<path opacity="0.46" d="M543.883 770.683H537.855V776.718H543.883V770.683Z" fill="white"/>
<path opacity="0.04" d="M551.979 770.683H545.95V776.718H551.979V770.683Z" fill="white"/>
<path opacity="0.56" d="M560.074 770.683H554.045V776.718H560.074V770.683Z" fill="white"/>
<path opacity="0.4" d="M568.169 770.683H562.141V776.718H568.169V770.683Z" fill="white"/>
<path opacity="0.59" d="M576.092 770.683H570.064V776.718H576.092V770.683Z" fill="white"/>
<path opacity="0.82" d="M584.187 770.683H578.159V776.718H584.187V770.683Z" fill="white"/>
<path opacity="0.99" d="M592.283 770.683H586.254V776.718H592.283V770.683Z" fill="white"/>
<path opacity="0.1" d="M600.206 770.683H594.177V776.718H600.206V770.683Z" fill="white"/>
<path opacity="0.87" d="M608.301 770.683H602.273V776.718H608.301V770.683Z" fill="white"/>
<path d="M616.396 770.683H610.368V776.718H616.396V770.683Z" fill="white"/>
<path d="M434.166 596.859H377.327V775.167H434.166V596.859Z" fill="#333333"/>
<path d="M403.163 587.892H377.327V597.894H403.163V587.892Z" fill="#333333"/>
<path d="M392.312 582.029H377.327V587.892H392.312V582.029Z" fill="#333333"/>
<path opacity="0.25" d="M410.225 609.448H400.924V618.76H410.225V609.448Z" fill="white"/>
<path opacity="0.15" d="M410.225 632.383H400.924V641.695H410.225V632.383Z" fill="white"/>
<path opacity="0.19" d="M410.225 678.08H400.924V687.392H410.225V678.08Z" fill="white"/>
<path opacity="0.17" d="M410.225 700.843H400.924V710.155H410.225V700.843Z" fill="white"/>
<path opacity="0.22" d="M410.225 723.606H400.924V732.918H410.225V723.606Z" fill="white"/>
<path d="M410.225 746.541H400.924V755.853H410.225V746.541Z" fill="white"/>
<path d="M391.967 696.187H338.745V711.879H391.967V696.187Z" fill="#333333"/>
<path d="M418.492 696.187H391.967V711.879H418.492V696.187Z" fill="#4D4D4D"/>
<path d="M338.745 696.187L355.28 688.255L391.967 696.187H338.745Z" fill="#333333"/>
<path d="M355.28 688.255L391.967 696.187H418.492L355.28 688.255Z" fill="#4D4D4D"/>
<path d="M404.369 707.223H326.516V778.615H404.369V707.223Z" fill="#333333"/>
<path d="M430.205 707.223H404.369V778.615H430.205V707.223Z" fill="#4D4D4D"/>
<path opacity="0.81" d="M424.176 712.224H410.225V717.398H424.176V712.224Z" fill="white"/>
<path opacity="0.76" d="M424.176 721.709H410.225V726.882H424.176V721.709Z" fill="white"/>
<path opacity="0.32" d="M424.176 731.193H410.225V736.367H424.176V731.193Z" fill="white"/>
<path opacity="0.49" d="M424.176 740.85H410.225V746.023H424.176V740.85Z" fill="white"/>
<path opacity="0.99" d="M424.176 759.819H410.225V764.992H424.176V759.819Z" fill="white"/>
<path opacity="0.1" d="M352.869 712.224H338.917V717.398H352.869V712.224Z" fill="white"/>
<path opacity="0.04" d="M372.332 712.224H358.38V717.398H372.332V712.224Z" fill="white"/>
<path opacity="0.07" d="M391.967 712.224H378.016V717.398H391.967V712.224Z" fill="white"/>
<path opacity="0.06" d="M352.869 721.709H338.917V726.882H352.869V721.709Z" fill="white"/>
<path opacity="0.44" d="M372.332 721.709H358.38V726.882H372.332V721.709Z" fill="white"/>
<path opacity="0.24" d="M391.967 721.709H378.016V726.882H391.967V721.709Z" fill="white"/>
<path opacity="0.55" d="M352.869 731.193H338.917V736.367H352.869V731.193Z" fill="white"/>
<path opacity="0.02" d="M372.332 731.193H358.38V736.367H372.332V731.193Z" fill="white"/>
<path opacity="0.14" d="M391.967 731.193H378.016V736.367H391.967V731.193Z" fill="white"/>
<path opacity="0.43" d="M352.869 740.85H338.917V746.023H352.869V740.85Z" fill="white"/>
<path opacity="0.41" d="M372.332 740.85H358.38V746.023H372.332V740.85Z" fill="white"/>
<path opacity="0.46" d="M391.967 740.85H378.016V746.023H391.967V740.85Z" fill="white"/>
<path opacity="0.45" d="M352.869 750.335H338.917V755.508H352.869V750.335Z" fill="white"/>
<path opacity="0.33" d="M372.332 750.335H358.38V755.508H372.332V750.335Z" fill="white"/>
<path opacity="0.05" d="M391.967 750.335H378.016V755.508H391.967V750.335Z" fill="white"/>
<path opacity="0.27" d="M352.869 759.819H338.917V764.993H352.869V759.819Z" fill="white"/>
<path opacity="0.15" d="M372.332 759.819H358.38V764.993H372.332V759.819Z" fill="white"/>
<path opacity="0.7" d="M391.967 759.819H378.016V764.993H391.967V759.819Z" fill="white"/>
<path d="M25.6116 635.832H-22.6158V784.651H25.6116V635.832Z" fill="#333333"/>
<path d="M80.5562 635.832H25.7837V784.651H80.5562V635.832Z" fill="#4D4D4D"/>
<path d="M25.6116 648.42H-22.6158V651.007H25.6116V648.42Z" fill="#4D4D4D"/>
<path d="M80.5562 648.42H25.7837V651.007H80.5562V648.42Z" fill="#333333"/>
<path opacity="0.32" d="M0.636699 653.939H-4.53058V659.112H0.636699V653.939Z" fill="white"/>
<path opacity="0.25" d="M7.69856 653.939H2.53131V659.112H7.69856V653.939Z" fill="white"/>
<path opacity="0.12" d="M21.8223 653.939H16.655V659.112H21.8223V653.939Z" fill="white"/>
<path opacity="0.22" d="M0.636699 661.009H-4.53058V666.182H0.636699V661.009Z" fill="white"/>
<path opacity="0.47" d="M7.69856 661.009H2.53131V666.182H7.69856V661.009Z" fill="white"/>
<path opacity="0.22" d="M14.7604 661.009H9.5932V666.182H14.7604V661.009Z" fill="white"/>
<path opacity="0.32" d="M21.8223 661.009H16.655V666.182H21.8223V661.009Z" fill="white"/>
<path opacity="0.18" d="M0.636699 668.079H-4.53058V673.252H0.636699V668.079Z" fill="white"/>
<path opacity="0.28" d="M7.69856 668.079H2.53131V673.252H7.69856V668.079Z" fill="white"/>
<path opacity="0.2" d="M21.8223 668.079H16.655V673.252H21.8223V668.079Z" fill="white"/>
<path opacity="0.33" d="M0.636699 675.149H-4.53058V680.323H0.636699V675.149Z" fill="white"/>
<path opacity="0.05" d="M7.69856 675.149H2.53131V680.323H7.69856V675.149Z" fill="white"/>
<path opacity="0.08" d="M14.7604 675.149H9.5932V680.323H14.7604V675.149Z" fill="white"/>
<path opacity="0.08" d="M7.69856 682.219H2.53131V687.393H7.69856V682.219Z" fill="white"/>
<path opacity="0.02" d="M14.7604 682.219H9.5932V687.393H14.7604V682.219Z" fill="white"/>
<path opacity="0.05" d="M0.636699 689.29H-4.53058V694.463H0.636699V689.29Z" fill="white"/>
<path opacity="0.2" d="M7.69856 689.29H2.53131V694.463H7.69856V689.29Z" fill="white"/>
<path opacity="0.23" d="M14.7604 689.29H9.5932V694.463H14.7604V689.29Z" fill="white"/>
<path opacity="0.14" d="M0.636699 696.36H-4.53058V701.533H0.636699V696.36Z" fill="white"/>
<path opacity="0.24" d="M14.7604 696.36H9.5932V701.533H14.7604V696.36Z" fill="white"/>
<path opacity="0.23" d="M0.636699 703.43H-4.53058V708.603H0.636699V703.43Z" fill="white"/>
<path opacity="0.02" d="M7.69856 703.43H2.53131V708.603H7.69856V703.43Z" fill="white"/>
<path opacity="0.04" d="M14.7604 703.43H9.5932V708.603H14.7604V703.43Z" fill="white"/>
<path opacity="0.3" d="M21.8223 703.43H16.655V708.603H21.8223V703.43Z" fill="white"/>
<path opacity="0.4" d="M21.8223 710.328H16.655V715.501H21.8223V710.328Z" fill="white"/>
<path opacity="0.12" d="M0.636699 717.398H-4.53058V722.572H0.636699V717.398Z" fill="white"/>
<path opacity="0.19" d="M14.7604 717.398H9.5932V722.572H14.7604V717.398Z" fill="white"/>
<path opacity="0.43" d="M21.8223 717.398H16.655V722.572H21.8223V717.398Z" fill="white"/>
<path opacity="0.42" d="M7.69856 724.468H2.53131V729.642H7.69856V724.468Z" fill="white"/>
<path opacity="0.31" d="M21.8223 724.468H16.655V729.642H21.8223V724.468Z" fill="white"/>
<path opacity="0.31" d="M7.69856 731.539H2.53131V736.712H7.69856V731.539Z" fill="white"/>
<path opacity="0.33" d="M21.8223 731.539H16.655V736.712H21.8223V731.539Z" fill="white"/>
<path opacity="0.17" d="M7.69856 738.609H2.53131V743.782H7.69856V738.609Z" fill="white"/>
<path opacity="0.01" d="M14.7604 738.609H9.5932V743.782H14.7604V738.609Z" fill="white"/>
<path opacity="0.48" d="M21.8223 738.609H16.655V743.782H21.8223V738.609Z" fill="white"/>
<path opacity="0.28" d="M0.636699 745.679H-4.53058V750.852H0.636699V745.679Z" fill="white"/>
<path opacity="0.02" d="M7.69856 745.679H2.53131V750.852H7.69856V745.679Z" fill="white"/>
<path opacity="0.17" d="M14.7604 745.679H9.5932V750.852H14.7604V745.679Z" fill="white"/>
<path opacity="0.42" d="M21.8223 745.679H16.655V750.852H21.8223V745.679Z" fill="white"/>
<path opacity="0.11" d="M0.636699 752.749H-4.53058V757.923H0.636699V752.749Z" fill="white"/>
<path opacity="0.02" d="M7.69856 752.749H2.53131V757.923H7.69856V752.749Z" fill="white"/>
<path opacity="0.3" d="M21.8223 752.749H16.655V757.923H21.8223V752.749Z" fill="white"/>
<path opacity="0.19" d="M0.636699 759.82H-4.53058V764.993H0.636699V759.82Z" fill="white"/>
<path opacity="0.05" d="M7.69856 759.82H2.53131V764.993H7.69856V759.82Z" fill="white"/>
<path opacity="0.2" d="M21.8223 759.82H16.655V764.993H21.8223V759.82Z" fill="white"/>
<path opacity="0.27" d="M7.69856 766.89H2.53131V772.063H7.69856V766.89Z" fill="white"/>
<path opacity="0.13" d="M14.7604 766.89H9.5932V772.063H14.7604V766.89Z" fill="white"/>
<path opacity="0.46" d="M0.636699 773.96H-4.53058V779.133H0.636699V773.96Z" fill="white"/>
<path opacity="0.12" d="M7.69856 773.96H2.53131V779.133H7.69856V773.96Z" fill="white"/>
<path opacity="0.04" d="M14.7604 773.96H9.5932V779.133H14.7604V773.96Z" fill="white"/>
<path opacity="0.3" d="M21.8223 773.96H16.655V779.133H21.8223V773.96Z" fill="white"/>
<path opacity="0.08" d="M14.7604 653.939H9.5932V659.112H14.7604V653.939Z" fill="white"/>
<path opacity="0.08" d="M14.7604 668.079H9.5932V673.252H14.7604V668.079Z" fill="white"/>
<path opacity="0.01" d="M21.8223 675.149H16.655V680.323H21.8223V675.149Z" fill="white"/>
<path opacity="0.15" d="M0.636699 682.219H-4.53058V687.393H0.636699V682.219Z" fill="white"/>
<path opacity="0.12" d="M21.8223 682.219H16.655V687.393H21.8223V682.219Z" fill="white"/>
<path opacity="0.13" d="M7.69856 696.36H2.53131V701.533H7.69856V696.36Z" fill="white"/>
<path opacity="0.07" d="M21.8223 696.36H16.655V701.533H21.8223V696.36Z" fill="white"/>
<path opacity="0.02" d="M0.636699 710.328H-4.53058V715.501H0.636699V710.328Z" fill="white"/>
<path opacity="0.02" d="M7.69856 710.328H2.53131V715.501H7.69856V710.328Z" fill="white"/>
<path opacity="0.14" d="M14.7604 710.328H9.5932V715.501H14.7604V710.328Z" fill="white"/>
<path opacity="0.09" d="M0.636699 724.468H-4.53058V729.642H0.636699V724.468Z" fill="white"/>
<path opacity="0.02" d="M14.7604 724.468H9.5932V729.642H14.7604V724.468Z" fill="white"/>
<path opacity="0.19" d="M0.636699 731.539H-4.53058V736.712H0.636699V731.539Z" fill="white"/>
<path opacity="0.06" d="M14.7604 731.539H9.5932V736.712H14.7604V731.539Z" fill="white"/>
<path opacity="0.16" d="M0.636699 738.609H-4.53058V743.782H0.636699V738.609Z" fill="white"/>
<path opacity="0.04" d="M14.7604 752.749H9.5932V757.923H14.7604V752.749Z" fill="white"/>
<path opacity="0.04" d="M14.7604 759.82H9.5932V764.993H14.7604V759.82Z" fill="white"/>
<path opacity="0.18" d="M21.8223 766.89H16.655V772.063H21.8223V766.89Z" fill="white"/>
<g opacity="0.7">
<path opacity="0.7" d="M36.1182 651.007H30.7787V778.098H36.1182V651.007Z" fill="#E6E6E6"/>
<path opacity="0.7" d="M45.2469 651.007H39.9075V778.098H45.2469V651.007Z" fill="#E6E6E6"/>
<path opacity="0.7" d="M54.548 651.007H49.2086V778.098H54.548V651.007Z" fill="#E6E6E6"/>
<path opacity="0.7" d="M63.8489 651.007H58.5095V778.098H63.8489V651.007Z" fill="#E6E6E6"/>
<path opacity="0.7" d="M73.1499 651.007H67.8105V778.098H73.1499V651.007Z" fill="#E6E6E6"/>
</g>
<path d="M108.115 778.099H0.981201L108.115 684.634V778.099Z" fill="#333333"/>
<path d="M98.9861 761.544H62.1266V782.237H98.9861V761.544Z" fill="#4D4D4D"/>
<path d="M96.2302 756.716H64.8825V766.373H96.2302V756.716Z" fill="#4D4D4D"/>
<path d="M92.6132 759.647H68.3273L76.767 745.507H84.1734L92.6132 759.647Z" fill="#4D4D4D"/>
<path d="M89.1684 765.683H71.9443V778.271H89.1684V765.683Z" fill="white"/>
<path d="M91.2352 770.684H69.8774V773.27H91.2352V770.684Z" fill="#4D4D4D"/>
<path d="M263.476 795.515C263.992 808.966 253.658 820.52 240.051 821.037C226.616 821.554 215.076 811.035 214.56 797.585C214.043 784.134 224.377 772.58 237.984 772.063C251.419 771.546 262.787 782.065 263.476 795.515Z" fill="#333333"/>
<path d="M259.342 788.79C259.686 796.55 253.658 803.103 245.907 803.448C238.156 803.793 231.611 797.757 231.267 789.997C230.922 782.237 236.951 775.684 244.702 775.339C252.452 774.994 258.998 781.03 259.342 788.79Z" fill="#4D4D4D"/>
<path d="M17.5163 770.166C17.5163 773.443 14.7604 776.202 11.4878 776.202C8.21527 776.202 5.45941 773.443 5.45941 770.166C5.45941 766.89 8.21527 764.131 11.4878 764.131C14.7604 764.131 17.5163 766.717 17.5163 770.166Z" fill="#333333"/>
<path d="M19.5832 776.202C19.5832 780.685 15.9662 784.307 11.4879 784.307C7.00965 784.307 3.39258 780.685 3.39258 776.202C3.39258 771.718 7.00965 768.097 11.4879 768.097C15.9662 768.097 19.5832 771.718 19.5832 776.202Z" fill="#333333"/>
<path d="M15.4494 764.993C15.4494 767.235 13.727 769.132 11.4879 769.132C9.24877 769.132 7.52637 767.235 7.52637 764.993C7.52637 762.751 9.24877 760.854 11.4879 760.854C13.727 760.854 15.4494 762.751 15.4494 764.993Z" fill="#333333"/>
<path d="M16.6551 770.166C16.6551 772.063 15.1049 773.615 13.2103 773.615C11.3157 773.615 9.7655 772.063 9.7655 770.166C9.7655 768.269 11.3157 766.717 13.2103 766.717C15.1049 766.717 16.6551 768.269 16.6551 770.166Z" fill="#4D4D4D"/>
<path d="M14.9327 765.51C14.9327 766.89 13.727 768.097 12.3491 768.097C10.9712 768.097 9.7655 766.89 9.7655 765.51C9.7655 764.131 10.9712 762.923 12.3491 762.923C13.727 762.751 14.9327 763.958 14.9327 765.51Z" fill="#4D4D4D"/>
<path d="M132.401 782.754C132.401 787.066 128.784 790.687 124.478 790.687C120.172 790.687 116.555 787.066 116.555 782.754C116.555 778.443 119.999 774.822 124.478 774.822C128.784 774.822 132.401 778.443 132.401 782.754Z" fill="#333333"/>
<path d="M129.645 776.029C129.645 778.961 127.406 781.375 124.478 781.375C121.55 781.375 119.31 778.961 119.31 776.029C119.31 773.098 121.55 770.683 124.478 770.683C127.234 770.683 129.645 773.098 129.645 776.029Z" fill="#333333"/>
<path d="M128.956 776.546C128.956 778.443 127.406 779.995 125.511 779.995C123.616 779.995 122.066 778.443 122.066 776.546C122.066 774.649 123.616 773.097 125.511 773.097C127.406 773.097 128.956 774.649 128.956 776.546Z" fill="#4D4D4D"/>
<path d="M121.722 788.618C120.861 796.895 113.454 802.758 105.359 801.896C97.0914 801.034 91.2352 793.619 92.0964 785.514C92.9576 777.236 100.364 771.373 108.459 772.236C116.555 773.098 122.583 780.34 121.722 788.618Z" fill="#333333"/>
<path d="M117.933 775.34C117.416 780.858 112.593 784.997 107.081 784.479C101.742 783.962 97.7804 778.961 98.2971 773.443C98.8138 767.925 103.637 763.786 109.148 764.303C114.66 764.821 118.449 769.821 117.933 775.34Z" fill="#333333"/>
<path d="M116.555 776.374C116.21 779.996 112.938 782.582 109.493 782.237C105.876 781.892 103.292 778.616 103.637 775.167C103.981 771.546 107.254 768.959 110.698 769.304C114.316 769.649 116.899 772.925 116.555 776.374Z" fill="#4D4D4D"/>
<path d="M199.747 781.375C199.747 788.963 193.718 794.998 186.14 794.998C178.561 794.998 172.533 788.963 172.533 781.375C172.533 773.787 178.561 767.752 186.14 767.752C193.546 767.752 199.747 773.787 199.747 781.375Z" fill="#333333"/>
<path d="M194.924 769.649C194.924 774.822 190.962 778.961 185.968 778.961C180.973 778.961 177.011 774.822 177.011 769.649C177.011 764.475 180.973 760.337 185.968 760.337C190.962 760.509 194.924 764.648 194.924 769.649Z" fill="#333333"/>
<path d="M197.68 781.375C197.68 785.686 194.235 789.307 189.757 789.307C185.451 789.307 181.834 785.859 181.834 781.375C181.834 777.064 185.279 773.443 189.757 773.443C194.063 773.615 197.68 777.064 197.68 781.375Z" fill="#4D4D4D"/>
<path d="M193.718 770.856C193.718 774.132 191.135 776.891 187.69 776.891C184.417 776.891 181.662 774.305 181.662 770.856C181.662 767.579 184.245 764.993 187.69 764.993C191.135 764.82 193.718 767.579 193.718 770.856Z" fill="#4D4D4D"/>
<path d="M169.605 792.756C169.605 802.413 161.682 810.345 152.036 810.345C142.391 810.345 134.468 802.413 134.468 792.756C134.468 783.099 142.391 775.167 152.036 775.167C161.682 775.167 169.605 782.927 169.605 792.756Z" fill="#333333"/>
<path d="M163.576 777.581C163.576 784.134 158.409 789.48 152.036 789.48C145.663 789.48 140.496 784.134 140.496 777.581C140.496 771.028 145.663 765.682 152.036 765.682C158.409 765.682 163.576 771.028 163.576 777.581Z" fill="#333333"/>
<path d="M162.026 779.133C162.026 783.444 158.581 786.721 154.275 786.721C149.969 786.721 146.524 783.272 146.524 779.133C146.524 774.822 149.969 771.373 154.275 771.373C158.581 771.373 162.026 774.822 162.026 779.133Z" fill="#4D4D4D"/>
<path d="M212.148 779.65C212.148 781.72 210.598 783.272 208.703 783.272C206.809 783.272 205.258 781.72 205.258 779.65C205.258 777.581 206.809 776.029 208.703 776.029C210.598 776.029 212.148 777.581 212.148 779.65Z" fill="#333333"/>
<path d="M286.212 775.34C286.212 782.065 280.872 787.411 274.155 787.411C267.437 787.411 262.098 782.065 262.098 775.34C262.098 768.614 267.437 763.268 274.155 763.268C280.872 763.268 286.212 768.614 286.212 775.34Z" fill="#333333"/>
<path d="M290.345 787.411C290.345 796.378 283.111 803.621 274.155 803.621C265.198 803.621 257.964 796.378 257.964 787.411C257.964 778.444 265.198 771.201 274.155 771.201C283.111 771.201 290.345 778.444 290.345 787.411Z" fill="#333333"/>
<path d="M282.078 764.993C282.078 769.477 278.461 773.27 274.155 773.27C269.849 773.27 266.232 769.649 266.232 764.993C266.232 760.509 269.849 756.716 274.155 756.716C278.461 756.716 282.078 760.509 282.078 764.993Z" fill="#333333"/>
<path d="M284.317 775.34C284.317 779.133 281.217 782.237 277.427 782.237C273.638 782.237 270.538 779.133 270.538 775.34C270.538 771.546 273.638 768.442 277.427 768.442C281.217 768.442 284.317 771.546 284.317 775.34Z" fill="#4D4D4D"/>
<path d="M281.044 766.028C281.044 768.959 278.633 771.373 275.705 771.373C272.777 771.373 270.365 768.959 270.365 766.028C270.365 763.096 272.777 760.682 275.705 760.682C278.633 760.682 281.044 763.096 281.044 766.028Z" fill="#4D4D4D"/>
<path d="M331.166 790.515C331.166 799.482 323.932 806.724 314.976 806.724C306.019 806.724 298.785 799.482 298.785 790.515C298.785 781.548 306.019 774.305 314.976 774.305C323.932 774.477 331.166 781.72 331.166 790.515Z" fill="#333333"/>
<path d="M325.482 776.719C325.482 782.755 320.66 787.756 314.976 787.756C309.119 787.756 304.297 782.927 304.297 776.719C304.297 770.684 309.119 765.855 314.976 765.855C320.832 765.855 325.482 770.684 325.482 776.719Z" fill="#333333"/>
<path d="M324.105 778.099C324.105 782.065 321.004 785.169 317.043 785.169C313.081 785.169 309.981 782.065 309.981 778.099C309.981 774.133 313.081 771.029 317.043 771.029C321.004 771.029 324.105 774.133 324.105 778.099Z" fill="#4D4D4D"/>
<path d="M594.694 797.068C594.694 811.898 582.81 823.797 567.997 823.797C553.184 823.797 541.3 811.898 541.3 797.068C541.3 782.237 553.184 770.339 567.997 770.339C582.81 770.339 594.694 782.41 594.694 797.068Z" fill="#333333"/>
<path d="M590.733 789.653C590.733 798.102 583.843 805 575.403 805C566.964 805 560.074 798.102 560.074 789.653C560.074 781.203 566.964 774.305 575.403 774.305C583.843 774.305 590.733 781.203 590.733 789.653Z" fill="#4D4D4D"/>
<path d="M628.97 785.514C628.97 797.93 618.808 808.104 606.407 808.104C594.005 808.104 583.843 797.93 583.843 785.514C583.843 773.098 594.005 762.924 606.407 762.924C618.98 762.924 628.97 772.925 628.97 785.514Z" fill="#333333"/>
<path d="M625.525 779.133C625.525 786.376 619.669 792.067 612.607 792.067C605.373 792.067 599.689 786.204 599.689 779.133C599.689 772.063 605.545 766.2 612.607 766.2C619.669 766.2 625.525 772.063 625.525 779.133Z" fill="#4D4D4D"/>
<path d="M571.442 789.135C571.442 801.551 561.28 811.725 548.878 811.725C536.477 811.725 526.315 801.551 526.315 789.135C526.315 776.719 536.477 766.545 548.878 766.545C561.452 766.545 571.442 776.546 571.442 789.135Z" fill="#333333"/>
<path d="M567.997 782.755C567.997 789.997 562.141 795.688 555.079 795.688C548.017 795.688 542.161 789.825 542.161 782.755C542.161 775.512 548.017 769.821 555.079 769.821C562.141 769.821 567.997 775.512 567.997 782.755Z" fill="#4D4D4D"/>
<path d="M501.857 794.309C501.857 806.725 491.695 816.899 479.293 816.899C466.892 816.899 456.73 806.725 456.73 794.309C456.73 781.893 466.892 771.719 479.293 771.719C491.867 771.719 501.857 781.893 501.857 794.309Z" fill="#333333"/>
<path d="M498.412 787.928C498.412 795.171 492.556 800.862 485.494 800.862C478.26 800.862 472.576 794.999 472.576 787.928C472.576 780.686 478.432 774.995 485.494 774.995C492.556 774.995 498.412 780.858 498.412 787.928Z" fill="#4D4D4D"/>
<path d="M474.643 790.515C474.643 802.931 464.48 813.105 452.079 813.105C439.678 813.105 429.516 802.931 429.516 790.515C429.516 778.099 439.678 767.925 452.079 767.925C464.48 767.925 474.643 777.926 474.643 790.515Z" fill="#333333"/>
<path d="M471.198 784.134C471.198 791.377 465.342 797.068 458.28 797.068C451.046 797.068 445.362 791.205 445.362 784.134C445.362 776.892 451.218 771.201 458.28 771.201C465.342 771.201 471.198 776.892 471.198 784.134Z" fill="#4D4D4D"/>
<path d="M492.211 786.893C492.211 794.136 486.355 799.826 479.293 799.826C472.059 799.826 466.375 793.963 466.375 786.893C466.375 779.65 472.231 773.96 479.293 773.96C486.527 773.96 492.211 779.823 492.211 786.893Z" fill="#4D4D4D"/>
<path d="M395.929 787.928C395.929 796.033 389.384 802.758 381.116 802.758C373.021 802.758 366.303 796.205 366.303 787.928C366.303 779.823 372.849 773.097 381.116 773.097C389.384 773.27 395.929 779.823 395.929 787.928Z" fill="#333333"/>
<path d="M393.69 783.789C393.69 788.445 389.9 792.239 385.25 792.239C380.599 792.239 376.81 788.445 376.81 783.789C376.81 779.133 380.599 775.339 385.25 775.339C389.9 775.339 393.69 779.133 393.69 783.789Z" fill="#4D4D4D"/>
<path d="M8.90427 776.202C8.90427 783.099 3.39255 788.618 -3.49707 788.618C-10.3867 788.618 -15.8984 783.099 -15.8984 776.202C-15.8984 769.304 -10.3867 763.786 -3.49707 763.786C3.22031 763.613 8.90427 769.304 8.90427 776.202Z" fill="#333333"/>
<path d="M13.038 788.618C13.038 797.93 5.63167 805.345 -3.6693 805.345C-12.9703 805.345 -20.3766 797.93 -20.3766 788.618C-20.3766 779.306 -12.9703 771.891 -3.6693 771.891C5.63167 771.891 13.038 779.306 13.038 788.618Z" fill="#333333"/>
<path d="M4.59826 765.51C4.59826 770.166 0.981204 773.96 -3.66929 773.96C-8.14754 773.96 -11.9368 770.166 -11.9368 765.51C-11.9368 760.854 -8.31978 757.06 -3.66929 757.06C0.981204 757.06 4.59826 760.854 4.59826 765.51Z" fill="#333333"/>
<path d="M7.00953 776.201C7.00953 780.168 3.73696 783.444 -0.224573 783.444C-4.18611 783.444 -7.45868 780.168 -7.45868 776.201C-7.45868 772.235 -4.18611 768.959 -0.224573 768.959C3.73696 768.959 7.00953 772.235 7.00953 776.201Z" fill="#4D4D4D"/>
<path d="M3.56475 766.545C3.56475 769.476 1.15338 772.063 -1.94696 772.063C-4.87507 772.063 -7.45868 769.649 -7.45868 766.545C-7.45868 763.613 -5.04731 761.027 -1.94696 761.027C0.981138 761.027 3.56475 763.441 3.56475 766.545Z" fill="#4D4D4D"/>
<path d="M67.6383 781.03C67.6383 786.549 63.16 791.032 57.6483 791.032C52.1366 791.032 47.6583 786.549 47.6583 781.03C47.6583 775.512 52.1366 771.029 57.6483 771.029C63.16 771.029 67.6383 775.512 67.6383 781.03Z" fill="#333333"/>
<path d="M64.1935 772.408C64.1935 776.202 61.2654 779.306 57.6483 779.306C54.0312 779.306 51.1031 776.202 51.1031 772.408C51.1031 768.614 54.0312 765.51 57.6483 765.51C61.2654 765.683 64.1935 768.614 64.1935 772.408Z" fill="#333333"/>
<path d="M66.088 781.03C66.088 784.307 63.5044 786.893 60.2319 786.893C56.9593 786.893 54.3757 784.307 54.3757 781.03C54.3757 777.926 56.9593 775.34 60.2319 775.34C63.5044 775.167 66.088 777.754 66.088 781.03Z" fill="#4D4D4D"/>
<path d="M63.3323 773.27C63.3323 775.685 61.4376 777.581 59.0262 777.581C56.6149 777.581 54.7202 775.685 54.7202 773.27C54.7202 770.856 56.6149 768.959 59.0262 768.959C61.4376 768.787 63.3323 770.856 63.3323 773.27Z" fill="#4D4D4D"/>
</g>
<defs>
<clipPath id="clip0_1_12798">
<rect width="1123.87" height="776" fill="white" transform="translate(-396.894 0.321777)"/>
</clipPath>
</defs>
</svg>
